<svg width="36" height="47" viewBox="0 0 36 47" fill="none" xmlns="http://www.w3.org/2000/svg">
<path d="M29.7778 32.1443H28.5613L30.7551 13.1999L31.5648 6.20757L35.0379 0H14.9306V1.36979H32.7019L30.2358 5.77784L29.3923 13.0616C29.3812 13.0599 29.3703 13.058 29.3592 13.0563C29.28 13.0438 29.2027 13.0307 29.1275 13.0168C29.1161 13.0147 29.1043 13.0127 29.093 13.0106C29.0113 12.9952 28.9322 12.9788 28.8545 12.9619C28.8371 12.958 28.8198 12.9542 28.8025 12.9502C28.7254 12.9329 28.6495 12.915 28.5759 12.8964C28.5722 12.8955 28.5686 12.8945 28.565 12.8936C28.493 12.8752 28.4226 12.8561 28.3534 12.8367C28.3384 12.8324 28.3233 12.8283 28.3085 12.8241C28.2391 12.8042 28.1706 12.784 28.1031 12.7633C28.0905 12.7594 28.078 12.7555 28.0655 12.7515C28.0038 12.7324 27.9425 12.7129 27.8818 12.6932C27.8715 12.6899 27.8613 12.6866 27.8511 12.6833C27.784 12.6613 27.7172 12.639 27.6506 12.6165C27.6334 12.6107 27.6162 12.6049 27.5989 12.5991C27.5356 12.5776 27.4725 12.5561 27.4089 12.5343C26.3662 12.1777 25.288 11.809 23.1613 11.809C22.4302 11.809 21.823 11.8526 21.2986 11.9242C21.2033 11.9372 21.1106 11.9512 21.0206 11.966C20.9305 11.9807 20.8428 11.9964 20.7574 12.0127C20.0316 12.1519 19.4677 12.3447 18.9138 12.5342C18.6994 12.6075 18.4878 12.6799 18.2679 12.7484C18.1737 12.7777 18.078 12.8063 17.9799 12.8339C17.5222 12.9627 17.0134 13.0701 16.3674 13.1312C16.2752 13.1398 16.1801 13.1477 16.082 13.1545C15.9838 13.1613 15.8828 13.167 15.7782 13.1717C15.5692 13.181 15.3471 13.186 15.1097 13.186C13.2105 13.186 12.2825 12.8694 11.3 12.5341C11.254 12.5184 11.208 12.5027 11.1618 12.4871C11.1472 12.4821 11.1326 12.4773 11.1179 12.4722C11.0839 12.4607 11.0498 12.4493 11.0156 12.4377C10.9984 12.432 10.9813 12.4262 10.9641 12.4205C10.9319 12.4098 10.8997 12.3992 10.8673 12.3885C10.8495 12.3826 10.8319 12.3769 10.814 12.3711C10.781 12.3603 10.7476 12.3497 10.7142 12.3389C10.697 12.3334 10.6799 12.3279 10.6626 12.3225C10.6254 12.3108 10.588 12.2992 10.5502 12.2878C10.5365 12.2835 10.5229 12.2794 10.5092 12.2752C10.4573 12.2596 10.4049 12.244 10.3517 12.2288C10.3467 12.2273 10.3414 12.226 10.3365 12.2245C10.289 12.2109 10.2411 12.1975 10.1924 12.1843C10.1754 12.1797 10.1581 12.1753 10.141 12.1707C10.1035 12.1608 10.0658 12.1509 10.0275 12.1411C10.0071 12.1359 9.98639 12.1308 9.96567 12.1257C9.92937 12.1168 9.89271 12.1079 9.8556 12.0993C9.8339 12.0941 9.81201 12.089 9.78994 12.084C9.75175 12.0754 9.71302 12.0668 9.67393 12.0585C9.65276 12.0539 9.63178 12.0493 9.61025 12.0448C9.56414 12.0352 9.51712 12.0259 9.46965 12.0168C9.4547 12.0139 9.44011 12.0108 9.42488 12.008C9.36193 11.9961 9.29789 11.9847 9.2324 11.9737C9.21745 11.9712 9.20178 11.9688 9.18674 11.9664C9.13594 11.9581 9.08469 11.95 9.03227 11.9422C9.00804 11.9386 8.98327 11.9352 8.95868 11.9317C8.92878 11.9275 8.89959 11.9231 8.86915 11.919L8.49518 8.50401L8.04528 4.39454L7.71391 1.36979H13.104V0H6.18586L6.66711 4.39454H4.85192C2.17655 4.39454 0 6.57109 0 9.24655V19.8996C0 22.575 2.17655 24.7515 4.85192 24.7515H8.89644L9.70609 32.1443H8.48482C6.99947 32.1443 5.7909 33.3527 5.7909 34.8382V43.4222C5.7909 44.9076 6.99938 46.1161 8.48482 46.1161H12.4376V44.7463H8.48482C7.75471 44.7463 7.16069 44.1523 7.16069 43.4222V34.8382C7.16069 34.1081 7.75471 33.5141 8.48482 33.5141H9.85605H28.4027H29.7778C30.508 33.5141 31.102 34.1081 31.102 34.8382V43.4222C31.102 44.1523 30.508 44.7463 29.7778 44.7463H14.2638V46.1161H29.7777C31.2631 46.1161 32.4716 44.9077 32.4716 43.4222V34.8382C32.4717 33.3527 31.2632 32.1443 29.7778 32.1443ZM7.47693 11.7888L8.44645 20.6421H4.85192C4.44246 20.6421 4.10929 20.3089 4.10929 19.8995V9.24655C4.10929 8.83709 4.44246 8.50392 4.85192 8.50392H7.1171L7.47693 11.7888ZM4.85201 23.3818C2.93197 23.3818 1.36979 21.8197 1.36979 19.8995V9.24655C1.36979 7.32651 2.93188 5.76433 4.85201 5.76433H6.81716L6.96722 7.13412H4.85201C3.68722 7.13412 2.73958 8.08175 2.73958 9.24655V19.8996C2.73958 21.0644 3.68722 22.0121 4.85201 22.0121H8.59642L8.66343 22.6244L8.74647 23.3818H4.85201V23.3818ZM27.1824 32.1443H22.7382L23.3418 20.0334L21.9737 19.9653L21.3667 32.1444H16.8957L16.2888 19.9653L14.9207 20.0334L15.5242 32.1443H11.0839L9.99963 22.2427L9.82435 20.6422L9.02326 13.3278C9.03398 13.3296 9.04425 13.3317 9.05488 13.3335C9.12234 13.3453 9.18818 13.3576 9.25276 13.3705C9.27177 13.3743 9.29086 13.378 9.30969 13.382C9.38381 13.3972 9.45659 13.413 9.52748 13.4295C9.53792 13.4319 9.54792 13.4346 9.55828 13.4369C9.62106 13.4518 9.68258 13.4672 9.7431 13.4829C9.76031 13.4874 9.77751 13.4918 9.79453 13.4963C9.86209 13.5144 9.92874 13.5327 9.99422 13.5516C10.0011 13.5535 10.0077 13.5556 10.0145 13.5576C10.0752 13.5753 10.1352 13.5933 10.1945 13.6117C10.2102 13.6166 10.226 13.6214 10.2416 13.6263C10.3054 13.6463 10.3687 13.6665 10.4316 13.6871C10.4343 13.688 10.4371 13.6889 10.4399 13.6898C10.5031 13.7105 10.5659 13.7315 10.6288 13.7528C10.6439 13.7579 10.6592 13.763 10.6743 13.7682C10.7353 13.7888 10.7963 13.8095 10.8575 13.8304C11.9025 14.1869 12.983 14.5556 15.1096 14.5556C17.2363 14.5556 18.3144 14.1868 19.357 13.8302C20.3367 13.4952 21.262 13.1786 23.161 13.1786C25.06 13.1786 25.9855 13.4951 26.9653 13.8302C27.009 13.8451 27.0526 13.86 27.0964 13.875C27.1145 13.8811 27.1325 13.8872 27.1505 13.8934C27.1794 13.9032 27.2085 13.913 27.2375 13.9227C27.2575 13.9295 27.2776 13.9362 27.2977 13.9429C27.3259 13.9524 27.3544 13.9618 27.3829 13.9712C27.4028 13.9778 27.4226 13.9843 27.4427 13.9908C27.476 14.0017 27.5096 14.0124 27.5434 14.0233C27.5583 14.028 27.5732 14.0329 27.5882 14.0376C27.6352 14.0524 27.6827 14.0671 27.7308 14.0819C27.7478 14.0871 27.765 14.0922 27.7821 14.0972C27.8152 14.1072 27.8484 14.117 27.8821 14.1267C27.9024 14.1326 27.9228 14.1385 27.9433 14.1443C27.9751 14.1533 28.0072 14.1623 28.0396 14.1712C28.0605 14.177 28.0814 14.1828 28.1026 14.1884C28.1384 14.198 28.1748 14.2075 28.2114 14.2169C28.2291 14.2215 28.2464 14.226 28.2642 14.2305C28.3179 14.244 28.3723 14.2572 28.4278 14.2701C28.4415 14.2733 28.4557 14.2764 28.4696 14.2795C28.5128 14.2893 28.5564 14.2991 28.6009 14.3086C28.6215 14.313 28.6426 14.3173 28.6635 14.3217C28.7027 14.3298 28.7423 14.3379 28.7825 14.3456C28.8047 14.35 28.8272 14.3543 28.8498 14.3585C28.8924 14.3664 28.9358 14.3742 28.9795 14.3818C28.9993 14.3853 29.0189 14.3889 29.039 14.3923C29.103 14.403 29.1679 14.4133 29.2344 14.4233L27.1824 32.1443Z" fill="black" fill-opacity="0.3"/>
<path d="M19.1312 35.6829C17.2304 35.6829 15.684 37.2294 15.684 39.1301C15.684 41.031 17.2305 42.5774 19.1312 42.5774C21.032 42.5774 22.5785 41.0309 22.5785 39.1301C22.5785 37.2294 21.0322 35.6829 19.1312 35.6829ZM19.1312 41.2077C17.9857 41.2077 17.0538 40.2757 17.0538 39.1302C17.0538 37.9847 17.9857 37.0527 19.1312 37.0527C20.2767 37.0527 21.2087 37.9847 21.2087 39.1302C21.2087 40.2757 20.2768 41.2077 19.1312 41.2077Z" fill="black" fill-opacity="0.3"/>
<path d="M22.5374 42.5364L23.506 43.5049C25.9182 41.0926 25.9182 37.1676 23.506 34.7554L22.5374 35.724C24.4156 37.6022 24.4156 40.6581 22.5374 42.5364Z" fill="black" fill-opacity="0.3"/>
</svg>
