<svg width="512" height="410" viewBox="0 0 512 410" fill="none" xmlns="http://www.w3.org/2000/svg">
<path d="M234.384 177.178L124.915 286.647L135.668 297.401L245.138 187.931L234.384 177.178Z" fill="black"/>
<path d="M266.877 286.657L277.63 297.411L387.1 187.941L376.346 177.188L266.877 286.657Z" fill="black"/>
<path d="M305.357 177.167L233.854 248.67L244.608 259.423L316.111 187.92L305.357 177.167Z" fill="black"/>
<path d="M195.903 286.66L206.656 297.414L233.224 270.846L222.471 260.092L195.903 286.66Z" fill="black"/>
<path d="M467.182 363.666V204.493H494.256V189.285H467.182V174.077H494.256V158.869H467.182V133.462C467.182 112.639 450.241 95.699 429.419 95.699H356.371V61.846C370.267 58.819 380.706 46.42 380.706 31.63C380.706 14.579 366.833 0.707031 349.783 0.707031H217.473V15.915H349.783C358.448 15.915 365.498 22.964 365.498 31.63C365.498 40.296 358.449 47.345 349.783 47.345H341.163V95.699H325.952V54.949H310.744V95.699H170.837V47.345H162.217C153.552 47.345 146.502 40.296 146.502 31.63C146.502 22.964 153.551 15.915 162.217 15.915H197.196V0.707031H162.217C145.166 0.707031 131.294 14.579 131.294 31.63C131.294 46.42 141.732 58.819 155.629 61.846V95.699H82.582C61.758 95.699 44.818 112.64 44.818 133.462V158.869H17.744V174.077H44.819V189.285H17.744V204.493H44.819V363.666H0V409.293H512V363.666H467.182ZM496.792 394.085H15.208V378.874H60.027H103.582V363.666H60.027V133.462C60.027 121.025 70.145 110.907 82.583 110.907H155.63H356.373H429.421C441.858 110.907 451.976 121.025 451.976 133.462V363.666H123.86V378.874H451.974H496.792V394.085Z" fill="black"/>
<path d="M429.421 126.111H82.5791V141.319H429.421V126.111Z" fill="black"/>
</svg>
