<?xml version="1.0" encoding="iso-8859-1"?>
<!-- Generator: Adobe Illustrator 19.0.0, SVG Export Plug-In . SVG Version: 6.00 Build 0)  -->
<svg version="1.1" id="Layer_1" xmlns="http://www.w3.org/2000/svg" xmlns:xlink="http://www.w3.org/1999/xlink" x="0px" y="0px"
	 viewBox="0 0 512 512" style="enable-background:new 0 0 512 512;" xml:space="preserve">
<g>
	<g>
		<g>
			<path d="M362.944,354.887v-80.986H149.056v80.986c0,58.97,47.975,106.945,106.944,106.945S362.944,413.857,362.944,354.887z
				 M164.264,354.887v-35.359h13.053V304.32h-13.053v-15.211h183.473v15.211h-13.053v15.208h13.053v35.359
				c0,50.585-41.153,91.737-91.736,91.737S164.264,405.472,164.264,354.887z"/>
			<path d="M332.528,354.887H317.32c0,33.813-27.508,61.321-61.32,61.321v15.208C298.198,431.417,332.528,397.086,332.528,354.887z"
				/>
			<rect x="192.259" y="304.321" width="20.657" height="15.208"/>
			<rect x="227.865" y="304.321" width="20.657" height="15.208"/>
			<rect x="263.472" y="304.321" width="20.657" height="15.208"/>
			<rect x="299.079" y="304.321" width="20.657" height="15.208"/>
			<path d="M456.877,249.566l-29.419-0.018c-33.106-21.312-74.167-62.037-86.321-136.212V85.137C341.137,38.192,302.945,0,256,0
				s-85.137,38.192-85.137,85.137v28.2c-12.155,74.175-53.216,114.9-86.321,136.212l-29.414,0.018
				C24.73,249.566,0,274.296,0,304.694v83.108h15.208v-83.108c0-22.012,17.908-39.92,39.925-39.92l24.037-0.015v162.584h15.208
				v-166.04c22.916-15.048,42.208-34.164,57.389-56.877c16.207-24.249,27.325-52.082,33.093-82.823h142.283
				c5.768,30.741,16.886,58.575,33.093,82.823c15.181,22.711,34.472,41.829,57.389,56.877v235.49H94.377v-49.17H79.169V512h353.661
				V264.76l24.042,0.015c22.012,0,39.92,17.908,39.92,39.92v83.107H512v-83.108C512,274.296,487.27,249.566,456.877,249.566z
				 M325.929,106.396H186.071V85.137c0-38.559,31.371-69.929,69.929-69.929s69.929,31.37,69.929,69.929V106.396z"/>
		</g>
	</g>
</g>
<g>
</g>
<g>
</g>
<g>
</g>
<g>
</g>
<g>
</g>
<g>
</g>
<g>
</g>
<g>
</g>
<g>
</g>
<g>
</g>
<g>
</g>
<g>
</g>
<g>
</g>
<g>
</g>
<g>
</g>
</svg>
