<?xml version="1.0" encoding="iso-8859-1"?>
<!-- Generator: Adobe Illustrator 19.0.0, SVG Export Plug-In . SVG Version: 6.00 Build 0)  -->
<svg version="1.1" id="Layer_1" xmlns="http://www.w3.org/2000/svg" xmlns:xlink="http://www.w3.org/1999/xlink" x="0px" y="0px"
	 viewBox="0 0 512 512" style="enable-background:new 0 0 512 512;" xml:space="preserve">
<g>
	<g>
		<g>
			<path d="M408.159,184.364h15.208c0-65.225-53.064-118.289-118.289-118.289v15.208
				C361.917,81.282,408.159,127.523,408.159,184.364z"/>
			<rect x="337.454" y="233.249" width="78.24" height="15.208"/>
			<rect x="268.511" y="233.249" width="48.663" height="15.208"/>
			<path d="M101.096,432.919c-13.416,0-24.333,10.916-24.333,24.333c0,13.416,10.916,24.333,24.333,24.333
				s24.333-10.916,24.333-24.333C125.429,443.835,114.513,432.919,101.096,432.919z M101.096,466.376
				c-5.031,0-9.125-4.093-9.125-9.125c0-5.032,4.094-9.125,9.125-9.125c5.031,0,9.125,4.093,9.125,9.125
				C110.221,462.283,106.127,466.376,101.096,466.376z"/>
			<path d="M481.454,187.625v-15.208h-28.152c-5.916-74.067-66.337-133.006-141.03-136.581V15.208h25.178V0h-25.178H199.728h-25.178
				v15.208h25.178v20.627C125.034,39.411,64.613,98.35,58.698,172.417H30.546v15.208h27.67v15.208h-27.67v15.208h27.67v18.469
				c0,52.737,27.597,99.145,69.106,125.554l-13.411,41.97c-4.114-0.991-8.402-1.53-12.815-1.53
				c-30.189,0-54.748,24.561-54.748,54.749c0,30.188,24.56,54.748,54.748,54.748c30.189,0,54.749-24.561,54.749-54.748
				c0-3.841-0.401-7.587-1.158-11.206h240.843l19.378,60.664l14.487-4.627l-44.725-140.015
				c41.513-26.408,69.114-72.819,69.114-125.559v-18.468h27.67v-15.208h-27.67v-15.208H481.454z M214.936,15.208h82.129v20.451
				h-82.129V15.208z M101.096,496.792c-21.803,0-39.541-17.738-39.541-39.541c0-21.803,17.737-39.541,39.541-39.541
				c21.803,0,39.541,17.738,39.541,39.541C140.637,479.055,122.899,496.792,101.096,496.792z M385.814,415.629l4.858,15.208H149.032
				c-4.894-8.847-12.167-16.194-20.948-21.192l12.765-39.945c19.917,9.921,42.353,15.513,66.074,15.513h98.156
				c23.717,0,46.151-5.591,66.066-15.509l9.812,30.717H268.509v15.208H385.814z M305.078,370.006h-98.156
				c-73.61,0-133.497-59.886-133.497-133.497v-18.468h44.352v-15.208H73.425v-18.471c0-73.61,59.887-133.496,133.497-133.496h98.156
				c73.61,0,133.497,59.886,133.497,133.496v18.471H138.055v15.208h300.521v18.468h0
				C438.575,310.119,378.688,370.006,305.078,370.006z"/>
		</g>
	</g>
</g>
<g>
</g>
<g>
</g>
<g>
</g>
<g>
</g>
<g>
</g>
<g>
</g>
<g>
</g>
<g>
</g>
<g>
</g>
<g>
</g>
<g>
</g>
<g>
</g>
<g>
</g>
<g>
</g>
<g>
</g>
</svg>
