<?xml version="1.0" encoding="iso-8859-1"?>
<!-- Generator: Adobe Illustrator 19.0.0, SVG Export Plug-In . SVG Version: 6.00 Build 0)  -->
<svg version="1.1" id="Layer_1" xmlns="http://www.w3.org/2000/svg" xmlns:xlink="http://www.w3.org/1999/xlink" x="0px" y="0px"
	 viewBox="0 0 512 512" style="enable-background:new 0 0 512 512;" xml:space="preserve">
<g>
	<g>
		<g>
			<path d="M256.94,0v15.208h230.124v15.211H284.966v15.208h202.098v331.892c-9.365-9.348-22.285-15.136-36.53-15.136
				c-18.654,0-35.03,9.926-44.134,24.771c-9.104-14.845-25.48-24.771-44.134-24.771c-18.654,0-35.03,9.926-44.134,24.771
				c-9.104-14.845-25.48-24.771-44.134-24.771s-35.03,9.926-44.134,24.771c-9.104-14.845-25.48-24.771-44.134-24.771
				c-14.246,0-27.164,5.788-36.53,15.136v-64.116V148.045V82.288v-67.08h87.464V0H133.989v82.288H89.361
				c-43.91,0-79.634,35.723-79.634,79.635v137.601c0,43.911,35.723,79.635,79.634,79.635h44.628v34.963V512h88.269h15.208h73.061
				h15.208h73.061h15.208h88.269v-97.878V0H256.94z M133.989,313.403H89.361c-7.653,0-13.879-6.226-13.879-13.879V161.923
				c0-7.653,6.226-13.878,13.879-13.878h44.628V313.403z M133.989,132.836H89.361c-16.038,0-29.087,13.048-29.087,29.086v137.601
				c0,16.038,13.048,29.087,29.087,29.087h44.628v35.339H89.361v0.002c-35.525,0-64.426-28.902-64.426-64.427V161.923
				c0-35.525,28.901-64.427,64.426-64.427h44.628V132.836z M222.258,496.792h-73.061v-82.67c0-20.143,16.388-36.531,36.53-36.531
				c20.143,0,36.53,16.388,36.53,36.531V496.792z M310.527,496.792h-73.061v-82.67c0-20.143,16.387-36.531,36.53-36.531
				s36.53,16.388,36.53,36.531V496.792z M398.796,496.792h-73.061v-82.67c0-20.143,16.388-36.531,36.53-36.531
				c20.143,0,36.53,16.388,36.53,36.531V496.792z M487.064,496.792L487.064,496.792h-73.061v-82.67
				c0-20.143,16.388-36.531,36.53-36.531s36.53,16.388,36.53,36.531V496.792z"/>
			<path d="M185.727,392.798v15.208c3.372,0,6.115,2.744,6.115,6.116v59.858h15.208v-59.858
				C207.05,402.364,197.484,392.798,185.727,392.798z"/>
			<path d="M362.265,392.798v15.208c3.372,0,6.115,2.744,6.115,6.116v59.858h15.208v-59.858
				C383.588,402.364,374.022,392.798,362.265,392.798z"/>
			<path d="M273.996,392.798v15.208c3.372,0,6.115,2.744,6.115,6.116v59.858h15.208v-59.858
				C295.319,402.364,285.753,392.798,273.996,392.798z"/>
			<path d="M450.534,392.798v15.208c3.371,0,6.115,2.744,6.115,6.116v59.858h15.208v-59.858
				C471.856,402.364,462.291,392.798,450.534,392.798z"/>
		</g>
	</g>
</g>
<g>
</g>
<g>
</g>
<g>
</g>
<g>
</g>
<g>
</g>
<g>
</g>
<g>
</g>
<g>
</g>
<g>
</g>
<g>
</g>
<g>
</g>
<g>
</g>
<g>
</g>
<g>
</g>
<g>
</g>
</svg>
