<?xml version="1.0" encoding="iso-8859-1"?>
<!-- Generator: Adobe Illustrator 19.0.0, SVG Export Plug-In . SVG Version: 6.00 Build 0)  -->
<svg version="1.1" id="Layer_1" xmlns="http://www.w3.org/2000/svg" xmlns:xlink="http://www.w3.org/1999/xlink" x="0px" y="0px"
	 viewBox="0 0 512.01 512.01" style="enable-background:new 0 0 512.01 512.01;" xml:space="preserve">
<g>
	<g>
		<g>
			<path d="M99.446,315.183c-4.549-4.548-11.957-4.552-16.513-0.005l-35.776,35.78c-6.446,6.443-9.995,15.021-9.995,24.156
				c0,9.133,3.549,17.713,9.994,24.159l65.582,65.582c6.443,6.445,15.023,9.993,24.157,9.993s17.713-3.549,24.159-9.993
				l35.774-35.774c2.203-2.204,3.417-5.137,3.417-8.257s-1.215-6.054-3.418-8.255l-35.111-35.117l-23.464,23.468l-27.162-27.162
				l23.462-23.468L99.446,315.183z M138.254,422.431l23.463-23.468l21.859,21.863L150.3,454.102
				c-3.572,3.572-8.332,5.539-13.404,5.539c-5.071,0-9.831-1.966-13.402-5.539L57.91,388.519c-3.572-3.573-5.54-8.333-5.54-13.405
				c0-5.071,1.967-9.829,5.54-13.401l33.276-33.28l21.859,21.859l-23.462,23.466L138.254,422.431z"/>
			<path d="M467.199,81.851c4.949-4.948,7.674-11.525,7.675-18.523c0-6.995-2.725-13.573-7.672-18.52c0,0,0,0-0.001-0.001
				c-4.947-4.946-11.523-7.669-18.519-7.67c-0.001,0-0.001,0-0.002,0c-6.996,0-13.574,2.725-18.52,7.671
				c-10.211,10.212-10.211,26.829,0.001,37.044c4.948,4.947,11.525,7.67,18.521,7.669C455.679,89.522,462.255,86.797,467.199,81.851
				z M440.915,55.563c2.073-2.074,4.831-3.217,7.765-3.217h0.001c2.934,0,5.692,1.143,7.768,3.218h0.001
				c2.074,2.074,3.217,4.832,3.217,7.765c0,2.934-1.143,5.691-3.22,7.769c-2.073,2.073-4.831,3.216-7.765,3.216
				c-2.934,0-5.693-1.142-7.767-3.215C436.632,66.815,436.632,59.845,440.915,55.563z"/>
			<path d="M493.461,18.551C481.499,6.587,465.596,0,448.68,0c-16.916,0.001-32.82,6.589-44.781,18.552l-174.512,174.51
				c-15.247,15.247-21.613,37.127-17.148,58.039l-62.171,62.173l-24.357-24.354c-9.222-9.223-21.483-14.301-34.525-14.301
				s-25.303,5.08-34.525,14.3l-35.774,35.772C7.419,338.16,0.001,356.067,0.001,375.114c0,19.048,7.418,36.954,20.887,50.423
				l65.582,65.584c13.469,13.471,31.377,20.89,50.425,20.889c19.048-0.001,36.955-7.418,50.423-20.888l35.774-35.773
				c19.037-19.037,19.037-50.015,0-69.052l-24.354-24.355l62.171-62.173c20.905,4.468,42.788-1.895,58.038-17.143l29.293-29.293
				l-10.754-10.755l-29.293,29.293c-12.414,12.413-30.613,17.076-47.493,12.173l-4.318-1.254l-79.151,79.153l35.108,35.11
				c13.108,13.107,13.108,34.436,0,47.544l-35.774,35.772c-10.597,10.596-24.685,16.434-39.67,16.434
				c-14.986,0-29.074-5.836-39.671-16.433l-65.582-65.586c-21.873-21.873-21.873-57.464,0-79.337l35.774-35.772
				c6.35-6.35,14.792-9.847,23.771-9.847s17.421,3.497,23.77,9.847l35.111,35.109l79.15-79.152l-1.253-4.318
				c-4.9-16.885-0.235-35.085,12.175-47.496l174.514-174.51c9.089-9.09,21.173-14.096,34.026-14.097
				c12.854,0,24.937,5.006,34.026,14.096c9.089,9.089,14.095,21.173,14.095,34.026s-5.006,24.937-14.095,34.026L351.825,228.237
				l10.754,10.755l130.88-130.881c11.961-11.961,18.55-27.865,18.55-44.781S505.423,30.511,493.461,18.551z"/>
			<path d="M373.749,113.229l-10.754-10.755l-112.1,112.096c-8.49,8.49-11.679,20.944-8.323,32.503l14.606-4.24
				c-1.809-6.232-0.095-12.942,4.472-17.508L373.749,113.229z"/>
		</g>
	</g>
</g>
<g>
</g>
<g>
</g>
<g>
</g>
<g>
</g>
<g>
</g>
<g>
</g>
<g>
</g>
<g>
</g>
<g>
</g>
<g>
</g>
<g>
</g>
<g>
</g>
<g>
</g>
<g>
</g>
<g>
</g>
</svg>
