<?xml version="1.0" encoding="iso-8859-1"?>
<!-- Generator: Adobe Illustrator 19.0.0, SVG Export Plug-In . SVG Version: 6.00 Build 0)  -->
<svg version="1.1" id="Layer_1" xmlns="http://www.w3.org/2000/svg" xmlns:xlink="http://www.w3.org/1999/xlink" x="0px" y="0px"
	 viewBox="0 0 512 512" style="enable-background:new 0 0 512 512;" xml:space="preserve">
<g>
	<g>
		<g>
			<path d="M0,67.542v54.895c0,68.378,26.63,132.665,74.981,181.016c26.969,26.969,58.9,47.17,93.729,59.772h-54.211
				c-14.012,0-25.412,11.398-25.412,25.409c0,14.012,11.4,25.412,25.412,25.412h39.099v-15.208h-39.099
				c-5.627,0-10.204-4.578-10.204-10.204c0-5.625,4.578-10.201,10.204-10.201h283.005c5.627,0,10.204,4.576,10.204,10.201
				c0,5.627-4.578,10.204-10.204,10.204H173.875v15.208h223.627c14.012,0,25.412-11.4,25.412-25.412
				c0-14.01-11.4-25.409-25.412-25.409H343.29c34.829-12.602,66.759-32.803,93.729-59.772C485.37,255.101,512,190.814,512,122.436
				V67.542H0z M256,363.224c-31.392,0-61.86-5.982-90.122-17.379h180.245C317.86,357.241,287.392,363.224,256,363.224z
				 M428.819,290.081h-30.574v15.208h14.436c-11.153,9.586-23.053,18.047-35.553,25.347H134.872
				c-12.5-7.3-24.4-15.761-35.553-25.347h14.436v-15.208H83.181c-7.982-8.222-15.311-16.913-21.958-26.012
				c5.407,2.773,12.026,4.721,20.863,4.721c17.259,0,26.085-7.41,33.871-13.947c6.912-5.803,12.37-10.386,24.093-10.386
				c11.721,0,17.179,4.584,24.09,10.386c7.787,6.537,16.612,13.947,33.87,13.947c17.259,0,26.085-7.41,33.87-13.947
				c6.911-5.803,12.37-10.386,24.092-10.386c11.723,0,17.18,4.584,24.093,10.386c7.787,6.537,16.612,13.947,33.871,13.947
				c17.26,0,26.086-7.41,33.872-13.947c6.912-5.803,12.37-10.386,24.093-10.386c11.724,0,17.182,4.584,24.095,10.386
				c7.788,6.537,16.614,13.947,33.874,13.947c8.877,0,15.513-1.966,20.935-4.759C444.15,273.144,436.812,281.849,428.819,290.081z
				 M470.042,232.956l-0.139-0.335c-6.665,2.788-11.593,6.925-15.94,10.575c-6.911,5.803-12.37,10.386-24.094,10.386
				c-11.724,0-17.183-4.584-24.096-10.386c-7.787-6.538-16.613-13.947-33.873-13.947c-17.259,0-26.085,7.409-33.871,13.947
				c-6.912,5.803-12.37,10.386-24.094,10.386c-11.723,0-17.18-4.584-24.093-10.386c-7.787-6.536-16.612-13.947-33.871-13.947
				c-17.259,0-26.085,7.411-33.87,13.947c-6.911,5.803-12.37,10.386-24.092,10.386c-11.721,0-17.179-4.584-24.09-10.386
				c-7.787-6.536-16.612-13.947-33.87-13.947c-17.259,0-26.085,7.411-33.871,13.947c-6.912,5.803-12.37,10.386-24.093,10.386
				c-11.724,0-17.183-4.584-24.096-10.386c-4.33-3.636-9.237-7.755-15.866-10.543l-0.145,0.346
				c-4.213-8.131-7.953-16.488-11.196-25.04h450.434C477.978,216.497,474.246,224.838,470.042,232.956z M496.792,97.961h-85.923
				v15.208h85.923v9.267c0,24.178-3.542,47.814-10.376,70.312H25.584c-6.835-22.498-10.376-46.134-10.376-70.312v-9.267h375.381
				V97.961H15.208V82.75h481.583V97.961z"/>
			<rect x="133.012" y="290.084" width="33.783" height="15.208"/>
			<rect x="186.058" y="290.084" width="33.783" height="15.208"/>
			<rect x="239.105" y="290.084" width="33.783" height="15.208"/>
			<rect x="292.151" y="290.084" width="33.783" height="15.208"/>
			<rect x="345.198" y="290.084" width="33.783" height="15.208"/>
			<path d="M62.122,128.378c-13.554,0-24.581,11.027-24.581,24.582c0,13.554,11.027,24.581,24.581,24.581
				c13.555,0,24.582-11.027,24.582-24.581C86.703,139.405,75.676,128.378,62.122,128.378z M62.122,162.332
				c-5.169,0-9.372-4.204-9.372-9.372c0-5.169,4.204-9.373,9.372-9.373c5.169,0,9.373,4.205,9.373,9.373
				C71.495,158.128,67.29,162.332,62.122,162.332z"/>
			<path d="M139.673,128.378c-13.554,0-24.581,11.027-24.581,24.582c0,13.554,11.027,24.581,24.581,24.581
				c13.555,0,24.582-11.027,24.582-24.581C164.255,139.405,153.227,128.378,139.673,128.378z M139.673,162.332
				c-5.169,0-9.372-4.204-9.372-9.372c0-5.169,4.204-9.373,9.372-9.373c5.169,0,9.373,4.205,9.373,9.373
				C149.046,158.128,144.841,162.332,139.673,162.332z"/>
			<path d="M217.224,128.378c-13.554,0-24.581,11.027-24.581,24.582c0,13.554,11.027,24.581,24.581,24.581
				c13.555,0,24.582-11.027,24.582-24.581C241.806,139.405,230.779,128.378,217.224,128.378z M217.224,162.332
				c-5.169,0-9.372-4.204-9.372-9.372c0-5.169,4.204-9.373,9.372-9.373c5.169,0,9.373,4.205,9.373,9.373
				C226.597,158.128,222.393,162.332,217.224,162.332z"/>
			<path d="M294.776,128.378c-13.555,0-24.582,11.027-24.582,24.582c0,13.554,11.027,24.581,24.582,24.581
				c13.554,0,24.581-11.027,24.581-24.581C319.357,139.405,308.33,128.378,294.776,128.378z M294.776,162.332
				c-5.169,0-9.373-4.204-9.373-9.372c0-5.169,4.205-9.373,9.373-9.373s9.372,4.205,9.372,9.373
				C304.148,158.128,299.945,162.332,294.776,162.332z"/>
			<path d="M372.328,128.378c-13.555,0-24.582,11.027-24.582,24.582c0,13.554,11.027,24.581,24.582,24.581
				c13.554,0,24.581-11.027,24.581-24.581C396.909,139.405,385.882,128.378,372.328,128.378z M372.328,162.332
				c-5.169,0-9.373-4.204-9.373-9.372c0-5.169,4.205-9.373,9.373-9.373c5.169,0,9.372,4.205,9.372,9.373
				C381.701,158.128,377.496,162.332,372.328,162.332z"/>
			<path d="M449.879,177.54c13.554,0,24.581-11.027,24.581-24.581c0-13.555-11.027-24.582-24.581-24.582
				c-13.555,0-24.582,11.027-24.582,24.582C425.298,166.513,436.325,177.54,449.879,177.54z M449.879,143.586
				c5.169,0,9.372,4.205,9.372,9.373c0,5.169-4.205,9.372-9.372,9.372c-5.169,0-9.373-4.204-9.373-9.372
				C440.506,147.791,444.71,143.586,449.879,143.586z"/>
			<rect x="89.08" y="429.25" width="333.66" height="15.208"/>
		</g>
	</g>
</g>
<g>
</g>
<g>
</g>
<g>
</g>
<g>
</g>
<g>
</g>
<g>
</g>
<g>
</g>
<g>
</g>
<g>
</g>
<g>
</g>
<g>
</g>
<g>
</g>
<g>
</g>
<g>
</g>
<g>
</g>
</svg>
