<?xml version="1.0" encoding="iso-8859-1"?>
<!-- Generator: Adobe Illustrator 19.0.0, SVG Export Plug-In . SVG Version: 6.00 Build 0)  -->
<svg version="1.1" id="Layer_1" xmlns="http://www.w3.org/2000/svg" xmlns:xlink="http://www.w3.org/1999/xlink" x="0px" y="0px"
	 viewBox="0 0 512.031 512.031" style="enable-background:new 0 0 512.031 512.031;" xml:space="preserve">
<g>
	<g>
		<g>
			<path d="M0,18.243v141.284V316.02v141.284h27.034v36.485h457.963v-36.485h27.034V316.019V159.526V18.243H0z M15.209,159.526
				V33.451h481.614v126.075L15.209,159.526L15.209,159.526z M15.209,174.735h481.614V300.81H15.209V174.735z M496.824,442.094
				L496.824,442.094h-19.431h-7.604H111.025v15.209h358.765v21.276H42.244v-21.276h48.5v-15.209h-48.5H34.64H15.21V316.019h481.614
				V442.094z"/>
			<path d="M256.016,212.931c-13.697,0-24.841,11.143-24.841,24.841s11.144,24.841,24.841,24.841
				c13.697,0,24.841-11.143,24.841-24.841S269.714,212.931,256.016,212.931z M256.016,247.405c-5.311,0-9.632-4.321-9.632-9.632
				c0-5.311,4.321-9.632,9.632-9.632c5.311,0,9.632,4.321,9.632,9.632C265.648,243.083,261.328,247.405,256.016,247.405z"/>
			<path d="M256.016,71.648c-13.697,0-24.841,11.143-24.841,24.841s11.144,24.841,24.841,24.841
				c13.697,0,24.841-11.143,24.841-24.841S269.714,71.648,256.016,71.648z M256.016,106.121c-5.311,0-9.632-4.321-9.632-9.632
				s4.321-9.632,9.632-9.632c5.311,0,9.632,4.321,9.632,9.632S261.328,106.121,256.016,106.121z"/>
			<path d="M256.016,403.897c13.697,0,24.841-11.143,24.841-24.841s-11.144-24.841-24.841-24.841
				c-13.697,0-24.841,11.143-24.841,24.841S242.319,403.897,256.016,403.897z M256.016,369.424c5.311,0,9.632,4.321,9.632,9.632
				s-4.321,9.632-9.632,9.632c-5.311,0-9.632-4.321-9.632-9.632S250.705,369.424,256.016,369.424z"/>
			<rect x="334.094" y="129.107" width="139.921" height="15.209"/>
			<rect x="334.094" y="270.387" width="139.921" height="15.209"/>
			<rect x="334.094" y="411.677" width="139.921" height="15.209"/>
		</g>
	</g>
</g>
<g>
</g>
<g>
</g>
<g>
</g>
<g>
</g>
<g>
</g>
<g>
</g>
<g>
</g>
<g>
</g>
<g>
</g>
<g>
</g>
<g>
</g>
<g>
</g>
<g>
</g>
<g>
</g>
<g>
</g>
</svg>
