<?xml version="1.0" encoding="iso-8859-1"?>
<!-- Generator: Adobe Illustrator 19.0.0, SVG Export Plug-In . SVG Version: 6.00 Build 0)  -->
<svg version="1.1" id="Layer_1" xmlns="http://www.w3.org/2000/svg" xmlns:xlink="http://www.w3.org/1999/xlink" x="0px" y="0px"
	 viewBox="0 0 512 512" style="enable-background:new 0 0 512 512;" xml:space="preserve">
<g>
	<g>
		<g>
			<path d="M263.604,18.241h-15.208H0V316v141.276h27.033v36.483h457.935v-36.483H512V316V18.241H263.604z M15.208,33.449h233.188
				v267.343H15.208V33.449z M496.792,442.067h-19.429h-7.604H111.017v15.208H469.76v21.275H42.24v-21.275h48.497v-15.208H42.24
				h-7.604H15.208V316h233.188h15.208h233.188V442.067z M496.792,300.792H263.604V33.449h233.188V300.792z"/>
			<path d="M208.345,143.81c-13.696,0-24.84,11.142-24.84,24.84s11.143,24.84,24.84,24.84c13.696,0,24.84-11.142,24.84-24.84
				S222.042,143.81,208.345,143.81z M208.345,178.281c-5.311,0-9.632-4.321-9.632-9.632s4.321-9.632,9.632-9.632
				s9.632,4.321,9.632,9.632S213.656,178.281,208.345,178.281z"/>
			<path d="M303.655,193.489c13.697,0,24.84-11.142,24.84-24.84s-11.142-24.84-24.84-24.84s-24.84,11.142-24.84,24.84
				S289.957,193.489,303.655,193.489z M303.655,159.018c5.311,0,9.632,4.321,9.632,9.632s-4.321,9.632-9.632,9.632
				s-9.632-4.321-9.632-9.632S298.344,159.018,303.655,159.018z"/>
			<path d="M231.16,379.034c0,13.697,11.143,24.84,24.84,24.84c13.697,0,24.84-11.142,24.84-24.84s-11.142-24.84-24.84-24.84
				C242.304,354.195,231.16,365.337,231.16,379.034z M265.632,379.034c0,5.311-4.321,9.632-9.632,9.632s-9.632-4.321-9.632-9.632
				s4.321-9.632,9.632-9.632S265.632,373.723,265.632,379.034z"/>
			<rect x="334.067" y="411.648" width="139.913" height="15.208"/>
			<polygon points="466.376,277.981 481.584,277.981 481.584,48.657 369.552,48.657 369.552,63.865 466.376,63.865 			"/>
		</g>
	</g>
</g>
<g>
</g>
<g>
</g>
<g>
</g>
<g>
</g>
<g>
</g>
<g>
</g>
<g>
</g>
<g>
</g>
<g>
</g>
<g>
</g>
<g>
</g>
<g>
</g>
<g>
</g>
<g>
</g>
<g>
</g>
</svg>
