<?xml version="1.0" encoding="iso-8859-1"?>
<!-- Generator: Adobe Illustrator 19.0.0, SVG Export Plug-In . SVG Version: 6.00 Build 0)  -->
<svg version="1.1" id="Layer_1" xmlns="http://www.w3.org/2000/svg" xmlns:xlink="http://www.w3.org/1999/xlink" x="0px" y="0px"
	 viewBox="0 0 512.031 512.031" style="enable-background:new 0 0 512.031 512.031;" xml:space="preserve">
<g>
	<g>
		<g>
			<path d="M263.62,18.243h-15.209H0v439.06h27.034v36.485h457.963v-36.485h27.034V18.243H263.62z M469.789,478.581L469.789,478.581
				H42.244v-21.276h48.457v-15.209H42.244H15.21V33.452h233.202v408.643H110.98v15.209h137.432h15.209h206.168V478.581z
				 M496.823,442.095h-27.034H263.62V33.452h233.202V442.095z"/>
			<rect x="466.401" y="317.865" width="15.209" height="101.413"/>
			<polygon points="466.405,297.587 481.614,297.587 481.614,48.661 369.575,48.661 369.575,63.87 466.405,63.87 			"/>
			<path d="M208.359,262.615c13.697,0,24.841-11.143,24.841-24.841s-11.144-24.841-24.841-24.841
				c-13.697,0-24.841,11.143-24.841,24.841S194.661,262.615,208.359,262.615z M208.359,228.141c5.311,0,9.632,4.321,9.632,9.632
				c0,5.311-4.321,9.632-9.632,9.632c-5.311,0-9.632-4.321-9.632-9.632C198.727,232.463,203.047,228.141,208.359,228.141z"/>
			<path d="M303.673,262.615c13.697,0,24.841-11.143,24.841-24.841s-11.144-24.841-24.841-24.841
				c-13.697,0-24.841,11.143-24.841,24.841S289.976,262.615,303.673,262.615z M303.673,228.141c5.311,0,9.632,4.321,9.632,9.632
				c0,5.311-4.321,9.632-9.632,9.632c-5.311,0-9.632-4.321-9.632-9.632C294.041,232.463,298.362,228.141,303.673,228.141z"/>
		</g>
	</g>
</g>
<g>
</g>
<g>
</g>
<g>
</g>
<g>
</g>
<g>
</g>
<g>
</g>
<g>
</g>
<g>
</g>
<g>
</g>
<g>
</g>
<g>
</g>
<g>
</g>
<g>
</g>
<g>
</g>
<g>
</g>
</svg>
