<?xml version="1.0" encoding="iso-8859-1"?>
<!-- Generator: Adobe Illustrator 19.0.0, SVG Export Plug-In . SVG Version: 6.00 Build 0)  -->
<svg version="1.1" id="Layer_1" xmlns="http://www.w3.org/2000/svg" xmlns:xlink="http://www.w3.org/1999/xlink" x="0px" y="0px"
	 viewBox="0 0 511.999 511.999" style="enable-background:new 0 0 511.999 511.999;" xml:space="preserve">
<g>
	<g>
		<g>
			<path d="M376.76,148.096c6.375,0,12.367-2.482,16.875-6.989c9.306-9.306,9.306-24.446,0-33.752
				c-4.507-4.507-10.5-6.988-16.875-6.988c-6.375,0-12.367,2.482-16.876,6.989c-4.508,4.508-6.99,10.5-6.991,16.875
				c0,6.376,2.482,12.369,6.99,16.877C364.392,145.615,370.385,148.096,376.76,148.096z M370.64,118.113
				c1.635-1.634,3.808-2.534,6.12-2.534c2.311,0,4.484,0.9,6.119,2.533c1.635,1.635,2.535,3.808,2.535,6.119
				c0,2.311-0.901,4.484-2.535,6.119c-1.634,1.635-3.807,2.534-6.119,2.534s-4.485-0.901-6.121-2.534
				c-1.634-1.634-2.534-3.806-2.534-6.118C368.106,121.92,369.006,119.747,370.64,118.113z"/>
			<path d="M498.194,166.158L376.759,44.723L110.576,310.909L9.485,411.999C3.368,418.115,0,426.246,0,434.895
				c0,8.648,3.368,16.78,9.484,22.896c6.115,6.115,14.246,9.483,22.896,9.484c8.648,0,16.779-3.368,22.894-9.483l95.657-95.658
				l75.645,75.644c8.901,8.903,20.737,13.805,33.327,13.805c12.589,0,24.425-4.903,33.327-13.804l204.963-204.963
				c8.902-8.902,13.805-20.738,13.805-33.328C512,186.897,507.097,175.06,498.194,166.158z M44.518,447.036
				c-3.242,3.242-7.553,5.028-12.138,5.028c-4.586,0-8.897-1.786-12.14-5.028c-3.242-3.243-5.028-7.554-5.028-12.14
				c0-4.585,1.786-8.896,5.028-12.139l22.038-22.037l12.139,12.139l10.756-10.756l-12.139-12.139l10.759-10.759l12.139,12.139
				l10.756-10.756l-12.139-12.139l10.759-10.759l12.139,12.139l10.756-10.756l-12.139-12.139l19.833-19.833l7.166,7.166
				l17.111,17.111L44.518,447.036z M487.438,222.059L282.475,427.022c-6.029,6.029-14.045,9.349-22.571,9.349
				s-16.542-3.32-22.57-9.349l-75.645-75.645l-35.034-35.033L376.759,66.236l110.679,110.679c6.029,6.028,9.35,14.045,9.35,22.571
				C496.787,208.013,493.467,216.029,487.438,222.059z"/>
			
				<rect x="411.448" y="158.718" transform="matrix(-0.7071 -0.7071 0.7071 -0.7071 574.5955 636.1744)" width="15.212" height="80.734"/>
			
				<rect x="295.201" y="212.87" transform="matrix(-0.7071 -0.7071 0.7071 -0.7071 293.9515 752.4206)" width="15.212" height="204.923"/>
		</g>
	</g>
</g>
<g>
</g>
<g>
</g>
<g>
</g>
<g>
</g>
<g>
</g>
<g>
</g>
<g>
</g>
<g>
</g>
<g>
</g>
<g>
</g>
<g>
</g>
<g>
</g>
<g>
</g>
<g>
</g>
<g>
</g>
</svg>
