<?xml version="1.0" encoding="iso-8859-1"?>
<!-- Generator: Adobe Illustrator 19.0.0, SVG Export Plug-In . SVG Version: 6.00 Build 0)  -->
<svg version="1.1" id="Layer_1" xmlns="http://www.w3.org/2000/svg" xmlns:xlink="http://www.w3.org/1999/xlink" x="0px" y="0px"
	 viewBox="0 0 512 512" style="enable-background:new 0 0 512 512;" xml:space="preserve">
<g>
	<g>
		<g>
			<rect x="103.931" y="496.792" width="304.138" height="15.208"/>
			<path d="M233.186,435.957h-53.108c-20.649,0-37.449,16.8-37.449,37.449c0,0.207,0.006,0.411,0.013,0.615l0.158,7.56h226.398
				l0.154-7.446l0.004-0.114c0.007-0.205,0.013-0.409,0.013-0.615c0-20.649-16.799-37.449-37.449-37.449h-53.108V230.844L482.453,0
				H165.768v15.208h282.99L263.606,225.094v210.863h-15.212V225.09L63.242,15.208h82.247V0H29.547l203.639,230.84V435.957z
				 M278.814,451.165h53.108c9.813,0,18.161,6.387,21.107,15.208H158.978c2.949-8.828,11.294-15.208,21.102-15.208h53.108H278.814z"
				/>
			
				<rect x="203.059" y="90.539" transform="matrix(0.7499 -0.6616 0.6616 0.7499 -45.1052 176.344)" width="15.207" height="114.57"/>
			
				<rect x="111.449" y="60.588" transform="matrix(-0.6615 -0.7499 0.7499 -0.6615 182.1545 218.597)" width="57.92" height="15.206"/>
		</g>
	</g>
</g>
<g>
</g>
<g>
</g>
<g>
</g>
<g>
</g>
<g>
</g>
<g>
</g>
<g>
</g>
<g>
</g>
<g>
</g>
<g>
</g>
<g>
</g>
<g>
</g>
<g>
</g>
<g>
</g>
<g>
</g>
</svg>
