<?xml version="1.0" encoding="iso-8859-1"?>
<!-- Generator: Adobe Illustrator 19.0.0, SVG Export Plug-In . SVG Version: 6.00 Build 0)  -->
<svg version="1.1" id="Layer_1" xmlns="http://www.w3.org/2000/svg" xmlns:xlink="http://www.w3.org/1999/xlink" x="0px" y="0px"
	 viewBox="0 0 512 512" style="enable-background:new 0 0 512 512;" xml:space="preserve">
<g>
	<g>
		<g>
			<path d="M446.594,224.494h-10.329h-7.604H201.486l20.516,42.537h18.415v12.121h-27.836V408.25h27.836v12.121h-50.105V135.186
				h57.001v39.74c0,14.087,11.461,25.547,25.547,25.547h96.534c14.088,0,25.547-11.461,25.547-25.547v-39.74h72.209V0H28.041
				v135.186H48.32v285.183H28.041v61.215h439.111v-61.215h-65.314v-12.121h27.836V279.151h-27.836V267.03h34.428v-27.329h10.329
				c12.218,0,22.157,9.94,22.157,22.145l-0.161,98.569l15.208,0.024l0.161-98.581C483.96,241.256,467.198,224.494,446.594,224.494z
				 M379.735,174.927L379.735,174.927c0,5.701-4.638,10.339-10.339,10.339h-96.534c-5.701,0-10.339-4.638-10.339-10.339v-39.74
				h117.213V174.927z M43.249,119.978V15.208h408.695v104.77h-57.001H247.314h-57.001H48.32H43.249z M175.106,135.186v285.183
				H63.528V135.186H175.106z M401.838,435.577h50.106v30.799H43.249v-30.799h5.071h141.993h50.105H401.838z M414.466,294.358v98.682
				h-20.232v-0.015h-37.141v15.208h29.537v12.135H255.626v-12.135h81.19v-15.208h-88.794v0.015h-20.232v-98.682h20.232h7.604h81.19
				v-15.208h-81.19V267.03H386.63v12.121h-29.537v15.208h29.537h7.604H414.466z M421.057,251.822h-19.219h-161.42h-8.866
				l-5.846-12.121h195.351V251.822z"/>
			<rect x="135.057" y="81.362" width="294.071" height="15.208"/>
			<rect x="66.064" y="81.362" width="48.716" height="15.208"/>
			<rect x="267.893" y="40.132" width="15.208" height="28.56"/>
			<rect x="298.319" y="40.132" width="15.208" height="28.56"/>
			<rect x="328.735" y="40.132" width="15.208" height="28.56"/>
			<rect x="359.151" y="40.132" width="15.208" height="28.56"/>
			<rect x="384.051" y="305.345" width="15.208" height="76.719"/>
			<rect x="28.041" y="496.792" width="439.114" height="15.208"/>
		</g>
	</g>
</g>
<g>
</g>
<g>
</g>
<g>
</g>
<g>
</g>
<g>
</g>
<g>
</g>
<g>
</g>
<g>
</g>
<g>
</g>
<g>
</g>
<g>
</g>
<g>
</g>
<g>
</g>
<g>
</g>
<g>
</g>
</svg>
