<?xml version="1.0" encoding="iso-8859-1"?>
<!-- Generator: Adobe Illustrator 19.0.0, SVG Export Plug-In . SVG Version: 6.00 Build 0)  -->
<svg version="1.1" id="Layer_1" xmlns="http://www.w3.org/2000/svg" xmlns:xlink="http://www.w3.org/1999/xlink" x="0px" y="0px"
	 viewBox="0 0 512 512" style="enable-background:new 0 0 512 512;" xml:space="preserve">
<g>
	<g>
		<g>
			<path d="M205.564,292.408v84.717c0,6.429,5.231,11.659,11.659,11.659h36.998v-15.208h-33.449v-81.169H205.564z"/>
			<path d="M471.442,139.943V33.964C471.442,15.236,456.205,0,437.477,0H74.523C55.795,0,40.559,15.236,40.559,33.964v105.979
				h37.509v180.06h15.208v-180.06h61.594v15.975h-46.955v15.208h46.955v11.414c0,10.901,8.869,19.77,19.77,19.77H337.36
				c10.901,0,19.77-8.869,19.77-19.77v-42.597h61.594v264.048h-91.596c6.067-7.294,9.723-16.661,9.723-26.867v-3.757h10.424
				c25.975,0,47.108-21.133,47.108-47.108c0-25.976-21.133-47.108-47.108-47.108h-10.424v-24.763H294.02v15.208h27.624v107.529
				c0,14.815-12.053,26.867-26.867,26.867h-77.552c-14.815,0-26.867-12.053-26.867-26.867V269.596h83.386v-15.208h-98.594v122.737
				c0,10.207,3.656,19.574,9.723,26.867H93.275v-63.71H78.067v63.71H40.559v58.837c0,18.728,15.236,33.964,33.964,33.964h12.675V512
				h15.208v-15.207h15.211V512h15.208v-15.207h246.35V512h15.208v-15.207h15.211V512h15.208v-15.207h12.675
				c18.728,0,33.964-15.236,33.964-33.964v-58.837h-37.509V139.943H471.442z M336.851,294.358h10.424v0
				c17.591,0,31.9,14.311,31.9,31.9s-14.31,31.9-31.9,31.9h-10.424V294.358z M337.36,187.103H174.64
				c-2.515,0-4.562-2.047-4.562-4.562v-11.414H256v-15.208h-85.923v-15.975h15.951h139.942h15.951v42.597h0.001
				C341.923,185.056,339.876,187.103,337.36,187.103z M248.396,90.251v34.484h-46.634c3.713-26.611,26.621-47.16,54.238-47.16
				c27.616,0,50.524,20.55,54.238,47.16h-46.634V90.251H248.396z M456.234,419.199v43.63c0,10.342-8.414,18.756-18.756,18.756
				h-12.675h-15.208h-15.211h-15.208h-246.35h-15.208h-15.211H87.198H74.523c-10.342,0-18.756-8.414-18.756-18.756v-43.63h22.301
				h139.157h77.552h139.156H456.234z M357.131,124.735h-1.03C352.201,72.92,308.796,31.952,256,31.952V47.16
				c44.404,0,80.961,34.159,84.822,77.576h-15.271C321.748,89.718,292.012,62.368,256,62.368s-65.748,27.35-69.551,62.368h-31.58
				H78.067H55.766V33.964c0-10.342,8.414-18.756,18.756-18.756h362.954c10.342,0,18.756,8.414,18.756,18.756v90.771h-22.301H357.131
				z"/>
			<rect x="147.517" y="434.409" width="73.596" height="15.208"/>
			<rect x="241.39" y="434.409" width="192.025" height="15.208"/>
		</g>
	</g>
</g>
<g>
</g>
<g>
</g>
<g>
</g>
<g>
</g>
<g>
</g>
<g>
</g>
<g>
</g>
<g>
</g>
<g>
</g>
<g>
</g>
<g>
</g>
<g>
</g>
<g>
</g>
<g>
</g>
<g>
</g>
</svg>
