<?xml version="1.0" encoding="iso-8859-1"?>
<!-- Generator: Adobe Illustrator 19.0.0, SVG Export Plug-In . SVG Version: 6.00 Build 0)  -->
<svg version="1.1" id="Layer_1" xmlns="http://www.w3.org/2000/svg" xmlns:xlink="http://www.w3.org/1999/xlink" x="0px" y="0px"
	 viewBox="0 0 512.001 512.001" style="enable-background:new 0 0 512.001 512.001;" xml:space="preserve">
<g>
	<g>
		<g>
			<path d="M356.771,61.341L374.313,0H137.686l17.544,61.341c-55.96,5.308-99.886,52.562-99.886,109.887v262.008
				c0,43.431,35.333,78.765,78.763,78.765h41.353v-15.208h-41.353c-35.044,0-63.555-28.512-63.555-63.557V171.228
				c0-52.484,42.699-95.182,95.182-95.182h180.529c52.486,0,95.184,42.699,95.184,95.182v262.008
				c0,35.045-28.511,63.557-63.557,63.557H195.738v15.208h182.153c43.431,0,78.765-35.334,78.765-78.765V171.228
				C456.655,113.902,412.731,66.649,356.771,61.341z M349.796,30.419H221.184v15.208h124.262l-4.35,15.211H170.905l-13.05-45.63
				h196.293L349.796,30.419z"/>
			<rect x="411.03" y="191.508" width="15.208" height="45.634"/>
			<path d="M346.263,91.254v15.208c35.714,0,64.768,29.054,64.768,64.766h15.208C426.24,127.13,390.362,91.254,346.263,91.254z"/>
			<path d="M256,357.609c3.481,1.662,7.487,3.148,11.941,3.148c26.134,0,46.607-31.258,46.607-71.161s-20.472-71.161-46.607-71.161
				c-4.453,0-8.46,1.486-11.94,3.148c-3.482-1.662-7.488-3.148-11.94-3.148c-26.134,0-46.607,31.258-46.607,71.161
				c0,39.903,20.472,71.161,46.607,71.161C248.512,360.757,252.518,359.271,256,357.609z M263.604,234.821
				c1.586-0.696,3.081-1.179,4.336-1.179c15.163,0,31.399,22.484,31.399,55.954c0,33.47-16.236,55.953-31.399,55.953
				c-1.255,0-2.751-0.484-4.336-1.179V234.821z M212.66,289.596c0-33.47,16.236-55.953,31.399-55.953
				c1.255,0,2.75,0.484,4.336,1.179v109.55c-1.587,0.695-3.081,1.179-4.336,1.179C228.896,345.549,212.66,323.066,212.66,289.596z"
				/>
		</g>
	</g>
</g>
<g>
</g>
<g>
</g>
<g>
</g>
<g>
</g>
<g>
</g>
<g>
</g>
<g>
</g>
<g>
</g>
<g>
</g>
<g>
</g>
<g>
</g>
<g>
</g>
<g>
</g>
<g>
</g>
<g>
</g>
</svg>
