<?xml version="1.0" encoding="iso-8859-1"?>
<!-- Generator: Adobe Illustrator 19.0.0, SVG Export Plug-In . SVG Version: 6.00 Build 0)  -->
<svg version="1.1" id="Layer_1" xmlns="http://www.w3.org/2000/svg" xmlns:xlink="http://www.w3.org/1999/xlink" x="0px" y="0px"
	 viewBox="0 0 512 512" style="enable-background:new 0 0 512 512;" xml:space="preserve">
<g>
	<g>
		<g>
			<path d="M256,297.069c-33.587,0-60.911,27.326-60.911,60.914c0,33.586,27.325,60.911,60.911,60.911
				c33.587,0,60.912-27.325,60.912-60.91C316.912,324.395,289.586,297.069,256,297.069z M256,403.687
				c-25.202,0-45.705-20.503-45.705-45.704c0-25.203,20.503-45.708,45.705-45.708c25.202,0,45.706,20.505,45.706,45.708
				C301.706,383.184,281.201,403.687,256,403.687z"/>
			<path d="M256,327.481c-16.817,0-30.499,13.684-30.499,30.502c0,16.816,13.682,30.498,30.499,30.498
				c16.817,0,30.5-13.682,30.5-30.498C286.499,341.165,272.817,327.481,256,327.481z M256,373.275
				c-8.432,0-15.293-6.86-15.293-15.292c0-8.433,6.86-15.296,15.293-15.296c8.432,0,15.293,6.862,15.293,15.296
				C271.293,366.415,264.432,373.275,256,373.275z"/>
			<rect x="104.984" y="270.541" width="90.924" height="15.206"/>
			<path d="M487.759,255.332v-51.369h-62.926c-3.893-50.502-46.231-90.405-97.715-90.405h-63.515V92.6h25.849V77.394H88.823v-20.96
				h24.598c12.697,0,23.027-10.33,23.027-23.027V23.027C136.448,10.33,126.118,0,113.421,0H49.019
				C36.322,0,25.992,10.33,25.992,23.027v10.38c0,12.697,10.33,23.027,23.027,23.027h24.598v20.959H47.768V92.6h200.629v20.958
				h-63.515c-51.484,0-93.821,39.902-97.715,90.405H24.241v51.369h42.73V460.63h-42.73V512h463.518v-51.37H445.03V255.332H487.759z
				 M49.019,41.228c-4.313-0.001-7.821-3.509-7.821-7.821v-10.38c0-4.313,3.509-7.821,7.821-7.821h64.402
				c4.313,0,7.821,3.509,7.821,7.821v10.38c0,4.313-3.509,7.821-7.821,7.821H49.019z M184.882,128.765h142.237
				c43.093,0,78.603,33.093,82.455,75.198H102.427C106.279,161.858,141.789,128.765,184.882,128.765z M472.553,475.836v20.957
				H39.447v-20.957h42.73h347.647H472.553z M429.824,240.126h-56.228v15.206h56.228V460.63h-0.001H82.177V255.332h271.142v-15.206
				H82.177h-42.73V219.17h47.428h338.251h47.427v20.956H429.824z"/>
			<path d="M121.131,189.086l14.338,5.069c7.396-20.921,27.255-34.977,49.414-34.977v-15.206
				C156.291,143.971,130.671,162.101,121.131,189.086z"/>
		</g>
	</g>
</g>
<g>
</g>
<g>
</g>
<g>
</g>
<g>
</g>
<g>
</g>
<g>
</g>
<g>
</g>
<g>
</g>
<g>
</g>
<g>
</g>
<g>
</g>
<g>
</g>
<g>
</g>
<g>
</g>
<g>
</g>
</svg>
