<?xml version="1.0" encoding="iso-8859-1"?>
<!-- Generator: Adobe Illustrator 19.0.0, SVG Export Plug-In . SVG Version: 6.00 Build 0)  -->
<svg version="1.1" id="Layer_1" xmlns="http://www.w3.org/2000/svg" xmlns:xlink="http://www.w3.org/1999/xlink" x="0px" y="0px"
	 viewBox="0 0 512 512" style="enable-background:new 0 0 512 512;" xml:space="preserve">
<g>
	<g>
		<g>
			<path d="M378.452,52.226c4.295-5.49,6.864-12.391,6.864-19.885C385.315,14.508,370.808,0,352.974,0H159.027
				c-17.833,0-32.341,14.508-32.341,32.34c0,7.494,2.569,14.395,6.864,19.885C76.448,64.189,33.089,113.841,30.912,173.798h-0.096
				v4.729v229.426v42.726c0,33.813,27.566,61.32,61.449,61.32h64.377v-15.208H92.266c-25.498,0-46.241-20.686-46.241-46.112v-42.726
				h316.351v-62.781h-15.208v47.573H46.025V189.007h301.143v135.886h15.208V173.799H46.13
				c2.495-60.59,52.684-109.118,114.032-109.118H351.84c62.935,0,114.138,51.071,114.138,113.846V450.68
				c0,25.427-20.744,46.112-46.241,46.112H176.919V512h242.816c33.883,0,61.449-27.508,61.449-61.32V178.528
				C481.184,116.467,437.049,64.502,378.452,52.226z M352.975,49.472h-1.136h-2.867V32.34h-15.208v17.132h-19.167V32.34H299.39
				v17.132h-19.166V32.34h-15.208v17.132H245.85V32.34h-15.208v17.132h-19.167V32.34h-15.208v17.132h-19.166V32.34h-15.208v17.132
				h-1.732h-1.135c-9.447,0-17.133-7.686-17.133-17.132s7.687-17.132,17.134-17.132h193.949c9.447,0,17.133,7.686,17.133,17.132
				S362.422,49.472,352.975,49.472z"/>
			<rect x="435.565" y="198.808" width="15.208" height="71.386"/>
			<path d="M351.839,79.889v15.208c46.164,0,83.722,37.427,83.722,83.431h15.208C450.768,124.138,406.39,79.889,351.839,79.889z"/>
			<path d="M106.625,308.694c0,13.791,11.219,25.01,25.009,25.01c13.79,0,25.009-11.219,25.009-25.01s-11.219-25.009-25.009-25.009
				C117.845,283.686,106.625,294.904,106.625,308.694z M141.436,308.694c0,5.405-4.397,9.802-9.801,9.802
				c-5.404,0-9.801-4.397-9.801-9.802c0-5.404,4.397-9.801,9.801-9.801C137.039,298.893,141.436,303.291,141.436,308.694z"/>
			<path d="M159.87,225.744v-15.208c-19.762,0-35.839,16.077-35.839,35.839v2.236c-3.791-0.979-7.703-1.494-11.642-1.494
				c-25.695,0-46.599,20.904-46.599,46.599v11.655c0,36.307,29.539,65.844,65.846,65.844c36.307,0,65.845-29.538,65.845-65.844
				v-11.655c0-25.695-20.905-46.599-46.599-46.599c-3.94,0-7.851,0.515-11.642,1.493v-2.235
				C139.238,234.999,148.494,225.744,159.87,225.744z M150.88,262.324c17.31,0,31.391,14.083,31.391,31.391v11.655
				c0,27.921-22.716,50.636-50.637,50.636c-27.922,0-50.638-22.716-50.638-50.636v-11.655c0-17.309,14.083-31.391,31.391-31.391
				c5.426,0,10.781,1.415,15.488,4.091l3.758,2.137l3.759-2.137C140.1,263.739,145.455,262.324,150.88,262.324z"/>
			<rect x="220.951" y="237.649" width="98.852" height="15.208"/>
			<rect x="220.951" y="268.065" width="98.852" height="15.208"/>
			<rect x="220.951" y="298.481" width="98.852" height="15.208"/>
			<rect x="220.951" y="328.897" width="98.852" height="15.208"/>
		</g>
	</g>
</g>
<g>
</g>
<g>
</g>
<g>
</g>
<g>
</g>
<g>
</g>
<g>
</g>
<g>
</g>
<g>
</g>
<g>
</g>
<g>
</g>
<g>
</g>
<g>
</g>
<g>
</g>
<g>
</g>
<g>
</g>
</svg>
