<?xml version="1.0" encoding="iso-8859-1"?>
<!-- Generator: Adobe Illustrator 19.0.0, SVG Export Plug-In . SVG Version: 6.00 Build 0)  -->
<svg version="1.1" id="Layer_1" xmlns="http://www.w3.org/2000/svg" xmlns:xlink="http://www.w3.org/1999/xlink" x="0px" y="0px"
	 viewBox="0 0 512 512" style="enable-background:new 0 0 512 512;" xml:space="preserve">
<g>
	<g>
		<g>
			<rect x="185.03" y="240.123" width="63.194" height="15.208"/>
			<rect x="38.02" y="240.123" width="126.733" height="15.208"/>
			<path d="M486.147,209.7H320.188h-0.013c-0.275-38.806-31.918-70.294-70.788-70.294h-45.302
				c-3.226-21.396-21.733-37.85-44.013-37.85c-22.281,0-40.788,16.455-44.014,37.85H70.801c-38.869,0-70.513,31.489-70.788,70.294H0
				v0.507v14.701v141.303c0,24.39,19.843,44.234,44.233,44.234h231.721c24.391,0,44.234-19.843,44.234-44.234V261.407h165.959
				c14.256,0,25.853-11.598,25.853-25.853S500.402,209.7,486.147,209.7z M160.071,116.763c13.868,0,25.517,9.682,28.541,22.643
				h-57.083C134.554,126.446,146.203,116.763,160.071,116.763z M70.801,154.614h44.757h89.027h44.802
				c30.486,0,55.319,24.663,55.591,55.086H15.21C15.483,179.277,40.315,154.614,70.801,154.614z M304.98,261.407v104.804
				c0,16.005-13.021,29.026-29.026,29.026H44.233c-16.004,0-29.025-13.021-29.025-29.026V224.908H304.98V261.407z M486.147,246.199
				H320.188v-21.291h165.959c5.87,0,10.646,4.775,10.646,10.646S492.017,246.199,486.147,246.199z"/>
		</g>
	</g>
</g>
<g>
</g>
<g>
</g>
<g>
</g>
<g>
</g>
<g>
</g>
<g>
</g>
<g>
</g>
<g>
</g>
<g>
</g>
<g>
</g>
<g>
</g>
<g>
</g>
<g>
</g>
<g>
</g>
<g>
</g>
</svg>
