<?xml version="1.0" encoding="iso-8859-1"?>
<!-- Generator: Adobe Illustrator 19.0.0, SVG Export Plug-In . SVG Version: 6.00 Build 0)  -->
<svg version="1.1" id="Layer_1" xmlns="http://www.w3.org/2000/svg" xmlns:xlink="http://www.w3.org/1999/xlink" x="0px" y="0px"
	 viewBox="0 0 512 512" style="enable-background:new 0 0 512 512;" xml:space="preserve">
<g>
	<g>
		<g>
			<path d="M165.769,0v15.208h294.88v47.969c0,18.361-2.445,36.597-7.268,54.202c-22.891,83.552-96.315,143.799-182.707,149.919
				l-7.067,0.501v168.159h-15.212V267.798l-7.067-0.501c-86.392-6.119-159.816-66.366-182.707-149.918
				c-4.822-17.606-7.268-35.842-7.268-54.203V15.208h94.137V0H36.145v63.177c0,19.718,2.628,39.306,7.809,58.221
				c23.969,87.482,99.493,151.184,189.233,160.456v154.105h-53.108c-20.649,0-37.449,16.8-37.449,37.449
				c0,0.207,0.006,0.411,0.013,0.615l0.158,7.56h226.398l0.154-7.446l0.004-0.114c0.007-0.205,0.013-0.409,0.013-0.615
				c0-20.649-16.799-37.449-37.449-37.449h-53.108V281.853c89.74-9.271,165.264-72.973,189.233-160.455
				c5.181-18.915,7.809-38.503,7.809-58.221V0H165.769z M278.815,451.165h53.107c9.813,0,18.161,6.387,21.107,15.208H158.978
				c2.949-8.828,11.294-15.208,21.102-15.208h53.108H278.815z"/>
			<path d="M106.293,152.408l-13.06,7.793c31.736,53.194,87.5,87.56,149.168,91.929l1.076-15.17
				C186.766,232.942,135.483,201.335,106.293,152.408z"/>
			<path d="M81.768,63.177H66.561c0,17.004,2.263,33.889,6.728,50.185c2.63,9.599,6.045,19.058,10.15,28.111l13.851-6.28
				c-3.776-8.325-6.916-17.023-9.334-25.849C83.851,94.357,81.768,78.825,81.768,63.177z"/>
			<rect x="215.446" y="30.416" width="222.391" height="15.208"/>
			<rect x="103.931" y="496.792" width="304.138" height="15.208"/>
		</g>
	</g>
</g>
<g>
</g>
<g>
</g>
<g>
</g>
<g>
</g>
<g>
</g>
<g>
</g>
<g>
</g>
<g>
</g>
<g>
</g>
<g>
</g>
<g>
</g>
<g>
</g>
<g>
</g>
<g>
</g>
<g>
</g>
</svg>
