<?xml version="1.0" encoding="iso-8859-1"?>
<!-- Generator: Adobe Illustrator 19.0.0, SVG Export Plug-In . SVG Version: 6.00 Build 0)  -->
<svg version="1.1" id="Layer_1" xmlns="http://www.w3.org/2000/svg" xmlns:xlink="http://www.w3.org/1999/xlink" x="0px" y="0px"
	 viewBox="0 0 512 512" style="enable-background:new 0 0 512 512;" xml:space="preserve">
<g>
	<g>
		<path d="M512,148.882l-15.359-12.965l15.358-54.656L468.566,44.6l-35.818,24.591l-35.341-24.266l-35.341,24.266l-35.343-24.266
			l-35.341,24.266L256.04,44.926l-35.343,24.266l-35.341-24.266l-35.343,24.266l-35.342-24.266L79.33,69.192L43.518,44.603L0,81.257
			l15.365,54.678L0,148.876l15.365,54.677L0,216.496L70.503,467.4h370.994L512,216.501l-15.358-12.964L512,148.882z M439.605,82.929
			l28.013-19.233l27.095,22.874l-10.837,38.571l-15.308-12.921l-35.818,24.591l-3.273-2.247L439.605,82.929z M369.21,82.732
			l28.198-19.361l26.914,18.479l-8.501,43.337l-18.413-12.642l-34.51,23.695L369.21,82.732z M424.327,149.474l-8.501,43.337
			l-18.418-12.645l-34.507,23.692l6.312-53.508l28.195-19.358L424.327,149.474z M298.829,82.524l27.894-19.153l27.251,18.71
			l-5.366,45.49l-21.886-15.026l-29.87,20.509L298.829,82.524z M353.978,149.703l-5.366,45.49l-21.889-15.028l-29.869,20.508
			l1.976-50.531l27.893-19.152L353.978,149.703z M256.041,63.371l27.58,18.937l-1.872,47.888l-25.707-17.65l-25.708,17.65
			l-1.872-47.888L256.041,63.371z M185.356,63.371l27.894,19.153l1.976,50.531l-29.87-20.509l-21.9,15.036l-5.353-45.5
			L185.356,63.371z M185.356,130.992l27.893,19.151l1.976,50.531l-29.869-20.508l-21.903,15.038l-5.353-45.499L185.356,130.992z
			 M114.672,63.372l28.198,19.36l6.293,53.496l-34.491-23.682l-18.412,12.642l-8.501-43.337L114.672,63.372z M114.671,130.991
			l28.195,19.358l6.293,53.496l-34.488-23.679l-18.418,12.645l-8.501-43.337L114.671,130.991z M44.456,63.694L72.474,82.93
			l10.129,51.634l-3.273,2.247l-35.812-24.588l-15.38,12.955L17.289,86.575L44.456,63.694z M19.882,152.01l24.573-20.697
			l28.012,19.232l10.131,51.641l-3.268,2.244l-35.812-24.588l-15.38,12.955l-10.848-38.601L19.882,152.01z M82.024,452.193
			L17.289,221.814l2.593-2.185v0.001l24.573-20.698l28.012,19.232l45.911,234.028H82.024z M133.873,452.194L87.752,217.093
			l26.919-18.482l28.195,19.358l27.554,234.225H133.873z M185.731,452.193l-27.63-234.87l27.255-18.713l27.893,19.151l9.168,234.431
			H185.731z M274.367,452.193h-36.733l-9.176-234.646l27.582-18.937l27.58,18.936L274.367,452.193z M281.749,197.817l-25.708-17.651
			l-25.709,17.651l-1.872-47.889l27.582-18.937l27.581,18.937L281.749,197.817z M341.582,452.194l12.761-108.178l-15.1-1.782
			l-12.971,109.96h-36.686l9.244-234.431l27.894-19.153l27.254,18.712l-12.36,104.773l15.101,1.782l12.493-105.908l28.195-19.358
			l26.917,18.481l-46.196,235.102H341.582z M429.976,452.193h-36.35l45.985-234.028l28.005-19.229l27.096,22.873L429.976,452.193z
			 M483.877,192.76l-15.308-12.921l-35.819,24.591l-3.268-2.244l10.131-51.642l28.005-19.228l27.096,22.873L483.877,192.76z"/>
	</g>
</g>
<g>
</g>
<g>
</g>
<g>
</g>
<g>
</g>
<g>
</g>
<g>
</g>
<g>
</g>
<g>
</g>
<g>
</g>
<g>
</g>
<g>
</g>
<g>
</g>
<g>
</g>
<g>
</g>
<g>
</g>
</svg>
