<?xml version="1.0" encoding="iso-8859-1"?>
<!-- Generator: Adobe Illustrator 19.0.0, SVG Export Plug-In . SVG Version: 6.00 Build 0)  -->
<svg version="1.1" id="Layer_1" xmlns="http://www.w3.org/2000/svg" xmlns:xlink="http://www.w3.org/1999/xlink" x="0px" y="0px"
	 viewBox="0 0 512 512" style="enable-background:new 0 0 512 512;" xml:space="preserve">
<g>
	<g>
		<g>
			<path d="M307.709,102.191c0,20.535-11.303,34.173-29.991,37.028V0h-15.208v139.219c-18.689-2.855-29.991-16.493-29.991-37.028
				V20.279h-15.208v81.912c0,28.973,17.865,49.212,45.199,52.361v86.324h-22.283v241.237c0,16.479,13.407,29.887,29.887,29.887
				s29.887-13.407,29.887-29.887V240.876h-22.283v-86.324c27.334-3.149,45.199-23.388,45.199-52.361V20.279h-15.208V102.191z
				 M284.792,482.113c0,8.094-6.584,14.679-14.678,14.679c-8.094,0-14.679-6.585-14.679-14.679v-195.61h29.356V482.113z
				 M284.792,256.084v15.211h-29.356v-15.211h7.075h15.208H284.792z"/>
			<path d="M426.1,240.876c9.5-9.453,15.39-22.531,15.39-36.961V52.168C441.491,23.403,418.088,0,389.321,0h-7.604v240.876v15.208
				v226.029c0,16.479,13.407,29.887,29.887,29.887c16.479,0,29.888-13.407,29.888-29.887V240.876H426.1z M396.925,15.995
				c16.745,3.516,29.357,18.4,29.357,36.174v151.748c0,17.775-12.612,32.659-29.357,36.176V15.995z M426.283,482.113
				c0,8.094-6.585,14.679-14.679,14.679c-8.094,0-14.679-6.585-14.679-14.679v-195.61h29.357V482.113z M426.283,271.295h-29.357
				v-15.211h29.357V271.295z"/>
			<path d="M128.625,0C96.58,0,70.508,26.07,70.508,58.117v55.196c0,29.467,22.049,53.864,50.513,57.603v69.963H98.738v157.727
				h15.208V286.503h29.357v195.61c0,8.094-6.585,14.679-14.679,14.679c-8.094,0-14.68-6.585-14.68-14.679v-63.23H98.737v63.23
				c0,16.479,13.407,29.887,29.888,29.887c16.479,0,29.887-13.407,29.887-29.887V240.876h-22.283v-69.963
				c28.463-3.738,50.512-28.136,50.512-57.603V58.117C186.741,26.07,160.67,0,128.625,0z M143.304,256.084v15.211h-29.357v-15.211
				H143.304z M171.533,113.312c0,23.659-19.248,42.908-42.908,42.908s-42.909-19.248-42.909-42.908V58.117
				c0-23.661,19.249-42.909,42.909-42.909s42.908,19.248,42.908,42.909V113.312z"/>
			<path d="M141.117,113.312c0,6.888-5.604,12.492-12.492,12.492v15.208c15.274,0,27.7-12.426,27.7-27.7V58.117h-15.208V113.312z"/>
		</g>
	</g>
</g>
<g>
</g>
<g>
</g>
<g>
</g>
<g>
</g>
<g>
</g>
<g>
</g>
<g>
</g>
<g>
</g>
<g>
</g>
<g>
</g>
<g>
</g>
<g>
</g>
<g>
</g>
<g>
</g>
<g>
</g>
</svg>
