<?xml version="1.0" encoding="iso-8859-1"?>
<!-- Generator: Adobe Illustrator 19.0.0, SVG Export Plug-In . SVG Version: 6.00 Build 0)  -->
<svg version="1.1" id="Layer_1" xmlns="http://www.w3.org/2000/svg" xmlns:xlink="http://www.w3.org/1999/xlink" x="0px" y="0px"
	 viewBox="0 0 512 512" style="enable-background:new 0 0 512 512;" xml:space="preserve">
<g>
	<g>
		<g>
			<path d="M437.019,74.981C388.668,26.629,324.38,0,256,0S123.332,26.629,74.981,74.981C26.629,123.332,0,187.62,0,256
				s26.629,132.668,74.981,181.019C123.332,485.371,187.62,512,256,512s132.668-26.629,181.019-74.981
				C485.371,388.668,512,324.38,512,256S485.371,123.332,437.019,74.981z M426.266,426.266
				c-45.48,45.48-105.949,70.526-170.266,70.526s-124.786-25.046-170.266-70.527C40.254,380.786,15.208,320.317,15.208,256
				S40.254,131.214,85.735,85.735C131.214,40.254,191.683,15.208,256,15.208s124.786,25.046,170.266,70.527
				c45.48,45.479,70.526,105.948,70.526,170.265S471.746,380.786,426.266,426.266z"/>
			<path d="M460.567,160.643l-13.78,6.434c12.999,27.845,19.59,57.763,19.59,88.923h15.208
				C481.584,222.601,474.513,190.518,460.567,160.643z"/>
			<path d="M415.513,96.487C372.904,53.881,316.256,30.416,256,30.416v15.208c56.193,0,109.024,21.883,148.759,61.616
				c12.879,12.88,24.013,27.281,33.093,42.805l13.126-7.679C441.243,125.722,429.31,110.286,415.513,96.487z"/>
			<path d="M256,81.109c-96.435,0-174.891,78.456-174.891,174.891c0,42.883,15.737,84.163,44.313,116.231l11.354-10.117
				C110.685,332.833,96.317,295.148,96.317,256c0-88.05,71.633-159.683,159.683-159.683S415.683,167.95,415.683,256
				S344.05,415.683,256,415.683c-38.963,0-76.513-14.249-105.734-40.12l-10.081,11.386c32.004,28.336,73.134,43.943,115.814,43.943
				c96.435,0,174.891-78.456,174.891-174.891S352.435,81.109,256,81.109z"/>
			<path d="M256,385.267v15.208c79.664,0,144.475-64.811,144.475-144.475S335.664,111.525,256,111.525v15.208
				c71.279,0,129.267,57.989,129.267,129.267S327.279,385.267,256,385.267z"/>
		</g>
	</g>
</g>
<g>
</g>
<g>
</g>
<g>
</g>
<g>
</g>
<g>
</g>
<g>
</g>
<g>
</g>
<g>
</g>
<g>
</g>
<g>
</g>
<g>
</g>
<g>
</g>
<g>
</g>
<g>
</g>
<g>
</g>
</svg>
