<?xml version="1.0" encoding="iso-8859-1"?>
<!-- Generator: Adobe Illustrator 19.0.0, SVG Export Plug-In . SVG Version: 6.00 Build 0)  -->
<svg version="1.1" id="Layer_1" xmlns="http://www.w3.org/2000/svg" xmlns:xlink="http://www.w3.org/1999/xlink" x="0px" y="0px"
	 viewBox="0 0 512 512" style="enable-background:new 0 0 512 512;" xml:space="preserve">
<g>
	<g>
		<g>
			<path d="M361.595,0H150.405c-40.916,0-74.203,33.287-74.203,74.203v255.803H91.41V74.203c0-32.53,26.465-58.995,58.996-58.995
				h211.19c32.53,0,58.995,26.465,58.995,58.995v363.594c0,32.531-26.465,58.996-58.995,58.996h-211.19
				c-32.53,0-58.995-26.466-58.995-58.996v-87.511H76.203v87.511c0,40.915,33.287,74.203,74.203,74.203h211.19
				c40.915,0,74.202-33.288,74.202-74.203V74.203C435.798,33.287,402.511,0,361.595,0z"/>
			<path d="M179.897,167.415c35.136,0,63.721-28.585,63.721-63.722c0-35.135-28.585-63.72-63.721-63.72
				c-35.135,0-63.72,28.584-63.72,63.72C116.176,138.83,144.761,167.415,179.897,167.415z M179.897,55.181
				c26.751,0,48.513,21.763,48.513,48.512c0,26.751-21.763,48.514-48.513,48.514c-26.75,0-48.512-21.764-48.512-48.514
				C131.384,76.944,153.147,55.181,179.897,55.181z"/>
			<path d="M179.897,319.622c35.136,0,63.721-28.584,63.721-63.72c0-35.136-28.585-63.722-63.721-63.722
				c-35.135,0-63.72,28.585-63.72,63.722C116.176,291.038,144.761,319.622,179.897,319.622z M179.897,207.388
				c26.751,0,48.513,21.764,48.513,48.514c0,26.75-21.763,48.512-48.513,48.512c-26.75,0-48.512-21.763-48.512-48.512
				C131.384,229.152,153.147,207.388,179.897,207.388z"/>
			<path d="M179.897,471.827c35.136,0,63.721-28.584,63.721-63.72c0-35.136-28.585-63.721-63.721-63.721
				c-35.135,0-63.72,28.585-63.72,63.721C116.176,443.243,144.761,471.827,179.897,471.827z M179.897,359.594
				c26.751,0,48.513,21.763,48.513,48.513c0,26.75-21.763,48.512-48.513,48.512c-26.75,0-48.512-21.763-48.512-48.512
				C131.384,381.357,153.147,359.594,179.897,359.594z"/>
			<path d="M332.103,167.415c35.136,0,63.721-28.585,63.721-63.722c0-35.135-28.585-63.72-63.721-63.72
				c-35.135,0-63.72,28.584-63.72,63.72C268.383,138.83,296.968,167.415,332.103,167.415z M332.103,55.181
				c26.751,0,48.513,21.763,48.513,48.512c0,26.751-21.763,48.514-48.513,48.514c-26.75,0-48.512-21.764-48.512-48.514
				C283.591,76.944,305.354,55.181,332.103,55.181z"/>
			<path d="M332.103,319.622c35.136,0,63.721-28.584,63.721-63.72c0-35.136-28.585-63.722-63.721-63.722
				c-35.135,0-63.72,28.585-63.72,63.722C268.383,291.038,296.968,319.622,332.103,319.622z M332.103,207.388
				c26.751,0,48.513,21.764,48.513,48.514c0,26.75-21.763,48.512-48.513,48.512c-26.75,0-48.512-21.763-48.512-48.512
				C283.591,229.152,305.354,207.388,332.103,207.388z"/>
			<path d="M332.103,471.827c35.136,0,63.721-28.584,63.721-63.72c0-35.136-28.585-63.721-63.721-63.721
				c-35.135,0-63.72,28.585-63.72,63.721C268.383,443.243,296.968,471.827,332.103,471.827z M332.103,359.594
				c26.751,0,48.513,21.763,48.513,48.513c0,26.75-21.763,48.512-48.513,48.512c-26.75,0-48.512-21.763-48.512-48.512
				C283.591,381.357,305.354,359.594,332.103,359.594z"/>
			<path d="M197.994,103.693h15.208c0-18.364-14.94-33.304-33.305-33.304v15.208C189.876,85.597,197.994,93.715,197.994,103.693z"/>
			<path d="M197.994,255.902h15.208c0-18.365-14.94-33.306-33.305-33.306v15.208C189.876,237.804,197.994,245.923,197.994,255.902z"
				/>
			<path d="M197.994,408.107h15.208c0-18.364-14.94-33.305-33.305-33.305v15.208C189.876,390.01,197.994,398.128,197.994,408.107z"
				/>
			<path d="M350.201,103.693h15.208c0-18.364-14.94-33.304-33.305-33.304v15.208C342.083,85.597,350.201,93.715,350.201,103.693z"/>
			<path d="M350.201,255.902h15.208c0-18.365-14.94-33.306-33.305-33.306v15.208C342.083,237.804,350.201,245.923,350.201,255.902z"
				/>
			<path d="M350.201,408.107h15.208c0-18.364-14.94-33.305-33.305-33.305v15.208C342.083,390.01,350.201,398.128,350.201,408.107z"
				/>
		</g>
	</g>
</g>
<g>
</g>
<g>
</g>
<g>
</g>
<g>
</g>
<g>
</g>
<g>
</g>
<g>
</g>
<g>
</g>
<g>
</g>
<g>
</g>
<g>
</g>
<g>
</g>
<g>
</g>
<g>
</g>
<g>
</g>
</svg>
