<?xml version="1.0" encoding="iso-8859-1"?>
<!-- Generator: Adobe Illustrator 19.0.0, SVG Export Plug-In . SVG Version: 6.00 Build 0)  -->
<svg version="1.1" id="Layer_1" xmlns="http://www.w3.org/2000/svg" xmlns:xlink="http://www.w3.org/1999/xlink" x="0px" y="0px"
	 viewBox="0 0 512.001 512.001" style="enable-background:new 0 0 512.001 512.001;" xml:space="preserve">
<g>
	<g>
		<g>
			<path d="M511.952,44.575c0-11.907-4.636-23.1-13.056-31.519C490.477,4.636,479.284,0,467.376,0
				c-11.907,0-23.101,4.636-31.52,13.056L324.081,124.829c-33.915-21.888-73.136-33.424-113.842-33.424
				c-56.17,0-108.976,21.873-148.693,61.59c-81.995,81.995-81.995,215.414,0,297.41c39.722,39.721,92.533,61.596,148.705,61.596
				c56.174,0,108.985-21.875,148.705-61.596c70.244-70.244,81.652-179.677,28.165-262.535L498.896,76.096
				C507.315,67.676,511.953,56.482,511.952,44.575z M488.139,65.341L367.481,185.999l3.592,5.214
				c53.304,77.396,43.686,181.878-22.872,248.436c-36.847,36.847-85.839,57.141-137.949,57.141
				c-52.111,0-101.101-20.293-137.949-57.141c-76.066-76.066-76.066-199.834,0-275.899c36.843-36.843,85.83-57.134,137.936-57.134
				c39.741,0,77.951,11.848,110.498,34.263l5.214,3.592L446.611,23.813c5.546-5.548,12.92-8.602,20.765-8.602
				s15.219,3.054,20.766,8.6c5.547,5.546,8.6,12.921,8.6,20.765C496.742,52.419,493.687,59.793,488.139,65.341z"/>
			<path d="M467.089,24.561c-5.424,0-10.521,2.111-14.354,5.944c-7.913,7.913-7.913,20.79,0.002,28.712
				c3.834,3.832,8.932,5.942,14.353,5.942c5.423,0,10.521-2.111,14.355-5.945c3.833-3.833,5.944-8.932,5.944-14.354
				c0-5.424-2.111-10.522-5.944-14.354C477.611,26.672,472.513,24.561,467.089,24.561z M470.689,48.459
				c-0.96,0.96-2.238,1.49-3.599,1.49c-1.36,0-2.64-0.529-3.597-1.487c-1.985-1.987-1.987-5.217-0.002-7.202
				c0.96-0.96,2.238-1.489,3.598-1.489c1.361,0,2.64,0.529,3.601,1.491c0.96,0.96,1.49,2.238,1.49,3.598
				C472.179,46.22,471.651,47.498,470.689,48.459z"/>
			<path d="M210.33,121.826c-99.184,0-179.877,80.692-179.877,179.877s80.692,179.877,179.877,179.877
				c43.923,0,86.219-16.007,119.095-45.07l-10.076-11.396c-30.093,26.604-68.81,41.256-109.021,41.256
				c-90.797,0-164.666-73.869-164.666-164.666s73.869-164.666,164.666-164.666s164.666,73.869,164.666,164.666
				c0,40.561-14.877,79.53-41.889,109.731l11.337,10.14c29.511-32.994,45.763-75.565,45.763-119.872
				C390.206,202.518,309.514,121.826,210.33,121.826z"/>
			<path d="M210.33,152.247v15.211c74.023,0,134.245,60.222,134.245,134.245h15.211C359.785,219.292,292.74,152.247,210.33,152.247z
				"/>
		</g>
	</g>
</g>
<g>
</g>
<g>
</g>
<g>
</g>
<g>
</g>
<g>
</g>
<g>
</g>
<g>
</g>
<g>
</g>
<g>
</g>
<g>
</g>
<g>
</g>
<g>
</g>
<g>
</g>
<g>
</g>
<g>
</g>
</svg>
