<?xml version="1.0" encoding="iso-8859-1"?>
<!-- Generator: Adobe Illustrator 19.0.0, SVG Export Plug-In . SVG Version: 6.00 Build 0)  -->
<svg version="1.1" id="Layer_1" xmlns="http://www.w3.org/2000/svg" xmlns:xlink="http://www.w3.org/1999/xlink" x="0px" y="0px"
	 viewBox="0 0 512 512" style="enable-background:new 0 0 512 512;" xml:space="preserve">
<g>
	<g>
		<g>
			<rect x="167.698" y="496.792" width="176.605" height="15.208"/>
			<path d="M233.181,337.32v129.054h-34.019v15.208h34.019h45.628h34.017v-15.208h-34.017V337.32
				c36.42-10.113,62.243-43.623,62.243-81.952c0-93.079-20.14-247.209-20.344-248.755L319.838,0H192.153l-0.87,6.611
				c-0.204,1.546-20.344,155.677-20.344,248.755C170.938,293.696,196.761,327.207,233.181,337.32z M205.516,15.208h100.957
				c0.465,3.704,1.106,8.868,1.87,15.211h-67.558v15.208h69.352c5.958,51.455,15.707,145.472,15.707,209.741
				c0,33.212-23.604,62.017-56.123,68.494l-6.119,1.219v141.294H248.39V325.08l-6.119-1.219
				c-32.521-6.478-56.123-35.282-56.123-68.494C186.146,174.232,201.685,45.668,205.516,15.208z"/>
			<path d="M310.636,255.367h-15.208c0,18.751-13.31,35.012-31.649,38.665l2.971,14.915
				C292.179,303.883,310.636,281.349,310.636,255.367z"/>
			<path d="M295.428,235.09h15.208c0-25.277-1.558-42.773-3.715-66.989c-0.574-6.446-1.196-13.422-1.849-21.214l-15.154,1.271
				c0.655,7.82,1.279,14.822,1.855,21.292C293.973,194.164,295.428,210.49,295.428,235.09z"/>
		</g>
	</g>
</g>
<g>
</g>
<g>
</g>
<g>
</g>
<g>
</g>
<g>
</g>
<g>
</g>
<g>
</g>
<g>
</g>
<g>
</g>
<g>
</g>
<g>
</g>
<g>
</g>
<g>
</g>
<g>
</g>
<g>
</g>
</svg>
