<?xml version="1.0" encoding="iso-8859-1"?>
<!-- Generator: Adobe Illustrator 19.0.0, SVG Export Plug-In . SVG Version: 6.00 Build 0)  -->
<svg version="1.1" id="Layer_1" xmlns="http://www.w3.org/2000/svg" xmlns:xlink="http://www.w3.org/1999/xlink" x="0px" y="0px"
	 viewBox="0 0 512 512" style="enable-background:new 0 0 512 512;" xml:space="preserve">
<g>
	<g>
		<g>
			<polygon points="0,115.198 0,396.802 73.064,396.802 73.064,381.594 15.208,381.594 15.208,130.406 496.792,130.406 
				496.792,381.594 93.343,381.594 93.343,396.802 512,396.802 512,115.198 			"/>
			<path d="M36.003,360.8h94.403v-94.402H36.003V360.8z M51.211,281.606h63.987v63.986H51.211V281.606z"/>
			<path d="M130.406,151.2H36.003v94.402h94.403V151.2z M115.198,230.394H51.211v-63.986h63.987V230.394z"/>
			<path d="M151.2,360.8h94.403v-94.402H151.2V360.8z M166.408,281.606h63.987v63.986h-63.987V281.606z"/>
			<polygon points="188.262,166.408 188.262,151.2 151.2,151.2 151.2,245.602 245.603,245.602 245.603,151.2 208.539,151.2 
				208.539,166.408 230.395,166.408 230.395,230.394 166.408,230.394 166.408,166.408 			"/>
			<path d="M266.398,360.8H360.8v-94.402h-94.402V360.8z M281.606,281.606h63.986v63.986h-63.986V281.606z"/>
			<path d="M360.8,151.2h-94.402v94.402H360.8V151.2z M345.592,230.394h-63.986v-63.986h63.986V230.394z"/>
			<path d="M381.595,360.8h94.402v-94.402h-94.402V360.8z M396.803,281.606h63.986v63.986h-63.986V281.606z"/>
			<path d="M475.997,151.2h-94.402v94.402h94.402V151.2z M460.789,230.394h-63.986v-63.986h63.986V230.394z"/>
			<rect x="84.779" y="180.366" width="15.208" height="36.063"/>
			<rect x="199.984" y="180.366" width="15.208" height="36.063"/>
			<rect x="315.179" y="180.366" width="15.208" height="36.063"/>
			<rect x="430.374" y="180.366" width="15.208" height="36.063"/>
			<rect x="84.779" y="295.571" width="15.208" height="36.063"/>
			<rect x="199.984" y="295.571" width="15.208" height="36.063"/>
			<rect x="315.179" y="295.571" width="15.208" height="36.063"/>
			<rect x="430.374" y="295.571" width="15.208" height="36.063"/>
		</g>
	</g>
</g>
<g>
</g>
<g>
</g>
<g>
</g>
<g>
</g>
<g>
</g>
<g>
</g>
<g>
</g>
<g>
</g>
<g>
</g>
<g>
</g>
<g>
</g>
<g>
</g>
<g>
</g>
<g>
</g>
<g>
</g>
</svg>
