<?xml version="1.0" encoding="iso-8859-1"?>
<!-- Generator: Adobe Illustrator 19.0.0, SVG Export Plug-In . SVG Version: 6.00 Build 0)  -->
<svg version="1.1" id="Layer_1" xmlns="http://www.w3.org/2000/svg" xmlns:xlink="http://www.w3.org/1999/xlink" x="0px" y="0px"
	 viewBox="0 0 512 512" style="enable-background:new 0 0 512 512;" xml:space="preserve">
<g>
	<g>
		<g>
			<path d="M379.811,47.385V0H132.189v47.385c-21.656,3.634-38.214,22.503-38.214,45.177v22.734v328.152v22.734
				c0,25.264,20.554,45.818,45.818,45.818h232.414c25.264,0,45.818-20.554,45.818-45.818V92.561
				C418.026,69.888,401.468,51.02,379.811,47.385z M346.609,15.208h17.994v31.535h-17.994V15.208z M313.407,15.208h17.994v31.535
				h-17.994V15.208z M280.205,15.208h17.994v31.535h-17.994V15.208z M247.003,15.208h17.994v31.535h-17.994V15.208z M213.801,15.208
				h17.994v31.535h-17.994V15.208z M180.599,15.208h17.994v31.535h-17.994V15.208z M147.397,15.208h17.994v31.535h-17.994V15.208z
				 M372.208,496.792H139.793c-16.879,0-30.611-13.732-30.611-30.611v-22.734h232.414V377.72h-15.208v50.52H109.182V130.503h217.206
				v226.938h15.208V115.295H109.182V92.561c0-16.879,13.732-30.61,30.611-30.61h232.414c16.879,0,30.611,13.732,30.611,30.61v373.62
				h0.002C402.818,483.06,389.087,496.792,372.208,496.792z"/>
			<path d="M372.207,77.159H239.399v15.208h132.808c0.1,0,0.195,0.095,0.195,0.195v50.615h15.208V92.561
				C387.61,84.068,380.7,77.159,372.207,77.159z"/>
			<path d="M231.193,187.22h-5.75c0.562-8.907,7.966-15.987,17.012-15.987v-15.208c-17.433,0-31.673,13.897-32.247,31.195h-5.832
				c-37.051,0-67.194,30.143-67.194,67.194s30.143,67.194,67.194,67.194h26.816c37.051,0,67.194-30.143,67.194-67.194
				C298.385,217.363,268.243,187.22,231.193,187.22z M231.193,306.4h-26.816c-28.665,0-51.986-23.321-51.986-51.986
				c0-28.665,23.321-51.986,51.986-51.986h5.804v12.675h15.208v-12.676h5.804c28.665,0,51.986,23.321,51.986,51.986
				S259.859,306.4,231.193,306.4z"/>
			<path d="M231.193,275.984v15.208c20.279,0,36.778-16.499,36.778-36.778h-15.208C252.764,266.308,243.087,275.984,231.193,275.984
				z"/>
			<rect x="143.644" y="336.815" width="148.287" height="15.208"/>
			<rect x="249.917" y="367.231" width="42.014" height="15.208"/>
			<rect x="143.644" y="367.231" width="85.996" height="15.208"/>
		</g>
	</g>
</g>
<g>
</g>
<g>
</g>
<g>
</g>
<g>
</g>
<g>
</g>
<g>
</g>
<g>
</g>
<g>
</g>
<g>
</g>
<g>
</g>
<g>
</g>
<g>
</g>
<g>
</g>
<g>
</g>
<g>
</g>
</svg>
