<?xml version="1.0" encoding="iso-8859-1"?>
<!-- Generator: Adobe Illustrator 19.0.0, SVG Export Plug-In . SVG Version: 6.00 Build 0)  -->
<svg version="1.1" id="Layer_1" xmlns="http://www.w3.org/2000/svg" xmlns:xlink="http://www.w3.org/1999/xlink" x="0px" y="0px"
	 viewBox="0 0 512 512" style="enable-background:new 0 0 512 512;" xml:space="preserve">
<g>
	<g>
		<g>
			<path d="M361.226,153.594c25.319,50.483,39.262,118.447,39.262,191.373v98.561h15.205v-98.561
				c0-75.247-14.517-145.633-40.876-198.19L361.226,153.594z"/>
			<path d="M512,125.377H397.943c-0.572-1.059-1.141-2.125-1.72-3.166h0.412l-5.713-9.103
				c-21.932-35.983-48.362-59.036-76.872-67.182c3.475-4.77,5.533-10.636,5.533-16.977c0-15.937-12.965-28.902-28.902-28.902
				c-15.937,0-28.902,12.965-28.902,28.902c0,6.341,2.058,12.207,5.533,16.977c-28.507,8.145-54.935,31.195-76.865,67.171
				l-5.72,9.114h0.412c-0.579,1.04-1.147,2.105-1.719,3.165l-61.718,0.001C54.594,125.377,0,179.97,0,247.075
				c0,67.106,54.594,121.702,121.7,121.702h13.557v143.174h310.847V344.967c0-37.683-3.489-74.327-10.156-108.482L512,125.377z
				 M290.68,15.254c7.552,0,13.697,6.145,13.697,13.697c0,7.444-5.974,13.508-13.377,13.679c-0.106,0-0.212-0.006-0.317-0.006
				c-0.106,0-0.213,0.006-0.319,0.007c-7.404-0.171-13.378-6.235-13.378-13.679C276.983,21.398,283.128,15.254,290.68,15.254z
				 M231.52,84.992c0.058-0.057,0.116-0.117,0.174-0.172c0.449-0.434,0.896-0.842,1.343-1.263c0.565-0.529,1.129-1.061,1.697-1.575
				c0.297-0.27,0.593-0.527,0.89-0.791c0.731-0.649,1.464-1.289,2.2-1.913c0.209-0.176,0.417-0.35,0.625-0.524
				c0.854-0.712,1.71-1.409,2.57-2.086c0.115-0.09,0.229-0.181,0.344-0.272c3.084-2.406,6.206-4.589,9.365-6.538
				c0.014-0.009,0.029-0.017,0.044-0.026c0.989-0.609,1.983-1.192,2.978-1.757c0.138-0.078,0.277-0.156,0.415-0.233
				c0.947-0.529,1.896-1.039,2.847-1.528c0.088-0.045,0.177-0.093,0.266-0.139c1.013-0.515,2.029-1.005,3.048-1.473
				c0.218-0.1,0.434-0.191,0.652-0.289c0.744-0.333,1.489-0.655,2.236-0.964c0.37-0.153,0.74-0.303,1.108-0.448
				c0.64-0.253,1.28-0.494,1.922-0.728c0.444-0.162,0.888-0.326,1.329-0.478c0.761-0.264,1.525-0.513,2.289-0.75
				c0.473-0.147,0.942-0.282,1.41-0.418c0.495-0.143,0.99-0.279,1.487-0.411c0.466-0.125,0.935-0.252,1.396-0.365
				c0.808-0.199,1.618-0.38,2.429-0.549c0.444-0.092,0.883-0.175,1.322-0.258c0.59-0.112,1.181-0.215,1.772-0.311
				c0.386-0.063,0.776-0.129,1.157-0.186c0.847-0.123,1.696-0.227,2.545-0.318c0.309-0.034,0.617-0.065,0.923-0.094
				c0.925-0.086,1.852-0.159,2.779-0.209c0.178-0.01,0.354-0.015,0.531-0.022c0.871-0.039,1.742-0.06,2.615-0.065
				c0.151,0.002,0.3,0.011,0.451,0.011c0.152,0,0.301-0.009,0.452-0.011c0.873,0.005,1.745,0.026,2.616,0.065
				c0.177,0.008,0.353,0.013,0.531,0.022c0.927,0.049,1.853,0.122,2.778,0.209c0.307,0.028,0.616,0.061,0.927,0.094
				c0.846,0.091,1.692,0.195,2.535,0.317c0.387,0.057,0.781,0.124,1.172,0.188c0.587,0.095,1.174,0.198,1.76,0.308
				c0.442,0.084,0.884,0.167,1.331,0.26c0.808,0.168,1.615,0.35,2.42,0.546c0.467,0.115,0.942,0.244,1.414,0.37
				c0.488,0.13,0.974,0.264,1.461,0.404c0.475,0.137,0.951,0.275,1.43,0.424c0.736,0.229,1.471,0.469,2.205,0.722
				c0.475,0.163,0.954,0.339,1.433,0.514c0.626,0.23,1.253,0.464,1.877,0.712c0.378,0.149,0.757,0.303,1.138,0.461
				c0.73,0.302,1.458,0.615,2.184,0.941c0.233,0.105,0.465,0.203,0.699,0.31c1.011,0.464,2.018,0.951,3.024,1.461
				c0.106,0.054,0.214,0.113,0.32,0.167c0.932,0.478,1.86,0.976,2.786,1.494c0.153,0.085,0.307,0.172,0.461,0.259
				c0.973,0.551,1.944,1.121,2.911,1.717c0.035,0.021,0.071,0.043,0.107,0.065c3.142,1.94,6.248,4.111,9.316,6.504
				c0.139,0.107,0.278,0.219,0.417,0.328c0.831,0.655,1.659,1.33,2.486,2.017c0.233,0.195,0.466,0.388,0.7,0.587
				c0.704,0.596,1.405,1.209,2.104,1.83c0.326,0.291,0.653,0.574,0.98,0.871c0.524,0.474,1.044,0.966,1.566,1.454
				c6.724,6.305,13.565,14.042,20.409,23.546H212.73C219.026,98.265,225.32,91.006,231.52,84.992z M135.257,344.968v8.604H121.7
				v-0.001c-58.722,0-106.495-47.774-106.495-106.496c0-58.721,47.773-106.493,106.495-106.493l54.067-0.001
				c-0.021,0.045-0.041,0.091-0.062,0.137c-2.297,4.902-4.508,9.922-6.62,15.068l-47.385,0.001c-50.338,0-91.29,40.951-91.29,91.288
				c0,50.338,40.952,91.292,91.29,91.292h13.595C135.27,340.596,135.257,342.802,135.257,344.968z M121.7,323.161
				c-41.954,0-76.085-34.132-76.085-76.086c0-41.953,34.131-76.083,76.085-76.083l41.544-0.001
				c-16.074,44.661-25.604,96.96-27.593,152.17H121.7z M430.9,466.332H235.677v15.205h195.221v15.208H150.462v-15.208h64.941
				v-15.205h-64.941v-97.556v-23.809c0-2.214,0.016-4.423,0.041-6.628c0.007-0.644,0.018-1.291,0.027-1.939
				c0.018-1.292,0.044-2.583,0.071-3.873c0.011-0.527,0.02-1.052,0.033-1.58l0.038-1.553c1.54-58.707,11.778-114.102,29.466-160.227
				l1.177-2.996c2.548-6.487,5.26-12.804,8.103-18.882c0.022-0.047,0.044-0.094,0.066-0.141c0.563-1.2,1.129-2.391,1.702-3.572
				c0.008-0.016,0.015-0.032,0.023-0.048c1.158-2.389,2.336-4.739,3.533-7.044l0.985-1.898c2.27-4.296,4.596-8.418,6.973-12.374
				h175.964c2.381,3.964,4.713,8.093,6.986,12.397l0.972,1.874c0.905,1.745,1.799,3.513,2.682,5.308
				c0.008,0.016,0.016,0.032,0.024,0.049c13.283,27.002,23.98,59.542,31.055,94.546l1.337,6.618
				c6.024,32.147,9.179,66.556,9.179,101.964V466.332z M415.466,163.858c-0.215-0.562-0.428-1.126-0.645-1.685
				c-0.39-1.004-0.786-2.001-1.182-2.996c-0.299-0.751-0.6-1.5-0.903-2.246c-0.382-0.94-0.765-1.877-1.153-2.809
				c-0.325-0.782-0.656-1.555-0.985-2.33c-0.761-1.792-1.535-3.569-2.319-5.331c-0.249-0.56-0.496-1.125-0.747-1.683
				c-0.468-1.036-0.945-2.06-1.421-3.085c-0.171-0.369-0.34-0.743-0.512-1.111h77.566l-51.66,75.473
				C427.102,197.715,421.736,180.238,415.466,163.858z"/>
		</g>
	</g>
</g>
<g>
</g>
<g>
</g>
<g>
</g>
<g>
</g>
<g>
</g>
<g>
</g>
<g>
</g>
<g>
</g>
<g>
</g>
<g>
</g>
<g>
</g>
<g>
</g>
<g>
</g>
<g>
</g>
<g>
</g>
</svg>
