<?xml version="1.0" encoding="iso-8859-1"?>
<!-- Generator: Adobe Illustrator 19.0.0, SVG Export Plug-In . SVG Version: 6.00 Build 0)  -->
<svg version="1.1" id="Layer_1" xmlns="http://www.w3.org/2000/svg" xmlns:xlink="http://www.w3.org/1999/xlink" x="0px" y="0px"
	 viewBox="0 0 511.999 511.999" style="enable-background:new 0 0 511.999 511.999;" xml:space="preserve">
<g>
	<g>
		<g>
			<rect x="337.217" y="388.095" width="15.209" height="41.197"/>
			<path d="M256.252,206.043v15.209c44.643,0,80.962,36.318,80.962,80.96v65.603h15.209v-65.603
				C352.421,249.184,309.281,206.043,256.252,206.043z"/>
			<path d="M484.112,197.126v0.001c-49.17,0-89.172,40.002-89.172,89.17l-0.01,14.286c0,5.87-4.775,10.645-10.645,10.645h-1.447
				v-9.018c0-42.213-20.775-79.66-52.632-102.672c8.671-10.603,13.511-23.958,13.511-37.836V84.118
				c0-32.952-26.809-59.76-59.761-59.76h-4.707V9.149H112.137v15.21H98.882c-32.952,0-59.761,26.808-59.761,59.76v77.585
				c0,13.878,4.84,27.233,13.511,37.836C20.775,222.551,0,259.998,0,302.211v200.64h382.839v-76.484
				c37.262-3.819,66.427-35.389,66.427-73.642v-66.425c0-19.214,15.631-34.846,34.846-34.846h27.887v-54.326H484.112z
				 M127.345,24.357h136.698v15.212H127.345V24.357z M54.329,84.118c0-24.566,19.986-44.551,44.552-44.551h13.254v15.211h167.115
				V39.567h4.707c24.566,0,44.552,19.986,44.552,44.551v77.585c0,10.968-4.065,21.494-11.281,29.607
				c-17.191-9.489-36.808-15.103-57.667-15.642v-15.196h42.374v-17.747c0-15.374-12.508-27.883-27.883-27.883H214.97
				c1.474-3.249,2.302-6.85,2.302-10.643c0-14.256-11.597-25.852-25.852-25.852s-25.852,11.597-25.852,25.852
				c0,3.793,0.828,7.394,2.302,10.643h-59.084c-15.375,0-27.883,12.509-27.883,27.883v17.747h42.374v15.196
				c-20.859,0.537-40.475,6.151-57.666,15.642c-7.216-8.112-11.282-18.638-11.282-29.607V84.118z M123.277,145.264H96.112v-2.538
				c0-6.989,5.685-12.674,12.674-12.674h165.268c6.989,0,12.674,5.685,12.674,12.674v2.538h-27.166H123.277z M244.353,160.473
				v15.153H138.486v-15.153H244.353z M180.776,104.201c0-5.868,4.775-10.643,10.643-10.643c5.868,0,10.643,4.775,10.643,10.643
				c0,5.869-4.775,10.643-10.643,10.643C185.551,114.844,180.776,110.069,180.776,104.201z M367.63,311.228v115.527v60.886H15.209
				V302.211c0-60.305,48.18-109.566,108.069-111.323v0.005h136.284v-0.005c59.89,1.756,108.069,51.017,108.069,111.323V311.228z
				 M484.112,236.244c-27.601,0-50.055,22.454-50.055,50.053v66.427c0,29.859-22.362,54.594-51.219,58.333v-84.621h1.447
				c13.633,0,24.836-10.608,25.788-24.003l0.075-0.158v-15.978c0-40.784,33.18-73.962,73.963-73.962h12.678v23.909H484.112z"/>
		</g>
	</g>
</g>
<g>
</g>
<g>
</g>
<g>
</g>
<g>
</g>
<g>
</g>
<g>
</g>
<g>
</g>
<g>
</g>
<g>
</g>
<g>
</g>
<g>
</g>
<g>
</g>
<g>
</g>
<g>
</g>
<g>
</g>
</svg>
