<?xml version="1.0" encoding="iso-8859-1"?>
<!-- Generator: Adobe Illustrator 19.0.0, SVG Export Plug-In . SVG Version: 6.00 Build 0)  -->
<svg version="1.1" id="Layer_1" xmlns="http://www.w3.org/2000/svg" xmlns:xlink="http://www.w3.org/1999/xlink" x="0px" y="0px"
	 viewBox="0 0 512 512" style="enable-background:new 0 0 512 512;" xml:space="preserve">
<g>
	<g>
		<path d="M411.661,193.025l55.942-49.412V108.59h-49.755L309.365,55.207L317.275,0h-67.843l7.905,55.208l-108.48,53.382H98.266
			c-29.704,0-53.87,24.165-53.87,53.869v113.82h45.624V162.459c0-4.546,3.699-8.245,8.246-8.245h50.656l23.609,149.723h17.178v45.63
			h-16.957L141.414,512h43.294v-15.208h-24.872l25.47-132.018h4.402h50.761l-8.491,132.018h-26.992V512h220.302l-31.337-162.434
			h-16.957v-45.63h17.178v0L411.661,193.025z M418.218,151.44l4.359-27.642h29.819v12.957l-37.017,32.696L418.218,151.44z
			 M98.266,139.005c-12.933,0-23.454,10.521-23.454,23.453v98.612H59.605v-98.612c0-21.317,17.343-38.661,38.662-38.661h45.851
			l2.373,15.208H98.266z M299.732,15.208l-5.268,36.779h-22.225l-5.267-36.779H299.732z M267.421,67.195h31.864l84.119,41.395
			c0,0-200.104,0-200.104,0L267.421,67.195z M319.58,123.798l-8.669,164.931h-55.12l-8.67-164.931H319.58z M185.528,288.728
			l-26.007-164.931h72.372l8.67,164.931h-50.855H185.528z M204.917,349.566v-15.211h34.022v-15.208h-34.022v-15.211h156.87v15.211
			H259.218v15.208h102.568v15.211H204.917z M247.218,496.792l8.491-132.018h55.288l8.489,132.018H247.218z M381.396,364.774
			l25.47,132.018h-72.142l-8.489-132.018h50.759H381.396z M381.176,288.728h-4.182h-50.853l8.668-164.931h72.372l-7.093,44.988
			L381.176,288.728z"/>
	</g>
</g>
<g>
</g>
<g>
</g>
<g>
</g>
<g>
</g>
<g>
</g>
<g>
</g>
<g>
</g>
<g>
</g>
<g>
</g>
<g>
</g>
<g>
</g>
<g>
</g>
<g>
</g>
<g>
</g>
<g>
</g>
</svg>
