<?xml version="1.0" encoding="iso-8859-1"?>
<!-- Generator: Adobe Illustrator 19.0.0, SVG Export Plug-In . SVG Version: 6.00 Build 0)  -->
<svg version="1.1" id="Layer_1" xmlns="http://www.w3.org/2000/svg" xmlns:xlink="http://www.w3.org/1999/xlink" x="0px" y="0px"
	 viewBox="0 0 512 512" style="enable-background:new 0 0 512 512;" xml:space="preserve">
<g>
	<g>
		<g>
			<path d="M50.486,233.786c-12.249,0-22.214,9.966-22.214,22.214c0,12.249,9.965,22.216,22.214,22.216
				c12.247,0,22.213-9.966,22.216-22.218C72.699,243.75,62.733,233.786,50.486,233.786z M50.486,263.012
				c-3.865,0-7.01-3.146-7.01-7.012c0-3.865,3.145-7.01,7.01-7.01c3.865,0,7.011,3.146,7.012,7.008
				C57.497,259.865,54.351,263.012,50.486,263.012z"/>
			<path d="M475.289,62.569h-342.88c-20.241,0-36.709,16.468-36.709,36.709l-0.002,106.236H50.486
				C22.648,205.514,0,228.162,0,255.999s22.648,50.486,50.486,50.486H95.7L95.697,412.72c0.002,20.245,16.472,36.712,36.711,36.71
				h342.88c20.242,0,36.711-16.468,36.711-36.709V99.279C512,79.038,495.531,62.569,475.289,62.569z M496.795,412.72
				c0.001,11.859-9.647,21.505-21.506,21.505H374.651L203.407,262.982l-10.751,10.75l160.494,160.494h-92.697l-71.992-71.992
				l-10.751,10.75l61.24,61.24h-21.508l-36.152-36.152l-10.751,10.75l25.401,25.401h-63.531
				c-11.857,0.001-21.505-9.647-21.506-21.507l0.002-121.438H50.486c-19.455,0.003-35.282-15.824-35.282-35.279
				c0-19.455,15.827-35.282,35.282-35.282h60.415l0.001-100.414l171.13,171.128l10.751-10.75L110.927,98.825
				c0.244-11.647,9.777-21.051,21.482-21.051h55.079L303.02,193.305l10.751-10.75L208.99,77.773h21.507l266.298,266.3V412.72z
				 M496.796,322.57L252.001,77.773h108.551l53.82,53.82l10.751-10.75l-43.07-43.07h93.236c11.859,0,21.507,9.648,21.507,21.505
				V322.57z"/>
			
				<rect x="314.619" y="214.287" transform="matrix(0.7071 0.7071 -0.7071 0.7071 257.1757 -177.0998)" width="55.494" height="15.203"/>
		</g>
	</g>
</g>
<g>
</g>
<g>
</g>
<g>
</g>
<g>
</g>
<g>
</g>
<g>
</g>
<g>
</g>
<g>
</g>
<g>
</g>
<g>
</g>
<g>
</g>
<g>
</g>
<g>
</g>
<g>
</g>
<g>
</g>
</svg>
