<?xml version="1.0" encoding="iso-8859-1"?>
<!-- Generator: Adobe Illustrator 19.0.0, SVG Export Plug-In . SVG Version: 6.00 Build 0)  -->
<svg version="1.1" id="Layer_1" xmlns="http://www.w3.org/2000/svg" xmlns:xlink="http://www.w3.org/1999/xlink" x="0px" y="0px"
	 viewBox="0 0 512 512" style="enable-background:new 0 0 512 512;" xml:space="preserve">
<g>
	<g>
		<g>
			<path d="M478.036,82.63H33.964C15.236,82.63,0,97.866,0,116.594v278.812c0,18.728,15.236,33.964,33.964,33.964h115.578v-15.208
				H33.964c-10.342,0-18.756-8.414-18.756-18.756V116.594c0-10.342,8.414-18.756,18.756-18.756h444.071
				c10.342,0,18.756,8.414,18.756,18.756v278.812c0,10.342-8.414,18.756-18.756,18.756H169.822v15.208h308.214
				c18.728,0,33.964-15.236,33.964-33.964V116.594C512,97.866,496.764,82.63,478.036,82.63z"/>
			<path d="M40.559,206.828v98.345c0,12.578,10.233,22.812,22.812,22.812s22.812-10.234,22.812-22.812v-98.345
				c0-12.578-10.233-22.812-22.812-22.812C50.791,184.016,40.559,194.25,40.559,206.828z M70.974,206.828v98.345
				c0,4.192-3.411,7.604-7.604,7.604c-4.192,0-7.604-3.412-7.604-7.604v-98.345c0-4.192,3.412-7.604,7.604-7.604
				C67.564,199.224,70.974,202.635,70.974,206.828z"/>
			<path d="M116.598,305.172v-98.345c0-29.349-23.878-53.228-53.228-53.228v15.208c20.965,0,38.02,17.056,38.02,38.02v98.345
				H116.598z"/>
			<rect x="200.238" y="383.747" width="196.679" height="15.208"/>
		</g>
	</g>
</g>
<g>
</g>
<g>
</g>
<g>
</g>
<g>
</g>
<g>
</g>
<g>
</g>
<g>
</g>
<g>
</g>
<g>
</g>
<g>
</g>
<g>
</g>
<g>
</g>
<g>
</g>
<g>
</g>
<g>
</g>
</svg>
