<?xml version="1.0" encoding="iso-8859-1"?>
<!-- Generator: Adobe Illustrator 19.0.0, SVG Export Plug-In . SVG Version: 6.00 Build 0)  -->
<svg version="1.1" id="Layer_1" xmlns="http://www.w3.org/2000/svg" xmlns:xlink="http://www.w3.org/1999/xlink" x="0px" y="0px"
	 viewBox="0 0 512 512" style="enable-background:new 0 0 512 512;" xml:space="preserve">
<g>
	<g>
		<g>
			<path d="M464.067,9.148l-5.375-5.374l-353.62,353.618l0.001,0.001L9.478,452.986C3.366,459.098,0,467.224,0,475.868
				c0,8.643,3.367,16.769,9.479,22.882c6.111,6.11,14.237,9.476,22.881,9.477c0,0,0,0,0.001,0c8.642,0,16.767-3.366,22.878-9.477
				l95.595-95.596l82.11,82.108L454.46,263.746c37.579-37.58,58.011-85.825,57.532-135.848
				C511.556,82.451,494.088,39.168,464.067,9.148z M44.489,488c-3.24,3.24-7.547,5.025-12.129,5.025
				c-4.583,0-8.891-1.785-12.132-5.025c-3.241-3.241-5.026-7.55-5.026-12.132c0-4.582,1.785-8.89,5.025-12.131l22.024-22.023
				l12.131,12.131l10.749-10.749l-12.131-12.131l10.752-10.751l12.131,12.131l10.749-10.749L74.5,409.465l10.753-10.752
				l12.131,12.131l10.749-10.749l-12.131-12.131l19.82-19.819l24.261,24.26L44.489,488z M443.709,252.997L232.944,463.762
				l-71.361-71.359l-35.012-35.011L458.54,25.423c24.025,26.896,37.878,63.848,38.25,102.62
				C497.23,173.951,478.378,218.326,443.709,252.997z"/>
			
				<rect x="409.219" y="154.172" transform="matrix(0.7071 -0.7071 0.7071 0.7071 17.9187 366.806)" width="85.029" height="15.202"/>
			
				<rect x="299.814" y="164.75" transform="matrix(-0.7071 -0.7071 0.7071 -0.7071 308.3473 739.9137)" width="15.202" height="282.693"/>
		</g>
	</g>
</g>
<g>
</g>
<g>
</g>
<g>
</g>
<g>
</g>
<g>
</g>
<g>
</g>
<g>
</g>
<g>
</g>
<g>
</g>
<g>
</g>
<g>
</g>
<g>
</g>
<g>
</g>
<g>
</g>
<g>
</g>
</svg>
