<?xml version="1.0" encoding="iso-8859-1"?>
<!-- Generator: Adobe Illustrator 19.0.0, SVG Export Plug-In . SVG Version: 6.00 Build 0)  -->
<svg version="1.1" id="Layer_1" xmlns="http://www.w3.org/2000/svg" xmlns:xlink="http://www.w3.org/1999/xlink" x="0px" y="0px"
	 viewBox="0 0 512 512" style="enable-background:new 0 0 512 512;" xml:space="preserve">
<g>
	<g>
		<g>
			<path d="M479.956,5.379L474.577,0L113.542,361.032l0.001,0.001l-95.68,95.679c-12.628,12.626-12.628,33.174,0.001,45.804
				c6.117,6.116,14.249,9.483,22.899,9.484c0.001,0,0.001,0,0.002,0c8.649,0,16.783-3.369,22.899-9.486l95.681-95.681l28.035,28.033
				L413.569,208.68c49.541-49.539,77.999-90.698,87-125.827C508.264,52.819,501.33,26.753,479.956,5.379z M52.904,491.754
				c-3.243,3.243-7.554,5.029-12.14,5.029h-0.001c-4.587,0-8.899-1.786-12.141-5.027c-6.696-6.697-6.696-17.591-0.001-24.286
				l22.043-22.042l12.142,12.143l10.758-10.758L61.422,434.67l10.761-10.761l12.142,12.142l10.758-10.758L82.942,413.15
				l10.762-10.761l12.142,12.143l10.758-10.758l-12.142-12.143l19.838-19.837l3.073,3.073l21.21,21.208L52.904,491.754z
				 M485.828,79.077c-12.343,48.168-12.343,48.168-83.021,118.845L187.379,413.348l-52.32-52.316L474.336,21.757
				C487.958,38.14,491.603,56.541,485.828,79.077z"/>
			
				<rect x="324.214" y="190.313" transform="matrix(-0.7071 -0.7071 0.7071 -0.7071 408.3369 616.3663)" width="15.215" height="66.603"/>
			
				<rect x="229.774" y="238.101" transform="matrix(-0.7071 -0.7071 0.7071 -0.7071 180.349 710.778)" width="15.215" height="159.872"/>
		</g>
	</g>
</g>
<g>
</g>
<g>
</g>
<g>
</g>
<g>
</g>
<g>
</g>
<g>
</g>
<g>
</g>
<g>
</g>
<g>
</g>
<g>
</g>
<g>
</g>
<g>
</g>
<g>
</g>
<g>
</g>
<g>
</g>
</svg>
