<?xml version="1.0" encoding="iso-8859-1"?>
<!-- Generator: Adobe Illustrator 19.0.0, SVG Export Plug-In . SVG Version: 6.00 Build 0)  -->
<svg version="1.1" id="Layer_1" xmlns="http://www.w3.org/2000/svg" xmlns:xlink="http://www.w3.org/1999/xlink" x="0px" y="0px"
	 viewBox="0 0 511.999 511.999" style="enable-background:new 0 0 511.999 511.999;" xml:space="preserve">
<g>
	<g>
		<g>
			<path d="M501.295,10.741c-6.914-6.915-16.107-10.724-25.885-10.724c-9.778,0-18.971,3.809-25.886,10.723L272.811,187.452
				l51.768,51.77l50.913-50.912l-10.753-10.753l-40.158,40.159l-30.264-30.266L460.276,21.492c4.042-4.042,9.416-6.269,15.133-6.269
				c5.716,0,11.089,2.226,15.132,6.269c8.344,8.345,8.345,21.922,0,30.266L379.076,163.221l10.753,10.753L501.294,62.511
				C515.567,48.239,515.568,25.015,501.295,10.741z"/>
			<path d="M251.301,208.958l20.51,20.511l-82.463,82.462c-17.563-15.051-39.676-23.262-63.053-23.262
				c-25.929,0-50.305,10.097-68.638,28.431c-25.444,25.443-44.842,58.897-53.223,91.787c-9.151,35.918-4.034,65.856,14.411,84.302
				c12.293,12.292,30.135,18.791,51.597,18.793c0.002,0,0.004,0,0.007,0c40.628,0,89.49-22.612,124.485-57.605
				c18.333-18.333,28.43-42.71,28.431-68.638c0-23.378-8.211-45.491-23.262-63.054l82.463-82.462l20.508,20.509l10.752-10.752
				l-51.771-51.773L251.301,208.958z M208.157,385.738c-0.001,21.867-8.517,42.424-23.978,57.886
				c-31.793,31.794-77.501,53.154-113.737,53.152c-17.341-0.001-31.465-4.96-40.845-14.34
				c-14.288-14.288-18.089-39.728-10.428-69.794c7.726-30.319,25.672-61.223,49.24-84.79c15.461-15.461,36.018-23.976,57.886-23.976
				c21.868,0,42.424,8.515,57.886,23.976C199.642,343.314,208.157,363.871,208.157,385.738z"/>
			<path d="M162.675,349.359c9.698,9.698,15.041,22.619,15.04,36.379c0,13.76-5.342,26.68-15.042,36.381l10.753,10.751
				c12.571-12.571,19.494-29.311,19.494-47.132c0.001-17.823-6.922-34.561-19.494-47.132L162.675,349.359z"/>
		</g>
	</g>
</g>
<g>
</g>
<g>
</g>
<g>
</g>
<g>
</g>
<g>
</g>
<g>
</g>
<g>
</g>
<g>
</g>
<g>
</g>
<g>
</g>
<g>
</g>
<g>
</g>
<g>
</g>
<g>
</g>
<g>
</g>
</svg>
