<?xml version="1.0" encoding="iso-8859-1"?>
<!-- Generator: Adobe Illustrator 19.0.0, SVG Export Plug-In . SVG Version: 6.00 Build 0)  -->
<svg version="1.1" id="Layer_1" xmlns="http://www.w3.org/2000/svg" xmlns:xlink="http://www.w3.org/1999/xlink" x="0px" y="0px"
	 viewBox="0 0 512 512" style="enable-background:new 0 0 512 512;" xml:space="preserve">
<g>
	<g>
		<g>
			<path d="M501.291,82.693c-6.918-6.918-16.114-10.728-25.896-10.728c-9.782,0-18.978,3.81-25.896,10.728L272.725,259.47
				l51.788,51.789l50.931-50.93l-10.757-10.756l-40.174,40.174l-30.276-30.277l166.02-166.019c4.043-4.044,9.421-6.272,15.138-6.272
				c5.719,0,11.094,2.227,15.138,6.272c8.348,8.348,8.348,21.93,0,30.277L379.029,235.231l10.757,10.756L501.29,134.485
				C515.57,120.207,515.57,96.974,501.291,82.693z"/>
			<path d="M251.207,280.984l20.518,20.518l-90.356,90.355L37.42,247.907l-5.379,5.378C11.379,273.947,0,301.419,0,330.639
				s11.379,56.693,32.041,77.355c20.66,20.659,48.13,32.037,77.352,32.04c0.003,0,0.006,0,0.01,0
				c29.215,0,56.683-11.379,77.345-32.041l5.378-5.378l90.356-90.355l20.516,20.517l10.756-10.756l-51.79-51.791L251.207,280.984z
				 M109.404,424.822c-0.002,0-0.007,0-0.009,0c-25.159-0.002-48.811-9.799-66.596-27.585
				c-17.789-17.788-27.586-41.441-27.586-66.598c0-22.606,7.909-43.993,22.42-61.006L170.4,402.403
				C153.387,416.914,132.004,424.823,109.404,424.822z"/>
			<path d="M136.128,404.988l-5.14-14.318c-6.89,2.474-14.152,3.727-21.589,3.727c-17.034-0.002-33.045-6.634-45.087-18.674
				L53.557,386.48c14.913,14.913,34.745,23.128,55.848,23.13C118.592,409.61,127.584,408.055,136.128,404.988z"/>
		</g>
	</g>
</g>
<g>
</g>
<g>
</g>
<g>
</g>
<g>
</g>
<g>
</g>
<g>
</g>
<g>
</g>
<g>
</g>
<g>
</g>
<g>
</g>
<g>
</g>
<g>
</g>
<g>
</g>
<g>
</g>
<g>
</g>
</svg>
