<?xml version="1.0" encoding="iso-8859-1"?>
<!-- Generator: Adobe Illustrator 19.0.0, SVG Export Plug-In . SVG Version: 6.00 Build 0)  -->
<svg version="1.1" id="Layer_1" xmlns="http://www.w3.org/2000/svg" xmlns:xlink="http://www.w3.org/1999/xlink" x="0px" y="0px"
	 viewBox="0 0 512.001 512.001" style="enable-background:new 0 0 512.001 512.001;" xml:space="preserve">
<g>
	<g>
		<g>
			<path d="M354.174,49.31v15.283h131.891l-26.979,48.713v95.827v190.213c0,26.502-21.559,48.062-48.06,48.062h-255.02
				c-26.501,0-48.061-21.56-48.061-48.062V209.134V95.159V64.593h225.602V49.31H107.945H92.662H54.135
				C24.284,49.31,0,73.595,0,103.444v185.708h45.849V103.444c0-4.569,3.717-8.285,8.286-8.285h38.527v113.975v190.213
				c0,34.929,28.416,63.344,63.343,63.344h255.02c34.926,0,63.342-28.416,63.342-63.344V209.134v-91.878l37.633-67.946H354.174z
				 M92.662,79.876H54.135c-12.997,0-23.569,10.573-23.569,23.568V273.87H15.283V103.444c0-21.423,17.429-38.851,38.852-38.851
				h38.527V79.876z"/>
			<rect x="428.522" y="145.85" width="15.283" height="76.526"/>
			<path d="M443.803,399.346v-156.59H428.52v156.59c0,9.648-7.847,17.496-17.494,17.496h-67.161v15.283h67.161
				C429.099,432.125,443.803,417.421,443.803,399.346z"/>
			<rect x="135.447" y="111.189" width="109.588" height="15.283"/>
			<rect x="135.447" y="147.287" width="79.98" height="15.283"/>
			<rect x="135.447" y="183.385" width="109.588" height="15.283"/>
			<rect x="135.447" y="219.483" width="79.98" height="15.283"/>
			<rect x="135.447" y="291.679" width="79.98" height="15.283"/>
			<rect x="135.447" y="255.581" width="109.588" height="15.283"/>
			<rect x="135.447" y="327.778" width="109.588" height="15.283"/>
		</g>
	</g>
</g>
<g>
</g>
<g>
</g>
<g>
</g>
<g>
</g>
<g>
</g>
<g>
</g>
<g>
</g>
<g>
</g>
<g>
</g>
<g>
</g>
<g>
</g>
<g>
</g>
<g>
</g>
<g>
</g>
<g>
</g>
</svg>
