<?xml version="1.0" encoding="iso-8859-1"?>
<!-- Generator: Adobe Illustrator 19.0.0, SVG Export Plug-In . SVG Version: 6.00 Build 0)  -->
<svg version="1.1" id="Layer_1" xmlns="http://www.w3.org/2000/svg" xmlns:xlink="http://www.w3.org/1999/xlink" x="0px" y="0px"
	 viewBox="0 0 512 512" style="enable-background:new 0 0 512 512;" xml:space="preserve">
<g>
	<g>
		<g>
			<path d="M478.036,49.01H33.964C15.236,49.01,0,64.246,0,82.974V395.23c0,18.728,15.236,33.964,33.964,33.964h16.729v33.796
				h69.281v-33.796h34.283v-15.208h-34.283H50.693H33.964c-10.342,0-18.756-8.414-18.756-18.756V82.974
				c0-10.342,8.414-18.756,18.756-18.756h444.071c10.342,0,18.756,8.414,18.756,18.756V395.23c0,10.342-8.414,18.756-18.756,18.756
				h-16.729h-69.281H174.534v15.208h217.492v33.796h69.281v-33.796h16.729c18.728,0,33.964-15.236,33.964-33.964V82.974
				C512,64.246,496.764,49.01,478.036,49.01z M65.901,429.195h38.865v18.588H65.901V429.195z M446.099,447.784h-38.865v-18.588
				h38.865V447.784z"/>
			<polygon points="379.184,154.952 379.184,99.703 50.693,99.703 50.693,378.502 379.184,378.502 379.184,175.229 363.976,175.229 
				363.976,363.294 65.901,363.294 65.901,114.911 363.976,114.911 363.976,154.952 			"/>
			<path d="M437.988,155.463c15.373,0,27.88-12.507,27.88-27.88c0-15.373-12.507-27.88-27.88-27.88
				c-15.373,0-27.88,12.507-27.88,27.88C410.108,142.956,422.615,155.463,437.988,155.463z M437.988,114.911
				c6.987,0,12.672,5.685,12.672,12.672c0,6.988-5.685,12.672-12.672,12.672c-6.988,0-12.672-5.685-12.672-12.672
				C425.316,120.595,431.001,114.911,437.988,114.911z"/>
			<path d="M437.988,226.433c15.373,0,27.88-12.507,27.88-27.88s-12.507-27.88-27.88-27.88c-15.373,0-27.88,12.507-27.88,27.88
				S422.615,226.433,437.988,226.433z M437.988,185.882c6.987,0,12.672,5.685,12.672,12.672s-5.685,12.672-12.672,12.672
				c-6.988,0-12.672-5.685-12.672-12.672C425.316,191.567,431.001,185.882,437.988,185.882z"/>
			
				<rect x="52.965" y="217.901" transform="matrix(-0.707 0.7072 -0.7072 -0.707 478.6385 252.711)" width="268.012" height="15.208"/>
			
				<rect x="207.395" y="218.945" transform="matrix(-0.707 0.7072 -0.7072 -0.707 569.7431 217.0561)" width="65.028" height="15.208"/>
			
				<rect x="154.738" y="242.846" transform="matrix(0.7072 0.707 -0.707 0.7072 262.5486 -25.7318)" width="15.208" height="122.554"/>
			
				<rect x="268.573" y="199.09" transform="matrix(0.7072 0.707 -0.707 0.7072 283.0609 -111.5226)" width="15.208" height="173.805"/>
			
				<rect x="74.881" y="175.034" transform="matrix(0.707 -0.7072 0.7072 0.707 -89.8636 148.3699)" width="118.499" height="15.208"/>
			<rect x="397.768" y="247.717" width="18.247" height="15.208"/>
			<rect x="428.863" y="247.717" width="18.247" height="15.208"/>
			<rect x="459.958" y="247.717" width="18.247" height="15.208"/>
			<rect x="397.768" y="275.092" width="18.247" height="15.208"/>
			<rect x="428.863" y="275.092" width="18.247" height="15.208"/>
			<rect x="459.958" y="275.092" width="18.247" height="15.208"/>
			<rect x="397.768" y="302.466" width="18.247" height="15.208"/>
			<rect x="428.863" y="302.466" width="18.247" height="15.208"/>
			<rect x="459.958" y="302.466" width="18.247" height="15.208"/>
			<rect x="397.768" y="332.882" width="80.43" height="15.208"/>
			<rect x="397.768" y="363.297" width="80.43" height="15.208"/>
		</g>
	</g>
</g>
<g>
</g>
<g>
</g>
<g>
</g>
<g>
</g>
<g>
</g>
<g>
</g>
<g>
</g>
<g>
</g>
<g>
</g>
<g>
</g>
<g>
</g>
<g>
</g>
<g>
</g>
<g>
</g>
<g>
</g>
</svg>
