<?xml version="1.0" encoding="iso-8859-1"?>
<!-- Generator: Adobe Illustrator 19.0.0, SVG Export Plug-In . SVG Version: 6.00 Build 0)  -->
<svg version="1.1" id="Layer_1" xmlns="http://www.w3.org/2000/svg" xmlns:xlink="http://www.w3.org/1999/xlink" x="0px" y="0px"
	 viewBox="0 0 512 512" style="enable-background:new 0 0 512 512;" xml:space="preserve">
<g>
	<g>
		<g>
			<path d="M357.986,60.964V22.812C357.986,10.233,347.752,0,335.174,0H176.826c-12.578,0-22.812,10.233-22.812,22.812v38.153
				L73.923,178.4V512h364.155V178.4L357.986,60.964z M169.222,22.812c0-4.193,3.411-7.604,7.604-7.604h12.704v22.705h15.208V15.208
				h14.226v22.705h15.208V15.208h14.225v22.705h15.208V15.208h14.224v22.705h15.208V15.208h14.225v22.705h15.208V15.208h12.704
				c4.193,0,7.604,3.411,7.604,7.604v32.894H169.222V22.812z M234.103,496.792H89.131v-313.7l72.487-106.287l72.485,106.287V496.792
				z M422.869,496.792H249.311V188.35h101.653v-15.208H245.726L176.007,70.914h170.357l69.719,102.229h-44.841v15.208h51.627
				V496.792z"/>
			<path d="M266.88,381.362h138.419V242.943H266.88V381.362z M282.088,258.15h108.004v108.004H282.088V258.15z"/>
			<rect x="266.879" y="396.572" width="138.423" height="15.208"/>
			<rect x="266.879" y="426.988" width="138.423" height="15.208"/>
		</g>
	</g>
</g>
<g>
</g>
<g>
</g>
<g>
</g>
<g>
</g>
<g>
</g>
<g>
</g>
<g>
</g>
<g>
</g>
<g>
</g>
<g>
</g>
<g>
</g>
<g>
</g>
<g>
</g>
<g>
</g>
<g>
</g>
</svg>
