<?xml version="1.0" encoding="iso-8859-1"?>
<!-- Generator: Adobe Illustrator 19.0.0, SVG Export Plug-In . SVG Version: 6.00 Build 0)  -->
<svg version="1.1" id="Layer_1" xmlns="http://www.w3.org/2000/svg" xmlns:xlink="http://www.w3.org/1999/xlink" x="0px" y="0px"
	 viewBox="0 0 512.001 512.001" style="enable-background:new 0 0 512.001 512.001;" xml:space="preserve">
<g>
	<g>
		<g>
			<path d="M377.691,37.369h-95.835c-15.673,0-28.424,12.751-28.424,28.425c0,15.672,12.75,28.423,28.424,28.423h95.835
				c15.673,0,28.425-12.75,28.425-28.423C406.116,50.121,393.365,37.369,377.691,37.369z M377.691,79.009h-95.835
				c-7.288,0-13.216-5.928-13.216-13.215c0-7.288,5.929-13.217,13.216-13.217h95.835c7.288,0,13.217,5.929,13.217,13.217
				C390.908,73.081,384.98,79.009,377.691,79.009z"/>
			<path d="M403.34,0H108.661C86.524,0,68.514,18.01,68.514,40.147v76.976v15.208v48.153c0,35.46,26.902,64.743,61.366,68.542
				v35.294h47.631v23.888c-6.15,5.296-16.019,19.424-32.162,57.114c-11.937,27.872-24.693,64.109-24.693,82.222
				c0,35.542,28.916,64.457,64.458,64.457c35.539-0.001,64.451-28.916,64.451-64.457c0-18.114-12.753-54.349-24.69-82.222
				c-16.141-37.69-26.009-51.817-32.159-57.114V284.32h47.625v-34.866h43.147v-15.208h-43.147H137.484
				c-29.644,0-53.762-24.118-53.762-53.762v-48.153h344.557v48.153c0,29.644-24.118,53.762-53.762,53.762h-70.745v15.208h70.745
				c38.031,0,68.97-30.94,68.97-68.97v-48.153v-15.208V40.147C443.487,18.01,425.477,0,403.34,0z M212.768,375.728
				c13.116,31.391,21.591,59.58,21.591,71.815c0,16.554-8.218,31.217-20.78,40.15c9.517-21.019,9.749-54.629,0.671-99.956
				c-1.202-6.005-2.522-11.939-3.902-17.709C211.147,371.881,211.953,373.778,212.768,375.728z M192.72,362.42
				c10.349,39.611,19.691,92.87,6.55,119.996c-1.811,3.737-3.986,6.781-6.55,9.174V362.42z M156.648,487.693
				c-12.563-8.933-20.782-23.596-20.782-40.15c0-12.234,8.476-40.424,21.595-71.815c0.813-1.946,1.618-3.841,2.416-5.691
				c-1.379,5.765-2.697,11.694-3.899,17.695C146.898,433.062,147.13,466.672,156.648,487.693z M177.512,491.594
				c-2.567-2.396-4.744-5.441-6.557-9.184c-13.149-27.146-3.799-80.414,6.557-120.02V491.594z M145.089,249.455h80.048v19.658
				h-80.048V249.455z M428.279,117.123H83.722V40.147c0-13.751,11.187-24.939,24.939-24.939H403.34
				c13.751,0,24.939,11.188,24.939,24.939V117.123z"/>
			<rect x="147.092" y="155.871" width="15.208" height="54.83"/>
			<rect x="177.507" y="155.871" width="15.208" height="54.83"/>
			<rect x="207.923" y="155.871" width="15.208" height="54.83"/>
		</g>
	</g>
</g>
<g>
</g>
<g>
</g>
<g>
</g>
<g>
</g>
<g>
</g>
<g>
</g>
<g>
</g>
<g>
</g>
<g>
</g>
<g>
</g>
<g>
</g>
<g>
</g>
<g>
</g>
<g>
</g>
<g>
</g>
</svg>
