<?xml version="1.0" encoding="iso-8859-1"?>
<!-- Generator: Adobe Illustrator 19.0.0, SVG Export Plug-In . SVG Version: 6.00 Build 0)  -->
<svg version="1.1" id="Layer_1" xmlns="http://www.w3.org/2000/svg" xmlns:xlink="http://www.w3.org/1999/xlink" x="0px" y="0px"
	 viewBox="0 0 512 512" style="enable-background:new 0 0 512 512;" xml:space="preserve">
<g>
	<g>
		<g>
			<path d="M122.482,389.537c12.438,12.438,16.07,30.981,9.253,47.239l14.029,5.883c9.216-21.98,4.299-47.054-12.525-63.88
				L122.482,389.537z"/>
			<path d="M489.737,22.283C475.37,7.914,456.267,0,435.947,0c-20.32,0-39.423,7.914-53.791,22.282L265.354,139.084
				c-14.368,14.367-22.28,33.471-22.28,53.79c0,20.32,7.913,39.423,22.28,53.791c14.368,14.369,33.471,22.282,53.79,22.282
				s39.423-7.913,53.79-22.281l116.802-116.802C519.397,100.204,519.397,51.942,489.737,22.283z M478.979,119.106L362.178,235.909
				c-11.494,11.494-26.777,17.825-43.034,17.825s-31.539-6.331-43.034-17.825c-11.494-11.495-17.825-26.778-17.825-43.036
				c0-16.256,6.33-31.539,17.825-43.033L392.913,33.039c11.495-11.495,26.778-17.826,43.034-17.826
				c16.256,0,31.538,6.331,43.033,17.827C502.709,56.769,502.709,95.378,478.979,119.106z"/>
			<path d="M403.67,43.796l10.757,10.758c5.749-5.75,13.392-8.915,21.52-8.915c8.127,0,15.769,3.165,21.516,8.914l10.757-10.758
				c-8.621-8.621-20.083-13.369-32.274-13.369C423.755,30.426,412.291,35.175,403.67,43.796z"/>
			<path d="M398.671,91.319c-5.884,0-11.416,2.292-15.576,6.451c-8.588,8.588-8.588,22.563,0,31.153
				c4.16,4.16,9.692,6.451,15.576,6.451s11.416-2.292,15.575-6.451c4.161-4.161,6.452-9.693,6.452-15.576
				c0-5.884-2.292-11.416-6.452-15.576C410.087,93.611,404.555,91.319,398.671,91.319z M403.489,118.166
				c-1.287,1.288-2.999,1.997-4.818,1.997c-1.82,0-3.531-0.709-4.818-1.996c-2.657-2.657-2.657-6.982,0-9.638
				c1.287-1.288,2.999-1.997,4.818-1.997c1.819,0,3.531,0.709,4.818,1.997c1.287,1.287,1.996,2.998,1.996,4.818
				S404.777,116.879,403.489,118.166z"/>
			<path d="M356.421,133.568c-5.884,0-11.416,2.292-15.576,6.451c-8.588,8.588-8.588,22.563,0,31.155
				c4.16,4.16,9.692,6.451,15.576,6.451c5.884,0,11.416-2.292,15.577-6.452c8.587-8.591,8.587-22.566,0-31.153
				C367.838,135.861,362.306,133.568,356.421,133.568z M361.239,160.417c-1.287,1.288-2.999,1.997-4.819,1.997
				c-1.819,0-3.531-0.709-4.817-1.996c-2.658-2.658-2.658-6.984-0.001-9.64c1.287-1.288,2.999-1.997,4.82-1.997
				s3.531,0.709,4.818,1.997C363.897,153.435,363.897,157.76,361.239,160.417z"/>
			<path d="M260.98,263.806l-35.845-35.845l-10.757,10.758l13.155,13.155l-48.225,48.224l10.757,10.758l48.225-48.225l11.094,11.094
				l-89.332,89.335c-0.335-0.401-0.688-0.783-1.029-1.177c-0.462-0.532-0.916-1.07-1.392-1.593
				c-0.883-0.972-1.786-1.921-2.707-2.848c-0.058-0.06-0.112-0.121-0.17-0.18c-0.084-0.084-0.172-0.161-0.257-0.244
				c-0.88-0.872-1.778-1.731-2.699-2.57c-0.685-0.625-1.387-1.223-2.088-1.826c-0.254-0.216-0.497-0.444-0.753-0.657l26.765-26.765
				l-10.757-10.758l-28.66,28.66c-13.334-7.711-28.507-11.84-44.323-11.84c-23.711,0-46.004,9.233-62.773,26.001L0.018,386.466
				l35.78,3.667l2.669,26.026l26.025,2.67l2.67,26.024l26.024,2.67l2.67,26.024l26.025,2.67l3.673,35.78l29.197-29.192
				c28.971-28.974,33.675-73.149,14.144-107.078l91.245-91.248L273.3,297.64l10.757-10.758l-13.157-13.157L260.98,263.806z
				 M143.996,472.051l-6.573,6.571l-1.67-16.273l-26.024-2.67l-2.67-26.024l-26.024-2.67l-2.67-26.024l-26.025-2.67l-2.669-26.026
				l-16.273-1.669l6.571-6.572c13.895-13.894,32.367-21.545,52.015-21.545c14.472,0,28.297,4.163,40.134,11.902l1.018,0.69
				c2.934,1.985,5.722,4.175,8.323,6.534c0.861,0.784,1.71,1.588,2.539,2.418c0.007,0.008,0.014,0.016,0.022,0.023
				c0.841,0.842,1.654,1.702,2.445,2.573c0.576,0.636,1.133,1.293,1.688,1.951c0.202,0.238,0.412,0.472,0.611,0.711
				c0.635,0.773,1.251,1.564,1.856,2.363c0.106,0.141,0.219,0.278,0.326,0.42c0.576,0.773,1.131,1.563,1.678,2.358
				c0.191,0.277,0.391,0.55,0.577,0.829l0.277,0.41C172.215,408.189,169.057,446.987,143.996,472.051z"/>
		</g>
	</g>
</g>
<g>
</g>
<g>
</g>
<g>
</g>
<g>
</g>
<g>
</g>
<g>
</g>
<g>
</g>
<g>
</g>
<g>
</g>
<g>
</g>
<g>
</g>
<g>
</g>
<g>
</g>
<g>
</g>
<g>
</g>
</svg>
