<?xml version="1.0" encoding="iso-8859-1"?>
<!-- Generator: Adobe Illustrator 19.0.0, SVG Export Plug-In . SVG Version: 6.00 Build 0)  -->
<svg version="1.1" id="Layer_1" xmlns="http://www.w3.org/2000/svg" xmlns:xlink="http://www.w3.org/1999/xlink" x="0px" y="0px"
	 viewBox="0 0 512 512" style="enable-background:new 0 0 512 512;" xml:space="preserve">
<g>
	<g>
		<g>
			<path d="M392.103,356.879h-13.506l24.357-210.328l8.99-77.632L450.503,0H227.264v15.208h197.304l-27.38,48.94l-9.364,80.867
				c-0.124-0.019-0.245-0.04-0.368-0.059c-0.879-0.138-1.738-0.284-2.572-0.438c-0.127-0.023-0.258-0.046-0.383-0.069
				c-0.907-0.171-1.786-0.353-2.648-0.541c-0.194-0.043-0.386-0.085-0.578-0.129c-0.856-0.193-1.698-0.391-2.516-0.598
				c-0.041-0.01-0.08-0.021-0.121-0.031c-0.799-0.204-1.58-0.416-2.349-0.632c-0.166-0.047-0.334-0.093-0.498-0.14
				c-0.771-0.22-1.531-0.445-2.281-0.675c-0.14-0.043-0.278-0.086-0.417-0.13c-0.685-0.213-1.366-0.429-2.04-0.648
				c-0.114-0.036-0.227-0.073-0.341-0.11c-0.745-0.244-1.486-0.492-2.226-0.741c-0.191-0.065-0.381-0.129-0.573-0.194
				c-0.703-0.238-1.404-0.477-2.11-0.719c-11.576-3.959-23.547-8.053-47.159-8.053c-8.117,0-14.858,0.484-20.68,1.279
				c-1.058,0.145-2.087,0.3-3.087,0.464s-1.974,0.338-2.922,0.519c-8.058,1.545-14.319,3.686-20.468,5.79
				c-2.38,0.814-4.73,1.618-7.171,2.378c-1.046,0.325-2.109,0.643-3.198,0.949c-5.081,1.43-10.73,2.623-17.902,3.301
				c-1.024,0.096-2.08,0.183-3.169,0.259c-1.09,0.075-2.212,0.139-3.373,0.191c-2.32,0.103-4.786,0.158-7.422,0.158
				c-21.086,0-31.389-3.515-42.297-7.237c-0.51-0.174-1.021-0.349-1.534-0.522c-0.162-0.055-0.324-0.109-0.488-0.165
				c-0.377-0.128-0.755-0.255-1.135-0.383c-0.191-0.064-0.381-0.128-0.572-0.191c-0.357-0.119-0.715-0.237-1.075-0.356
				c-0.197-0.065-0.393-0.129-0.591-0.193c-0.367-0.12-0.738-0.238-1.109-0.357c-0.191-0.061-0.38-0.122-0.572-0.182
				c-0.413-0.13-0.829-0.259-1.248-0.386c-0.152-0.047-0.303-0.093-0.456-0.14c-0.576-0.173-1.157-0.346-1.748-0.515
				c-0.056-0.016-0.114-0.031-0.169-0.048c-0.527-0.15-1.059-0.299-1.6-0.446c-0.188-0.051-0.38-0.1-0.57-0.151
				c-0.417-0.11-0.835-0.22-1.26-0.328c-0.227-0.058-0.457-0.115-0.687-0.171c-0.403-0.099-0.81-0.198-1.222-0.294
				c-0.241-0.057-0.484-0.114-0.729-0.169c-0.424-0.096-0.854-0.191-1.288-0.284c-0.235-0.051-0.468-0.102-0.707-0.152
				c-0.512-0.106-1.034-0.21-1.561-0.311c-0.166-0.032-0.328-0.066-0.497-0.097c-0.699-0.132-1.41-0.259-2.137-0.381
				c-0.166-0.028-0.34-0.054-0.507-0.081c-0.564-0.092-1.133-0.182-1.715-0.269c-0.269-0.04-0.544-0.077-0.817-0.116
				c-0.332-0.047-0.656-0.096-0.994-0.141l-4.152-37.915L150.82,48.79l-3.679-33.582h59.843V0h-76.808l5.343,48.79h-20.153
				c-29.703,0-53.868,24.165-53.868,53.869v118.275c0,29.703,24.165,53.868,53.868,53.868h44.904l8.989,82.077H155.7
				c-16.491,0-29.909,13.416-29.909,29.909v95.303c0,16.492,13.417,29.909,29.909,29.909h43.885v-15.208H155.7
				c-8.106,0-14.701-6.595-14.701-14.701v-95.303c0-8.106,6.595-14.701,14.701-14.701h15.224h205.913h15.267
				c8.106,0,14.701,6.595,14.701,14.701v95.303c0,8.106-6.595,14.701-14.701,14.701H219.861V512h172.241
				c16.492,0,29.909-13.416,29.909-29.909v-95.303C422.012,370.296,408.595,356.879,392.103,356.879z M144.51,130.884l10.764,98.293
				h-39.908c-4.546,0-8.245-3.699-8.245-8.245V102.659c0-4.546,3.699-8.245,8.245-8.245h25.149L144.51,130.884z M115.367,259.594
				c-21.317,0-38.661-17.343-38.661-38.661V102.659c0-21.317,17.343-38.661,38.661-38.661h21.818l1.666,15.208h-23.484
				c-12.932,0-23.453,10.521-23.453,23.453v118.275c0,12.932,10.521,23.453,23.453,23.453h41.572l0.744,6.798l0.922,8.41H115.367z
				 M363.288,356.879h-49.341l6.701-134.46l-15.189-0.756l-6.739,135.217h-49.639l-6.738-135.217l-15.189,0.756l6.7,134.46h-49.298
				l-12.038-109.931l-1.946-17.77l-8.894-81.207c0.119,0.02,0.233,0.043,0.351,0.063c0.749,0.131,1.48,0.268,2.197,0.411
				c0.211,0.042,0.423,0.083,0.632,0.127c0.823,0.169,1.631,0.345,2.418,0.528c0.116,0.027,0.227,0.056,0.342,0.082
				c0.697,0.165,1.38,0.336,2.052,0.511c0.191,0.05,0.382,0.099,0.571,0.149c0.75,0.2,1.49,0.404,2.217,0.613
				c0.076,0.022,0.15,0.045,0.225,0.067c0.674,0.197,1.34,0.397,1.999,0.601c0.174,0.054,0.349,0.107,0.522,0.162
				c0.709,0.222,1.412,0.446,2.11,0.675c0.03,0.01,0.061,0.02,0.092,0.03c0.702,0.23,1.399,0.463,2.097,0.699
				c0.168,0.057,0.338,0.114,0.506,0.171c0.677,0.229,1.354,0.459,2.034,0.691c11.602,3.958,23.598,8.051,47.208,8.051
				c23.612,0,35.581-4.094,47.156-8.053c10.878-3.72,21.151-7.235,42.234-7.235c21.083,0,31.359,3.514,42.237,7.235
				c0.485,0.165,0.969,0.331,1.456,0.497c0.2,0.068,0.4,0.136,0.6,0.204c0.321,0.109,0.644,0.218,0.966,0.326
				c0.222,0.075,0.445,0.149,0.668,0.224c0.313,0.105,0.63,0.21,0.946,0.314c0.221,0.073,0.441,0.146,0.664,0.218
				c0.37,0.121,0.743,0.24,1.118,0.36c0.166,0.053,0.331,0.107,0.498,0.159c0.522,0.165,1.049,0.328,1.583,0.492
				c0.189,0.058,0.38,0.114,0.57,0.17c0.367,0.111,0.736,0.22,1.11,0.328c0.225,0.065,0.452,0.13,0.679,0.195
				c0.353,0.1,0.71,0.2,1.069,0.299c0.232,0.064,0.464,0.128,0.7,0.191c0.397,0.106,0.801,0.212,1.208,0.316
				c0.196,0.051,0.388,0.101,0.586,0.151c0.596,0.15,1.2,0.296,1.816,0.44c0.152,0.035,0.31,0.07,0.464,0.104
				c0.48,0.109,0.964,0.218,1.458,0.323c0.229,0.049,0.463,0.097,0.695,0.145c0.435,0.09,0.875,0.18,1.321,0.266
				c0.247,0.049,0.497,0.096,0.748,0.143c0.472,0.088,0.954,0.174,1.439,0.259c0.22,0.039,0.438,0.078,0.661,0.116
				c0.711,0.119,1.431,0.234,2.17,0.344L363.288,356.879z"/>
			<path d="M273.901,396.166c-21.104,0-38.273,17.17-38.273,38.273c0,21.104,17.17,38.273,38.273,38.273s38.273-17.17,38.273-38.273
				C312.174,413.336,295.006,396.166,273.901,396.166z M273.901,457.505c-12.718,0-23.065-10.347-23.065-23.065
				s10.347-23.065,23.065-23.065s23.065,10.347,23.065,23.065S286.62,457.505,273.901,457.505z"/>
			<path d="M311.718,472.257l10.753,10.753c26.782-26.782,26.782-70.359,0-97.141l-10.753,10.754
				C332.57,417.476,332.57,451.404,311.718,472.257z"/>
		</g>
	</g>
</g>
<g>
</g>
<g>
</g>
<g>
</g>
<g>
</g>
<g>
</g>
<g>
</g>
<g>
</g>
<g>
</g>
<g>
</g>
<g>
</g>
<g>
</g>
<g>
</g>
<g>
</g>
<g>
</g>
<g>
</g>
</svg>
