<?xml version="1.0" encoding="iso-8859-1"?>
<!-- Generator: Adobe Illustrator 19.0.0, SVG Export Plug-In . SVG Version: 6.00 Build 0)  -->
<svg version="1.1" id="Layer_1" xmlns="http://www.w3.org/2000/svg" xmlns:xlink="http://www.w3.org/1999/xlink" x="0px" y="0px"
	 viewBox="0 0 512 512" style="enable-background:new 0 0 512 512;" xml:space="preserve">
<g>
	<g>
		<g>
			<rect x="31.242" y="349.449" width="449.513" height="15.209"/>
			<path d="M467.845,334.245L512,147.341H0l44.155,186.904H467.845z M492.779,162.551L455.81,319.036h-22.19l30.247-156.486H492.779
				z M448.376,162.551l-30.247,156.486h-22.315l23.526-156.486H448.376z M403.96,162.551l-23.526,156.486h-22.412l16.804-156.486
				H403.96z M285.842,162.551h29.245l-4.358,67.632l15.178,0.978l4.421-68.611h29.203l-16.804,156.486h-22.481l4.358-67.635
				l-15.178-0.978l-4.421,68.614h-22.524L285.842,162.551z M270.629,162.551l-3.36,156.486h-22.537l-3.361-156.486H270.629z
				 M226.158,162.551l3.361,156.486h-22.524l-10.083-156.486H226.158z M181.672,162.551l10.083,156.486h-22.481l-16.804-156.486
				H181.672z M137.173,162.551l16.804,156.486h-22.411L108.04,162.551H137.173z M92.661,162.551l23.526,156.486H93.871
				L63.624,162.551H92.661z M48.133,162.551L78.38,319.036H56.19L19.221,162.551H48.133z"/>
		</g>
	</g>
</g>
<g>
</g>
<g>
</g>
<g>
</g>
<g>
</g>
<g>
</g>
<g>
</g>
<g>
</g>
<g>
</g>
<g>
</g>
<g>
</g>
<g>
</g>
<g>
</g>
<g>
</g>
<g>
</g>
<g>
</g>
</svg>
