<?xml version="1.0" encoding="iso-8859-1"?>
<!-- Generator: Adobe Illustrator 19.0.0, SVG Export Plug-In . SVG Version: 6.00 Build 0)  -->
<svg version="1.1" id="Layer_1" xmlns="http://www.w3.org/2000/svg" xmlns:xlink="http://www.w3.org/1999/xlink" x="0px" y="0px"
	 viewBox="0 0 512 512" style="enable-background:new 0 0 512 512;" xml:space="preserve">
<g>
	<g>
		<g>
			<path d="M477.022,60.325H34.978C15.692,60.325,0,76.016,0,95.303v321.394c0,19.287,15.692,34.978,34.978,34.978h86.177v-15.208
				H34.978c-10.901,0-19.77-8.869-19.77-19.77V95.303c0-10.901,8.869-19.77,19.77-19.77h442.044c10.901,0,19.77,8.869,19.77,19.77
				v321.394c0,10.901-8.869,19.77-19.77,19.77H141.435v15.208h335.587c19.287,0,34.978-15.691,34.978-34.978V95.303
				C512,76.016,496.308,60.325,477.022,60.325z"/>
			<path d="M198.485,187.786c23.635,0,42.862-19.228,42.862-42.862c0-23.634-19.228-42.863-42.862-42.863
				c-23.634,0-42.863,19.229-42.863,42.863C155.622,168.559,174.85,187.786,198.485,187.786z M198.485,117.268
				c15.248,0,27.654,12.406,27.654,27.655c0,15.248-12.406,27.654-27.654,27.654c-15.25,0-27.655-12.406-27.655-27.654
				C170.83,129.674,183.235,117.268,198.485,117.268z"/>
			<path d="M428.542,187.786c23.635,0,42.862-19.228,42.862-42.862c0-23.634-19.228-42.863-42.862-42.863
				c-23.634,0-42.863,19.229-42.863,42.863C385.679,168.559,404.907,187.786,428.542,187.786z M428.542,117.268
				c15.248,0,27.654,12.406,27.654,27.655c0,15.248-12.406,27.654-27.654,27.654c-15.249,0-27.655-12.406-27.655-27.654
				C400.886,129.674,413.292,117.268,428.542,117.268z"/>
			<path d="M313.513,213.137c-23.635,0-42.863,19.229-42.863,42.863s19.229,42.863,42.863,42.863
				c23.634,0,42.862-19.229,42.862-42.863C356.375,232.366,337.147,213.137,313.513,213.137z M313.513,283.655
				c-15.25,0-27.655-12.406-27.655-27.655s12.406-27.655,27.655-27.655c15.248,0,27.654,12.406,27.654,27.655
				S328.762,283.655,313.513,283.655z"/>
			<path d="M83.457,298.863c23.635,0,42.862-19.229,42.862-42.863c0-23.634-19.228-42.863-42.862-42.863
				c-23.635,0-42.863,19.229-42.863,42.863C40.594,279.634,59.822,298.863,83.457,298.863z M83.457,228.345
				c15.248,0,27.654,12.406,27.654,27.655c0,15.25-12.406,27.655-27.654,27.655c-15.25,0-27.655-12.406-27.655-27.655
				S68.209,228.345,83.457,228.345z"/>
			<path d="M275.411,374.992l38.108,38.096l38.096-38.096c11.597-11.596,11.597-30.469-0.001-42.067
				c-5.618-5.618-13.088-8.712-21.033-8.712c-6.196,0-12.103,1.882-17.069,5.375c-4.964-3.493-10.872-5.375-17.068-5.375
				c-7.946,0-15.415,3.094-21.034,8.712c-5.618,5.619-8.713,13.089-8.713,21.034C266.698,361.904,269.793,369.374,275.411,374.992z
				 M286.165,343.679c2.746-2.747,6.396-4.258,10.28-4.258c3.883,0,7.534,1.512,10.276,4.254l6.788,6.798l6.794-6.794
				c2.747-2.746,6.397-4.258,10.281-4.258s7.534,1.513,10.28,4.257c5.669,5.669,5.669,14.892,0,20.559l-27.344,27.346
				l-27.353-27.346c-2.746-2.746-4.258-6.396-4.258-10.28C281.906,350.076,283.419,346.424,286.165,343.679z"/>
			<path d="M198.485,324.214c-23.635,0-42.863,19.228-42.863,42.862c0,23.634,19.228,42.863,42.863,42.863
				c23.635,0,42.862-19.229,42.862-42.863C241.347,343.442,222.12,324.214,198.485,324.214z M198.485,394.732
				c-15.25,0-27.655-12.406-27.655-27.655c0-15.248,12.406-27.654,27.655-27.654c15.248,0,27.654,12.406,27.654,27.654
				C226.139,382.326,213.733,394.732,198.485,394.732z"/>
			<path d="M428.542,324.214c-23.635,0-42.863,19.228-42.863,42.862c0,23.634,19.229,42.863,42.863,42.863
				c23.634,0,42.862-19.229,42.862-42.863C471.404,343.442,452.176,324.214,428.542,324.214z M428.542,394.732
				c-15.249,0-27.655-12.406-27.655-27.655c0-15.248,12.406-27.654,27.655-27.654c15.248,0,27.654,12.406,27.654,27.654
				C456.196,382.326,443.79,394.732,428.542,394.732z"/>
			<path d="M100.526,324.213c-6.196,0-12.103,1.882-17.068,5.375c-4.965-3.493-10.873-5.375-17.068-5.375
				c-7.946,0-15.416,3.094-21.034,8.712c-5.619,5.619-8.713,13.089-8.713,21.034c0,7.946,3.094,15.416,8.713,21.034l38.108,38.096
				l38.096-38.096c11.597-11.596,11.598-30.469,0-42.067C115.94,327.307,108.471,324.213,100.526,324.213z M110.806,364.238
				l-27.344,27.346l-27.353-27.346c-2.746-2.746-4.258-6.396-4.258-10.28c0-3.882,1.513-7.534,4.258-10.28
				c2.746-2.747,6.396-4.258,10.28-4.258c3.883,0,7.533,1.512,10.274,4.254l6.789,6.798l6.795-6.794
				c2.746-2.746,6.396-4.258,10.28-4.258c3.883,0,7.534,1.513,10.28,4.257C116.473,349.347,116.473,358.57,110.806,364.238z"/>
			<path d="M160.384,263.917l38.107,38.095l38.096-38.096c11.596-11.598,11.596-30.469,0-42.067
				c-5.619-5.618-13.089-8.712-21.034-8.712c-6.196,0-12.103,1.882-17.068,5.375c-4.965-3.493-10.873-5.375-17.068-5.375
				c-7.946,0-15.416,3.094-21.034,8.712C148.784,233.447,148.784,252.319,160.384,263.917z M171.136,232.603
				c2.746-2.747,6.396-4.258,10.28-4.258c3.883,0,7.533,1.512,10.274,4.254l6.789,6.798l6.795-6.794
				c2.745-2.746,6.396-4.258,10.279-4.258c3.883,0,7.534,1.513,10.28,4.257c5.668,5.669,5.668,14.892,0,20.56l-27.344,27.345
				l-27.353-27.345C165.468,247.494,165.468,238.272,171.136,232.603z"/>
			<path d="M390.442,263.917l38.108,38.095l38.096-38.096c11.597-11.598,11.597-30.469-0.001-42.067
				c-5.618-5.618-13.088-8.712-21.033-8.712c-6.196,0-12.103,1.882-17.069,5.375c-4.964-3.493-10.872-5.375-17.068-5.375
				c-7.946,0-15.415,3.094-21.034,8.712C378.842,233.447,378.842,252.319,390.442,263.917z M401.195,232.603
				c2.746-2.747,6.396-4.258,10.28-4.258c3.883,0,7.534,1.512,10.275,4.254l6.788,6.798l6.794-6.794
				c2.747-2.746,6.397-4.258,10.281-4.258c3.883,0,7.534,1.513,10.28,4.257c5.668,5.669,5.668,14.892,0,20.56l-27.344,27.345
				l-27.353-27.345C395.526,247.494,395.526,238.272,401.195,232.603z"/>
			<path d="M351.615,110.772c-5.618-5.618-13.088-8.712-21.033-8.712c-6.196,0-12.103,1.882-17.069,5.375
				c-4.964-3.493-10.872-5.375-17.068-5.375c-7.946,0-15.415,3.094-21.034,8.712c-5.618,5.619-8.713,13.089-8.713,21.034
				c0,7.946,3.095,15.416,8.714,21.034l38.108,38.096l38.096-38.096C363.213,141.243,363.213,122.371,351.615,110.772z
				 M340.861,142.086l-27.344,27.346l-27.353-27.346c-2.746-2.746-4.258-6.396-4.258-10.28c0-3.882,1.513-7.534,4.259-10.28
				c2.746-2.747,6.396-4.258,10.28-4.258s7.534,1.512,10.276,4.254l6.788,6.798l6.794-6.794c2.747-2.746,6.397-4.258,10.281-4.258
				s7.534,1.513,10.28,4.257C346.53,127.195,346.53,136.418,340.861,142.086z"/>
			<path d="M100.526,102.06c-6.196,0-12.103,1.882-17.068,5.375c-4.965-3.493-10.873-5.375-17.068-5.375
				c-7.946,0-15.416,3.094-21.034,8.712c-5.619,5.619-8.713,13.089-8.713,21.034c0,7.946,3.094,15.416,8.713,21.034l38.108,38.096
				l38.096-38.096c11.597-11.597,11.598-30.469,0-42.067C115.94,105.155,108.471,102.06,100.526,102.06z M110.806,142.086
				l-27.344,27.346l-27.353-27.346c-2.746-2.746-4.258-6.396-4.258-10.28c0-3.882,1.513-7.534,4.258-10.28
				c2.746-2.747,6.396-4.258,10.28-4.258c3.883,0,7.533,1.512,10.274,4.254l6.789,6.798l6.795-6.794
				c2.746-2.746,6.396-4.258,10.28-4.258c3.883,0,7.534,1.513,10.28,4.257C116.473,127.195,116.473,136.418,110.806,142.086z"/>
		</g>
	</g>
</g>
<g>
</g>
<g>
</g>
<g>
</g>
<g>
</g>
<g>
</g>
<g>
</g>
<g>
</g>
<g>
</g>
<g>
</g>
<g>
</g>
<g>
</g>
<g>
</g>
<g>
</g>
<g>
</g>
<g>
</g>
</svg>
