<?xml version="1.0" encoding="iso-8859-1"?>
<!-- Generator: Adobe Illustrator 19.0.0, SVG Export Plug-In . SVG Version: 6.00 Build 0)  -->
<svg version="1.1" id="Layer_1" xmlns="http://www.w3.org/2000/svg" xmlns:xlink="http://www.w3.org/1999/xlink" x="0px" y="0px"
	 viewBox="0 0 512 512" style="enable-background:new 0 0 512 512;" xml:space="preserve">
<g>
	<g>
		<g>
			<path d="M409.203,236.91c-0.013-0.012-2.488-2.101-7.381-6.231c3.837-4.534,5.99-10.297,5.99-16.292
				c0-7.301-3.175-14.247-8.743-19.085c-0.032-0.028-0.088-0.076-224.461-189.472l-0.097-0.081C170.004,2.042,164.307,0,158.402,0
				h-39.099C105.377,0,94.047,11.33,94.047,25.256v324.032h15.21V25.256c0-5.539,4.506-10.046,10.046-10.046
				c2.356,0,4.561,0.79,6.351,2.262l264.654,223.392c5.653,4.771,8.865,7.483,8.958,7.56c2.21,1.921,3.477,4.682,3.477,7.577
				c0,2.846-1.228,5.57-3.372,7.483L125.653,494.528c-1.811,1.479-4.005,2.261-6.35,2.261c-5.539,0-10.046-4.506-10.046-10.046
				V369.57h-15.21v117.174c0,13.925,11.329,25.256,25.256,25.256c5.839,0,11.535-2.042,16.041-5.748l273.909-231.203l0.121-0.105
				c5.452-4.801,8.579-11.707,8.579-18.943C417.953,248.7,414.778,241.754,409.203,236.91z M390.205,220.873l-30.03-25.348
				c-43.076-36.359-114.438-96.596-213.62-180.315h11.914c2.356,0,4.561,0.79,6.351,2.262
				c2.236,1.887,223.608,188.75,224.305,189.338c2.21,1.92,3.477,4.682,3.477,7.577
				C392.602,216.769,391.741,219.065,390.205,220.873z"/>
			
				<rect x="148.106" y="431.444" transform="matrix(-0.7642 0.645 -0.645 -0.7642 558.3708 673.9567)" width="15.759" height="15.21"/>
			
				<rect x="172.227" y="411.09" transform="matrix(-0.7642 0.645 -0.645 -0.7642 587.7967 622.491)" width="15.759" height="15.21"/>
			
				<rect x="196.352" y="390.728" transform="matrix(-0.7642 0.645 -0.645 -0.7642 617.2244 571.0082)" width="15.759" height="15.21"/>
			
				<rect x="220.471" y="370.397" transform="matrix(-0.7641 0.6451 -0.6451 -0.7641 646.6817 519.5253)" width="15.76" height="15.21"/>
			
				<rect x="244.59" y="350.016" transform="matrix(-0.7642 0.645 -0.645 -0.7642 676.0672 468.0687)" width="15.76" height="15.21"/>
			
				<rect x="268.715" y="329.674" transform="matrix(-0.7642 0.645 -0.645 -0.7642 705.5076 416.623)" width="15.759" height="15.21"/>
			
				<rect x="292.84" y="309.272" transform="matrix(-0.7642 0.645 -0.645 -0.7642 734.9086 365.0709)" width="15.759" height="15.21"/>
			
				<rect x="316.964" y="288.941" transform="matrix(-0.7642 0.645 -0.645 -0.7642 764.3553 313.6429)" width="15.759" height="15.21"/>
			
				<rect x="341.095" y="268.546" transform="matrix(-0.7642 0.645 -0.645 -0.7642 793.7729 262.099)" width="15.759" height="15.21"/>
			
				<rect x="148.087" y="65.303" transform="matrix(-0.7641 -0.6451 0.6451 -0.7641 228.1073 229.2306)" width="15.759" height="15.209"/>
			
				<rect x="172.192" y="85.672" transform="matrix(-0.7643 -0.6449 0.6449 -0.7643 257.5444 280.6902)" width="15.759" height="15.209"/>
			
				<rect x="196.333" y="106.035" transform="matrix(-0.7642 -0.645 0.645 -0.7642 286.9738 332.1968)" width="15.759" height="15.209"/>
			
				<rect x="220.456" y="126.396" transform="matrix(-0.7642 -0.645 0.645 -0.7642 316.4001 383.6769)" width="15.761" height="15.209"/>
			
				<rect x="244.561" y="146.767" transform="matrix(-0.7641 -0.6451 0.6451 -0.7641 345.7465 435.1767)" width="15.761" height="15.21"/>
			
				<rect x="268.723" y="167.119" transform="matrix(0.7641 0.6451 -0.6451 0.7641 177.9637 -137.2177)" width="15.758" height="15.21"/>
			
				<rect x="292.846" y="187.483" transform="matrix(0.7642 0.645 -0.645 0.7642 196.7442 -147.9627)" width="15.761" height="15.209"/>
			
				<rect x="316.977" y="207.843" transform="matrix(0.7641 0.6451 -0.6451 0.7641 215.6191 -158.7397)" width="15.758" height="15.21"/>
			
				<rect x="341.059" y="228.207" transform="matrix(-0.7643 -0.6449 0.6449 -0.7643 463.5529 641.0638)" width="15.759" height="15.209"/>
			
				<rect x="365.461" y="248.298" transform="matrix(0.6449 -0.7642 0.7642 0.6449 -63.3173 376.071)" width="15.208" height="15.758"/>
			<rect x="124.469" y="149.282" width="15.21" height="169.582"/>
		</g>
	</g>
</g>
<g>
</g>
<g>
</g>
<g>
</g>
<g>
</g>
<g>
</g>
<g>
</g>
<g>
</g>
<g>
</g>
<g>
</g>
<g>
</g>
<g>
</g>
<g>
</g>
<g>
</g>
<g>
</g>
<g>
</g>
</svg>
