<?xml version="1.0" encoding="iso-8859-1"?>
<!-- Generator: Adobe Illustrator 19.0.0, SVG Export Plug-In . SVG Version: 6.00 Build 0)  -->
<svg version="1.1" id="Layer_1" xmlns="http://www.w3.org/2000/svg" xmlns:xlink="http://www.w3.org/1999/xlink" x="0px" y="0px"
	 viewBox="0 0 512 512" style="enable-background:new 0 0 512 512;" xml:space="preserve">
<g>
	<g>
		<g>
			<path d="M141.258,479.757l2.134,1.827h58.878v-15.208H149.05c-34.608-30.662-54.401-74.531-54.401-120.805
				c0-76.891,54.672-143.466,129.998-158.301l6.135-1.208V145.52h50.448v40.543l6.135,1.208
				c75.326,14.835,129.998,81.41,129.998,158.301c0,46.275-19.793,90.142-54.401,120.805H222.548v15.208h146.069l2.134-1.827
				c39.286-33.626,61.818-82.534,61.818-134.187c0-82.037-56.879-153.342-136.132-171.9v-58.866
				c9.426-1.639,16.615-9.88,16.615-19.768V68.198c0-11.064-9-20.065-20.063-20.065h-5.122L294.284,0h-76.559l6.419,48.133h-5.122
				c-11.063,0-20.063,9.001-20.063,20.065v26.84c0,9.888,7.189,18.129,16.615,19.768v58.866
				c-79.256,18.557-136.133,89.863-136.133,171.899C79.441,397.223,101.972,446.131,141.258,479.757z M276.914,15.208l-4.391,32.925
				h-33.036l-4.391-32.925H276.914z M214.166,95.037V68.198c0-2.679,2.178-4.857,4.855-4.857h7.151h59.666h7.151
				c2.678,0,4.855,2.179,4.855,4.857v26.84c0,2.679-2.178,4.857-4.855,4.857h-4.156h-7.604h-25.224v15.208h25.224v15.208h-50.448
				V99.896h-11.76C216.345,99.895,214.166,97.716,214.166,95.037z"/>
			<path d="M348.554,438.185l10.751,10.758c23.156-23.139,38.015-53.76,41.842-86.223l-15.102-1.78
				C382.615,390.02,369.301,417.453,348.554,438.185z"/>
			<path d="M367.597,251.265c-21.343-25.286-50.881-42.714-83.172-49.073l-2.938,14.921c28.914,5.694,55.367,21.307,74.49,43.962
				c19.088,22.616,30.067,51.28,30.915,80.712l15.202-0.438C401.146,308.493,388.896,276.5,367.597,251.265z"/>
			<rect x="75.609" y="496.792" width="360.783" height="15.208"/>
		</g>
	</g>
</g>
<g>
</g>
<g>
</g>
<g>
</g>
<g>
</g>
<g>
</g>
<g>
</g>
<g>
</g>
<g>
</g>
<g>
</g>
<g>
</g>
<g>
</g>
<g>
</g>
<g>
</g>
<g>
</g>
<g>
</g>
</svg>
