<?xml version="1.0" encoding="iso-8859-1"?>
<!-- Generator: Adobe Illustrator 19.0.0, SVG Export Plug-In . SVG Version: 6.00 Build 0)  -->
<svg version="1.1" id="Layer_1" xmlns="http://www.w3.org/2000/svg" xmlns:xlink="http://www.w3.org/1999/xlink" x="0px" y="0px"
	 viewBox="0 0 512 512" style="enable-background:new 0 0 512 512;" xml:space="preserve">
<g>
	<g>
		<g>
			<path d="M93.079,448.172h325.842V225.523H93.079V448.172z M108.287,240.731h295.425v26.28H108.287V240.731z M108.287,282.219
				h295.426v26.28h-0.001H108.287V282.219z M108.287,365.196H312.38v-15.208H108.287v-26.28h295.426v26.28h-70.055v15.208h70.055
				v26.28H108.287V365.196z M108.287,406.684h295.426v26.28H108.287V406.684z"/>
			<path d="M447.486,0H64.514C45.07,0,29.251,15.819,29.251,35.263v108.671V512h453.497V143.934V35.263
				C482.748,15.819,466.929,0,447.486,0z M467.541,496.792L467.541,496.792H44.459V143.934h120.293v-15.208H44.459V35.263
				c0-11.058,8.996-20.055,20.054-20.055h382.972c11.058,0,20.054,8.997,20.054,20.055v93.463h-282.51v15.208h282.511V496.792z"/>
			<path d="M126.744,42.556c-16.217,0-29.41,13.193-29.41,29.411s13.193,29.411,29.41,29.411c16.218,0,29.411-13.193,29.411-29.411
				S142.961,42.556,126.744,42.556z M126.744,86.17c-7.831,0-14.202-6.371-14.202-14.203s6.371-14.203,14.202-14.203
				c7.832,0,14.203,6.371,14.203,14.203S134.575,86.17,126.744,86.17z"/>
			<path d="M212.914,101.378c16.217,0,29.41-13.193,29.41-29.411s-13.193-29.411-29.41-29.411
				c-16.218,0-29.411,13.193-29.411,29.411S196.697,101.378,212.914,101.378z M212.914,57.764c7.831,0,14.202,6.371,14.202,14.203
				s-6.371,14.203-14.202,14.203c-7.832,0-14.203-6.371-14.203-14.203S205.082,57.764,212.914,57.764z"/>
			<path d="M299.084,101.378c16.218,0,29.411-13.193,29.411-29.411s-13.193-29.411-29.411-29.411
				c-16.217,0-29.41,13.193-29.41,29.411S282.867,101.378,299.084,101.378z M299.084,57.764c7.832,0,14.203,6.371,14.203,14.203
				s-6.371,14.203-14.203,14.203c-7.831,0-14.202-6.371-14.202-14.203S291.253,57.764,299.084,57.764z"/>
			<path d="M385.254,101.378c16.218,0,29.411-13.193,29.411-29.411s-13.193-29.411-29.411-29.411
				c-16.217,0-29.41,13.193-29.41,29.411S369.037,101.378,385.254,101.378z M385.254,57.764c7.832,0,14.203,6.371,14.203,14.203
				s-6.371,14.203-14.203,14.203c-7.831,0-14.202-6.371-14.202-14.203S377.423,57.764,385.254,57.764z"/>
			<polygon points="93.079,206.01 108.287,206.01 108.287,192.333 403.712,192.333 403.712,206.01 418.92,206.01 418.92,177.125 
				93.079,177.125 			"/>
		</g>
	</g>
</g>
<g>
</g>
<g>
</g>
<g>
</g>
<g>
</g>
<g>
</g>
<g>
</g>
<g>
</g>
<g>
</g>
<g>
</g>
<g>
</g>
<g>
</g>
<g>
</g>
<g>
</g>
<g>
</g>
<g>
</g>
</svg>
