<?xml version="1.0" encoding="iso-8859-1"?>
<!-- Generator: Adobe Illustrator 19.0.0, SVG Export Plug-In . SVG Version: 6.00 Build 0)  -->
<svg version="1.1" id="Layer_1" xmlns="http://www.w3.org/2000/svg" xmlns:xlink="http://www.w3.org/1999/xlink" x="0px" y="0px"
	 viewBox="0 0 512 512" style="enable-background:new 0 0 512 512;" xml:space="preserve">
<g>
	<g>
		<g>
			<path d="M504.045,19.109c-5.137-5.138-11.968-7.968-19.234-7.968c-7.264,0.001-14.095,2.831-19.233,7.968l-271.35,271.35
				l-18.831-18.832c-5.151-5.15-12.001-7.987-19.286-7.987c-7.286,0-14.134,2.837-19.286,7.987L7.989,400.465
				C2.837,405.616,0,412.466,0,419.752s2.837,14.135,7.989,19.287l38.065,38.065c15.319,15.319,35.686,23.755,57.352,23.755
				c21.664,0,42.032-8.435,57.352-23.755l90.771-90.772c10.633-10.634,10.634-27.937,0.002-38.573l-18.832-18.831l50.486-50.486
				l-10.755-10.756l-61.241,61.242l29.587,29.587c4.703,4.705,4.703,12.359-0.002,17.062l-90.771,90.772
				c-12.445,12.446-28.994,19.3-46.595,19.3c-17.602,0-34.151-6.855-46.595-19.3l-38.067-38.065
				c-2.279-2.278-3.533-5.308-3.533-8.531c0-3.224,1.254-6.252,3.534-8.531l128.838-128.838c4.704-4.704,12.357-4.704,17.06,0
				l29.588,29.587L476.338,29.865c2.264-2.265,5.275-3.513,8.477-3.513c3.201,0,6.212,1.247,8.477,3.513
				c4.675,4.675,4.675,12.283,0,16.959L287.07,253.044l10.756,10.756L504.046,57.577C514.652,46.97,514.651,29.713,504.045,19.109z"
				/>
			
				<rect x="92.138" y="282.642" transform="matrix(-0.7071 -0.7071 0.7071 -0.7071 -86.6796 690.8691)" width="15.21" height="161.488"/>
		</g>
	</g>
</g>
<g>
</g>
<g>
</g>
<g>
</g>
<g>
</g>
<g>
</g>
<g>
</g>
<g>
</g>
<g>
</g>
<g>
</g>
<g>
</g>
<g>
</g>
<g>
</g>
<g>
</g>
<g>
</g>
<g>
</g>
</svg>
