<?xml version="1.0" encoding="iso-8859-1"?>
<!-- Generator: Adobe Illustrator 19.0.0, SVG Export Plug-In . SVG Version: 6.00 Build 0)  -->
<svg version="1.1" id="Layer_1" xmlns="http://www.w3.org/2000/svg" xmlns:xlink="http://www.w3.org/1999/xlink" x="0px" y="0px"
	 viewBox="0 0 512 512" style="enable-background:new 0 0 512 512;" xml:space="preserve">
<g>
	<g>
		<g>
			<path d="M255.892,45.624c-115.941,0-210.268,94.326-210.268,210.268c0,56.164,21.872,108.968,61.587,148.682
				c39.714,39.714,92.516,61.585,148.681,61.585c52.333,0,102.441-19.303,141.091-54.353l-10.216-11.265
				c-35.847,32.507-82.327,50.411-130.875,50.411c-52.101,0-101.085-20.29-137.927-57.132
				c-36.843-36.842-57.133-85.826-57.133-137.928c0-107.557,87.504-195.06,195.06-195.06c52.102,0,101.086,20.29,137.928,57.133
				c36.842,36.842,57.132,85.825,57.131,137.928c0,48.541-17.897,95.011-50.393,130.851l11.266,10.216
				c35.038-38.643,54.335-88.741,54.335-141.067c0-56.164-21.871-108.968-61.586-148.682
				C364.858,67.496,312.055,45.624,255.892,45.624z"/>
			<path d="M76.04,255.892h15.208c0-87.098,68.062-159.294,154.947-164.361l-0.885-15.183
				C150.392,81.883,76.04,160.749,76.04,255.892z"/>
			<path d="M383.065,128.717c-31.239-31.238-72.647-49.838-116.597-52.373l-0.875,15.183c40.221,2.32,78.121,19.347,106.719,47.945
				c31.097,31.097,48.223,72.442,48.222,116.421h15.208C435.743,207.853,417.035,162.687,383.065,128.717z"/>
			<path d="M496.756,114.831c9.83-9.83,15.244-22.9,15.244-36.803s-5.414-26.973-15.243-36.8l-25.98-25.982
				c-9.83-9.83-22.9-15.244-36.803-15.244S407,5.415,397.169,15.245l-16.898,16.902C342.664,11.169,300.138,0,255.892,0
				C187.541,0,123.28,26.618,74.95,74.949C26.618,123.28,0,187.541,0,255.892c0,44.247,11.168,86.771,32.146,124.377L15.243,397.17
				C5.414,407,0,420.07,0,433.972c0,13.903,5.414,26.973,15.244,36.801l25.98,25.981C51.054,506.586,64.125,512,78.027,512
				c13.902,0,26.973-5.414,36.804-15.245l16.96-16.964c37.538,20.878,79.962,31.993,124.1,31.992
				c68.352,0,132.611-26.617,180.943-74.949c48.332-48.332,74.949-112.591,74.949-180.942c0-44.136-11.114-86.56-31.991-124.098
				L496.756,114.831z M407.924,25.998c6.957-6.957,16.209-10.79,26.049-10.79c9.841,0,19.092,3.831,26.049,10.79l25.981,25.983
				c6.957,6.956,10.789,16.206,10.789,26.046c0,9.841-3.831,19.091-10.79,26.048l-14.25,14.25c-0.006-0.009-0.012-0.018-0.018-0.027
				c-1.311-2.047-2.656-4.074-4.028-6.086c-0.179-0.264-0.361-0.525-0.541-0.788c-1.232-1.794-2.487-3.571-3.766-5.337
				c-0.129-0.176-0.249-0.359-0.378-0.535l12.228-12.228c5.513-5.512,6.337-11.949,6.337-15.296c0-3.347-0.823-9.783-6.336-15.293
				l-25.981-25.983c-5.513-5.512-11.95-6.336-15.295-6.336c-3.345,0-9.781,0.823-15.296,6.337l-12.199,12.199
				c-4.174-3.051-8.426-5.97-12.756-8.749L407.924,25.998z M453.626,93.437c-5.265-6.387-10.863-12.56-16.793-18.488
				c-5.856-5.855-11.949-11.385-18.252-16.595l10.848-10.848c1.556-1.555,3.33-1.882,4.542-1.882s2.986,0.326,4.541,1.881
				l25.981,25.983c1.554,1.554,1.881,3.326,1.881,4.54c0,1.214-0.326,2.987-1.881,4.541L453.626,93.437z M104.076,486.002
				c-6.957,6.959-16.208,10.791-26.049,10.791s-19.092-3.831-26.049-10.791l-25.98-25.982c-6.958-6.956-10.789-16.207-10.789-26.047
				c0-9.84,3.831-19.091,10.789-26.048l14.204-14.204c2.779,4.33,5.698,8.583,8.75,12.757l-12.2,12.2
				c-5.512,5.513-6.336,11.949-6.336,15.296s0.823,9.783,6.336,15.293l25.981,25.983c5.512,5.511,11.948,6.335,15.294,6.335
				c3.346,0,9.783-0.823,15.296-6.337l12.233-12.233c4.178,3.047,8.433,5.964,12.768,8.737L104.076,486.002z M58.354,418.583
				c5.21,6.301,10.74,12.395,16.596,18.25c5.929,5.929,12.1,11.527,18.487,16.793l-10.868,10.869
				c-1.555,1.555-3.328,1.882-4.542,1.882c-1.214,0-2.987-0.326-4.541-1.88l-25.981-25.983c-1.554-1.555-1.881-3.328-1.881-4.54
				c0-1.214,0.326-2.988,1.881-4.542L58.354,418.583z M496.576,255.891c-0.002,64.29-25.037,124.73-70.496,170.19
				c-45.46,45.458-105.901,70.494-170.189,70.494c-41.506,0.001-81.403-10.45-116.706-30.08l-4.772-2.797
				c-8.607-5.044-16.991-10.687-24.922-16.774l-2.822-2.167c-7.286-5.779-14.292-12.001-20.967-18.676
				c-6.632-6.632-12.815-13.591-18.564-20.827l-2.097-2.725c-6.097-7.922-11.75-16.3-16.802-24.898l-2.863-4.875
				c-19.689-35.339-30.17-75.292-30.17-116.863c0-64.288,25.035-124.729,70.495-170.188c45.46-45.461,105.9-70.496,170.189-70.496
				c40.507,0,79.482,9.948,114.149,28.672l7.547,4.422c8.607,5.044,16.991,10.687,24.922,16.774l4.102,3.148
				c6.748,5.44,13.254,11.26,19.47,17.477c7.737,7.737,14.866,15.916,21.397,24.465c1.182,1.547,2.348,3.111,3.495,4.691
				c0.278,0.383,0.557,0.766,0.832,1.151c1.273,1.777,2.528,3.57,3.753,5.382c0.082,0.121,0.166,0.24,0.248,0.361
				c1.364,2.023,2.696,4.065,3.996,6.124c0.102,0.161,0.2,0.325,0.301,0.488c1.096,1.745,2.163,3.504,3.21,5.271
				C484.998,170.28,496.576,212.192,496.576,255.891z"/>
		</g>
	</g>
</g>
<g>
</g>
<g>
</g>
<g>
</g>
<g>
</g>
<g>
</g>
<g>
</g>
<g>
</g>
<g>
</g>
<g>
</g>
<g>
</g>
<g>
</g>
<g>
</g>
<g>
</g>
<g>
</g>
<g>
</g>
</svg>
