<?xml version="1.0" encoding="iso-8859-1"?>
<!-- Generator: Adobe Illustrator 19.0.0, SVG Export Plug-In . SVG Version: 6.00 Build 0)  -->
<svg version="1.1" id="Layer_1" xmlns="http://www.w3.org/2000/svg" xmlns:xlink="http://www.w3.org/1999/xlink" x="0px" y="0px"
	 viewBox="0 0 512 512" style="enable-background:new 0 0 512 512;" xml:space="preserve">
<g>
	<g>
		<g>
			<path d="M385.77,131.496V42.075C385.77,18.875,366.895,0,343.695,0H168.361c-23.2,0-42.075,18.875-42.075,42.075v88.954
				c-40.042,337.057-40.04,338.071-40.04,338.685c0,23.317,18.968,42.285,42.284,42.285h47.376v-15.208h-47.376
				c-14.812,0-26.886-11.955-27.074-26.723c1.077-9.927,25.544-216.132,39.188-330.985h35.262v-15.208h-34.411v-81.8
				c0-14.815,12.053-26.867,26.867-26.867h175.335c14.815,0,26.867,12.053,26.867,26.867v81.8h-1.012H196.182v15.208h175.175
				c0.583,4.911,1.186,9.986,1.806,15.208h-94.308v15.208h96.114c13.942,117.408,34.588,291.469,35.575,300.569
				c-0.189,14.768-12.262,26.723-27.073,26.723H196.182V512h187.289c23.316,0,42.284-18.968,42.284-42.285
				C425.755,469.101,425.754,468.06,385.77,131.496z"/>
			<rect x="202.772" y="39.814" width="15.208" height="20.036"/>
			<rect x="248.426" y="39.814" width="15.208" height="20.036"/>
			<rect x="294.081" y="39.814" width="15.208" height="20.036"/>
			<rect x="225.594" y="79.233" width="15.208" height="20.036"/>
			<rect x="271.248" y="79.233" width="15.208" height="20.036"/>
			<rect x="316.903" y="79.233" width="15.208" height="20.036"/>
			<rect x="179.94" y="79.233" width="15.208" height="20.036"/>
			<path d="M181.875,184.812c-12.327-0.644-22.704,8.826-23.342,21.018l-12.694,242.168c-0.64,12.23,8.789,22.702,21.019,23.343
				c0.394,0.021,0.785,0.03,1.175,0.03c11.813,0,21.55-9.246,22.167-21.05l12.694-242.168
				C203.534,195.925,194.105,185.453,181.875,184.812z M187.707,207.359l-12.694,242.168c-0.201,3.848-3.472,6.837-7.36,6.628
				c-3.857-0.202-6.829-3.504-6.629-7.361l12.694-242.168c0.194-3.722,3.261-6.637,6.98-6.637c0.126,0,0.252,0.003,0.379,0.01
				C184.934,200.2,187.908,203.502,187.707,207.359z"/>
			<path d="M278.212,449.326V206.827c0-12.247-9.964-22.212-22.212-22.212s-22.212,9.964-22.212,22.212v242.5
				c0,12.247,9.964,22.212,22.212,22.212S278.212,461.574,278.212,449.326z M248.996,449.326V206.827
				c0-3.862,3.142-7.004,7.004-7.004s7.004,3.142,7.004,7.004v242.5c0,3.862-3.142,7.004-7.004,7.004
				S248.996,453.188,248.996,449.326z"/>
			<path d="M343.967,471.372c0.389,0,0.782-0.01,1.175-0.03c12.23-0.641,21.659-11.113,21.019-23.343l-12.694-242.167
				c-0.638-12.193-10.994-21.672-23.342-21.019c-12.23,0.641-21.659,11.113-21.019,23.343L321.8,450.322
				C322.417,462.126,332.153,471.372,343.967,471.372z M330.921,199.998c0.127-0.007,0.253-0.01,0.379-0.01
				c3.72,0,6.786,2.915,6.98,6.638l12.694,242.167c0.201,3.857-2.772,7.159-6.629,7.361c-3.868,0.213-7.16-2.78-7.36-6.628
				l-12.694-242.167C324.092,203.502,327.066,200.2,330.921,199.998z"/>
		</g>
	</g>
</g>
<g>
</g>
<g>
</g>
<g>
</g>
<g>
</g>
<g>
</g>
<g>
</g>
<g>
</g>
<g>
</g>
<g>
</g>
<g>
</g>
<g>
</g>
<g>
</g>
<g>
</g>
<g>
</g>
<g>
</g>
</svg>
