<?xml version="1.0" encoding="iso-8859-1"?>
<!-- Generator: Adobe Illustrator 19.0.0, SVG Export Plug-In . SVG Version: 6.00 Build 0)  -->
<svg version="1.1" id="Layer_1" xmlns="http://www.w3.org/2000/svg" xmlns:xlink="http://www.w3.org/1999/xlink" x="0px" y="0px"
	 viewBox="0 0 512 512" style="enable-background:new 0 0 512 512;" xml:space="preserve">
<g>
	<g>
		<g>
			<path d="M501.276,10.735C494.354,3.813,485.151,0,475.361,0c-9.788,0-18.991,3.813-25.914,10.734l-204.23,204.231l51.825,51.826
				l21.529-21.529l10.764-10.764l40.2-40.2l-10.764-10.765l-40.201,40.201l-30.298-30.298L460.211,21.498
				c4.048-4.046,9.428-6.275,15.15-6.275c5.723,0,11.102,2.229,15.149,6.276c8.352,8.353,8.352,21.945,0,30.298L373.127,169.18
				l10.764,10.765L501.276,62.561C515.562,48.272,515.562,25.024,501.276,10.735z M307.808,234.498l-10.765,10.765l-30.297-30.298
				l10.765-10.764L307.808,234.498z"/>
			<path d="M58.227,371.51H43.004c0,26.042,10.141,50.525,28.555,68.94c15.815,15.814,35.851,25.477,57.945,27.945l1.69-15.13
				c-18.625-2.079-35.524-10.234-48.871-23.58C66.784,414.147,58.226,393.487,58.227,371.51z"/>
			<path d="M149.806,453.266l1.689,15.13c22.092-2.467,42.129-12.13,57.945-27.944l-10.764-10.765
				C185.328,443.033,168.428,451.188,149.806,453.266z"/>
			<path d="M275.513,288.323l10.764-10.764l-51.827-51.827l-10.764,10.764l20.532,20.532l-18.794,18.794
				c-8.833-7.86-18.581-14.377-28.995-19.446l4.867-11.75l-14.064-5.825l-4.867,11.75c-10.947-3.779-22.448-6.065-34.253-6.752
				v-12.779h-15.223v12.779c-11.805,0.688-23.304,2.974-34.253,6.752l-4.867-11.751l-14.064,5.825l4.867,11.751
				c-10.414,5.069-20.161,11.585-28.995,19.445l-9.036-9.036l-10.764,10.765l9.036,9.036c-7.86,8.834-14.377,18.582-19.446,28.995
				l-11.75-4.866l-5.825,14.063l11.75,4.866c-3.779,10.948-6.065,22.449-6.753,34.253H0.009v15.223h12.779
				c0.688,11.805,2.974,23.305,6.752,34.253l-11.749,4.866l5.825,14.063l11.749-4.866c5.069,10.414,11.585,20.161,19.446,28.995
				l-9.035,9.035l10.764,10.765l9.036-9.036c8.833,7.861,18.581,14.377,28.995,19.446l-4.867,11.75l14.064,5.825l4.867-11.75
				c10.948,3.779,22.448,6.064,34.253,6.752V512h15.223v-12.779c11.804-0.688,23.305-2.974,34.253-6.752l4.867,11.75l14.064-5.825
				l-4.867-11.75c10.414-5.069,20.161-11.586,28.995-19.446l9.036,9.036l10.764-10.765l-9.036-9.036
				c7.86-8.833,14.377-18.581,19.446-28.995l11.75,4.866l5.825-14.063l-11.75-4.866c3.779-10.948,6.065-22.449,6.753-34.253h12.779
				V363.9H268.21c-0.688-11.805-2.974-23.305-6.753-34.253l11.75-4.867l-5.825-14.063l-11.75,4.866
				c-5.069-10.414-11.585-20.161-19.446-28.996l18.796-18.795L275.513,288.323z M253.219,371.509
				c0,30.108-11.725,58.416-33.015,79.705c-21.29,21.291-49.595,33.015-79.704,33.014c-30.109,0-58.416-11.725-79.706-33.014
				c-21.29-21.29-33.015-49.595-33.014-79.703c0-30.108,11.724-58.415,33.015-79.705c21.289-21.29,49.596-33.015,79.704-33.015
				c27.557,0,53.599,9.827,74.139,27.814l-55.586,55.585c-5.371-3.411-11.731-5.395-18.55-5.395H140.5
				c-19.141,0-34.715,15.573-34.715,34.714c0,19.14,15.573,34.714,34.715,34.714c19.141,0,34.714-15.573,34.714-34.714
				c0-6.821-1.985-13.182-5.396-18.554l55.586-55.585C243.391,317.91,253.219,343.953,253.219,371.509z M147.796,353.448
				l-12.679,12.679l10.764,10.765l12.68-12.68c0.915,2.257,1.431,4.716,1.431,7.297c0,10.747-8.744,19.49-19.492,19.49
				s-19.492-8.743-19.492-19.49s8.744-19.49,19.492-19.49l0.002-7.612v7.612C143.083,352.019,145.541,352.534,147.796,353.448z"/>
		</g>
	</g>
</g>
<g>
</g>
<g>
</g>
<g>
</g>
<g>
</g>
<g>
</g>
<g>
</g>
<g>
</g>
<g>
</g>
<g>
</g>
<g>
</g>
<g>
</g>
<g>
</g>
<g>
</g>
<g>
</g>
<g>
</g>
</svg>
