<?xml version="1.0" encoding="iso-8859-1"?>
<!-- Generator: Adobe Illustrator 19.0.0, SVG Export Plug-In . SVG Version: 6.00 Build 0)  -->
<svg version="1.1" id="Layer_1" xmlns="http://www.w3.org/2000/svg" xmlns:xlink="http://www.w3.org/1999/xlink" x="0px" y="0px"
	 viewBox="0 0 512 512" style="enable-background:new 0 0 512 512;" xml:space="preserve">
<g>
	<g>
		<g>
			<path d="M129.271,81.492V96.7h367.323c-0.268,5.145-0.815,10.218-1.609,15.208H160.701v15.208h331.012
				c-16.732,61.311-72.91,106.513-139.453,106.513h-3.551H163.294h-3.553c-77.147,0-140.37-60.752-144.335-136.929h93.586V81.492H0
				v7.604c0,88.081,71.66,159.741,159.741,159.741h3.553c25.867,0,46.911,21.045,46.911,46.911c0,25.867-21.044,46.91-46.911,46.91
				v0.045c-26.671,0.928-48.085,22.899-48.085,49.792v7.604h78.27v-15.208h-62.222c3.474-15.448,17.305-27.024,33.788-27.024
				h181.912c16.482,0,30.311,11.576,33.787,27.024H213.755v15.208h183.036v-7.604c0-26.892-21.414-48.864-48.083-49.792v-0.045
				c-25.867,0-46.911-21.044-46.911-46.91c0-25.867,21.045-46.911,46.911-46.911h3.551C440.34,248.837,512,177.177,512,89.096
				v-7.604H129.271z M286.59,295.747c0,18.709,8.314,35.511,21.44,46.91H203.972c13.126-11.398,21.44-28.201,21.44-46.91
				c0-18.71-8.314-35.513-21.441-46.911h104.06C294.904,260.234,286.59,277.038,286.59,295.747z"/>
			<polygon points="95.812,189.498 95.812,172.768 112.542,172.768 112.542,157.56 95.812,157.56 95.812,140.829 80.604,140.829 
				80.604,157.56 63.873,157.56 63.873,172.768 80.604,172.768 80.604,189.498 			"/>
			<polygon points="160.274,187.748 172.104,175.918 183.934,187.748 194.688,176.993 182.858,165.164 194.688,153.334 
				183.934,142.58 172.104,154.411 160.274,142.58 149.52,153.334 161.35,165.164 149.52,176.993 			"/>
			<polygon points="248.396,140.829 248.396,157.56 231.665,157.56 231.665,172.768 248.396,172.768 248.396,189.498 
				263.604,189.498 263.604,172.768 280.335,172.768 280.335,157.56 263.604,157.56 263.604,140.829 			"/>
			<polygon points="328.066,187.748 339.896,175.919 351.726,187.748 362.48,176.993 350.65,165.164 362.48,153.334 351.726,142.58 
				339.896,154.41 328.066,142.58 317.312,153.334 329.142,165.164 317.312,176.993 			"/>
			<polygon points="416.188,140.829 416.188,157.56 399.457,157.56 399.457,172.768 416.188,172.768 416.188,189.498 
				431.396,189.498 431.396,172.768 448.127,172.768 448.127,157.56 431.396,157.56 431.396,140.829 			"/>
			<rect x="85.164" y="415.3" width="341.671" height="15.208"/>
		</g>
	</g>
</g>
<g>
</g>
<g>
</g>
<g>
</g>
<g>
</g>
<g>
</g>
<g>
</g>
<g>
</g>
<g>
</g>
<g>
</g>
<g>
</g>
<g>
</g>
<g>
</g>
<g>
</g>
<g>
</g>
<g>
</g>
</svg>
