<?xml version="1.0" encoding="iso-8859-1"?>
<!-- Generator: Adobe Illustrator 19.0.0, SVG Export Plug-In . SVG Version: 6.00 Build 0)  -->
<svg version="1.1" id="Layer_1" xmlns="http://www.w3.org/2000/svg" xmlns:xlink="http://www.w3.org/1999/xlink" x="0px" y="0px"
	 viewBox="0 0 512.001 512.001" style="enable-background:new 0 0 512.001 512.001;" xml:space="preserve">
<g>
	<g>
		<g>
			<path d="M512,30.956c0-8.269-3.222-16.043-9.069-21.889C497.083,3.22,489.308,0,481.04,0c-8.268,0-16.042,3.22-21.888,9.066
				l-61.072,61.071L364.125,36.18l-58.898,58.899l10.753,10.752l48.144-48.146l90.187,90.189L147.875,454.313l-10.755-10.755
				l77.247-77.248l-10.753-10.752l-77.247,77.247l-1.695-1.695l0.002-0.002l-19.809-19.805l-47.178-47.179l243.956-243.953
				l-10.754-10.752L36.181,364.123l33.957,33.958l-61.07,61.073C3.22,465.001,0,472.774,0,481.044
				c0.001,8.268,3.222,16.043,9.067,21.888c5.846,5.849,13.619,9.069,21.889,9.069c0.001,0,0.001,0,0.001,0
				c8.268,0,16.042-3.221,21.886-9.066l61.076-61.072l33.957,33.958l327.94-327.945l-33.957-33.958l61.071-61.072
				C508.78,46.999,512,39.226,512,30.956z M42.091,492.182c-2.973,2.973-6.927,4.612-11.132,4.612
				c-4.207,0-8.161-1.638-11.135-4.615c-2.977-2.974-4.616-6.93-4.616-11.137s1.638-8.161,4.614-11.135l61.069-61.072l12.051,12.05
				l10.224,10.225L42.091,492.182z M492.179,42.093l-61.07,61.072L408.834,80.89l61.073-61.071
				c2.974-2.974,6.927-4.612,11.133-4.612c4.206,0,8.163,1.638,11.138,4.615c2.977,2.974,4.615,6.928,4.615,11.134
				C496.794,35.162,495.154,39.117,492.179,42.093z"/>
			
				<rect x="214.052" y="316.572" transform="matrix(-0.7071 0.7071 -0.7071 -0.7071 648.7711 379.6216)" width="63.422" height="15.207"/>
		</g>
	</g>
</g>
<g>
</g>
<g>
</g>
<g>
</g>
<g>
</g>
<g>
</g>
<g>
</g>
<g>
</g>
<g>
</g>
<g>
</g>
<g>
</g>
<g>
</g>
<g>
</g>
<g>
</g>
<g>
</g>
<g>
</g>
</svg>
