<?xml version="1.0" encoding="iso-8859-1"?>
<!-- Generator: Adobe Illustrator 19.0.0, SVG Export Plug-In . SVG Version: 6.00 Build 0)  -->
<svg version="1.1" id="Layer_1" xmlns="http://www.w3.org/2000/svg" xmlns:xlink="http://www.w3.org/1999/xlink" x="0px" y="0px"
	 viewBox="0 0 512.038 512.038" style="enable-background:new 0 0 512.038 512.038;" xml:space="preserve">
<g>
	<g>
		<g>
			<path d="M141.445,466.407h-28.844l38.571-294.75h59.714l-8.898,194.782l15.193,0.695l8.93-195.476h59.802l12.858,294.75h-85.533
				l3.14-79.057l-15.197-0.604l-3.164,79.66h-36.292v15.209h255.04l-41.621-318.063v-50.446V80.607
				C375.144,36.161,338.984,0,294.537,0H217.5c-44.447,0-80.607,36.161-80.607,80.607v32.499v50.446l-41.62,318.064h46.172V466.407z
				 M399.436,466.407h-85.443l-12.858-294.75h59.73L399.436,466.407z M152.103,128.317h33.279v-15.209h-33.279V80.609
				c0-36.06,29.338-65.398,65.398-65.398h77.037c36.06,0,65.398,29.338,65.398,65.398v32.499H205.66v15.209h154.275v28.131H152.103
				V128.317z"/>
			
				<rect x="259.113" y="279.944" transform="matrix(0.1298 0.9915 -0.9915 0.1298 592.2841 -99.7788)" width="187.751" height="15.208"/>
			<rect x="201.439" y="33.567" width="15.209" height="20.617"/>
			<rect x="248.414" y="33.567" width="15.209" height="20.617"/>
			<rect x="295.389" y="33.567" width="15.209" height="20.617"/>
			<rect x="224.922" y="74.134" width="15.209" height="20.617"/>
			<rect x="271.907" y="74.134" width="15.209" height="20.617"/>
			<rect x="96.333" y="496.829" width="319.376" height="15.209"/>
		</g>
	</g>
</g>
<g>
</g>
<g>
</g>
<g>
</g>
<g>
</g>
<g>
</g>
<g>
</g>
<g>
</g>
<g>
</g>
<g>
</g>
<g>
</g>
<g>
</g>
<g>
</g>
<g>
</g>
<g>
</g>
<g>
</g>
</svg>
