<?xml version="1.0" encoding="iso-8859-1"?>
<!-- Generator: Adobe Illustrator 19.0.0, SVG Export Plug-In . SVG Version: 6.00 Build 0)  -->
<svg version="1.1" id="Layer_1" xmlns="http://www.w3.org/2000/svg" xmlns:xlink="http://www.w3.org/1999/xlink" x="0px" y="0px"
	 viewBox="0 0 512 512" style="enable-background:new 0 0 512 512;" xml:space="preserve">
<g>
	<g>
		<g>
			<path d="M243.325,435.96V144.834h-22.978v-36.183h-50.884l-8.108-108.65L123.588,0l-8.107,108.651H64.596v36.183H41.618v237.898
				h15.208V160.042H72.2h7.604h24.793v-15.208H79.804v-20.975h34.541h56.252h34.541v20.975h-80.262v15.208h80.262h7.604h15.374
				v15.208h-72.825v15.208h72.825V435.96H56.826V403.01H41.618v32.951v45.624h201.707V435.96z M130.73,108.651l6.973-93.444
				l9.535,0.001l6.973,93.443H130.73z M228.117,466.376H56.826v-15.208h171.291V466.376z"/>
			<path d="M447.404,144.834v-36.183H396.52l-8.109-108.65L350.645,0l-8.107,108.651h-50.884v36.183h-22.978v237.898h15.208V160.042
				h15.374h7.604h24.793v-15.208h-24.793v-20.975h34.541h56.252h34.541v20.975h-80.262v15.208h80.262h7.604h15.374v15.208H382.35
				v15.208h72.825V435.96H283.883V403.01h-15.208v32.951v45.624h201.707V435.96V144.834H447.404z M357.788,108.651l6.972-93.444
				l9.535,0.001l6.973,93.443H357.788z M455.174,466.376L455.174,466.376H283.883v-15.208h171.291V466.376z"/>
			<rect x="41.619" y="496.792" width="201.708" height="15.208"/>
			<rect x="268.673" y="496.792" width="201.708" height="15.208"/>
			<path d="M201.878,298.002c0-32.758-26.649-59.407-59.406-59.407s-59.406,26.649-59.406,59.407
				c0,32.757,26.649,59.406,59.406,59.406C175.229,357.407,201.878,330.758,201.878,298.002z M98.274,298.002
				c0-24.371,19.827-44.199,44.198-44.199s44.198,19.828,44.198,44.199s-19.827,44.198-44.198,44.198
				C118.101,342.2,98.274,322.373,98.274,298.002z"/>
			<path d="M428.934,298.002c0-32.758-26.649-59.407-59.406-59.407c-32.757,0-59.406,26.649-59.406,59.407
				c0,32.757,26.649,59.406,59.406,59.406C402.285,357.407,428.934,330.758,428.934,298.002z M325.33,298.002
				c0-24.371,19.827-44.199,44.198-44.199s44.198,19.828,44.198,44.199s-19.827,44.198-44.198,44.198
				C345.157,342.2,325.33,322.373,325.33,298.002z"/>
			<path d="M156.254,298.002h15.208c0-15.987-13.005-28.991-28.99-28.991v15.208C150.072,284.219,156.254,290.402,156.254,298.002z"
				/>
			<path d="M383.311,298.002h15.208c0-15.987-13.005-28.991-28.99-28.991v15.208C377.128,284.219,383.311,290.402,383.311,298.002z"
				/>
		</g>
	</g>
</g>
<g>
</g>
<g>
</g>
<g>
</g>
<g>
</g>
<g>
</g>
<g>
</g>
<g>
</g>
<g>
</g>
<g>
</g>
<g>
</g>
<g>
</g>
<g>
</g>
<g>
</g>
<g>
</g>
<g>
</g>
</svg>
