<?xml version="1.0" encoding="iso-8859-1"?>
<!-- Generator: Adobe Illustrator 19.0.0, SVG Export Plug-In . SVG Version: 6.00 Build 0)  -->
<svg version="1.1" id="Layer_1" xmlns="http://www.w3.org/2000/svg" xmlns:xlink="http://www.w3.org/1999/xlink" x="0px" y="0px"
	 viewBox="0 0 512 512" style="enable-background:new 0 0 512 512;" xml:space="preserve">
<g>
	<g>
		<g>
			<path d="M353.613,139.292c72.613,0,131.688-59.076,131.688-131.688V0H26.699v7.604c0,72.613,59.076,131.688,131.688,131.688
				h41.309v40.454H26.699v301.835H98.85v-15.208H41.907V194.954h157.789h112.608h157.789v271.419H119.13v15.208h366.171V179.746
				H312.304v-40.454H353.613z M297.096,179.746h-82.192v-40.454h82.192V179.746z M199.696,124.084h-41.309
				c-61.671,0-112.303-48.182-116.235-108.877h427.695c-3.932,60.695-54.563,108.877-116.235,108.877h-41.309H199.696z"/>
			<path d="M451.238,34.576l-14.657-4.054c-10.285,37.18-44.402,63.147-82.968,63.147v15.208
				C398.993,108.877,439.139,78.323,451.238,34.576z"/>
			<rect x="26.699" y="496.792" width="458.6" height="15.208"/>
			<path d="M371.815,330.664c0-63.861-51.954-115.816-115.815-115.816c-63.861,0-115.815,51.955-115.815,115.816
				S192.139,446.48,256,446.48C319.861,446.48,371.815,394.525,371.815,330.664z M155.393,330.664
				c0-55.475,45.133-100.609,100.607-100.609s100.607,45.133,100.607,100.609S311.474,431.272,256,431.272
				S155.393,386.139,155.393,330.664z"/>
			<path d="M278.112,330.664c0-9.522-6.051-17.657-14.508-20.764v-66.066h-15.208V309.9c-8.458,3.107-14.508,11.243-14.508,20.764
				c0,12.192,9.92,22.111,22.112,22.111C268.193,352.775,278.112,342.855,278.112,330.664z M249.096,330.664
				c0-3.807,3.097-6.904,6.904-6.904c3.807,0,6.904,3.097,6.904,6.904c0,3.806-3.097,6.903-6.904,6.903
				C252.193,337.567,249.096,334.47,249.096,330.664z"/>
			<rect x="248.396" y="397.576" width="15.208" height="19.915"/>
			<rect x="322.915" y="323.057" width="19.915" height="15.208"/>
			<rect x="169.173" y="323.057" width="19.915" height="15.208"/>
			
				<rect x="302.732" y="266.347" transform="matrix(0.7071 0.7071 -0.7071 0.7071 286.2725 -138.513)" width="15.208" height="19.915"/>
			
				<rect x="194.057" y="375.062" transform="matrix(-0.7071 -0.7071 0.7071 -0.7071 72.0087 799.8658)" width="15.208" height="19.915"/>
			
				<rect x="300.399" y="377.41" transform="matrix(-0.7071 -0.7071 0.7071 -0.7071 257.5667 876.7145)" width="19.915" height="15.208"/>
			
				<rect x="191.686" y="268.709" transform="matrix(0.7071 0.7071 -0.7071 0.7071 254.4426 -61.6535)" width="19.915" height="15.208"/>
			
				<rect x="216.625" y="252.046" transform="matrix(0.3827 0.9239 -0.9239 0.3827 379.7563 -49.0505)" width="19.916" height="15.207"/>
			
				<rect x="275.449" y="394.068" transform="matrix(-0.3827 -0.9239 0.9239 -0.3827 23.5349 819.0682)" width="19.916" height="15.207"/>
			
				<rect x="317.046" y="293.636" transform="matrix(-0.9239 0.3827 -0.3827 -0.9239 744.3968 454.4084)" width="19.916" height="15.208"/>
			
				<rect x="175.028" y="352.487" transform="matrix(0.9239 -0.3827 0.3827 0.9239 -123.7224 98.2041)" width="19.915" height="15.208"/>
			
				<rect x="277.828" y="249.692" transform="matrix(0.9239 0.3827 -0.3827 0.9239 121.0946 -89.4669)" width="15.207" height="19.917"/>
			
				<rect x="218.965" y="391.712" transform="matrix(-0.9239 -0.3827 0.3827 -0.9239 282.1732 859.4699)" width="15.207" height="19.917"/>
			
				<rect x="317.056" y="352.466" transform="matrix(-0.9239 -0.3827 0.3827 -0.9239 491.3398 817.8758)" width="19.917" height="15.208"/>
			
				<rect x="175.026" y="293.657" transform="matrix(0.9239 0.3827 -0.3827 0.9239 129.3715 -47.8589)" width="19.917" height="15.208"/>
			<rect x="439.681" y="232.924" width="15.208" height="195.483"/>
		</g>
	</g>
</g>
<g>
</g>
<g>
</g>
<g>
</g>
<g>
</g>
<g>
</g>
<g>
</g>
<g>
</g>
<g>
</g>
<g>
</g>
<g>
</g>
<g>
</g>
<g>
</g>
<g>
</g>
<g>
</g>
<g>
</g>
</svg>
