<?xml version="1.0" encoding="iso-8859-1"?>
<!-- Generator: Adobe Illustrator 19.0.0, SVG Export Plug-In . SVG Version: 6.00 Build 0)  -->
<svg version="1.1" id="Layer_1" xmlns="http://www.w3.org/2000/svg" xmlns:xlink="http://www.w3.org/1999/xlink" x="0px" y="0px"
	 viewBox="0 0 512 512" style="enable-background:new 0 0 512 512;" xml:space="preserve">
<g>
	<g>
		<g>
			<path d="M504.152,7.85C499.092,2.788,492.362,0,485.207,0c-7.157,0.001-13.885,2.788-18.947,7.849L199.728,274.381
				c-20.978-13.689-45.205-20.89-70.472-20.89c-34.525,0-66.985,13.446-91.398,37.859c-24.412,24.412-37.857,56.871-37.857,91.396
				c0,34.525,13.445,66.984,37.857,91.397C62.271,498.555,94.73,512.001,129.255,512c0.002,0,0.002,0,0.004,0
				c34.522,0,66.981-13.446,91.393-37.857c24.413-24.413,37.858-56.873,37.858-91.397c0-25.266-7.202-49.491-20.889-70.469
				l50.237-50.236l-10.754-10.754l-59.3,59.3l3.813,5.254c14.188,19.549,21.687,42.685,21.687,66.906
				c0,30.463-11.863,59.103-33.404,80.644c-21.541,21.54-50.18,33.403-80.643,33.402c-30.464,0-59.104-11.862-80.644-33.403
				c-21.543-21.54-33.405-50.18-33.405-80.643s11.862-59.102,33.403-80.643c21.541-21.541,50.181-33.404,80.644-33.404
				c24.223,0,47.359,7.499,66.909,21.689l5.254,3.812L477.014,18.603c2.189-2.189,5.098-3.395,8.192-3.395
				c3.094,0,6.003,1.205,8.193,3.396c2.188,2.188,3.394,5.098,3.394,8.193s-1.205,6.005-3.395,8.193L291.441,236.947l10.754,10.754
				L504.151,45.744c5.06-5.061,7.848-11.79,7.848-18.947C511.999,19.64,509.212,12.91,504.152,7.85z"/>
			<rect x="94.085" y="308.583" width="23.902" height="15.208"/>
			<rect x="140.316" y="308.583" width="23.902" height="15.208"/>
			<rect x="47.854" y="353.02" width="23.902" height="15.208"/>
			<rect x="94.085" y="353.02" width="23.902" height="15.208"/>
			<rect x="140.316" y="353.02" width="23.902" height="15.208"/>
			<rect x="186.548" y="353.02" width="23.901" height="15.208"/>
			<rect x="47.854" y="397.467" width="23.902" height="15.208"/>
			<rect x="94.085" y="397.467" width="23.902" height="15.208"/>
			<rect x="140.316" y="397.467" width="23.902" height="15.208"/>
			<rect x="186.548" y="397.467" width="23.901" height="15.208"/>
			<rect x="94.085" y="441.904" width="23.902" height="15.208"/>
			<rect x="140.316" y="441.904" width="23.902" height="15.208"/>
		</g>
	</g>
</g>
<g>
</g>
<g>
</g>
<g>
</g>
<g>
</g>
<g>
</g>
<g>
</g>
<g>
</g>
<g>
</g>
<g>
</g>
<g>
</g>
<g>
</g>
<g>
</g>
<g>
</g>
<g>
</g>
<g>
</g>
</svg>
