<?xml version="1.0" encoding="iso-8859-1"?>
<!-- Generator: Adobe Illustrator 19.0.0, SVG Export Plug-In . SVG Version: 6.00 Build 0)  -->
<svg version="1.1" id="Layer_1" xmlns="http://www.w3.org/2000/svg" xmlns:xlink="http://www.w3.org/1999/xlink" x="0px" y="0px"
	 viewBox="0 0 512.001 512.001" style="enable-background:new 0 0 512.001 512.001;" xml:space="preserve">
<g>
	<g>
		<g>
			<path d="M306.425,97.096V58.464h-13.865V24.527C292.562,11.003,281.558,0,268.033,0h-24.068
				c-13.524,0-24.526,11.003-24.526,24.527v4.705h-72.833V54.58h15.208v-10.14h57.625v14.024h-13.866v38.633
				c-33.138,3.788-58.967,31.989-58.967,66.125v23.327v235.553v57.022c0,18.128,14.748,32.876,32.876,32.876h153.036
				c18.128,0,32.875-14.749,32.875-32.876V163.222C365.394,129.086,339.564,100.883,306.425,97.096z M234.645,44.441h0.001H256
				V29.233h-21.354v-4.705c0-5.138,4.18-9.319,9.318-9.319h24.068c5.139,0,9.319,4.181,9.319,9.319v33.937h-42.707V44.441z
				 M220.781,73.672h70.437v22.977h-70.437V73.672z M350.187,479.124h-0.001c0,9.742-7.925,17.669-17.668,17.669H179.482
				c-9.742,0-17.669-7.925-17.669-17.669v-57.022h147.414v-55.589H294.02v40.381H161.814V372.76h94.175v-15.208h-94.175v-25.347
				h94.175v-15.208h-94.175v-25.347h94.175v-15.208h-94.175v-25.346h94.175v-15.208h-94.175v-34.133H294.02v144.476h15.208V186.548
				H161.814v-23.327c0-28.323,23.042-51.364,51.364-51.364h85.645c28.322,0,51.363,23.042,51.363,51.364V479.124z"/>
			<path d="M298.822,127.065h-85.645v15.208h85.645c11.551,0,20.947,9.398,20.947,20.948h15.208
				C334.978,143.285,318.759,127.065,298.822,127.065z"/>
		</g>
	</g>
</g>
<g>
</g>
<g>
</g>
<g>
</g>
<g>
</g>
<g>
</g>
<g>
</g>
<g>
</g>
<g>
</g>
<g>
</g>
<g>
</g>
<g>
</g>
<g>
</g>
<g>
</g>
<g>
</g>
<g>
</g>
</svg>
