<?xml version="1.0" encoding="iso-8859-1"?>
<!-- Generator: Adobe Illustrator 19.0.0, SVG Export Plug-In . SVG Version: 6.00 Build 0)  -->
<svg version="1.1" id="Layer_1" xmlns="http://www.w3.org/2000/svg" xmlns:xlink="http://www.w3.org/1999/xlink" x="0px" y="0px"
	 viewBox="0 0 512 512" style="enable-background:new 0 0 512 512;" xml:space="preserve">
<g>
	<g>
		<g>
			<path d="M428.266,409.792v-27.497h-15.209v27.497c0,18.028-14.666,32.694-32.693,32.694h-72.147v15.209h72.147
				C406.777,457.695,428.266,436.206,428.266,409.792z"/>
			<path d="M53.316,146.327H0v15.209h53.316v162.459v85.797c0,43.186,35.134,78.32,78.322,78.32h40.882h20.278h187.565
				c43.186,0,78.32-35.134,78.32-78.32v-85.797V161.536h53.316v-15.209h-53.315H53.316z M443.475,293.574H223.216v15.209h220.258
				v15.212H182.997v15.209h260.478v0v70.588c0,34.8-28.312,63.112-63.111,63.112H192.799H172.52h-40.882
				c-34.8,0-63.113-28.312-63.113-63.112v-70.588h94.193v-15.209H68.525V191.954h374.95V293.574z M443.475,176.745H68.525v-15.209
				h374.95V176.745z"/>
			<path d="M355.626,131.118h95.454v-15.209h-95.742C351.44,64.514,308.376,23.888,256,23.888s-95.441,40.627-99.338,92.022H60.921
				v15.209h95.454H355.626z M285.996,44.621c0.682,0.263,1.363,0.528,2.036,0.806c0.564,0.232,1.124,0.471,1.682,0.716
				c0.665,0.291,1.327,0.59,1.983,0.898c0.551,0.259,1.098,0.521,1.642,0.79c0.65,0.322,1.295,0.654,1.935,0.993
				c0.533,0.282,1.066,0.566,1.592,0.858c0.636,0.354,1.264,0.719,1.89,1.088c0.515,0.304,1.029,0.607,1.537,0.922
				c0.623,0.385,1.236,0.784,1.847,1.185c0.493,0.323,0.988,0.644,1.473,0.977c0.612,0.42,1.212,0.855,1.812,1.29
				c0.467,0.339,0.939,0.673,1.398,1.021c0.605,0.458,1.196,0.933,1.79,1.407c0.436,0.349,0.877,0.69,1.306,1.047
				c0.609,0.507,1.203,1.033,1.797,1.556c0.392,0.346,0.793,0.683,1.179,1.036c0.64,0.585,1.259,1.19,1.881,1.794
				c0.322,0.313,0.654,0.616,0.971,0.934c0.825,0.828,1.629,1.677,2.42,2.538c0.098,0.107,0.204,0.21,0.302,0.317
				c0.885,0.974,1.747,1.97,2.586,2.985c0.255,0.307,0.493,0.628,0.743,0.938c0.575,0.715,1.15,1.431,1.702,2.165
				c0.305,0.406,0.593,0.824,0.891,1.236c0.476,0.656,0.952,1.31,1.409,1.98c0.311,0.457,0.606,0.926,0.909,1.389
				c0.419,0.642,0.841,1.282,1.242,1.936c0.302,0.492,0.589,0.994,0.882,1.492c0.377,0.643,0.755,1.286,1.116,1.94
				c0.285,0.517,0.557,1.043,0.832,1.567c0.342,0.651,0.682,1.303,1.007,1.964c0.266,0.539,0.519,1.087,0.774,1.633
				c0.307,0.66,0.611,1.322,0.901,1.991c0.243,0.559,0.476,1.123,0.706,1.688c0.275,0.673,0.544,1.349,0.802,2.031
				c0.217,0.574,0.426,1.152,0.632,1.732c0.243,0.686,0.477,1.377,0.703,2.071c0.191,0.588,0.375,1.178,0.554,1.771
				c0.211,0.701,0.41,1.406,0.602,2.115c0.162,0.599,0.322,1.199,0.471,1.804c0.177,0.717,0.341,1.438,0.5,2.162
				c0.134,0.607,0.267,1.216,0.387,1.828c0.144,0.733,0.272,1.473,0.396,2.212c0.103,0.613,0.209,1.226,0.299,1.843
				c0.111,0.753,0.2,1.514,0.29,2.274c0.073,0.613,0.15,1.226,0.21,1.843c0.016,0.173,0.024,0.35,0.041,0.523h-30.875
				c-1.466-14.585-6.656-34.256-13.636-50.88c-2.903-6.913-6.537-14.312-10.888-20.904
				C285.107,44.287,285.552,44.452,285.996,44.621z M263.605,42.542c5.875,4.926,12.259,14.898,17.919,28.376
				c6.701,15.96,10.928,33.271,12.348,44.992h-30.267V42.542z M248.395,42.542v73.367h-30.267
				c1.419-11.721,5.647-29.032,12.348-44.992C236.136,57.439,242.52,47.467,248.395,42.542z M171.982,115.388
				c0.06-0.619,0.138-1.231,0.21-1.845c0.09-0.76,0.18-1.521,0.29-2.274c0.09-0.617,0.196-1.23,0.299-1.843
				c0.125-0.74,0.252-1.479,0.396-2.212c0.121-0.612,0.253-1.221,0.387-1.828c0.159-0.723,0.322-1.445,0.5-2.162
				c0.15-0.604,0.309-1.205,0.471-1.804c0.193-0.709,0.391-1.414,0.602-2.115c0.178-0.593,0.363-1.183,0.554-1.771
				c0.225-0.695,0.459-1.384,0.703-2.071c0.205-0.58,0.414-1.158,0.631-1.732c0.259-0.682,0.528-1.359,0.803-2.033
				c0.23-0.564,0.462-1.128,0.705-1.685c0.291-0.67,0.595-1.332,0.902-1.993c0.253-0.547,0.507-1.093,0.773-1.632
				c0.325-0.661,0.665-1.313,1.007-1.964c0.275-0.523,0.547-1.049,0.832-1.567c0.361-0.654,0.739-1.296,1.116-1.94
				c0.293-0.498,0.58-1,0.882-1.491c0.402-0.654,0.823-1.294,1.242-1.936c0.303-0.463,0.597-0.933,0.909-1.389
				c0.456-0.67,0.934-1.324,1.409-1.98c0.298-0.412,0.586-0.83,0.891-1.236c0.552-0.734,1.127-1.45,1.702-2.165
				c0.25-0.311,0.489-0.631,0.743-0.938c0.84-1.015,1.701-2.011,2.586-2.985c0.098-0.109,0.203-0.21,0.302-0.317
				c0.791-0.861,1.595-1.711,2.42-2.538c0.317-0.318,0.649-0.621,0.971-0.934c0.622-0.603,1.241-1.209,1.881-1.794
				c0.386-0.353,0.787-0.69,1.179-1.036c0.594-0.524,1.187-1.049,1.797-1.556c0.429-0.357,0.87-0.699,1.306-1.047
				c0.592-0.474,1.184-0.949,1.79-1.407c0.46-0.348,0.931-0.682,1.398-1.021c0.6-0.435,1.201-0.87,1.812-1.29
				c0.486-0.334,0.98-0.654,1.473-0.977c0.611-0.402,1.225-0.8,1.847-1.185c0.508-0.314,1.022-0.617,1.537-0.922
				c0.626-0.369,1.254-0.734,1.89-1.088c0.527-0.293,1.059-0.577,1.592-0.858c0.641-0.338,1.285-0.67,1.935-0.993
				c0.543-0.27,1.091-0.532,1.642-0.79c0.657-0.308,1.319-0.607,1.984-0.898c0.558-0.243,1.117-0.483,1.68-0.715
				c0.674-0.278,1.355-0.544,2.038-0.805c0.444-0.169,0.889-0.335,1.337-0.497c-4.35,6.593-7.985,13.991-10.888,20.904
				c-6.98,16.623-12.171,36.294-13.636,50.88h-30.875C171.956,115.738,171.964,115.561,171.982,115.388z"/>
		</g>
	</g>
</g>
<g>
</g>
<g>
</g>
<g>
</g>
<g>
</g>
<g>
</g>
<g>
</g>
<g>
</g>
<g>
</g>
<g>
</g>
<g>
</g>
<g>
</g>
<g>
</g>
<g>
</g>
<g>
</g>
<g>
</g>
</svg>
