<?xml version="1.0" encoding="iso-8859-1"?>
<!-- Generator: Adobe Illustrator 19.0.0, SVG Export Plug-In . SVG Version: 6.00 Build 0)  -->
<svg version="1.1" id="Layer_1" xmlns="http://www.w3.org/2000/svg" xmlns:xlink="http://www.w3.org/1999/xlink" x="0px" y="0px"
	 viewBox="0 0 512 512" style="enable-background:new 0 0 512 512;" xml:space="preserve">
<g>
	<g>
		<path d="M0,0v512h223.17v-15.208h-88.861v-12.994c48.426-3.704,87.196-42.474,90.9-90.899h20.598v-15.208h-20.598
			c-3.704-48.426-42.474-87.196-90.9-90.9v-20.598h-15.208v20.598c-48.425,3.704-87.195,42.474-90.899,90.9H15.208V134.309h12.994
			c3.704,48.425,42.474,87.195,90.899,90.899v20.598h15.208v-20.598c48.426-3.704,87.196-42.474,90.9-90.899h20.598v-15.208h-20.598
			c-3.704-48.426-42.474-87.196-90.9-90.9V15.208h243.383v12.994c-48.425,3.704-87.195,42.474-90.899,90.9h-20.598v15.208h20.598
			c3.704,48.425,42.474,87.195,90.899,90.899v20.598h15.208v-20.598c48.426-3.704,87.196-42.474,90.9-90.899h12.994v243.383h-12.994
			c-3.704-48.426-42.474-87.196-90.9-90.9v-20.598h-15.208v20.598c-48.425,3.704-87.195,42.474-90.899,90.9h-20.598V392.9h20.598
			c3.704,48.425,42.474,87.195,90.899,90.899v12.994H243.447V512H512V0H0z M134.309,302.072c40.029,3.629,71.99,35.589,75.62,75.62
			h-75.62V302.072z M134.308,392.9h45.013c-3.344,23.242-21.771,41.669-45.013,45.012V392.9z M134.308,453.239
			c31.639-3.518,56.823-28.701,60.341-60.34h15.28c-3.63,40.031-35.591,71.991-75.621,75.62V453.239z M119.1,302.071v75.62H43.481
			C47.11,337.66,79.07,305.701,119.1,302.071z M119.1,392.9v75.619c-40.03-3.629-71.99-35.59-75.619-75.619H119.1z M28.202,392.9
			c3.704,48.425,42.474,87.195,90.899,90.899v12.994H15.208V392.9H28.202z M119.1,209.928c-40.029-3.629-71.99-35.59-75.619-75.619
			H119.1V209.928z M119.1,119.101H43.481c3.629-40.03,35.59-71.991,75.619-75.62V119.101z M119.1,28.202
			c-48.425,3.704-87.195,42.474-90.899,90.9H15.208V15.208H119.1V28.202z M134.308,209.928v-15.28
			c31.639-3.518,56.823-28.701,60.341-60.34h15.28C206.299,174.339,174.339,206.299,134.308,209.928z M134.309,43.48
			c40.029,3.63,71.99,35.59,75.62,75.621h-75.62V43.48z M179.322,134.309c-3.344,23.242-21.771,41.669-45.013,45.012v-45.012
			H179.322z M377.691,209.928c-40.029-3.629-71.99-35.59-75.619-75.619h75.619V209.928z M377.691,119.1h-75.619
			c3.629-40.03,35.59-71.99,75.619-75.62V119.1z M377.691,468.519c-40.029-3.629-71.99-35.59-75.619-75.619h75.619V468.519z
			 M377.691,377.691h-75.619c3.629-40.03,35.59-71.99,75.619-75.62V377.691z M392.9,302.072c40.03,3.629,71.99,35.589,75.62,75.62
			H392.9V302.072z M392.899,392.9h45.013c-3.344,23.242-21.771,41.669-45.013,45.012V392.9z M453.24,392.9h15.28
			c-3.629,40.03-35.59,71.99-75.62,75.619V453.24h-0.001C424.537,449.722,449.722,424.538,453.24,392.9z M496.792,496.792H392.899
			v-12.994c48.426-3.704,87.196-42.474,90.9-90.899h12.994V496.792z M392.899,209.928v-15.28
			c31.639-3.518,56.823-28.701,60.341-60.34h15.28C464.89,174.339,432.93,206.299,392.899,209.928z M437.912,134.309
			c-3.344,23.242-21.771,41.669-45.013,45.012v-45.012H437.912z M392.899,119.1V43.48c40.03,3.629,71.991,35.59,75.62,75.62H392.899
			z M496.792,119.101h-12.994c-3.704-48.426-42.474-87.196-90.9-90.9V15.208h103.893V119.101z"/>
	</g>
</g>
<g>
</g>
<g>
</g>
<g>
</g>
<g>
</g>
<g>
</g>
<g>
</g>
<g>
</g>
<g>
</g>
<g>
</g>
<g>
</g>
<g>
</g>
<g>
</g>
<g>
</g>
<g>
</g>
<g>
</g>
</svg>
