<?xml version="1.0" encoding="iso-8859-1"?>
<!-- Generator: Adobe Illustrator 19.0.0, SVG Export Plug-In . SVG Version: 6.00 Build 0)  -->
<svg version="1.1" id="Layer_1" xmlns="http://www.w3.org/2000/svg" xmlns:xlink="http://www.w3.org/1999/xlink" x="0px" y="0px"
	 viewBox="0 0 512 512" style="enable-background:new 0 0 512 512;" xml:space="preserve">
<g>
	<g>
		<g>
			<rect x="116.684" y="382.359" width="278.643" height="15.673"/>
			<rect x="228.655" y="197.506" width="18.64" height="15.673"/>
			<rect x="264.704" y="197.506" width="18.64" height="15.673"/>
			<rect x="192.606" y="232.165" width="18.64" height="15.673"/>
			<rect x="228.655" y="232.165" width="18.64" height="15.673"/>
			<rect x="264.704" y="232.165" width="18.64" height="15.673"/>
			<rect x="300.763" y="232.165" width="18.639" height="15.673"/>
			<rect x="192.606" y="266.814" width="18.64" height="15.673"/>
			<rect x="228.655" y="266.814" width="18.64" height="15.673"/>
			<rect x="264.704" y="266.814" width="18.64" height="15.673"/>
			<rect x="300.763" y="266.814" width="18.639" height="15.673"/>
			<rect x="228.655" y="301.473" width="18.64" height="15.673"/>
			<rect x="264.704" y="301.473" width="18.64" height="15.673"/>
			<path d="M465.57,185.714c0.99-8.271,1.512-16.683,1.512-25.217v-46.53H44.917v46.53c0,8.534,0.522,16.945,1.512,25.217H0v15.673
				h48.906c19.097,96.886,104.69,170.19,207.094,170.19s187.997-73.304,207.094-170.19H512v-15.673H465.57z M256,355.905
				c-107.749,0-195.409-87.66-195.409-195.406v-30.857h390.818v30.857h0.001C451.409,268.246,363.749,355.905,256,355.905z"/>
			<rect x="84.104" y="152.659" width="282.028" height="15.673"/>
			<rect x="387.03" y="152.659" width="40.876" height="15.673"/>
		</g>
	</g>
</g>
<g>
</g>
<g>
</g>
<g>
</g>
<g>
</g>
<g>
</g>
<g>
</g>
<g>
</g>
<g>
</g>
<g>
</g>
<g>
</g>
<g>
</g>
<g>
</g>
<g>
</g>
<g>
</g>
<g>
</g>
</svg>
