<?xml version="1.0" encoding="iso-8859-1"?>
<!-- Generator: Adobe Illustrator 19.0.0, SVG Export Plug-In . SVG Version: 6.00 Build 0)  -->
<svg version="1.1" id="Layer_1" xmlns="http://www.w3.org/2000/svg" xmlns:xlink="http://www.w3.org/1999/xlink" x="0px" y="0px"
	 viewBox="0 0 512.001 512.001" style="enable-background:new 0 0 512.001 512.001;" xml:space="preserve">
<g>
	<g>
		<g>
			<rect x="42.057" y="211.644" width="18.086" height="15.208"/>
			<rect x="77.039" y="211.644" width="18.085" height="15.208"/>
			<rect x="112.022" y="211.644" width="18.086" height="15.208"/>
			<rect x="147" y="211.644" width="18.086" height="15.208"/>
			<rect x="181.988" y="211.644" width="18.086" height="15.208"/>
			<rect x="216.966" y="211.644" width="18.086" height="15.208"/>
			<rect x="251.945" y="211.644" width="18.086" height="15.208"/>
			<rect x="286.933" y="211.644" width="18.086" height="15.208"/>
			<rect x="59.547" y="244.088" width="18.086" height="15.208"/>
			<rect x="94.532" y="244.088" width="18.085" height="15.208"/>
			<rect x="129.511" y="244.088" width="18.086" height="15.208"/>
			<rect x="164.489" y="244.088" width="18.086" height="15.208"/>
			<rect x="199.477" y="244.088" width="18.086" height="15.208"/>
			<rect x="234.455" y="244.088" width="18.086" height="15.208"/>
			<rect x="269.434" y="244.088" width="18.086" height="15.208"/>
			<rect x="77.039" y="276.541" width="18.085" height="15.208"/>
			<rect x="112.022" y="276.541" width="18.086" height="15.208"/>
			<rect x="147" y="276.541" width="18.086" height="15.208"/>
			<rect x="181.988" y="276.541" width="18.086" height="15.208"/>
			<rect x="216.966" y="276.541" width="18.086" height="15.208"/>
			<rect x="251.945" y="276.541" width="18.086" height="15.208"/>
			<rect x="129.511" y="308.985" width="18.086" height="15.208"/>
			<rect x="164.489" y="308.985" width="18.086" height="15.208"/>
			<rect x="199.477" y="308.985" width="18.086" height="15.208"/>
			<path d="M488.601,149.636H347.072h-15.208H94.796v15.208h237.068v16.382h-48.14v15.208h47.954
				c-3.981,83.784-73.389,150.723-158.142,150.723S19.376,280.218,15.394,196.434h248.051v-15.208H15.208v-16.382h59.311v-15.208H0
				v39.194c0,95.687,77.848,173.535,173.537,173.535c93.139,0,169.365-73.758,173.36-165.931h141.705
				c12.902,0,23.399-10.496,23.399-23.399S501.504,149.636,488.601,149.636z M488.601,181.226H347.072v-16.382h141.529
				c4.517,0,8.191,3.674,8.191,8.191C496.792,177.552,493.117,181.226,488.601,181.226z"/>
		</g>
	</g>
</g>
<g>
</g>
<g>
</g>
<g>
</g>
<g>
</g>
<g>
</g>
<g>
</g>
<g>
</g>
<g>
</g>
<g>
</g>
<g>
</g>
<g>
</g>
<g>
</g>
<g>
</g>
<g>
</g>
<g>
</g>
</svg>
