<?xml version="1.0" encoding="iso-8859-1"?>
<!-- Generator: Adobe Illustrator 19.0.0, SVG Export Plug-In . SVG Version: 6.00 Build 0)  -->
<svg version="1.1" id="Layer_1" xmlns="http://www.w3.org/2000/svg" xmlns:xlink="http://www.w3.org/1999/xlink" x="0px" y="0px"
	 viewBox="0 0 512 512" style="enable-background:new 0 0 512 512;" xml:space="preserve">
<g>
	<g>
		<path d="M364.651,128h-15.208H162.556h-15.208H0v45.627h40.559V384h15.208V173.627h15.211V384h15.208V173.627h61.163v115.071
			h217.303V173.627h61.163V384h15.208V173.627h15.211V384h15.208V173.627H512V128H364.651z M147.349,158.419H86.185H40.559H15.208
			v-15.211h132.141V158.419z M349.444,173.627v69.444h0h-138.39v15.208h138.39v15.211H162.556v-15.211h28.218v-15.208h-28.218
			v-69.444v-30.419h186.887V173.627z M496.792,158.419h-25.351h-45.627h-61.163v-15.211h132.141V158.419z"/>
	</g>
</g>
<g>
</g>
<g>
</g>
<g>
</g>
<g>
</g>
<g>
</g>
<g>
</g>
<g>
</g>
<g>
</g>
<g>
</g>
<g>
</g>
<g>
</g>
<g>
</g>
<g>
</g>
<g>
</g>
<g>
</g>
</svg>
