<?xml version="1.0" encoding="iso-8859-1"?>
<!-- Generator: Adobe Illustrator 19.0.0, SVG Export Plug-In . SVG Version: 6.00 Build 0)  -->
<svg version="1.1" id="Layer_1" xmlns="http://www.w3.org/2000/svg" xmlns:xlink="http://www.w3.org/1999/xlink" x="0px" y="0px"
	 viewBox="0 0 512 512" style="enable-background:new 0 0 512 512;" xml:space="preserve">
<g>
	<g>
		<g>
			<polygon points="313.453,365.505 299.958,365.505 299.958,269.811 313.453,269.811 313.453,254.603 284.751,254.603 
				284.751,380.713 313.453,380.713 			"/>
			<polygon points="227.25,254.603 198.547,254.603 198.547,269.811 212.042,269.811 212.042,365.505 198.547,365.505 
				198.547,380.713 227.25,380.713 			"/>
			<path d="M299.958,138.525v-36.354h-36.354V56.018c0-14.187,11.542-25.729,25.729-25.729s25.729,11.542,25.729,25.729h15.208
				c0-22.573-18.364-40.937-40.937-40.937c-22.573,0-40.937,18.364-40.937,40.937v46.152h-36.355v36.354H0v51.562h0.001v270.35
				h32.308v36.483h447.384v-36.483H512V190.088V174.88v-36.355H299.958z M263.604,117.379h21.146v21.146h-21.146V117.379z
				 M227.25,117.379h21.147v21.146H227.25V117.379z M464.484,481.713H47.517v0v-21.275h48.472V445.23H47.517h-7.604H15.209V190.088
				h233.188V445.23H116.267v15.208h348.217V481.713z M496.792,445.23h-24.704h-7.604h-200.88V190.088h233.188V445.23z
				 M496.793,174.879H15.208v-21.146h196.834h87.918h196.834V174.879z"/>
			<rect x="466.375" y="215.102" width="15.208" height="205.114"/>
		</g>
	</g>
</g>
<g>
</g>
<g>
</g>
<g>
</g>
<g>
</g>
<g>
</g>
<g>
</g>
<g>
</g>
<g>
</g>
<g>
</g>
<g>
</g>
<g>
</g>
<g>
</g>
<g>
</g>
<g>
</g>
<g>
</g>
</svg>
