<?xml version="1.0" encoding="iso-8859-1"?>
<!-- Generator: Adobe Illustrator 19.0.0, SVG Export Plug-In . SVG Version: 6.00 Build 0)  -->
<svg version="1.1" id="Layer_1" xmlns="http://www.w3.org/2000/svg" xmlns:xlink="http://www.w3.org/1999/xlink" x="0px" y="0px"
	 viewBox="0 0 512 512" style="enable-background:new 0 0 512 512;" xml:space="preserve">
<g>
	<g>
		<g>
			<path d="M483.627,127.592C480.611,56.727,422.025,0,350.431,0c-73.517,0-133.327,59.81-133.327,133.326v158.16h15.208v-158.16
				c0-65.13,52.987-118.118,118.119-118.118c62.575,0,113.942,48.916,117.877,110.514h-39.912
				c-3.835-39.637-37.339-70.727-77.965-70.727c-43.193,0-78.332,35.139-78.332,78.331v363.466h-39.787V311.765h-15.208v185.027
				h-15.208V387.531c0-14.048-11.429-25.477-25.477-25.477h-67.827c-14.048,0-25.477,11.429-25.477,25.477v109.261H16.158V512
				h66.955h118.782h15.208h70.203H302.5h118.782h66.955v-15.208h-66.955V387.531c0-14.048-11.429-25.477-25.477-25.477h-67.827
				c-14.048,0-25.477,11.429-25.477,25.477v109.261h-15.194V133.326c0-34.806,28.317-63.123,63.124-63.123
				c32.936,0,60.046,25.361,62.865,57.577c-6.982,3.354-11.828,10.476-11.828,18.726v33.116c0,11.461,9.323,20.784,20.784,20.784
				h52.805c11.461,0,20.784-9.323,20.784-20.784v-33.116C495.843,138.102,490.82,130.864,483.627,127.592z M186.688,496.792H98.322
				v-78.279h88.366V496.792z M186.688,403.305H98.322v-15.774c0-5.662,4.607-10.269,10.269-10.269h67.827
				c5.662,0,10.269,4.607,10.269,10.269V403.305z M317.709,387.531c0-5.662,4.607-10.269,10.269-10.269h67.827
				c5.662,0,10.269,4.607,10.269,10.269v15.774h-88.366V387.531z M317.709,418.513h88.366v78.279h-88.366V418.513z M416.677,146.506
				c0-3.075,2.501-5.576,5.576-5.576h52.805c3.075,0,5.576,2.501,5.576,5.576v8.954h-63.957V146.506z M480.635,179.622
				c0,3.075-2.501,5.576-5.576,5.576h-52.805c-3.075,0-5.576-2.501-5.576-5.576v-8.954h63.957V179.622z"/>
			<path d="M453.873,217.688l-5.217-4.92l-5.217,4.92c-0.884,0.833-21.657,20.673-21.657,42.193
				c0,14.819,12.056,26.874,26.874,26.874c14.82,0,26.875-12.056,26.875-26.874C475.531,238.362,454.757,218.523,453.873,217.688z
				 M448.655,271.549c-6.433,0-11.667-5.234-11.667-11.667c0-8.958,6.374-18.909,11.678-25.415
				c5.3,6.486,11.656,16.407,11.656,25.415C460.323,266.315,455.088,271.549,448.655,271.549z"/>
			<path d="M453.873,304.036l-5.217-4.92l-5.217,4.92c-0.884,0.833-21.657,20.673-21.657,42.193
				c0,14.819,12.056,26.874,26.874,26.874c14.82,0,26.875-12.056,26.875-26.874C475.531,324.709,454.757,304.87,453.873,304.036z
				 M448.655,357.896c-6.433,0-11.667-5.234-11.667-11.667c0-8.958,6.374-18.909,11.678-25.415
				c5.3,6.486,11.656,16.407,11.656,25.415C460.323,352.663,455.088,357.896,448.655,357.896z"/>
			<rect x="117.639" y="434.784" width="15.208" height="45.725"/>
			<rect x="152.161" y="434.784" width="15.208" height="45.725"/>
			<rect x="337.028" y="434.784" width="15.208" height="45.725"/>
			<rect x="371.55" y="434.784" width="15.208" height="45.725"/>
		</g>
	</g>
</g>
<g>
</g>
<g>
</g>
<g>
</g>
<g>
</g>
<g>
</g>
<g>
</g>
<g>
</g>
<g>
</g>
<g>
</g>
<g>
</g>
<g>
</g>
<g>
</g>
<g>
</g>
<g>
</g>
<g>
</g>
</svg>
