<?xml version="1.0" encoding="iso-8859-1"?>
<!-- Generator: Adobe Illustrator 19.0.0, SVG Export Plug-In . SVG Version: 6.00 Build 0)  -->
<svg version="1.1" id="Layer_1" xmlns="http://www.w3.org/2000/svg" xmlns:xlink="http://www.w3.org/1999/xlink" x="0px" y="0px"
	 viewBox="0 0 512.001 512.001" style="enable-background:new 0 0 512.001 512.001;" xml:space="preserve">
<g>
	<g>
		<g>
			<path d="M84.587,450.594h65.971v-15.208H84.587c-21.485-0.001-38.964-17.48-38.964-38.966V159.683H30.416v236.739
				C30.416,426.292,54.717,450.594,84.587,450.594z"/>
			<path d="M419.138,116.856h-47.243V30.991H104.934v15.208h251.755V61.41H15.208V46.199h69.446V30.991H0v365.431
				c0,46.642,37.946,84.589,84.587,84.589h202.721c46.642,0,84.589-37.946,84.589-84.589v-1.279h47.243
				c51.204,0,92.862-41.658,92.862-92.862v-92.565C512,158.513,470.342,116.856,419.138,116.856z M356.689,116.856v55.762V339.38
				v55.762v1.279c0,38.256-31.123,69.381-69.381,69.381H84.587c-38.256,0-69.38-31.124-69.38-69.381V76.617h341.481V116.856z
				 M419.138,379.935h-47.243v-25.346h47.243c28.842,0,52.307-23.465,52.307-52.307v-92.565c0-28.842-23.465-52.307-52.307-52.307
				h-47.243v-25.346h47.243c42.817,0,77.654,34.835,77.654,77.654v92.565h0C496.792,345.1,461.957,379.935,419.138,379.935z
				 M371.897,339.381V172.618h47.243c20.457,0,37.099,16.643,37.099,37.099v92.565c0,20.457-16.643,37.099-37.099,37.099H371.897z"
				/>
			<path d="M113.559,323.755l1.211,3.423l3.424,1.211c0.861,0.304,21.388,7.457,47.409,7.458c0.002,0,0.003,0,0.004,0
				c29.627,0,54.779-9.493,72.738-27.452c19.017-19.018,28.479-45.921,27.362-77.801c-0.827-23.61-7.102-41.595-7.369-42.349
				l-1.211-3.423l-3.423-1.211c-0.862-0.304-21.389-7.458-47.41-7.458c-29.629,0-54.782,9.493-72.742,27.452
				c-19.018,19.017-28.479,45.92-27.362,77.801C107.017,305.016,113.292,323.001,113.559,323.755z M250.518,238.688h-36.504
				l33.223-33.223C249.033,213.777,250.841,225.623,250.518,238.688z M203.261,191.418c1.008-0.024,2.01-0.058,3.034-0.058
				c11.832,0.001,22.513,1.684,30.191,3.348l-33.226,33.226L203.261,191.418z M249.118,253.896
				c-1.578,9.595-4.609,19.356-9.848,28.477l-68.943-0.001l28.477-28.476H249.118z M159.577,202.658
				c8.402-4.85,17.908-8.156,28.476-9.88l-0.001,50.365l-28.476,28.476L159.577,202.658z M227.647,297.581
				c-0.019,0.019-0.038,0.04-0.058,0.059c-15.26,15.262-36.117,22.998-61.987,22.997c-11.832,0-22.514-1.683-30.191-3.348
				l19.709-19.709L227.647,297.581z M144.308,214.359c0.019-0.02,0.041-0.038,0.06-0.057l-0.001,72.525l-19.707,19.707
				C120.182,285.803,115.602,243.065,144.308,214.359z"/>
			<path d="M269.043,172.905l3.633,10.269c0.317,0.899,7.794,22.338,8.24,49.985c0.571,35.374-10.134,64.304-31.819,85.989
				l10.754,10.753c59.047-59.048,28.492-148.04,27.162-151.799l-6.053-17.114l-17.117-6.053c-2.663-0.942-26.908-9.198-57.549-9.198
				v15.208c28.106,0,50.07,7.476,52.479,8.328L269.043,172.905z"/>
		</g>
	</g>
</g>
<g>
</g>
<g>
</g>
<g>
</g>
<g>
</g>
<g>
</g>
<g>
</g>
<g>
</g>
<g>
</g>
<g>
</g>
<g>
</g>
<g>
</g>
<g>
</g>
<g>
</g>
<g>
</g>
<g>
</g>
</svg>
