<?xml version="1.0" encoding="iso-8859-1"?>
<!-- Generator: Adobe Illustrator 19.0.0, SVG Export Plug-In . SVG Version: 6.00 Build 0)  -->
<svg version="1.1" id="Layer_1" xmlns="http://www.w3.org/2000/svg" xmlns:xlink="http://www.w3.org/1999/xlink" x="0px" y="0px"
	 viewBox="0 0 512.001 512.001" style="enable-background:new 0 0 512.001 512.001;" xml:space="preserve">
<g>
	<g>
		<g>
			<path d="M324.194,109.575V93.761h7.957c17.664,0,32.034-14.369,32.034-32.033c0-17.663-14.37-32.033-32.034-32.033h-9.273
				C318.374,12.625,302.806,0,284.34,0H227.66c-21.975,0-39.854,17.878-39.854,39.854v69.722
				c-22.643,3.651-39.99,23.331-39.99,46.987v307.845c0,26.243,21.351,47.593,47.594,47.593h121.18
				c26.244,0,47.594-21.351,47.594-47.593V156.563C364.184,132.906,346.837,113.226,324.194,109.575z M324.193,44.903h7.957
				c9.279,0,16.826,7.547,16.826,16.825c0,9.277-7.547,16.825-16.826,16.825h-7.957V44.903z M203.014,39.854
				c0-13.59,11.057-24.646,24.646-24.646h56.681c12.977,0,23.636,10.085,24.571,22.828l0.003,0.043
				c0.014,0.205,0.029,0.41,0.042,0.615c0.018,0.385,0.029,0.771,0.029,1.16v38.699H203.014V39.854z M324.194,495.883V480.57
				h-15.208v16.222h-15.087V480.57h-15.208v16.222h-15.087V480.57h-15.208v16.222h-15.087V480.57h-15.208v16.222h-15.087V480.57
				h-15.208v15.312c-14.199-3.431-24.782-16.237-24.782-31.475V156.563c0-17.857,14.529-32.386,32.386-32.386h7.604h30.088v-15.208
				h-30.088V93.761h105.972v15.208h-55.607v15.208h55.607h7.604c17.857,0,32.386,14.529,32.386,32.386v307.845h0.001
				C348.976,479.646,338.393,492.452,324.194,495.883z"/>
			<path d="M316.59,139.385h-34.23v15.208h34.23c0.047,0,0.085,0.002,0.116,0.004c0.327,0.398,1.854,2.674,1.854,10.391v161.586
				h15.208V164.987c0-7.939-1.294-13.878-3.954-18.155C326.825,142.029,322.13,139.385,316.59,139.385z"/>
		</g>
	</g>
</g>
<g>
</g>
<g>
</g>
<g>
</g>
<g>
</g>
<g>
</g>
<g>
</g>
<g>
</g>
<g>
</g>
<g>
</g>
<g>
</g>
<g>
</g>
<g>
</g>
<g>
</g>
<g>
</g>
<g>
</g>
</svg>
