<?xml version="1.0" encoding="iso-8859-1"?>
<!-- Generator: Adobe Illustrator 19.0.0, SVG Export Plug-In . SVG Version: 6.00 Build 0)  -->
<svg version="1.1" id="Layer_1" xmlns="http://www.w3.org/2000/svg" xmlns:xlink="http://www.w3.org/1999/xlink" x="0px" y="0px"
	 viewBox="0 0 512 512" style="enable-background:new 0 0 512 512;" xml:space="preserve">
<g>
	<g>
		<g>
			
				<rect x="107.622" y="280.686" transform="matrix(0.7071 -0.7071 0.7071 0.7071 -149.6577 215.2736)" width="154.815" height="15.208"/>
			
				<rect x="319.384" y="210.887" transform="matrix(-0.7071 -0.7071 0.7071 -0.7071 354.3486 723.3655)" width="15.208" height="154.815"/>
			
				<rect x="224.425" y="261.691" transform="matrix(0.7071 -0.7071 0.7071 0.7071 -109.8787 273.3191)" width="101.122" height="15.208"/>
			
				<rect x="206.96" y="310.962" transform="matrix(-0.7071 -0.7071 0.7071 -0.7071 133.1164 714.6362)" width="15.208" height="37.573"/>
			<path d="M467.182,414.666V255.493h27.074v-15.208h-27.074v-15.208h27.074v-15.208h-27.074v-25.407
				c0-20.823-16.941-37.763-37.763-37.763h-73.048v-33.853c13.896-3.027,24.335-15.426,24.335-30.216
				c0-17.051-13.873-30.923-30.923-30.923h-132.31v15.208h132.31c8.665,0,15.715,7.049,15.715,15.715s-7.049,15.715-15.715,15.715
				h-8.62v48.354h-15.211v-40.75h-15.208v40.75H170.837V98.345h-8.62c-8.665,0-15.715-7.049-15.715-15.715
				s7.049-15.715,15.715-15.715h34.979V51.707h-34.979c-17.051,0-30.923,13.872-30.923,30.923c0,14.79,10.438,27.189,24.335,30.216
				v33.853H82.582c-20.824,0-37.764,16.941-37.764,37.763v25.407H17.744v15.208h27.075v15.208H17.744v15.208h27.075v159.173H0
				v45.627h512v-45.627H467.182z M496.792,445.085H15.208v-15.211h44.819h43.555v-15.208H60.027V184.462
				c0-12.437,10.118-22.555,22.556-22.555h73.047h200.743h73.048c12.437,0,22.555,10.118,22.555,22.555v230.204H123.86v15.208
				h328.114h44.818V445.085z"/>
			<rect x="82.579" y="177.111" width="346.842" height="15.208"/>
		</g>
	</g>
</g>
<g>
</g>
<g>
</g>
<g>
</g>
<g>
</g>
<g>
</g>
<g>
</g>
<g>
</g>
<g>
</g>
<g>
</g>
<g>
</g>
<g>
</g>
<g>
</g>
<g>
</g>
<g>
</g>
<g>
</g>
</svg>
