<?xml version="1.0" encoding="iso-8859-1"?>
<!-- Generator: Adobe Illustrator 19.0.0, SVG Export Plug-In . SVG Version: 6.00 Build 0)  -->
<svg version="1.1" id="Layer_1" xmlns="http://www.w3.org/2000/svg" xmlns:xlink="http://www.w3.org/1999/xlink" x="0px" y="0px"
	 viewBox="0 0 512.001 512.001" style="enable-background:new 0 0 512.001 512.001;" xml:space="preserve">
<g>
	<g>
		<path d="M462.766,256.082L290.771,84.087c-2.516-2.517-5.245-4.694-8.121-6.55c7.522-12.7,11.878-28.685,11.878-39.009
			C294.528,17.284,277.244,0,255.999,0s-38.528,17.284-38.528,38.528c0,10.324,4.357,26.309,11.879,39.009
			c-2.876,1.856-5.604,4.033-8.12,6.55L49.235,256.082c-19.173,19.173-19.173,50.371,0,69.545l32.671,32.671l10.753-10.753
			l-10.532-10.534l35.403-35.403l35.404,35.404l-35.403,35.403l-10.531-10.531l-10.753,10.753L221.23,497.621
			c9.587,9.586,22.179,14.38,34.772,14.38c12.593,0,25.185-4.794,34.772-14.38l171.994-171.994
			C481.939,306.453,481.939,275.254,462.766,256.082z M429.874,244.697l-35.404,35.404l-35.403-35.404l35.404-35.403
			L429.874,244.697z M266.755,244.697l35.403-35.403l35.403,35.403L302.157,280.1L266.755,244.697z M291.403,290.854L256,326.257
			l-35.403-35.403L256,255.451L291.403,290.854z M256,233.943l-35.403-35.404l35.403-35.403l35.403,35.404L256,233.943z
			 M245.247,244.697L209.844,280.1l-35.404-35.404l35.403-35.403L245.247,244.697z M245.247,337.011l-35.404,35.404l-35.403-35.403
			l35.404-35.404L245.247,337.011z M256,347.765l35.404,35.403L256,418.571l-35.404-35.403L256,347.765z M266.754,337.01
			l35.404-35.403l35.403,35.403l-35.403,35.403L266.754,337.01z M312.912,290.854l35.403-35.403l35.403,35.403l-35.403,35.403
			L312.912,290.854z M383.717,198.54l-35.404,35.403l-35.403-35.401l35.404-35.404L383.717,198.54z M337.561,152.384l-35.404,35.403
			l-35.404-35.404l35.404-35.403L337.561,152.384z M255.999,15.209c12.858,0,23.32,10.461,23.32,23.32
			c0,8.453-4.182,22.603-10.682,32.799c-0.283-0.075-0.572-0.127-0.856-0.197c-0.095-0.023-0.192-0.044-0.287-0.066
			c-2.117-0.507-4.268-0.87-6.439-1.091c-0.219-0.022-0.437-0.044-0.656-0.064c-0.652-0.058-1.304-0.108-1.959-0.14
			c-0.155-0.008-0.31-0.009-0.465-0.015c-1.321-0.053-2.642-0.053-3.963,0c-0.15,0.006-0.299,0.007-0.448,0.014
			c-0.658,0.031-1.315,0.083-1.971,0.141c-0.213,0.019-0.425,0.04-0.638,0.062c-2.182,0.222-4.344,0.587-6.471,1.097
			c-0.086,0.02-0.173,0.039-0.26,0.06c-0.287,0.071-0.578,0.124-0.864,0.2c-6.499-10.196-10.682-24.346-10.682-32.8
			C232.68,25.67,243.141,15.209,255.999,15.209z M231.983,94.842c13.244-13.243,34.791-13.243,48.035,0l11.385,11.385
			l-35.403,35.403l-35.403-35.403L231.983,94.842z M209.843,116.98l35.403,35.403l-35.403,35.403l-35.403-35.403L209.843,116.98z
			 M163.687,163.137l35.403,35.403l-35.404,35.404l-35.403-35.403L163.687,163.137z M71.372,326.257l-11.384-11.384
			c-13.244-13.245-13.244-34.793,0-48.037l11.384-11.384l35.403,35.403L71.372,326.257z M82.127,244.698l35.403-35.403
			l35.404,35.402L117.529,280.1L82.127,244.698z M128.283,290.854l35.404-35.404l35.404,35.404l-35.404,35.404L128.283,290.854z
			 M128.284,383.168l35.403-35.403l35.403,35.403l-35.403,35.403L128.284,383.168z M174.44,429.324l35.403-35.403l35.404,35.404
			l-35.403,35.403L174.44,429.324z M280.018,486.866c-13.243,13.245-34.792,13.244-48.036,0l-11.384-11.384L256,440.08
			l35.403,35.403L280.018,486.866z M302.156,464.728l-35.403-35.403l35.404-35.404l35.403,35.403L302.156,464.728z M348.315,418.571
			l-35.403-35.403l35.403-35.403l35.403,35.403L348.315,418.571z M394.472,372.415l-35.404-35.404l35.403-35.403l35.404,35.404
			L394.472,372.415z M452.013,314.872l-11.385,11.385l-35.404-35.404l35.404-35.404l11.385,11.385
			C465.255,280.079,465.255,301.629,452.013,314.872z"/>
	</g>
</g>
<g>
</g>
<g>
</g>
<g>
</g>
<g>
</g>
<g>
</g>
<g>
</g>
<g>
</g>
<g>
</g>
<g>
</g>
<g>
</g>
<g>
</g>
<g>
</g>
<g>
</g>
<g>
</g>
<g>
</g>
</svg>
