<?xml version="1.0" encoding="iso-8859-1"?>
<!-- Generator: Adobe Illustrator 19.0.0, SVG Export Plug-In . SVG Version: 6.00 Build 0)  -->
<svg version="1.1" id="Layer_1" xmlns="http://www.w3.org/2000/svg" xmlns:xlink="http://www.w3.org/1999/xlink" x="0px" y="0px"
	 viewBox="0 0 512 512" style="enable-background:new 0 0 512 512;" xml:space="preserve">
<g>
	<g>
		<g>
			<path d="M422.458,0h-41.243h-250.43H89.542L57.927,162.477l-0.205,1.056L88.856,512h79.952v-15.208h-66.044L73.705,171.534
				h364.591l-1.359,15.211h-142.4v15.208h141.041l-26.342,294.839H189.085V512h234.059l31.038-347.394l0.095-1.073L422.458,0z
				 M145.993,15.208h220.014v53.447c0,27.114-22.059,49.172-49.172,49.172H195.165c-27.114,0-49.172-22.059-49.172-49.172V15.208z
				 M74.617,156.326l27.46-141.118h28.708v53.447c0,35.499,28.881,64.38,64.38,64.38h121.669c35.499,0,64.38-28.881,64.38-64.38
				V15.208h28.708l27.46,141.118H74.617z"/>
			<path d="M350.799,68.655V38.02h-15.208v30.635c0,10.342-8.414,18.756-18.756,18.756H195.165v15.208h121.669
				C335.563,102.619,350.799,87.383,350.799,68.655z"/>
			<rect x="205.652" y="186.743" width="68.608" height="15.208"/>
		</g>
	</g>
</g>
<g>
</g>
<g>
</g>
<g>
</g>
<g>
</g>
<g>
</g>
<g>
</g>
<g>
</g>
<g>
</g>
<g>
</g>
<g>
</g>
<g>
</g>
<g>
</g>
<g>
</g>
<g>
</g>
<g>
</g>
</svg>
