<?xml version="1.0" encoding="iso-8859-1"?>
<!-- Generator: Adobe Illustrator 19.0.0, SVG Export Plug-In . SVG Version: 6.00 Build 0)  -->
<svg version="1.1" id="Layer_1" xmlns="http://www.w3.org/2000/svg" xmlns:xlink="http://www.w3.org/1999/xlink" x="0px" y="0px"
	 viewBox="0 0 512 512" style="enable-background:new 0 0 512 512;" xml:space="preserve">
<g>
	<g>
		<g>
			<path d="M168.179,189.086c-12.765,0-23.149,10.385-23.149,23.151v160.358h15.208V212.237c0-4.379,3.563-7.943,7.942-7.943
				c4.379,0,7.942,3.564,7.942,7.943v234.538c0,4.379-3.563,7.943-7.942,7.943c-4.379,0-7.942-3.564-7.942-7.943v-53.9H145.03v53.9
				c0,12.766,10.385,23.15,23.149,23.15s23.15-10.385,23.15-23.15V212.237C191.329,199.471,180.944,189.086,168.179,189.086z"/>
			<path d="M256,469.925c12.765,0,23.15-10.385,23.15-23.15V212.237c0-12.766-10.385-23.151-23.15-23.151
				s-23.149,10.385-23.149,23.151v234.538C232.851,459.54,243.235,469.925,256,469.925z M248.058,212.237
				c0-4.379,3.563-7.943,7.942-7.943s7.942,3.564,7.942,7.943v234.538c0,4.379-3.563,7.943-7.942,7.943s-7.942-3.564-7.942-7.943
				V212.237z"/>
			<path d="M343.821,469.925c12.765,0,23.15-10.385,23.15-23.15V212.237c0-12.766-10.385-23.151-23.15-23.151
				s-23.149,10.385-23.149,23.151v234.538C320.671,459.54,331.056,469.925,343.821,469.925z M335.879,212.237
				c0-4.379,3.563-7.943,7.942-7.943s7.942,3.564,7.942,7.943v234.538c0,4.379-3.563,7.943-7.942,7.943s-7.942-3.564-7.942-7.943
				V212.237z"/>
			<path d="M375.129,67.592h-53.272V47.625C321.856,21.364,300.491,0,274.231,0h-36.463c-26.26,0-47.625,21.364-47.625,47.625
				v19.967h-53.272c-31.399,0-56.946,25.545-56.946,56.946v37.681h11.321v325.955c0,13.138,10.688,23.826,23.826,23.826h281.856
				c13.138,0,23.826-10.688,23.826-23.826V162.219h11.321v-37.682C432.074,93.137,406.528,67.592,375.129,67.592z M205.352,47.625
				c0-17.874,14.542-32.417,32.417-32.417h36.463c17.874,0,32.417,14.543,32.417,32.417v19.967h-15.208V47.625
				c0-9.489-7.72-17.209-17.209-17.209h-36.463c-9.489,0-17.209,7.72-17.209,17.209v19.967h-15.208V47.625z M276.234,47.625v19.967
				h-0.001h-40.464V47.625c0-1.103,0.897-2.001,2.001-2.001h36.463C275.335,45.624,276.234,46.522,276.234,47.625z M416.866,147.011
				h-11.321H215.783v15.208h189.762v325.955h0c0,4.752-3.866,8.618-8.618,8.618H115.072c-4.752,0-8.618-3.866-8.618-8.618V162.219
				h89.052v-15.208h-89.051H95.134v-22.474c0-23.014,18.723-41.737,41.738-41.737h53.272h45.624h40.464h45.624h53.273
				c23.014,0,41.738,18.724,41.738,41.738V147.011z"/>
			<rect x="170.329" y="116.594" width="173.492" height="15.208"/>
		</g>
	</g>
</g>
<g>
</g>
<g>
</g>
<g>
</g>
<g>
</g>
<g>
</g>
<g>
</g>
<g>
</g>
<g>
</g>
<g>
</g>
<g>
</g>
<g>
</g>
<g>
</g>
<g>
</g>
<g>
</g>
<g>
</g>
</svg>
