<?xml version="1.0" encoding="iso-8859-1"?>
<!-- Generator: Adobe Illustrator 19.0.0, SVG Export Plug-In . SVG Version: 6.00 Build 0)  -->
<svg version="1.1" id="Layer_1" xmlns="http://www.w3.org/2000/svg" xmlns:xlink="http://www.w3.org/1999/xlink" x="0px" y="0px"
	 viewBox="0 0 512.031 512.031" style="enable-background:new 0 0 512.031 512.031;" xml:space="preserve">
<g>
	<g>
		<g>
			<path d="M434.575,0H77.457C58.727,0,43.49,15.237,43.49,33.966v146.005h15.209V33.966c0-10.343,8.415-18.758,18.758-18.758
				h357.118c10.343,0,18.758,8.414,18.758,18.758v444.099c0,10.343-8.415,18.758-18.758,18.758H77.457
				c-10.343,0-18.758-8.415-18.758-18.758V200.251H43.49v277.814c0,18.729,15.237,33.966,33.966,33.966h357.118
				c18.729,0,33.966-15.237,33.966-33.966V33.966C468.541,15.236,453.304,0,434.575,0z"/>
			<path d="M109.549,308.247c0,80.762,65.704,146.466,146.466,146.466s146.466-65.704,146.466-146.466
				S336.778,161.78,256.016,161.78S109.549,227.485,109.549,308.247z M387.273,308.247c0,72.376-58.882,131.258-131.257,131.258
				s-131.258-58.883-131.258-131.258s58.882-131.258,131.258-131.258S387.273,235.871,387.273,308.247z"/>
			<path d="M140.996,308.247c0,63.422,51.598,115.019,115.02,115.019s115.02-51.598,115.02-115.019
				c0-63.423-51.598-115.021-115.02-115.021S140.996,244.824,140.996,308.247z M355.826,308.247
				c0,55.036-44.775,99.811-99.811,99.811s-99.811-44.775-99.811-99.811s44.775-99.812,99.811-99.812
				S355.826,253.21,355.826,308.247z"/>
			
				<rect x="201.455" y="256.904" transform="matrix(-0.7071 0.7071 -0.7071 -0.7071 612.3165 275.3864)" width="95.338" height="15.209"/>
			
				<rect x="183.99" y="303.621" transform="matrix(-0.7071 -0.7071 0.7071 -0.7071 99.3541 685.2323)" width="15.209" height="36.835"/>
			
				<rect x="207.616" y="325.96" transform="matrix(-0.7071 0.7071 -0.7071 -0.7071 716.1386 370.4936)" width="147.443" height="15.209"/>
			<polygon points="71.373,119.67 440.658,119.67 440.658,104.461 228.135,104.461 228.135,27.883 212.926,27.883 212.926,104.461 
				71.373,104.461 			"/>
			<path d="M258.394,42.604v46.647h103.767V42.604H258.394z M346.952,74.041h-73.349V57.812h73.349V74.041z"/>
			<rect x="109.677" y="44.637" width="18.249" height="15.209"/>
			<rect x="140.773" y="44.637" width="18.249" height="15.209"/>
			<rect x="171.86" y="44.637" width="18.249" height="15.209"/>
			<rect x="109.677" y="72.013" width="18.249" height="15.209"/>
			<rect x="140.773" y="72.013" width="18.249" height="15.209"/>
			<rect x="171.86" y="72.013" width="18.249" height="15.209"/>
		</g>
	</g>
</g>
<g>
</g>
<g>
</g>
<g>
</g>
<g>
</g>
<g>
</g>
<g>
</g>
<g>
</g>
<g>
</g>
<g>
</g>
<g>
</g>
<g>
</g>
<g>
</g>
<g>
</g>
<g>
</g>
<g>
</g>
</svg>
