<?xml version="1.0" encoding="iso-8859-1"?>
<!-- Generator: Adobe Illustrator 19.0.0, SVG Export Plug-In . SVG Version: 6.00 Build 0)  -->
<svg version="1.1" id="Layer_1" xmlns="http://www.w3.org/2000/svg" xmlns:xlink="http://www.w3.org/1999/xlink" x="0px" y="0px"
	 viewBox="0 0 512.001 512.001" style="enable-background:new 0 0 512.001 512.001;" xml:space="preserve">
<g>
	<g>
		<g>
			<path d="M504.411,45.532L458.878,0l-0.001,0.001L414.85,44.029h0.001l-43.767,43.768c-13.781-7.32-29.194-11.164-44.937-11.164
				c-25.576,0-49.621,9.959-67.706,28.043L14.728,348.39c-9.497,9.496-14.727,22.123-14.727,35.553s5.229,26.056,14.725,35.552
				l77.782,77.781c9.495,9.495,22.12,14.725,35.55,14.726c0.001,0,0.002,0,0.003,0c13.428,0,26.054-5.23,35.55-14.727
				l243.716-243.715c15.326-15.327,25.078-35.607,27.458-57.107c2.121-19.142-1.627-38.634-10.582-55.531l43.77-43.77l29.353-29.354
				L512,53.122L504.411,45.532z M405.089,138.519l3.15,5.118c19.631,31.884,14.832,72.662-11.672,99.165L152.853,486.517
				c-6.624,6.624-15.427,10.271-24.792,10.271c-0.001,0-0.002,0-0.003,0c-9.367-0.001-18.171-3.648-24.793-10.27l-1.237-1.237
				l11.001-11l-10.757-10.757l-11.001,11l-10.76-10.759l11-11.001l-10.757-10.757l-11.001,11.001l-10.76-10.76l11.001-11.002
				l-10.757-10.757l-11.002,11.002l-10.76-10.76l11.001-11.001l-10.757-10.757l-11.001,11.001l-1.237-1.237
				c-6.623-6.626-10.27-15.431-10.27-24.797s3.648-18.172,10.271-24.796l49.519-49.519l50.807,50.807l10.757-10.757L85.76,298.871
				l147.357-147.358l74.467,74.467L160.229,373.338l-12.429-12.43l-10.757,10.757l23.187,23.188L329.101,225.98l-85.225-85.225
				l10.76-10.76l65.502,65.503l10.758-10.757l-65.503-65.504l3.805-3.805c15.211-15.211,35.436-23.587,56.948-23.587
				c14.958,0,29.558,4.121,42.218,11.917l5.118,3.15l30.61-30.611l31.607,31.607L405.089,138.519z M446.456,97.152l-31.607-31.607
				l10.757-10.758l31.608,31.607L446.456,97.152z M467.971,75.638L436.363,44.03l22.513-22.514l31.61,31.606L467.971,75.638z"/>
			
				<rect x="193.812" y="222.538" transform="matrix(0.7071 0.7071 -0.7071 0.7071 229.7958 -94.4871)" width="70.283" height="15.213"/>
			
				<rect x="172.289" y="244.065" transform="matrix(0.7071 0.7071 -0.7071 0.7071 238.7132 -72.9627)" width="70.283" height="15.213"/>
			
				<rect x="150.775" y="265.573" transform="matrix(0.7071 0.7071 -0.7071 0.7071 247.6205 -51.451)" width="70.283" height="15.213"/>
			
				<rect x="129.269" y="287.087" transform="matrix(0.7071 0.7071 -0.7071 0.7071 256.5341 -29.9424)" width="70.283" height="15.213"/>
			
				<rect x="341.857" y="234.109" transform="matrix(-0.7071 -0.7071 0.7071 -0.7071 414.3829 686.9492)" width="15.213" height="47.089"/>
			<path d="M382.33,159.589c12.21,19.833,9.218,45.205-7.278,61.7l10.758,10.757c21.498-21.499,25.394-54.574,9.475-80.433
				L382.33,159.589z"/>
		</g>
	</g>
</g>
<g>
</g>
<g>
</g>
<g>
</g>
<g>
</g>
<g>
</g>
<g>
</g>
<g>
</g>
<g>
</g>
<g>
</g>
<g>
</g>
<g>
</g>
<g>
</g>
<g>
</g>
<g>
</g>
<g>
</g>
</svg>
