<svg width="27" height="27" viewBox="0 0 27 27" fill="none" xmlns="http://www.w3.org/2000/svg">
<mask id="mask0" mask-type="alpha" maskUnits="userSpaceOnUse" x="6" y="6" width="14" height="14">
<path fill-rule="evenodd" clip-rule="evenodd" d="M17.6627 19.4083L13.2988 15.0444L8.93497 19.4083C8.45295 19.8903 7.67144 19.8903 7.18943 19.4083C6.70741 18.9263 6.70741 18.1448 7.18943 17.6627L11.5533 13.2989L7.18942 8.93503C6.70741 8.45301 6.70741 7.6715 7.18942 7.18948C7.67144 6.70746 8.45295 6.70746 8.93497 7.18948L13.2988 11.5533L17.6627 7.18948C18.1447 6.70746 18.9262 6.70746 19.4082 7.18948C19.8902 7.6715 19.8902 8.45301 19.4082 8.93502L15.0444 13.2989L19.4082 17.6627C19.8902 18.1448 19.8902 18.9263 19.4082 19.4083C18.9262 19.8903 18.1447 19.8903 17.6627 19.4083Z" fill="black"/>
</mask>
<g mask="url(#mask0)">
<rect width="27" height="27" fill="#BDBDBD"/>
</g>
</svg>
