<svg width="43" height="43" viewBox="0 0 43 43" fill="none" xmlns="http://www.w3.org/2000/svg">
<path d="M41.6677 1.67579C41.0995 1.10748 40.344 0.794434 39.5403 0.794434C38.7367 0.794434 37.9812 1.10748 37.4129 1.67571L22.8897 16.1988L27.1443 20.4535L31.3286 16.2693L30.4448 15.3856L27.1444 18.6861L24.6572 16.1986L38.2966 2.55936C38.6287 2.22717 39.0704 2.04414 39.5403 2.04414C40.01 2.04414 40.4516 2.22709 40.7839 2.55936C41.4696 3.2452 41.4697 4.36102 40.7839 5.04678L31.6231 14.2074L32.5069 15.0911L41.6676 5.93051C42.8407 4.75757 42.8407 2.8489 41.6677 1.67579Z" fill="black"/>
<path d="M21.1219 17.9661L22.8075 19.6518L16.0303 26.4289C14.5869 25.192 12.7695 24.5172 10.8483 24.5172C8.71729 24.5172 6.71395 25.347 5.20725 26.8538C3.11613 28.9448 1.5219 31.6942 0.833106 34.3973C0.0810293 37.3492 0.501571 39.8097 2.01748 41.3257C3.02778 42.3359 4.49413 42.87 6.25799 42.8702C6.25815 42.8702 6.25831 42.8702 6.25856 42.8702C9.59758 42.8702 13.6133 41.0118 16.4894 38.1359C17.9961 36.6292 18.8259 34.6258 18.826 32.4949C18.826 30.5735 18.1512 28.7562 16.9142 27.3128L23.6914 20.5356L25.3769 22.2211L26.2605 21.3375L22.0057 17.0825L21.1219 17.9661ZM17.5761 32.4948C17.576 34.2919 16.8761 35.9814 15.6055 37.2522C12.9926 39.8652 9.23605 41.6206 6.25799 41.6205C4.83281 41.6204 3.67203 41.2128 2.90113 40.4419C1.72687 39.2677 1.41448 37.1769 2.0441 34.7059C2.67907 32.2141 4.15396 29.6743 6.0909 27.7374C7.36157 26.4668 9.05105 25.7669 10.8483 25.7669C12.6455 25.7669 14.3349 26.4668 15.6056 27.7374C16.8763 29.0082 17.5761 30.6976 17.5761 32.4948Z" fill="black"/>
<path d="M13.8382 29.5051C14.6352 30.3021 15.0743 31.364 15.0742 32.4949C15.0742 33.6258 14.6352 34.6876 13.838 35.4849L14.7217 36.3684C15.7549 35.3353 16.3239 33.9595 16.3239 32.4949C16.3239 31.0301 15.755 29.6545 14.7217 28.6213L13.8382 29.5051Z" fill="black"/>
</svg>
