<svg width="43" height="42" viewBox="0 0 43 42" fill="none" xmlns="http://www.w3.org/2000/svg">
<path d="M38.2069 0.847913L37.7652 0.40625L8.70287 29.4684L8.70295 29.4685L0.846456 37.3248C0.34414 37.8271 0.0675049 38.495 0.0675049 39.2054C0.0675049 39.9157 0.344222 40.5835 0.846538 41.0859C1.34877 41.5881 2.01661 41.8647 2.72702 41.8648C2.72702 41.8648 2.72702 41.8648 2.7271 41.8648C3.43734 41.8648 4.1051 41.5882 4.60733 41.0859L12.4638 33.2294L19.2121 39.9774L37.4174 21.7721C40.5058 18.6836 42.185 14.7186 42.1457 10.6074C42.1098 6.87233 40.6742 3.31511 38.2069 0.847913ZM3.72384 40.2024C3.45756 40.4687 3.10359 40.6154 2.72702 40.6154C2.35036 40.6154 1.99631 40.4687 1.72995 40.2024C1.46358 39.9361 1.31688 39.582 1.31688 39.2054C1.31688 38.8288 1.46358 38.4748 1.72986 38.2084L3.53991 36.3984L4.5369 37.3954L5.42031 36.512L4.42332 35.515L5.30697 34.6314L6.30396 35.6284L7.18737 34.745L6.1903 33.748L7.07404 32.8644L8.07103 33.8614L8.95444 32.978L7.95745 31.981L9.58636 30.3521L11.5803 32.346L3.72384 40.2024ZM36.5338 20.8887L19.2121 38.2104L13.3472 32.3458L10.4698 29.4684L37.7527 2.18548C39.7272 4.39593 40.8657 7.43284 40.8963 10.6193C40.9324 14.3923 39.3831 18.0392 36.5338 20.8887Z" fill="black"/>
<path d="M39.2218 10.4791L34.2805 15.4204L35.164 16.3038L40.1053 11.3625L39.2218 10.4791Z" fill="black"/>
<path d="M16.6766 33.025L17.56 33.9084L33.9882 17.4803L33.1047 16.5968L16.6766 33.025Z" fill="black"/>
</svg>
