<svg width="43" height="43" viewBox="0 0 43 43" fill="none" xmlns="http://www.w3.org/2000/svg">
<path d="M42.037 9.2707L34.3811 1.61457C33.8138 1.04725 33.0596 0.734863 32.2573 0.734863C31.4549 0.734863 30.7006 1.04733 30.1333 1.61474L20.8532 10.8948C19.6822 12.066 19.6822 13.9714 20.8532 15.1426L24.2394 18.5288L19.697 23.0712L18.0112 21.3854L17.1274 22.2692L21.3828 26.5247L22.2667 25.6408L20.5809 23.955L25.1233 19.4127L28.5093 22.7988C29.0766 23.3661 29.8309 23.6785 30.6332 23.6785C31.4355 23.6785 32.1899 23.366 32.7572 22.7987L42.0372 13.5187C42.6046 12.9513 42.917 12.1969 42.917 11.3946C42.9168 10.5923 42.6043 9.83802 42.037 9.2707ZM41.1532 12.6348L31.8733 21.9148C31.542 22.246 31.1015 22.4285 30.6331 22.4285C30.1647 22.4285 29.7242 22.2461 29.393 21.9148L21.7371 14.2587C21.0534 13.5749 21.0534 12.4624 21.7371 11.7787L31.0172 2.49856C31.3484 2.16735 31.7888 1.98482 32.2572 1.98482C32.7256 1.98482 33.166 2.16719 33.4972 2.49847L41.1532 10.1546C41.4844 10.4858 41.6669 10.9262 41.6669 11.3947C41.6669 11.8631 41.4845 12.3035 41.1532 12.6348Z" fill="black"/>
<path d="M12.0586 27.338L12.9424 28.2218L16.2433 24.921L18.731 27.4087L5.08986 41.0499C4.75759 41.3822 4.31584 41.5652 3.84599 41.5652C3.37613 41.5652 2.93439 41.3822 2.60211 41.05C1.91628 40.364 1.91628 39.248 2.60211 38.5621L11.7639 29.4004L10.8801 28.5166L1.71821 37.6783C0.545019 38.8514 0.545019 40.7604 1.71821 41.9337C2.28661 42.5021 3.04222 42.8151 3.84599 42.8151C4.64976 42.8151 5.40537 42.5021 5.97376 41.9337L20.4988 27.4087L16.2435 23.1533L12.0586 27.338Z" fill="black"/>
<path d="M32.8883 4.37L23.6082 13.6501L24.492 14.534L33.7721 5.25384L32.8883 4.37Z" fill="black"/>
<path d="M35.6426 7.12488L26.3624 16.405L27.2463 17.2889L36.5264 8.00873L35.6426 7.12488Z" fill="black"/>
<path d="M29.1201 19.1608L30.0039 20.0447L39.2841 10.7645L38.4002 9.88069L29.1201 19.1608Z" fill="black"/>
</svg>
