<svg width="43" height="41" viewBox="0 0 43 41" fill="none" xmlns="http://www.w3.org/2000/svg">
<path d="M42.1593 0.654851C41.7372 0.232584 41.1758 0 40.5786 0C39.9816 8.21852e-05 39.4202 0.232666 38.9979 0.654851L16.697 22.9558L15.1493 21.4081C14.726 20.9848 14.163 20.7517 13.5643 20.7517C12.9655 20.7517 12.4027 20.9848 11.9793 21.4081L1.39089 31.9967C0.967473 32.42 0.734314 32.983 0.734314 33.5818C0.734314 34.1806 0.967473 34.7435 1.39089 35.1669L4.51927 38.2953C5.77826 39.5542 7.45213 40.2476 9.23275 40.2476C11.0132 40.2476 12.6872 39.5543 13.9462 38.2953L21.4063 30.8351C22.2801 29.9612 22.2802 28.5391 21.4064 27.665L19.8587 26.1174L24.0079 21.9682L23.124 21.0842L18.0909 26.1174L20.5225 28.549C20.909 28.9357 20.909 29.5647 20.5224 29.9512L13.0623 37.4114C12.0395 38.4342 10.6795 38.9975 9.23292 38.9975C7.7863 38.9975 6.42621 38.4341 5.4035 37.4114L2.27496 34.283C2.08766 34.0958 1.9846 33.8467 1.9846 33.5819C1.9846 33.3169 2.08766 33.068 2.27504 32.8807L12.8636 22.2922C13.2502 21.9056 13.8792 21.9056 14.2657 22.2922L16.6974 24.7238L39.8822 1.53884C40.0683 1.35269 40.3158 1.25012 40.5789 1.25012C40.842 1.25012 41.0895 1.3526 41.2756 1.53884C41.6598 1.92305 41.6598 2.54832 41.2756 2.93261L24.3272 19.8808L25.2112 20.7648L42.1594 3.81635C43.0311 2.94461 43.031 1.52634 42.1593 0.654851Z" fill="black"/>
<path d="M3.79743 33.2001L4.68134 34.084L14.0659 24.6994L13.182 23.8155L3.79743 33.2001Z" fill="black"/>
</svg>
