<svg width="44" height="32" viewBox="0 0 44 32" fill="none" xmlns="http://www.w3.org/2000/svg">
<path d="M42.1517 1.87631C41.5831 1.30775 40.8273 0.994629 40.0234 0.994629C39.2195 0.994629 38.4637 1.30775 37.8951 1.87631L23.3669 16.4048L27.6231 20.6611L31.8089 16.4754L30.9249 15.5914L27.6231 18.8931L25.1349 16.4048L38.7793 2.76046C39.1116 2.4281 39.5536 2.24499 40.0234 2.24499C40.4934 2.24499 40.9352 2.42802 41.2675 2.76046C41.9536 3.44654 41.9536 4.56278 41.2675 5.24878L32.1036 14.4127L32.9876 15.2967L42.1516 6.13285C43.3252 4.95941 43.3252 3.05 42.1517 1.87631Z" fill="black"/>
<path d="M21.5984 18.1728L23.2847 19.8591L15.8588 27.2849L4.02831 15.4543L3.58624 15.8963C1.88813 17.5944 0.952942 19.8522 0.952942 22.2537C0.952942 24.6551 1.88813 26.913 3.58624 28.6111C5.28418 30.309 7.54181 31.2441 9.94343 31.2443C9.94367 31.2443 9.94392 31.2443 9.94425 31.2443C12.3453 31.2443 14.6027 30.3092 16.3009 28.611L16.7429 28.1691L24.1688 20.7432L25.8549 22.4294L26.7389 21.5454L22.4825 17.289L21.5984 18.1728ZM9.94433 29.9941C9.94417 29.9941 9.94375 29.9941 9.94359 29.9941C7.87589 29.994 5.93205 29.1888 4.47039 27.7271C3.00839 26.2651 2.20323 24.3212 2.20323 22.2537C2.20323 20.3958 2.85323 18.6381 4.04582 17.2399L14.9573 28.1516C13.5591 29.3442 11.8017 29.9942 9.94433 29.9941Z" fill="black"/>
<path d="M12.1407 28.3641L11.7182 27.1874C11.152 27.3907 10.5551 27.4937 9.94394 27.4937C8.544 27.4935 7.22813 26.9485 6.23845 25.959L5.35455 26.8431C6.58018 28.0687 8.21008 28.7438 9.94443 28.744C10.6995 28.744 11.4385 28.6162 12.1407 28.3641Z" fill="black"/>
</svg>
