<svg width="43" height="43" viewBox="0 0 43 43" fill="none" xmlns="http://www.w3.org/2000/svg">
<path d="M42.3928 3.46527C42.3928 2.78568 42.128 2.14677 41.6474 1.66632C41.1668 1.18578 40.5278 0.921143 39.8483 0.921143C39.1688 0.921143 38.5299 1.18578 38.0495 1.66623L33.0302 6.68536L30.2396 3.8946L25.3991 8.73523L26.2828 9.61888L30.2396 5.66199L37.6516 13.0742L12.4671 38.2589L11.5832 37.375L17.9318 31.0264L17.048 30.1427L10.6995 36.4913L10.5602 36.352L10.5603 36.3518L8.93231 34.7242L5.05498 30.8467L25.1045 10.7974L24.2207 9.91376L3.28751 30.8467L6.07827 33.6375L1.05922 38.6568C0.578601 39.1373 0.313965 39.7762 0.313965 40.4558C0.314047 41.1353 0.578766 41.7743 1.05914 42.2547C1.53959 42.7354 2.17842 43 2.85809 43C2.85817 43 2.85817 43 2.85817 43C3.53768 43 4.17659 42.7353 4.65688 42.2549L9.67642 37.2357L12.4672 40.0266L39.419 13.0744L36.6282 10.2835L41.6474 5.2643C42.1281 4.78376 42.3928 4.14494 42.3928 3.46527ZM3.77322 41.3712C3.52888 41.6155 3.20392 41.7502 2.85834 41.7502C2.51258 41.7502 2.18762 41.6156 1.9432 41.371C1.69854 41.1265 1.56384 40.8014 1.56384 40.4557C1.56384 40.1099 1.69846 39.785 1.94304 39.5405L6.96201 34.5213L7.95242 35.5117L8.79268 36.352L3.77322 41.3712ZM40.7638 4.38056L35.7447 9.39978L33.9141 7.5691L38.9334 2.54997C39.1778 2.30555 39.5027 2.17093 39.8483 2.17093C40.194 2.17093 40.5192 2.30555 40.7637 2.55022C41.0084 2.79464 41.143 3.1196 41.143 3.46527C41.1431 3.81094 41.0083 4.13598 40.7638 4.38056Z" fill="black"/>
<path d="M19.1115 29.848L22.7971 26.1624L21.9134 25.2786L18.2277 28.9643L19.1115 29.848Z" fill="black"/>
</svg>
