<svg width="43" height="43" viewBox="0 0 43 43" fill="none" xmlns="http://www.w3.org/2000/svg">
<path d="M39.4236 2.65376C37.7123 0.942418 35.4369 0 33.0166 0C30.5963 0 28.3209 0.9425 26.6095 2.65384C25.3987 3.86459 23.2063 7.40308 20.6846 13.7027C19.7656 15.9986 19.0114 18.1853 18.561 19.8598C18.3661 20.5842 18.24 21.1651 18.1656 21.6362L17.1753 20.6459L16.2914 21.5298L20.5475 25.7858L21.4314 24.9019L20.441 23.9116C22.7171 23.5523 26.6197 22.1383 29.5717 20.9027C31.3538 20.1568 37.3307 17.5607 39.4234 15.4678C41.1349 13.7564 42.0774 11.481 42.0774 9.06067C42.0775 6.64056 41.135 4.3651 39.4236 2.65376ZM19.9281 19.6143C20.4053 17.9678 21.1391 15.9018 22.0028 13.7761C23.977 8.91775 26.1321 4.89889 27.4934 3.53766C28.9687 2.06252 30.9302 1.25004 33.0165 1.25004C34.121 1.25004 35.1906 1.47785 36.1715 1.91113C35.6645 1.96003 35.1451 2.07633 34.6145 2.26059C31.4626 3.35529 27.926 6.81989 24.1028 12.5581C22.4388 15.0558 20.987 17.6052 19.9281 19.6143ZM25.1432 13.2514C28.7601 7.82271 32.1769 4.43069 35.0247 3.44159C36.0607 3.0817 37.0041 3.03724 37.8861 3.3073L21.0735 20.1199C22.1088 18.1607 23.5224 15.6841 25.1432 13.2514ZM38.77 4.19136C39.0402 5.07337 38.9956 6.01678 38.6358 7.0528C37.6468 9.90044 34.2546 13.3174 28.826 16.9342C26.3933 18.555 23.9167 19.9685 21.9574 21.004L38.77 4.19136ZM38.5395 14.584C37.2556 15.8678 33.6345 17.8472 29.0889 19.7496C26.6427 20.7735 24.2909 21.6176 22.4676 22.1468C24.4759 21.0881 27.0233 19.6372 29.5189 17.9745C35.2572 14.1513 38.7218 10.6146 39.8165 7.46283C40.0008 6.93207 40.117 6.41266 40.166 5.90566C40.5992 6.88662 40.8271 7.9561 40.8271 9.06075C40.8273 11.1472 40.0148 13.1087 38.5395 14.584Z" fill="black"/>
<path d="M11.2219 26.5993L12.1058 27.4832L15.4071 24.1819L17.8951 26.67L4.25217 40.3131C3.91981 40.6454 3.47798 40.8285 3.00813 40.8285C2.5382 40.8285 2.09637 40.6454 1.76409 40.3131C1.07818 39.627 1.07818 38.5109 1.76409 37.8249L10.9272 28.6619L10.0433 27.778L0.880029 36.941C-0.293329 38.1144 -0.293329 40.0236 0.879947 41.1971C1.44842 41.7656 2.2042 42.0787 3.00805 42.0787C3.8119 42.0787 4.5676 41.7656 5.13607 41.1971L19.663 26.67L15.4071 22.4141L11.2219 26.5993Z" fill="black"/>
</svg>
