<svg width="21" height="15" viewBox="0 0 21 15" fill="none" xmlns="http://www.w3.org/2000/svg">
<path d="M0 0V2.18462C0 4.90582 1.05978 7.4642 2.98397 9.3884C4.05724 10.4617 5.32798 11.2656 6.71404 11.7671H4.55664C3.99902 11.7671 3.54534 12.2207 3.54534 12.7783C3.54534 13.3359 3.99902 13.7896 4.55664 13.7896H6.11264V13.1844H4.55664C4.33271 13.1844 4.15056 13.0022 4.15056 12.7783C4.15056 12.5544 4.33275 12.3723 4.55664 12.3723H15.8192C16.0431 12.3723 16.2253 12.5544 16.2253 12.7783C16.2253 13.0022 16.0431 13.1844 15.8192 13.1844H6.91959V13.7896H15.8191C16.3768 13.7896 16.8304 13.3359 16.8304 12.7783C16.8304 12.2207 16.3768 11.7671 15.8191 11.7671H13.6617C15.0478 11.2656 16.3185 10.4617 17.3918 9.3884C19.316 7.46416 20.3757 4.90578 20.3757 2.18458V0H0ZM10.1879 11.7671C8.93858 11.7671 7.72606 11.529 6.60134 11.0754H13.7744C12.6497 11.529 11.4372 11.7671 10.1879 11.7671ZM17.0654 8.85624H15.8487V9.46146H16.4232C15.9794 9.84295 15.5058 10.1797 15.0083 10.4702H5.36741C4.86996 10.1797 4.39638 9.84295 3.95253 9.46146H4.52703V8.85624H3.3103C2.99265 8.52903 2.70098 8.18317 2.43645 7.82106C2.65163 7.93141 2.91504 8.00894 3.26672 8.00894C3.95357 8.00894 4.30481 7.71405 4.61467 7.4539C4.88974 7.22296 5.10695 7.04057 5.57348 7.04057C6.03993 7.04057 6.25714 7.223 6.53217 7.4539C6.84207 7.71405 7.19327 8.00894 7.88008 8.00894C8.56692 8.00894 8.91816 7.71405 9.22798 7.4539C9.50301 7.22296 9.72026 7.04057 10.1868 7.04057C10.6533 7.04057 10.8705 7.223 11.1456 7.4539C11.4555 7.71405 11.8067 8.00894 12.4935 8.00894C13.1804 8.00894 13.5316 7.71405 13.8415 7.4539C14.1166 7.22296 14.3338 7.04057 14.8003 7.04057C15.2669 7.04057 15.4841 7.223 15.7592 7.4539C16.0691 7.71405 16.4204 8.00894 17.1073 8.00894C17.4605 8.00894 17.7246 7.9307 17.9404 7.81955C17.6756 8.18221 17.3835 8.52864 17.0654 8.85624ZM18.706 6.58287L18.7004 6.56954C18.4352 6.68049 18.2391 6.84513 18.0661 6.99039C17.791 7.22133 17.5738 7.40371 17.1072 7.40371C16.6406 7.40371 16.4234 7.22129 16.1483 6.99039C15.8384 6.7302 15.4871 6.43535 14.8003 6.43535C14.1134 6.43535 13.7622 6.7302 13.4523 6.99039C13.1772 7.22133 12.96 7.40371 12.4935 7.40371C12.0269 7.40371 11.8098 7.22129 11.5347 6.99039C11.2248 6.73028 10.8736 6.43535 10.1867 6.43535C9.49987 6.43535 9.14863 6.73028 8.83881 6.99039C8.56378 7.22133 8.34653 7.40371 7.88004 7.40371C7.41358 7.40371 7.19638 7.22129 6.92134 6.99039C6.61145 6.73028 6.26025 6.43535 5.57344 6.43535C4.88659 6.43535 4.53535 6.73028 4.2255 6.99039C3.95043 7.22133 3.73322 7.40371 3.26668 7.40371C2.80011 7.40371 2.58286 7.22129 2.30775 6.99039C2.13543 6.84569 1.94015 6.68177 1.67634 6.57082L1.67057 6.58459C1.50291 6.261 1.35407 5.92842 1.22501 5.58808H19.1506C19.0218 5.92787 18.8733 6.25981 18.706 6.58287ZM19.7705 1.21057H16.3511V1.81579H19.7705V2.18458C19.7705 3.14678 19.6296 4.0874 19.3576 4.98274H1.01815C0.746142 4.0874 0.605223 3.14678 0.605223 2.18458V1.81579H15.544V1.21057H0.605223V0.605223H19.7705V1.21057H19.7705Z" fill="#FF370A" fill-opacity="0.5"/>
<path d="M6.63783 8.85645H5.29339V9.46167H6.63783V8.85645Z" fill="#FF370A" fill-opacity="0.5"/>
<path d="M8.74887 8.85645H7.40443V9.46167H8.74887V8.85645Z" fill="#FF370A" fill-opacity="0.5"/>
<path d="M10.8599 8.85645H9.51551V9.46167H10.8599V8.85645Z" fill="#FF370A" fill-opacity="0.5"/>
<path d="M12.971 8.85645H11.6266V9.46167H12.971V8.85645Z" fill="#FF370A" fill-opacity="0.5"/>
<path d="M15.0821 8.85645H13.7376V9.46167H15.0821V8.85645Z" fill="#FF370A" fill-opacity="0.5"/>
<path d="M2.47223 2.4209C1.93283 2.4209 1.494 2.85973 1.494 3.39917C1.494 3.93857 1.93283 4.37741 2.47223 4.37741C3.01167 4.37741 3.4505 3.93857 3.4505 3.39917C3.45046 2.85973 3.01163 2.4209 2.47223 2.4209ZM2.47223 3.77214C2.26652 3.77214 2.09926 3.60484 2.09926 3.39917C2.09926 3.19347 2.26656 3.02616 2.47223 3.02616C2.67794 3.02616 2.84524 3.1935 2.84524 3.39917C2.84524 3.60484 2.6779 3.77214 2.47223 3.77214Z" fill="#FF370A" fill-opacity="0.5"/>
<path d="M5.55848 2.4209C5.01908 2.4209 4.58024 2.85973 4.58024 3.39917C4.58024 3.93857 5.01908 4.37741 5.55848 4.37741C6.09792 4.37741 6.53675 3.93857 6.53675 3.39917C6.53675 2.85973 6.09788 2.4209 5.55848 2.4209ZM5.55848 3.77214C5.35277 3.77214 5.1855 3.60484 5.1855 3.39917C5.1855 3.19347 5.35281 3.02616 5.55848 3.02616C5.76418 3.02616 5.93149 3.1935 5.93149 3.39917C5.93149 3.60484 5.76414 3.77214 5.55848 3.77214Z" fill="#FF370A" fill-opacity="0.5"/>
<path d="M8.64472 2.4209C8.10532 2.4209 7.66649 2.85973 7.66649 3.39917C7.66649 3.93857 8.10532 4.37741 8.64472 4.37741C9.18416 4.37741 9.623 3.93857 9.623 3.39917C9.623 2.85973 9.18416 2.4209 8.64472 2.4209ZM8.64472 3.77214C8.43902 3.77214 8.27175 3.60484 8.27175 3.39917C8.27175 3.19347 8.43906 3.02616 8.64472 3.02616C8.85043 3.02616 9.01774 3.1935 9.01774 3.39917C9.01774 3.60484 8.85043 3.77214 8.64472 3.77214Z" fill="#FF370A" fill-opacity="0.5"/>
<path d="M11.731 2.4209C11.1916 2.4209 10.7527 2.85973 10.7527 3.39917C10.7527 3.93857 11.1916 4.37741 11.731 4.37741C12.2704 4.37741 12.7092 3.93857 12.7092 3.39917C12.7092 2.85973 12.2704 2.4209 11.731 2.4209ZM11.731 3.77214C11.5253 3.77214 11.358 3.60484 11.358 3.39917C11.358 3.19347 11.5253 3.02616 11.731 3.02616C11.9367 3.02616 12.104 3.1935 12.104 3.39917C12.104 3.60484 11.9367 3.77214 11.731 3.77214Z" fill="#FF370A" fill-opacity="0.5"/>
<path d="M14.8173 2.4209C14.2779 2.4209 13.839 2.85973 13.839 3.39917C13.839 3.93857 14.2779 4.37741 14.8173 4.37741C15.3567 4.37741 15.7955 3.93857 15.7955 3.39917C15.7955 2.85973 15.3567 2.4209 14.8173 2.4209ZM14.8173 3.77214C14.6116 3.77214 14.4443 3.60484 14.4443 3.39917C14.4443 3.19347 14.6116 3.02616 14.8173 3.02616C15.023 3.02616 15.1903 3.1935 15.1903 3.39917C15.1903 3.60484 15.023 3.77214 14.8173 3.77214Z" fill="#FF370A" fill-opacity="0.5"/>
<path d="M17.9036 4.37741C18.443 4.37741 18.8818 3.93857 18.8818 3.39917C18.8818 2.85973 18.443 2.4209 17.9036 2.4209C17.3641 2.4209 16.9253 2.85973 16.9253 3.39917C16.9253 3.93857 17.3642 4.37741 17.9036 4.37741ZM17.9036 3.02616C18.1093 3.02616 18.2765 3.1935 18.2765 3.39917C18.2765 3.60488 18.1092 3.77214 17.9036 3.77214C17.6978 3.77214 17.5305 3.60484 17.5305 3.39917C17.5305 3.1935 17.6978 3.02616 17.9036 3.02616Z" fill="#FF370A" fill-opacity="0.5"/>
<path d="M16.8235 14.3948H3.54505V15H16.8235V14.3948Z" fill="#FF370A" fill-opacity="0.5"/>
</svg>
