<svg width="15" height="24" viewBox="0 0 15 24" fill="none" xmlns="http://www.w3.org/2000/svg">
<path d="M12.9313 2.14371V0H1.72881V2.14371C0.749089 2.30812 0 3.16176 0 4.18753V5.21603V20.0617V21.0902C0 22.2332 0.92987 23.163 2.07282 23.163H12.5873C13.7303 23.163 14.6601 22.2332 14.6601 21.0902V4.18749C14.6602 3.16176 13.9111 2.30816 12.9313 2.14371ZM11.4292 0.688015H12.2433V2.11467H11.4292V0.688015V0.688015ZM9.92718 0.688015H10.7412V2.11467H9.92718V0.688015V0.688015ZM8.4251 0.688015H9.23916V2.11467H8.4251V0.688015V0.688015ZM6.92304 0.688015H7.73709V2.11467H6.92304V0.688015V0.688015ZM5.42097 0.688015H6.23502V2.11467H5.42097V0.688015ZM3.9189 0.688015H4.73295V2.11467H3.9189V0.688015ZM2.41683 0.688015H3.23088V2.11467H2.41683V0.688015ZM12.5874 22.475H2.07282C1.30921 22.475 0.68797 21.8538 0.68797 21.0902V20.0617H11.2025V17.0882H10.5144V19.3737H0.68797V5.904H10.5144V16.1707H11.2025V5.21598H0.68797V4.18749C0.68797 3.42388 1.30921 2.80268 2.07282 2.80268H12.5873C13.3509 2.80268 13.9722 3.42392 13.9722 4.18749V21.0902H13.9722C13.9722 21.8538 13.351 22.475 12.5874 22.475Z" fill="#FF370A" fill-opacity="0.5"/>
<path d="M12.5873 3.49072H6.57904V4.17874H12.5873C12.5918 4.17874 12.5961 4.18304 12.5961 4.18756V6.4774H13.2842V4.18751C13.2842 3.80329 12.9715 3.49072 12.5873 3.49072Z" fill="#FF370A" fill-opacity="0.5"/>
<path d="M6.20781 8.46987H5.94768C5.9731 8.06691 6.30806 7.74661 6.7173 7.74661V7.05859C5.92863 7.05859 5.28441 7.6873 5.25844 8.46987H4.9946C3.3184 8.46987 1.95472 9.83354 1.95472 11.5097C1.95472 13.1859 3.3184 14.5496 4.9946 14.5496H6.20776C7.88396 14.5496 9.24764 13.1859 9.24764 11.5097C9.24759 9.83354 7.88396 8.46987 6.20781 8.46987ZM6.20781 13.8616H4.99464C3.69783 13.8616 2.64278 12.8066 2.64278 11.5097C2.64278 10.2129 3.69783 9.15788 4.99464 9.15788H5.25722V9.7313H5.94523V9.15784H6.20781C7.50462 9.15784 8.55967 10.2129 8.55967 11.5097C8.55967 12.8065 7.50467 13.8616 6.20781 13.8616Z" fill="#FF370A" fill-opacity="0.5"/>
<path d="M6.2078 12.4856V13.1736C7.12523 13.1736 7.87165 12.4272 7.87165 11.5098H7.18363C7.18368 12.0479 6.74589 12.4856 6.2078 12.4856Z" fill="#FF370A" fill-opacity="0.5"/>
<path d="M8.95561 15.2375H2.24706V15.9256H8.95561V15.2375Z" fill="#FF370A" fill-opacity="0.5"/>
<path d="M8.95561 16.6138H7.05489V17.3018H8.95561V16.6138Z" fill="#FF370A" fill-opacity="0.5"/>
<path d="M6.13754 16.6138H2.24706V17.3018H6.13754V16.6138Z" fill="#FF370A" fill-opacity="0.5"/>
</svg>
