<svg width="17" height="21" viewBox="0 0 17 21" fill="none" xmlns="http://www.w3.org/2000/svg">
<path d="M16.4672 2.55887V1.30991C16.4672 0.587629 15.8796 0 15.1573 0H1.30991C0.587628 0 0 0.587629 0 1.30991V4.22242C0 4.62179 0.179648 4.98002 0.462367 5.22045C0.179648 5.46088 0 5.81911 0 6.21848V12.2587C0 12.6581 0.179648 13.0163 0.462367 13.2567C0.179648 13.4972 0 13.8554 0 14.2548V19.6901C0 20.4124 0.587628 21 1.30991 21H15.1573C15.8796 21 16.4672 20.4124 16.4672 19.6901V9.26412C16.4672 8.86475 16.2876 8.50653 16.0048 8.26609C16.2876 8.02566 16.4672 7.66743 16.4672 7.26806V4.55489C16.4672 4.15552 16.2876 3.79729 16.0048 3.55686C16.2876 3.31643 16.4672 2.95824 16.4672 2.55887ZM15.8435 2.55887C15.8435 2.93724 15.5356 3.24502 15.1573 3.24502H13.5151V3.86878H15.1573C15.5356 3.86878 15.8435 4.17656 15.8435 4.55493V7.2681C15.8435 7.64647 15.5356 7.95425 15.1573 7.95425H14.3568V8.57802H15.1573C15.5356 8.57802 15.8435 8.8858 15.8435 9.26416V19.69C15.8435 20.0684 15.5356 20.3762 15.1573 20.3762H1.30991C0.931584 20.3762 0.623763 20.0684 0.623763 19.69V18.7159H5.03153V18.0921H0.623763V14.2547C0.623763 13.8764 0.931584 13.5686 1.30991 13.5686V12.9448C0.931584 12.9448 0.623763 12.637 0.623763 12.2587V6.21844C0.623763 5.84007 0.931584 5.53229 1.30991 5.53229H2.86924V4.90853H1.30991C0.931584 4.90853 0.623763 4.60075 0.623763 4.22238V1.30987C0.623763 0.931502 0.931584 0.623722 1.30991 0.623722H15.1573C15.5356 0.623722 15.8435 0.931502 15.8435 1.30987V2.55887V2.55887Z" fill="#FF370A" fill-opacity="0.5"/>
<path d="M12.6835 3.24487H11.2697V3.86864H12.6835V3.24487Z" fill="#FF370A" fill-opacity="0.5"/>
<path d="M8.23361 18.092H5.86333V18.7158H8.23361V18.092Z" fill="#FF370A" fill-opacity="0.5"/>
<path d="M8.23361 7.69662C7.97025 7.36538 7.56415 7.15234 7.10901 7.15234H5.67252V9.06338V9.68714V10.9745V11.5982V12.4109C5.67252 13.203 6.31692 13.8474 7.10901 13.8474H7.92173H8.54549H9.35821C10.1503 13.8474 10.7947 13.203 10.7947 12.4109V11.5982V10.9745V9.68714V9.06338V7.15234H9.35821C8.90306 7.1523 8.49697 7.36534 8.23361 7.69662ZM7.92173 13.2236H7.10901C6.66091 13.2236 6.29629 12.8589 6.29629 12.4109V11.5982H7.10901C7.5571 11.5982 7.92173 11.9628 7.92173 12.4109V13.2236ZM7.92173 11.2269C7.92042 11.226 7.91898 11.2252 7.91767 11.2243C7.89248 11.2071 7.86664 11.1908 7.84035 11.1751C7.83391 11.1713 7.82743 11.1677 7.82095 11.1639C7.79753 11.1505 7.77374 11.1377 7.7495 11.1256C7.74503 11.1233 7.7406 11.1208 7.73609 11.1187C7.70845 11.1052 7.68023 11.0928 7.65168 11.0811C7.6445 11.0781 7.63724 11.0753 7.62999 11.0725C7.60378 11.0623 7.57724 11.0526 7.55033 11.044C7.5466 11.0428 7.54295 11.0413 7.53918 11.0402C7.50928 11.0308 7.47893 11.0226 7.44825 11.0152C7.44053 11.0133 7.43282 11.0116 7.42507 11.0098C7.3957 11.0032 7.36605 10.9973 7.33603 10.9925C7.33377 10.9921 7.33156 10.9916 7.32934 10.9913C7.29747 10.9863 7.26519 10.9828 7.23267 10.98C7.22467 10.9793 7.21675 10.9787 7.20871 10.9781C7.17574 10.9759 7.1426 10.9743 7.10905 10.9743H6.29633V9.6871H7.10905C7.55714 9.6871 7.92177 10.0517 7.92177 10.4998V11.2269H7.92173ZM7.92173 9.31591C7.92058 9.31509 7.91931 9.31443 7.91816 9.31361C7.89261 9.2961 7.86644 9.27957 7.83974 9.2637C7.83383 9.26021 7.82788 9.25685 7.82194 9.25344C7.79774 9.23954 7.77317 9.22629 7.74811 9.21378C7.74421 9.21185 7.7404 9.20976 7.73654 9.20783C7.70857 9.19418 7.68002 9.18158 7.65111 9.16973C7.64434 9.16698 7.63753 9.16436 7.63068 9.16165C7.6039 9.15119 7.57679 9.14135 7.54923 9.13245C7.54594 9.13138 7.54275 9.13015 7.53946 9.12912C7.5094 9.11965 7.4788 9.11141 7.44788 9.10394C7.44041 9.10214 7.43286 9.10046 7.42536 9.09873C7.39575 9.09205 7.36593 9.08606 7.3357 9.08126C7.33357 9.08093 7.33156 9.08048 7.32942 9.08015C7.29751 9.07519 7.26519 9.07166 7.23267 9.06887C7.22471 9.06822 7.21675 9.0676 7.20871 9.06703C7.17574 9.06477 7.1426 9.06321 7.10905 9.06321H6.29633V7.77603H7.10905C7.55714 7.77603 7.92177 8.14065 7.92177 8.58875V9.31591H7.92173ZM8.54549 10.4998C8.54549 10.0517 8.91012 9.6871 9.35821 9.6871H10.1709V10.9744H9.35821C9.3247 10.9744 9.29152 10.976 9.25855 10.9782C9.25055 10.9788 9.24259 10.9794 9.23459 10.9801C9.20207 10.9829 9.16975 10.9864 9.13792 10.9914C9.13566 10.9917 9.13349 10.9922 9.13123 10.9925C9.10121 10.9973 9.0716 11.0033 9.04219 11.0099C9.03444 11.0117 9.02673 11.0134 9.01901 11.0153C8.98833 11.0227 8.95798 11.0309 8.92808 11.0403C8.92435 11.0414 8.9207 11.0429 8.91693 11.0441C8.89002 11.0528 8.86348 11.0623 8.83727 11.0726C8.83001 11.0754 8.82276 11.0782 8.81558 11.0811C8.78699 11.0929 8.75877 11.1052 8.73117 11.1187C8.72666 11.121 8.72223 11.1234 8.71776 11.1256C8.69352 11.1378 8.66973 11.1506 8.64631 11.164C8.63983 11.1677 8.6333 11.1714 8.62691 11.1752C8.60062 11.1908 8.57478 11.2072 8.54959 11.2244C8.54828 11.2253 8.54685 11.2261 8.54553 11.227V10.4998H8.54549ZM10.1709 12.4109C10.1709 12.8589 9.80631 13.2236 9.35821 13.2236H8.54549V12.4109C8.54549 11.9628 8.91012 11.5982 9.35821 11.5982H10.1709V12.4109ZM10.1709 9.06334H9.35821C9.3247 9.06334 9.29152 9.06494 9.25855 9.06715C9.25055 9.06768 9.24259 9.0683 9.23459 9.069C9.20203 9.07179 9.16971 9.07531 9.13784 9.08028C9.1357 9.0806 9.13369 9.08106 9.13156 9.08138C9.10133 9.08622 9.07147 9.09221 9.0419 9.09886C9.0344 9.10058 9.02685 9.10226 9.01938 9.10406C8.9885 9.11161 8.95786 9.11981 8.92784 9.12925C8.92456 9.13027 8.92136 9.1315 8.91808 9.13257C8.89055 9.14143 8.86344 9.15127 8.83662 9.16177C8.82981 9.16444 8.82296 9.16706 8.81619 9.16985C8.78724 9.18171 8.75869 9.19426 8.73076 9.20796C8.72686 9.20988 8.72305 9.21194 8.71919 9.2139C8.69417 9.22637 8.66956 9.2397 8.64536 9.25357C8.63942 9.25697 8.63343 9.26033 8.62756 9.26382C8.60086 9.27965 8.57465 9.29622 8.54914 9.31374C8.54799 9.31452 8.54672 9.31521 8.54557 9.31603V8.58891C8.54557 8.14082 8.9102 7.77619 9.35829 7.77619H10.171V9.06334H10.1709Z" fill="#FF370A" fill-opacity="0.5"/>
</svg>
