<svg width="23" height="20" viewBox="0 0 23 20" fill="none" xmlns="http://www.w3.org/2000/svg">
<path d="M21.1781 2.34488V1.02759L19.3561 1.64742V0L12.577 3.94154H10.423L3.64393 0V1.64742L1.82199 1.02759V2.34488L0 2.00432V17.6987L6.34769 18.8854L6.47324 18.2139L0.683172 17.1314V2.82702L9.98941 4.56671V18.8711L7.36867 18.3812L7.24316 19.0527L10.2993 19.624H12.7006L23 17.6987V2.00432L21.1781 2.34488ZM2.50511 2.47259V1.98168L3.64393 2.36909L5.70872 3.07149L2.50511 2.47259ZM6.23628 2.52933L4.3271 1.8798V1.18742L7.19734 2.85622L6.23628 2.52933ZM20.4949 1.98168V2.47259L17.2913 3.07144L19.3561 2.36904L20.4949 1.98168ZM18.6729 1.18742V1.8798L16.7637 2.52933L15.8027 2.85622L18.6729 1.18742ZM22.3168 17.1314L13.0106 18.871V16.8837H12.3274V18.9409H10.6726V4.62466H12.3274V15.9728H13.0106V4.56676L22.3168 2.82707V17.1314V17.1314Z" fill="#FF370A" fill-opacity="0.5"/>
<path d="M9.30624 5.13421L1.3663 3.6499V16.5643L9.30624 18.0486V5.13421ZM8.62307 17.2258L2.04952 15.997V4.47265L8.62311 5.70144V17.2258H8.62307Z" fill="#FF370A" fill-opacity="0.5"/>
<path d="M21.6337 3.6499L13.6937 5.13421V18.0486L21.6337 16.5642V3.6499ZM20.9505 15.9969L14.3769 17.2257V5.70144L20.9505 4.4726V15.9969Z" fill="#FF370A" fill-opacity="0.5"/>
<path d="M4.99464 10.3273V15.4699H5.67782V10.3273C5.9898 10.2707 6.25955 10.1343 6.46952 9.92435C6.7528 9.64108 6.90257 9.24927 6.90257 8.79111L6.90261 6.22827H6.21944L6.21939 8.79111C6.21939 9.06405 6.1388 9.28893 5.98647 9.44122C5.90382 9.52387 5.79924 9.58456 5.67786 9.62356V6.22841H4.99469V9.62351C4.87335 9.58452 4.76882 9.52387 4.68621 9.44126C4.53384 9.28889 4.45325 9.0641 4.45329 8.79115V6.22836H3.77012V8.79115C3.77003 9.24922 3.91975 9.64112 4.20308 9.9244C4.41304 10.1343 4.68271 10.2707 4.99464 10.3273Z" fill="#FF370A" fill-opacity="0.5"/>
<path d="M17.3221 10.3091V15.4699H18.0053V10.3091C18.7033 10.1528 19.2267 9.52863 19.2266 8.78427L19.2267 7.44951C19.2265 6.58786 18.5254 5.88672 17.6637 5.88672C16.8019 5.88672 16.1007 6.58786 16.1007 7.44964V8.78427C16.1007 9.52876 16.6241 10.1529 17.3221 10.3091ZM16.7839 7.44964C16.7839 6.96453 17.1786 6.56989 17.6637 6.56989C18.1487 6.56989 18.5434 6.96457 18.5435 7.4496L18.5435 8.78427C18.5435 9.26938 18.1488 9.66402 17.6637 9.66406C17.1786 9.66402 16.7839 9.26934 16.7839 8.78427V7.44964Z" fill="#FF370A" fill-opacity="0.5"/>
</svg>
