<svg width="371" height="512" viewBox="0 0 371 512" fill="none" xmlns="http://www.w3.org/2000/svg">
<path d="M237.201 102.191C237.201 122.726 225.898 136.364 207.21 139.219V0H192.002V139.219C173.313 136.364 162.011 122.726 162.011 102.191V20.279H146.803V102.191C146.803 131.164 164.668 151.403 192.002 154.552V240.876H169.719V482.113C169.719 498.592 183.126 512 199.606 512C216.086 512 229.493 498.593 229.493 482.113V240.876H207.21V154.552C234.544 151.403 252.409 131.164 252.409 102.191V20.279H237.201V102.191V102.191ZM214.284 482.113C214.284 490.207 207.7 496.792 199.606 496.792C191.512 496.792 184.927 490.207 184.927 482.113V286.503H214.283V482.113H214.284ZM214.284 256.084V271.295H184.928V256.084H192.003H207.211H214.284Z" fill="black"/>
<path d="M355.592 240.876C365.092 231.423 370.982 218.345 370.982 203.915V52.168C370.983 23.403 347.58 0 318.813 0H311.209V240.876V256.084V482.113C311.209 498.592 324.616 512 341.096 512C357.575 512 370.984 498.593 370.984 482.113V240.876H355.592ZM326.417 15.995C343.162 19.511 355.774 34.395 355.774 52.169V203.917C355.774 221.692 343.162 236.576 326.417 240.093V15.995V15.995ZM355.775 482.113C355.775 490.207 349.19 496.792 341.096 496.792C333.002 496.792 326.417 490.207 326.417 482.113V286.503H355.774V482.113H355.775ZM355.775 271.295H326.418V256.084H355.775V271.295Z" fill="black"/>
<path d="M58.117 0C26.072 0 0 26.07 0 58.117V113.313C0 142.78 22.049 167.177 50.513 170.916V240.879H28.23V398.606H43.438V286.503H72.795V482.113C72.795 490.207 66.21 496.792 58.116 496.792C50.022 496.792 43.436 490.207 43.436 482.113V418.883H28.229V482.113C28.229 498.592 41.636 512 58.117 512C74.596 512 88.004 498.593 88.004 482.113V240.876H65.721V170.913C94.184 167.175 116.233 142.777 116.233 113.31V58.117C116.233 26.07 90.162 0 58.117 0ZM72.796 256.084V271.295H43.439V256.084H72.796ZM101.025 113.312C101.025 136.971 81.777 156.22 58.117 156.22C34.457 156.22 15.208 136.972 15.208 113.312V58.117C15.208 34.456 34.457 15.208 58.117 15.208C81.777 15.208 101.025 34.456 101.025 58.117V113.312V113.312Z" fill="black"/>
<path d="M70.6089 113.312C70.6089 120.2 65.0049 125.804 58.1169 125.804V141.012C73.3909 141.012 85.8169 128.586 85.8169 113.312V58.117H70.6089V113.312Z" fill="black"/>
</svg>
