<svg width="512" height="378" viewBox="0 0 512 378" fill="none" xmlns="http://www.w3.org/2000/svg">
<path d="M409.471 252.282C409.471 296.401 373.577 332.294 329.457 332.294V347.502C381.963 347.502 424.679 304.787 424.679 252.282H409.471V252.282Z" fill="black"/>
<path d="M428.019 73.908H376.395C372.871 56.576 357.514 43.492 339.157 43.492H281.709C284.028 39.295 285.351 34.474 285.351 29.35C285.351 13.167 272.185 0 256.001 0C239.818 0 226.651 13.167 226.651 29.35C226.651 34.475 227.975 39.295 230.293 43.492H172.845C154.488 43.492 139.131 56.576 135.607 73.908H83.981V89.116H428.019V73.908ZM256 15.207C263.798 15.207 270.142 21.552 270.142 29.349C270.142 37.146 263.797 43.491 256 43.491C248.203 43.491 241.858 37.147 241.858 29.349C241.858 21.552 248.202 15.207 256 15.207ZM151.355 73.887C154.493 65.047 162.94 58.699 172.843 58.699H339.157C349.06 58.699 357.508 65.047 360.645 73.887H151.355Z" fill="black"/>
<path d="M453.824 156.913C442.258 156.913 431.03 160.36 421.51 166.729C413.313 157.924 403.788 150.224 393.114 143.952L404.12 104.327H323.25V119.535H384.111L375.212 151.57L380.651 154.422C392.932 160.861 403.64 169.378 412.457 179.407L414.577 181.968C420.873 189.576 426.123 197.996 430.179 206.991L430.196 206.983C434.257 216.025 437.11 225.65 438.62 235.636C438.76 236.563 438.889 237.493 439.005 238.425C439.063 238.882 439.12 239.339 439.171 239.799C439.278 240.751 439.37 241.706 439.453 242.662C439.489 243.09 439.531 243.518 439.564 243.947C439.642 244.983 439.699 246.02 439.748 247.059C439.764 247.413 439.79 247.766 439.803 248.119C439.856 249.511 439.885 250.902 439.885 252.293C439.885 252.364 439.882 252.436 439.882 252.507C439.88 253.416 439.869 254.329 439.845 255.245C439.841 255.394 439.833 255.542 439.828 255.69C439.802 256.539 439.769 257.389 439.724 258.242C439.717 258.372 439.707 258.501 439.7 258.63C439.651 259.485 439.595 260.341 439.526 261.196C439.51 261.403 439.488 261.608 439.471 261.812C439.407 262.555 439.338 263.298 439.26 264.039C433.37 319.42 386.376 362.707 329.457 362.707H182.538C125.638 362.707 78.657 319.447 72.744 264.089C72.659 263.286 72.584 262.483 72.516 261.679C72.503 261.528 72.488 261.378 72.475 261.226C72.401 260.312 72.34 259.4 72.289 258.488C72.285 258.414 72.279 258.34 72.275 258.267C72.225 257.347 72.189 256.429 72.162 255.514C72.16 255.43 72.155 255.347 72.152 255.264C72.125 254.271 72.111 253.282 72.111 252.297C72.111 250.899 72.14 249.5 72.193 248.101C72.205 247.775 72.228 247.45 72.244 247.125C72.294 246.057 72.353 244.991 72.433 243.925C72.463 243.516 72.503 243.109 72.538 242.701C72.622 241.723 72.716 240.746 72.826 239.772C72.876 239.331 72.93 238.892 72.985 238.453C73.105 237.499 73.235 236.549 73.379 235.601C74.891 225.628 77.742 216.012 81.798 206.981L81.816 206.989V206.988C85.872 197.992 91.122 189.573 97.418 181.965L99.549 179.39C107.978 169.806 118.145 161.614 129.753 155.288H262.415V140.08H133.595L127.888 119.532H302.972V104.324H107.881L118.886 143.948C108.212 150.221 98.686 157.92 90.489 166.725C80.97 160.358 69.742 156.91 58.176 156.91C26.098 156.913 0 183.01 0 215.088C0 247.167 26.098 273.264 58.176 273.264C58.338 273.264 58.502 273.257 58.665 273.255C68.678 332.581 120.409 377.917 182.539 377.917H329.458C391.589 377.917 443.323 332.581 453.336 273.255C453.498 273.256 453.663 273.264 453.825 273.264C485.904 273.264 512.001 247.166 512.001 215.088C512 183.01 485.902 156.913 453.824 156.913ZM57.241 243.2C57.157 244.376 57.094 245.557 57.042 246.74C57.027 247.076 57.004 247.41 56.992 247.746C56.938 249.254 56.906 250.765 56.906 252.282C56.906 252.372 56.909 252.462 56.909 252.553C56.911 253.462 56.921 254.375 56.943 255.29C56.956 255.831 56.979 256.37 56.999 256.91C57.012 257.287 57.02 257.663 57.038 258.041C33.868 257.436 15.208 238.399 15.208 215.087C15.208 191.395 34.484 172.12 58.176 172.12C66.209 172.12 74.02 174.371 80.77 178.551C77.795 182.654 75.075 186.933 72.622 191.362C68.341 188.76 63.378 187.328 58.221 187.328C42.914 187.328 30.46 199.781 30.46 215.088C30.46 230.074 42.395 242.324 57.26 242.832C57.252 242.955 57.249 243.077 57.241 243.2ZM59.333 227.586C58.964 227.619 58.593 227.641 58.22 227.641C51.298 227.641 45.667 222.01 45.667 215.088C45.667 208.167 51.298 202.536 58.22 202.536C61.082 202.536 63.802 203.535 65.994 205.274C63.107 212.447 60.862 219.908 59.333 227.586ZM453.78 227.641C453.406 227.64 453.036 227.619 452.666 227.586C451.137 219.908 448.892 212.447 446.005 205.275C448.198 203.535 450.917 202.537 453.78 202.537C460.702 202.537 466.333 208.168 466.333 215.089C466.333 222.01 460.702 227.641 453.78 227.641ZM454.962 258.042C454.981 257.618 454.99 257.196 455.006 256.774C455.023 256.287 455.045 255.802 455.057 255.314C455.081 254.306 455.096 253.301 455.096 252.301C455.096 252.299 455.096 252.296 455.096 252.294C455.096 252.29 455.096 252.287 455.096 252.283C455.096 250.771 455.065 249.266 455.011 247.764C454.998 247.398 454.974 247.033 454.957 246.667C454.906 245.515 454.845 244.366 454.763 243.221C454.754 243.092 454.751 242.962 454.742 242.834C469.606 242.326 481.542 230.076 481.542 215.09C481.542 199.784 469.089 187.33 453.781 187.33C448.623 187.33 443.66 188.763 439.379 191.365C436.924 186.935 434.205 182.657 431.23 178.554C437.979 174.373 445.792 172.122 453.825 172.122C477.518 172.122 496.794 191.397 496.794 215.089C496.792 238.4 478.132 257.437 454.962 258.042Z" fill="black"/>
</svg>
