<svg width="375" height="512" viewBox="0 0 375 512" fill="none" xmlns="http://www.w3.org/2000/svg">
<path d="M309.177 37.369H213.342C197.669 37.369 184.918 50.12 184.918 65.794C184.918 81.466 197.668 94.217 213.342 94.217H309.177C324.85 94.217 337.602 81.467 337.602 65.794C337.602 50.121 324.851 37.369 309.177 37.369ZM309.177 79.009H213.342C206.054 79.009 200.126 73.081 200.126 65.794C200.126 58.506 206.055 52.577 213.342 52.577H309.177C316.465 52.577 322.394 58.506 322.394 65.794C322.394 73.081 316.466 79.009 309.177 79.009Z" fill="black"/>
<path d="M334.826 0H40.147C18.01 0 0 18.01 0 40.147V117.123V132.331V180.484C0 215.944 26.902 245.227 61.366 249.026V284.32H108.997V308.208C102.847 313.504 92.978 327.632 76.835 365.322C64.898 393.194 52.142 429.431 52.142 447.544C52.142 483.086 81.058 512.001 116.6 512.001C152.139 512 181.051 483.085 181.051 447.544C181.051 429.43 168.298 393.195 156.361 365.322C140.22 327.632 130.352 313.505 124.202 308.208V284.32H171.827V249.454H214.974V234.246H171.827H68.97C39.326 234.246 15.208 210.128 15.208 180.484V132.331H359.765V180.484C359.765 210.128 335.647 234.246 306.003 234.246H235.258V249.454H306.003C344.034 249.454 374.973 218.514 374.973 180.484V132.331V117.123V40.147C374.973 18.01 356.963 0 334.826 0ZM144.254 375.728C157.37 407.119 165.845 435.308 165.845 447.543C165.845 464.097 157.627 478.76 145.065 487.693C154.582 466.674 154.814 433.064 145.736 387.737C144.534 381.732 143.214 375.798 141.834 370.028C142.633 371.881 143.439 373.778 144.254 375.728ZM124.206 362.42C134.555 402.031 143.897 455.29 130.756 482.416C128.945 486.153 126.77 489.197 124.206 491.59V362.42ZM88.134 487.693C75.571 478.76 67.352 464.097 67.352 447.543C67.352 435.309 75.828 407.119 88.947 375.728C89.76 373.782 90.565 371.887 91.363 370.037C89.984 375.802 88.666 381.731 87.464 387.732C78.384 433.062 78.616 466.672 88.134 487.693ZM108.998 491.594C106.431 489.198 104.254 486.153 102.441 482.41C89.292 455.264 98.642 401.996 108.998 362.39V491.594ZM76.575 249.455H156.623V269.113H76.575V249.455ZM359.765 117.123H15.208V40.147C15.208 26.396 26.395 15.208 40.147 15.208H334.826C348.577 15.208 359.765 26.396 359.765 40.147V117.123Z" fill="black"/>
<path d="M93.786 155.871H78.578V210.701H93.786V155.871Z" fill="black"/>
<path d="M124.201 155.871H108.993V210.701H124.201V155.871Z" fill="black"/>
<path d="M154.617 155.871H139.409V210.701H154.617V155.871Z" fill="black"/>
</svg>
