<svg width="353" height="512" viewBox="0 0 353 512" fill="none" xmlns="http://www.w3.org/2000/svg">
<path d="M88.3238 189.086C75.5588 189.086 65.1748 199.471 65.1748 212.237V372.595H80.3828V212.237C80.3828 207.858 83.9458 204.294 88.3248 204.294C92.7038 204.294 96.2668 207.858 96.2668 212.237V446.775C96.2668 451.154 92.7038 454.718 88.3248 454.718C83.9458 454.718 80.3828 451.154 80.3828 446.775V392.875H65.1748V446.775C65.1748 459.541 75.5598 469.925 88.3238 469.925C101.088 469.925 111.474 459.54 111.474 446.775V212.237C111.474 199.471 101.089 189.086 88.3238 189.086Z" fill="black"/>
<path d="M176.145 469.925C188.91 469.925 199.295 459.54 199.295 446.775V212.237C199.295 199.471 188.91 189.086 176.145 189.086C163.38 189.086 152.996 199.471 152.996 212.237V446.775C152.996 459.54 163.38 469.925 176.145 469.925ZM168.203 212.237C168.203 207.858 171.766 204.294 176.145 204.294C180.524 204.294 184.087 207.858 184.087 212.237V446.775C184.087 451.154 180.524 454.718 176.145 454.718C171.766 454.718 168.203 451.154 168.203 446.775V212.237Z" fill="black"/>
<path d="M263.966 469.925C276.731 469.925 287.116 459.54 287.116 446.775V212.237C287.116 199.471 276.731 189.086 263.966 189.086C251.201 189.086 240.817 199.471 240.817 212.237V446.775C240.816 459.54 251.201 469.925 263.966 469.925ZM256.024 212.237C256.024 207.858 259.587 204.294 263.966 204.294C268.345 204.294 271.908 207.858 271.908 212.237V446.775C271.908 451.154 268.345 454.718 263.966 454.718C259.587 454.718 256.024 451.154 256.024 446.775V212.237Z" fill="black"/>
<path d="M295.274 67.592H242.002V47.625C242.001 21.364 220.636 0 194.376 0H157.913C131.653 0 110.288 21.364 110.288 47.625V67.592H57.0158C25.6168 67.592 0.0698242 93.137 0.0698242 124.538V162.219H11.3908V488.174C11.3908 501.312 22.0788 512 35.2168 512H317.073C330.211 512 340.899 501.312 340.899 488.174V162.219H352.22V124.537C352.219 93.137 326.673 67.592 295.274 67.592ZM125.497 47.625C125.497 29.751 140.039 15.208 157.914 15.208H194.377C212.251 15.208 226.794 29.751 226.794 47.625V67.592H211.586V47.625C211.586 38.136 203.866 30.416 194.377 30.416H157.914C148.425 30.416 140.705 38.136 140.705 47.625V67.592H125.497V47.625V47.625ZM196.379 47.625V67.592H196.378H155.914V47.625C155.914 46.522 156.811 45.624 157.915 45.624H194.378C195.48 45.624 196.379 46.522 196.379 47.625ZM337.011 147.011H325.69H135.928V162.219H325.69V488.174C325.69 492.926 321.824 496.792 317.072 496.792H35.2168C30.4648 496.792 26.5988 492.926 26.5988 488.174V162.219H115.651V147.011H26.5998H15.2788V124.537C15.2788 101.523 34.0018 82.8 57.0168 82.8H110.289H155.913H196.377H242.001H295.274C318.288 82.8 337.012 101.524 337.012 124.538V147.011H337.011Z" fill="black"/>
<path d="M263.966 116.594H90.4739V131.802H263.966V116.594Z" fill="black"/>
</svg>
