<svg width="443" height="512" viewBox="0 0 443 512" fill="none" xmlns="http://www.w3.org/2000/svg">
<path d="M427.911 256.082L255.916 84.087C253.4 81.57 250.671 79.393 247.795 77.537C255.317 64.837 259.673 48.852 259.673 38.528C259.673 17.284 242.389 0 221.144 0C199.899 0 182.616 17.284 182.616 38.528C182.616 48.852 186.973 64.837 194.495 77.537C191.619 79.393 188.891 81.57 186.375 84.087L14.3798 256.082C-4.79325 275.255 -4.79325 306.453 14.3798 325.627L47.0507 358.298L57.8037 347.545L47.2717 337.011L82.6748 301.608L118.079 337.012L82.6758 372.415L72.1448 361.884L61.3918 372.637L186.375 497.621C195.962 507.207 208.554 512.001 221.147 512.001C233.74 512.001 246.332 507.207 255.919 497.621L427.913 325.627C447.084 306.453 447.084 275.254 427.911 256.082ZM395.019 244.697L359.615 280.101L324.212 244.697L359.616 209.294L395.019 244.697ZM231.9 244.697L267.303 209.294L302.706 244.697L267.302 280.1L231.9 244.697ZM256.548 290.854L221.145 326.257L185.742 290.854L221.145 255.451L256.548 290.854ZM221.145 233.943L185.742 198.539L221.145 163.136L256.548 198.54L221.145 233.943ZM210.392 244.697L174.989 280.1L139.585 244.696L174.988 209.293L210.392 244.697ZM210.392 337.011L174.988 372.415L139.585 337.012L174.989 301.608L210.392 337.011ZM221.145 347.765L256.549 383.168L221.145 418.571L185.741 383.168L221.145 347.765ZM231.899 337.01L267.303 301.607L302.706 337.01L267.303 372.413L231.899 337.01ZM278.057 290.854L313.46 255.451L348.863 290.854L313.46 326.257L278.057 290.854ZM348.862 198.54L313.458 233.943L278.055 198.542L313.459 163.138L348.862 198.54ZM302.706 152.384L267.302 187.787L231.898 152.383L267.302 116.98L302.706 152.384ZM221.144 15.209C234.002 15.209 244.464 25.67 244.464 38.529C244.464 46.982 240.282 61.132 233.782 71.328C233.499 71.253 233.21 71.201 232.926 71.131C232.831 71.108 232.734 71.087 232.639 71.065C230.522 70.558 228.371 70.195 226.2 69.974C225.981 69.952 225.763 69.93 225.544 69.91C224.892 69.852 224.24 69.802 223.585 69.77C223.43 69.762 223.275 69.761 223.12 69.755C221.799 69.702 220.478 69.702 219.157 69.755C219.007 69.761 218.858 69.762 218.709 69.769C218.051 69.8 217.394 69.852 216.738 69.91C216.525 69.929 216.313 69.95 216.1 69.972C213.918 70.194 211.756 70.559 209.629 71.069C209.543 71.089 209.456 71.108 209.369 71.129C209.082 71.2 208.791 71.253 208.505 71.329C202.006 61.133 197.823 46.983 197.823 38.529C197.825 25.67 208.286 15.209 221.144 15.209ZM197.128 94.842C210.372 81.599 231.919 81.599 245.163 94.842L256.548 106.227L221.145 141.63L185.742 106.227L197.128 94.842ZM174.988 116.98L210.391 152.383L174.988 187.786L139.585 152.383L174.988 116.98ZM128.832 163.137L164.235 198.54L128.831 233.944L93.4278 198.541L128.832 163.137ZM36.5168 326.257L25.1327 314.873C11.8887 301.628 11.8887 280.08 25.1327 266.836L36.5168 255.452L71.9198 290.855L36.5168 326.257ZM47.2717 244.698L82.6748 209.295L118.079 244.697L82.6738 280.1L47.2717 244.698ZM93.4278 290.854L128.832 255.45L164.236 290.854L128.832 326.258L93.4278 290.854ZM93.4287 383.168L128.832 347.765L164.235 383.168L128.832 418.571L93.4287 383.168ZM139.585 429.324L174.988 393.921L210.392 429.325L174.989 464.728L139.585 429.324ZM245.163 486.866C231.92 500.111 210.371 500.11 197.127 486.866L185.743 475.482L221.145 440.08L256.548 475.483L245.163 486.866ZM267.301 464.728L231.898 429.325L267.302 393.921L302.705 429.324L267.301 464.728ZM313.46 418.571L278.057 383.168L313.46 347.765L348.863 383.168L313.46 418.571ZM359.617 372.415L324.213 337.011L359.616 301.608L395.02 337.012L359.617 372.415ZM417.158 314.872L405.773 326.257L370.369 290.853L405.773 255.449L417.158 266.834C430.4 280.079 430.4 301.629 417.158 314.872Z" fill="black"/>
</svg>
