<svg width="424" height="512" viewBox="0 0 424 512" fill="none" xmlns="http://www.w3.org/2000/svg">
<path d="M367.265 193.025L423.207 143.613V108.59H373.452L264.969 55.207L272.879 0H205.036L212.941 55.208L104.461 108.59H53.87C24.166 108.59 0 132.755 0 162.459V276.279H45.624V162.459C45.624 157.913 49.323 154.214 53.87 154.214H104.526L128.135 303.937H145.313V349.567H128.356L97.018 512H140.312V496.792H115.44L140.91 364.774H145.312H196.073L187.582 496.792H160.59V512H380.892L349.555 349.566H332.598V303.936H349.776L367.265 193.025ZM373.822 151.44L378.181 123.798H408V136.755L370.983 169.451L373.822 151.44ZM53.87 139.005C40.937 139.005 30.416 149.526 30.416 162.458V261.07H15.209V162.458C15.209 141.141 32.552 123.797 53.871 123.797H99.722L102.095 139.005H53.87ZM255.336 15.208L250.068 51.987H227.843L222.576 15.208H255.336V15.208ZM223.025 67.195H254.889L339.008 108.59H138.904L223.025 67.195ZM275.184 123.798L266.515 288.729H211.395L202.725 123.798H275.184V123.798ZM141.132 288.728L115.125 123.797H187.497L196.167 288.728H145.312H141.132ZM160.521 349.566V334.355H194.543V319.147H160.521V303.936H317.391V319.147H214.822V334.355H317.39V349.566H160.521ZM202.822 496.792L211.313 364.774H266.601L275.09 496.792H202.822V496.792ZM337 364.774L362.47 496.792H290.328L281.839 364.774H332.598H337ZM336.78 288.728H332.598H281.745L290.413 123.797H362.785L355.692 168.785L336.78 288.728Z" fill="black"/>
</svg>
