<svg width="512" height="414" viewBox="0 0 512 414" fill="none" xmlns="http://www.w3.org/2000/svg">
<path d="M354.174 0V15.283H486.065L459.086 63.996V159.823V350.036C459.086 376.538 437.527 398.098 411.026 398.098H156.006C129.505 398.098 107.945 376.538 107.945 350.036V159.824V45.849V15.283H333.547V0H107.945H92.662H54.135C24.284 0 0 24.285 0 54.134V239.842H45.849V54.134C45.849 49.565 49.566 45.849 54.135 45.849H92.662V159.824V350.037C92.662 384.966 121.078 413.381 156.005 413.381H411.025C445.951 413.381 474.367 384.965 474.367 350.037V159.824V67.946L512 0H354.174V0ZM92.662 30.566H54.135C41.138 30.566 30.566 41.139 30.566 54.134V224.56H15.283V54.134C15.283 32.711 32.712 15.283 54.135 15.283H92.662V30.566Z" fill="black"/>
<path d="M443.805 96.54H428.522V173.066H443.805V96.54Z" fill="black"/>
<path d="M443.803 350.036V193.446H428.52V350.036C428.52 359.684 420.673 367.532 411.026 367.532H343.865V382.815H411.026C429.099 382.815 443.803 368.111 443.803 350.036Z" fill="black"/>
<path d="M245.035 61.879H135.447V77.162H245.035V61.879Z" fill="black"/>
<path d="M215.427 97.9771H135.447V113.26H215.427V97.9771Z" fill="black"/>
<path d="M245.035 134.075H135.447V149.358H245.035V134.075Z" fill="black"/>
<path d="M215.427 170.173H135.447V185.456H215.427V170.173Z" fill="black"/>
<path d="M215.427 242.369H135.447V257.652H215.427V242.369Z" fill="black"/>
<path d="M245.035 206.271H135.447V221.554H245.035V206.271Z" fill="black"/>
<path d="M245.035 278.468H135.447V293.751H245.035V278.468Z" fill="black"/>
</svg>
