<svg width="512" height="512" viewBox="0 0 512 512" fill="none" xmlns="http://www.w3.org/2000/svg">
<path d="M504.151 7.85C499.091 2.788 492.361 0 485.206 0C478.049 0.001 471.321 2.788 466.259 7.849L199.727 274.381C178.749 260.692 154.522 253.491 129.255 253.491C94.73 253.491 62.27 266.937 37.857 291.35C13.445 315.762 0 348.221 0 382.746C0 417.271 13.445 449.73 37.857 474.143C62.27 498.555 94.729 512.001 129.254 512C129.256 512 129.256 512 129.258 512C163.78 512 196.239 498.554 220.651 474.143C245.064 449.73 258.509 417.27 258.509 382.746C258.509 357.48 251.307 333.255 237.62 312.277L287.857 262.041L277.103 251.287L217.803 310.587L221.616 315.841C235.804 335.39 243.303 358.526 243.303 382.747C243.303 413.21 231.44 441.85 209.899 463.391C188.358 484.931 159.719 496.794 129.256 496.793C98.792 496.793 70.152 484.931 48.612 463.39C27.069 441.85 15.207 413.21 15.207 382.747C15.207 352.284 27.069 323.645 48.61 302.104C70.151 280.563 98.791 268.7 129.254 268.7C153.477 268.7 176.613 276.199 196.163 290.389L201.417 294.201L477.013 18.603C479.202 16.414 482.111 15.208 485.205 15.208C488.299 15.208 491.208 16.413 493.398 18.604C495.586 20.792 496.792 23.702 496.792 26.797C496.792 29.892 495.587 32.802 493.397 34.99L291.44 236.947L302.194 247.701L504.15 45.744C509.21 40.683 511.998 33.954 511.998 26.797C511.998 19.64 509.211 12.91 504.151 7.85Z" fill="black"/>
<path d="M117.986 308.583H94.084V323.791H117.986V308.583Z" fill="black"/>
<path d="M164.217 308.583H140.315V323.791H164.217V308.583Z" fill="black"/>
<path d="M71.755 353.02H47.853V368.228H71.755V353.02Z" fill="black"/>
<path d="M117.986 353.02H94.084V368.228H117.986V353.02Z" fill="black"/>
<path d="M164.217 353.02H140.315V368.228H164.217V353.02Z" fill="black"/>
<path d="M210.448 353.02H186.547V368.228H210.448V353.02Z" fill="black"/>
<path d="M71.755 397.467H47.853V412.675H71.755V397.467Z" fill="black"/>
<path d="M117.986 397.467H94.084V412.675H117.986V397.467Z" fill="black"/>
<path d="M164.217 397.467H140.315V412.675H164.217V397.467Z" fill="black"/>
<path d="M210.448 397.467H186.547V412.675H210.448V397.467Z" fill="black"/>
<path d="M117.986 441.904H94.084V457.112H117.986V441.904Z" fill="black"/>
<path d="M164.217 441.904H140.315V457.112H164.217V441.904Z" fill="black"/>
</svg>
