<svg width="432" height="512" viewBox="0 0 432 512" fill="none" xmlns="http://www.w3.org/2000/svg">
<path d="M165.523 292.408V377.125C165.523 383.554 170.754 388.784 177.182 388.784H214.18V373.576H180.731V292.407H165.523V292.408Z" fill="black"/>
<path d="M431.401 139.943V33.964C431.401 15.236 416.164 0 397.436 0H34.4819C15.7539 0 0.517944 15.236 0.517944 33.964V139.943H38.0269V320.003H53.2349V139.943H114.829V155.918H67.8739V171.126H114.829V182.54C114.829 193.441 123.698 202.31 134.599 202.31H297.319C308.22 202.31 317.089 193.441 317.089 182.54V139.943H378.683V403.991H287.087C293.154 396.697 296.81 387.33 296.81 377.124V373.367H307.234C333.209 373.367 354.342 352.234 354.342 326.259C354.342 300.283 333.209 279.151 307.234 279.151H296.81V254.388H253.979V269.596H281.603V377.125C281.603 391.94 269.55 403.992 254.736 403.992H177.184C162.369 403.992 150.317 391.939 150.317 377.125V269.596H233.703V254.388H135.109V377.125C135.109 387.332 138.765 396.699 144.832 403.992H53.2339V340.282H38.0259V403.992H0.517944V462.829C0.517944 481.557 15.7539 496.793 34.4819 496.793H47.1569V512H62.3649V496.793H77.5759V512H92.7839V496.793H339.134V512H354.342V496.793H369.553V512H384.761V496.793H397.436C416.164 496.793 431.4 481.557 431.4 462.829V403.992H393.891V139.943H431.401ZM296.81 294.358H307.234C324.825 294.358 339.134 308.669 339.134 326.258C339.134 343.847 324.824 358.158 307.234 358.158H296.81V294.358ZM297.319 187.103H134.599C132.084 187.103 130.037 185.056 130.037 182.541V171.127H215.959V155.919H130.036V139.944H145.987H285.929H301.88V182.541H301.881C301.882 185.056 299.835 187.103 297.319 187.103ZM208.355 90.251V124.735H161.721C165.434 98.124 188.342 77.575 215.959 77.575C243.575 77.575 266.483 98.125 270.197 124.735H223.563V90.251H208.355ZM416.193 419.199V462.829C416.193 473.171 407.779 481.585 397.437 481.585H384.762H369.554H354.343H339.135H92.785H77.5769H62.3659H47.1569H34.4819C24.1399 481.585 15.7259 473.171 15.7259 462.829V419.199H38.0269H177.184H254.736H393.892H416.193V419.199ZM317.09 124.735H316.06C312.16 72.92 268.755 31.952 215.959 31.952V47.16C260.363 47.16 296.92 81.319 300.781 124.736H285.51C281.707 89.718 251.971 62.368 215.959 62.368C179.947 62.368 150.211 89.718 146.408 124.736H114.828H38.0259H15.7249V33.964C15.7249 23.622 24.1389 15.208 34.4809 15.208H397.435C407.777 15.208 416.191 23.622 416.191 33.964V124.735H393.89H317.09Z" fill="black"/>
<path d="M181.072 434.409H107.476V449.617H181.072V434.409Z" fill="black"/>
<path d="M393.374 434.409H201.349V449.617H393.374V434.409Z" fill="black"/>
</svg>
