<svg width="456" height="512" viewBox="0 0 456 512" fill="none" xmlns="http://www.w3.org/2000/svg">
<path d="M418.553 224.494H408.224H400.62H173.445L193.961 267.031H212.376V279.152H184.54V408.25H212.376V420.371H162.271V135.186H219.272V174.926C219.272 189.013 230.733 200.473 244.819 200.473H341.353C355.441 200.473 366.9 189.012 366.9 174.926V135.186H439.109V0H0V135.186H20.279V420.369H0V481.584H439.111V420.369H373.797V408.248H401.633V279.151H373.797V267.03H408.225V239.701H418.554C430.772 239.701 440.711 249.641 440.711 261.846L440.55 360.415L455.758 360.439L455.919 261.858C455.919 241.256 439.157 224.494 418.553 224.494ZM351.694 174.927C351.694 180.628 347.056 185.266 341.355 185.266H244.821C239.12 185.266 234.482 180.628 234.482 174.927V135.187H351.695V174.927H351.694ZM15.208 119.978V15.208H423.903V119.978H366.902H219.273H162.272H20.279H15.208ZM147.065 135.186V420.369H35.487V135.186H147.065ZM373.797 435.577H423.903V466.376H15.208V435.577H20.279H162.272H212.377H373.797ZM386.425 294.358V393.04H366.193V393.025H329.052V408.233H358.589V420.368H227.585V408.233H308.775V393.025H219.981V393.04H199.749V294.358H219.981H227.585H308.775V279.15H227.585V267.03H358.589V279.151H329.052V294.359H358.589H366.193H386.425V294.358ZM393.016 251.822H373.797H212.377H203.511L197.665 239.701H393.016V251.822Z" fill="black"/>
<path d="M401.087 81.3621H107.016V96.5701H401.087V81.3621Z" fill="black"/>
<path d="M86.739 81.3621H38.023V96.5701H86.739V81.3621Z" fill="black"/>
<path d="M255.06 40.132H239.852V68.692H255.06V40.132Z" fill="black"/>
<path d="M285.486 40.132H270.278V68.692H285.486V40.132Z" fill="black"/>
<path d="M315.902 40.132H300.694V68.692H315.902V40.132Z" fill="black"/>
<path d="M346.318 40.132H331.11V68.692H346.318V40.132Z" fill="black"/>
<path d="M371.218 305.345H356.01V382.064H371.218V305.345Z" fill="black"/>
<path d="M439.114 496.792H0V512H439.114V496.792Z" fill="black"/>
</svg>
