<svg width="512" height="285" viewBox="0 0 512 285" fill="none" xmlns="http://www.w3.org/2000/svg">
<path d="M395.327 268.392H116.684V284.065H395.327V268.392Z" fill="black"/>
<path d="M247.295 83.5389H228.655V99.2119H247.295V83.5389Z" fill="black"/>
<path d="M283.344 83.5389H264.704V99.2119H283.344V83.5389Z" fill="black"/>
<path d="M211.246 118.198H192.606V133.871H211.246V118.198Z" fill="black"/>
<path d="M247.295 118.198H228.655V133.871H247.295V118.198Z" fill="black"/>
<path d="M283.344 118.198H264.704V133.871H283.344V118.198Z" fill="black"/>
<path d="M319.402 118.198H300.763V133.871H319.402V118.198Z" fill="black"/>
<path d="M211.246 152.847H192.606V168.52H211.246V152.847Z" fill="black"/>
<path d="M247.295 152.847H228.655V168.52H247.295V152.847Z" fill="black"/>
<path d="M283.344 152.847H264.704V168.52H283.344V152.847Z" fill="black"/>
<path d="M319.402 152.847H300.763V168.52H319.402V152.847Z" fill="black"/>
<path d="M247.295 187.506H228.655V203.179H247.295V187.506Z" fill="black"/>
<path d="M283.344 187.506H264.704V203.179H283.344V187.506Z" fill="black"/>
<path d="M465.57 71.747C466.56 63.476 467.082 55.064 467.082 46.53V0H44.917V46.53C44.917 55.064 45.439 63.475 46.429 71.747H0V87.42H48.906C68.003 184.306 153.596 257.61 256 257.61C358.404 257.61 443.997 184.306 463.094 87.42H512V71.747H465.57ZM256 241.938C148.251 241.938 60.591 154.278 60.591 46.532V15.675H451.409V46.532H451.41C451.409 154.279 363.749 241.938 256 241.938Z" fill="black"/>
<path d="M366.132 38.692H84.104V54.365H366.132V38.692Z" fill="black"/>
<path d="M427.906 38.692H387.03V54.365H427.906V38.692Z" fill="black"/>
</svg>
