<svg width="512" height="343" viewBox="0 0 512 343" fill="none" xmlns="http://www.w3.org/2000/svg">
<path d="M132.309 290.206H496.151C492.526 311.477 473.961 327.722 451.674 327.722H60.326C38.039 327.722 19.474 311.478 15.849 290.206H112.033V274.998H0V282.602C0 315.868 27.062 342.93 60.326 342.93H451.675C484.939 342.93 512.001 315.868 512.001 282.602V274.998H132.309V290.206Z" fill="black"/>
<path d="M130.96 38.02H115.752V85.154H130.96V38.02Z" fill="black"/>
<path d="M137.715 180.823C150.391 200.663 167.976 217.128 188.564 228.436L195.885 215.106C177.523 205.022 161.84 190.335 150.531 172.636C137.727 152.597 130.96 129.359 130.96 105.434H115.752C115.752 132.266 123.347 158.336 137.715 180.823Z" fill="black"/>
<path d="M328.9 259.79H471.951V244.582H354.813C372.667 231.891 388.004 215.841 399.915 197.199C405.686 188.167 410.54 178.654 414.481 168.799H448.634C483.575 168.799 512 140.373 512 105.433C512 70.493 483.575 42.069 448.634 42.069H426.664V0H235.723V15.208H411.456V30.416H256V45.624H411.456V92.762V105.433C411.456 112.043 411.016 118.606 410.194 125.099C410.028 126.414 409.848 127.727 409.65 129.037C409.636 129.129 409.62 129.222 409.605 129.314C408.988 133.314 408.209 137.287 407.283 141.222C407.203 141.562 407.127 141.901 407.045 142.24C406.776 143.348 406.492 144.452 406.199 145.553C406.077 146.01 405.953 146.467 405.826 146.924C405.53 147.998 405.228 149.069 404.908 150.137C404.794 150.517 404.672 150.894 404.554 151.274C403.806 153.705 403.006 156.12 402.139 158.508C402.127 158.542 402.116 158.577 402.103 158.611L401.64 159.883C397.848 170.029 392.992 179.793 387.1 189.012C371.891 212.814 350.578 231.998 325.38 244.584H186.619C161.422 231.999 140.108 212.815 124.899 189.012C108.965 164.074 100.544 135.174 100.544 105.434V15.208H215.445V0H85.336V105.433C85.336 138.08 94.585 169.812 112.085 197.199C123.997 215.842 139.333 231.891 157.187 244.582H40.048V259.79H183.1H328.9V259.79ZM426.664 105.434V92.763H448.634C455.623 92.763 461.307 98.447 461.307 105.434C461.307 112.422 455.622 118.107 448.634 118.107H426.189C426.499 113.903 426.664 109.677 426.664 105.434ZM421.063 148.839C421.089 148.74 421.118 148.641 421.144 148.542C421.511 147.131 421.85 145.713 422.181 144.294C422.265 143.932 422.353 143.571 422.436 143.209C422.747 141.834 423.036 140.453 423.313 139.07C423.39 138.683 423.467 138.296 423.542 137.909C423.814 136.499 424.069 135.085 424.306 133.667C424.325 133.549 424.351 133.432 424.37 133.313H448.635C464.008 133.313 476.516 120.806 476.516 105.432C476.516 90.06 464.008 77.553 448.635 77.553H426.665V57.276H448.634V57.277C475.188 57.277 496.792 78.88 496.792 105.433C496.792 131.987 475.188 153.591 448.634 153.591H419.757C420.22 152.015 420.646 150.429 421.063 148.839Z" fill="black"/>
</svg>
