<svg width="512" height="494" viewBox="0 0 512 494" fill="none" xmlns="http://www.w3.org/2000/svg">
<path d="M352.426 378.946H337.217V420.143H352.426V378.946Z" fill="black"/>
<path d="M256.252 196.894V212.103C300.895 212.103 337.214 248.421 337.214 293.063V358.666H352.423V293.063C352.421 240.035 309.281 196.894 256.252 196.894Z" fill="black"/>
<path d="M484.112 187.977V187.978C434.942 187.978 394.94 227.98 394.94 277.148L394.93 291.434C394.93 297.304 390.155 302.079 384.285 302.079H382.838V293.061C382.838 250.848 362.063 213.401 330.206 190.389C338.877 179.786 343.717 166.431 343.717 152.553V74.969C343.717 42.017 316.908 15.209 283.956 15.209H279.249V0H112.137V15.21H98.882C65.93 15.21 39.121 42.018 39.121 74.97V152.555C39.121 166.433 43.961 179.788 52.632 190.391C20.775 213.402 0 250.849 0 293.062V493.702H382.839V417.218C420.101 413.399 449.266 381.829 449.266 343.576V277.151C449.266 257.937 464.897 242.305 484.112 242.305H511.999V187.979H484.112V187.977ZM127.345 15.208H264.043V30.42H127.345V15.208ZM54.329 74.969C54.329 50.403 74.315 30.418 98.881 30.418H112.135V45.629H279.25V30.418H283.957C308.523 30.418 328.509 50.404 328.509 74.969V152.554C328.509 163.522 324.444 174.048 317.228 182.161C300.037 172.672 280.42 167.058 259.561 166.519V151.323H301.935V133.576C301.935 118.202 289.427 105.693 274.052 105.693H214.97C216.444 102.444 217.272 98.843 217.272 95.05C217.272 80.794 205.675 69.198 191.42 69.198C177.165 69.198 165.568 80.795 165.568 95.05C165.568 98.843 166.396 102.444 167.87 105.693H108.786C93.411 105.693 80.903 118.202 80.903 133.576V151.323H123.277V166.519C102.418 167.056 82.802 172.67 65.611 182.161C58.395 174.049 54.329 163.523 54.329 152.554V74.969V74.969ZM123.277 136.115H96.112V133.577C96.112 126.588 101.797 120.903 108.786 120.903H274.054C281.043 120.903 286.728 126.588 286.728 133.577V136.115H259.562H123.277ZM244.353 151.324V166.477H138.486V151.324H244.353ZM180.776 95.052C180.776 89.184 185.551 84.409 191.419 84.409C197.287 84.409 202.062 89.184 202.062 95.052C202.062 100.921 197.287 105.695 191.419 105.695C185.551 105.695 180.776 100.92 180.776 95.052ZM367.63 302.079V417.606V478.492H15.209V293.062C15.209 232.757 63.389 183.496 123.278 181.739V181.744H259.562V181.739C319.452 183.495 367.631 232.756 367.631 293.062V302.079H367.63ZM484.112 227.095C456.511 227.095 434.057 249.549 434.057 277.148V343.575C434.057 373.434 411.695 398.169 382.838 401.908V317.287H384.285C397.918 317.287 409.121 306.679 410.073 293.284L410.148 293.126V277.148C410.148 236.364 443.328 203.186 484.111 203.186H496.789V227.095H484.112V227.095Z" fill="black"/>
</svg>
