<svg width="361" height="512" viewBox="0 0 361 512" fill="none" xmlns="http://www.w3.org/2000/svg">
<path d="M65.649 479.757L67.783 481.584H126.661V466.376H73.441C38.833 435.714 19.04 391.845 19.04 345.571C19.04 268.68 73.712 202.105 149.038 187.27L155.173 186.062V145.52H205.621V186.063L211.756 187.271C287.082 202.106 341.754 268.681 341.754 345.572C341.754 391.847 321.961 435.714 287.353 466.377H146.939V481.585H293.008L295.142 479.758C334.428 446.132 356.96 397.224 356.96 345.571C356.96 263.534 300.081 192.229 220.828 173.671V114.805C230.254 113.166 237.443 104.925 237.443 95.037V68.198C237.443 57.134 228.443 48.133 217.38 48.133H212.258L218.675 0H142.116L148.535 48.133H143.413C132.35 48.133 123.35 57.134 123.35 68.198V95.038C123.35 104.926 130.539 113.167 139.965 114.806V173.672C60.709 192.229 3.83203 263.535 3.83203 345.571C3.83203 397.223 26.363 446.131 65.649 479.757ZM201.305 15.208L196.914 48.133H163.878L159.487 15.208H201.305V15.208ZM138.557 95.037V68.198C138.557 65.519 140.735 63.341 143.412 63.341H150.563H210.229H217.38C220.058 63.341 222.235 65.52 222.235 68.198V95.038C222.235 97.717 220.057 99.895 217.38 99.895H213.224H205.62H180.396V115.103H205.62V130.311H155.172V99.896H143.412C140.736 99.895 138.557 97.716 138.557 95.037Z" fill="black"/>
<path d="M272.945 438.185L283.696 448.943C306.852 425.804 321.711 395.183 325.538 362.72L310.436 360.94C307.006 390.02 293.692 417.453 272.945 438.185Z" fill="black"/>
<path d="M291.988 251.265C270.645 225.979 241.107 208.551 208.816 202.192L205.878 217.113C234.792 222.807 261.245 238.42 280.368 261.075C299.456 283.691 310.435 312.355 311.283 341.787L326.485 341.349C325.537 308.493 313.287 276.5 291.988 251.265Z" fill="black"/>
<path d="M360.783 496.792H0V512H360.783V496.792Z" fill="black"/>
</svg>
