<svg width="513" height="513" viewBox="0 0 513 513" fill="none" xmlns="http://www.w3.org/2000/svg">
<path d="M99.445 315.183C94.896 310.635 87.488 310.631 82.932 315.178L47.156 350.958C40.71 357.401 37.161 365.979 37.161 375.114C37.161 384.247 40.71 392.827 47.155 399.273L112.737 464.855C119.18 471.3 127.76 474.848 136.894 474.848C146.028 474.848 154.607 471.299 161.053 464.855L196.827 429.081C199.03 426.877 200.244 423.944 200.244 420.824C200.244 417.704 199.029 414.77 196.826 412.569L161.715 377.452L138.251 400.92L111.089 373.758L134.551 350.29L99.445 315.183ZM138.253 422.431L161.716 398.963L183.575 420.826L150.299 454.102C146.727 457.674 141.967 459.641 136.895 459.641C131.824 459.641 127.064 457.675 123.493 454.102L57.909 388.519C54.337 384.946 52.369 380.186 52.369 375.114C52.369 370.043 54.336 365.285 57.909 361.713L91.185 328.433L113.044 350.292L89.582 373.758L138.253 422.431Z" fill="black"/>
<path d="M467.198 81.851C472.147 76.903 474.872 70.326 474.873 63.328C474.873 56.333 472.148 49.755 467.201 44.808C467.201 44.808 467.201 44.808 467.2 44.807C462.253 39.861 455.677 37.138 448.681 37.137C448.68 37.137 448.68 37.137 448.679 37.137C441.683 37.137 435.105 39.862 430.159 44.808C419.948 55.02 419.948 71.637 430.16 81.852C435.108 86.799 441.685 89.522 448.681 89.521C455.678 89.522 462.254 86.797 467.198 81.851ZM440.914 55.563C442.987 53.489 445.745 52.346 448.679 52.346H448.68C451.614 52.346 454.372 53.489 456.448 55.564H456.449C458.523 57.638 459.666 60.396 459.666 63.329C459.666 66.263 458.523 69.02 456.446 71.098C454.373 73.171 451.615 74.314 448.681 74.314C445.747 74.314 442.988 73.172 440.914 71.099C436.631 66.815 436.631 59.845 440.914 55.563Z" fill="black"/>
<path d="M493.46 18.551C481.498 6.587 465.595 0 448.679 0C431.763 0.001 415.859 6.589 403.898 18.552L229.386 193.062C214.139 208.309 207.773 230.189 212.238 251.101L150.067 313.274L125.71 288.92C116.488 279.697 104.227 274.619 91.185 274.619C78.143 274.619 65.882 279.699 56.66 288.919L20.886 324.691C7.418 338.16 0 356.067 0 375.114C0 394.162 7.418 412.068 20.887 425.537L86.469 491.121C99.938 504.592 117.846 512.011 136.894 512.01C155.942 512.009 173.849 504.592 187.317 491.122L223.091 455.349C242.128 436.312 242.128 405.334 223.091 386.297L198.737 361.942L260.908 299.769C281.813 304.237 303.696 297.874 318.946 282.626L348.239 253.333L337.485 242.578L308.192 271.871C295.778 284.284 277.579 288.947 260.699 284.044L256.381 282.79L177.23 361.943L212.338 397.053C225.446 410.16 225.446 431.489 212.338 444.597L176.564 480.369C165.967 490.965 151.879 496.803 136.894 496.803C121.908 496.803 107.82 490.967 97.223 480.37L31.641 414.784C9.768 392.911 9.768 357.32 31.641 335.447L67.415 299.675C73.765 293.325 82.207 289.828 91.186 289.828C100.165 289.828 108.607 293.325 114.956 299.675L150.067 334.784L229.217 255.632L227.964 251.314C223.064 234.429 227.729 216.229 240.139 203.818L414.653 29.308C423.742 20.218 435.826 15.212 448.679 15.211C461.533 15.211 473.616 20.217 482.705 29.307C491.794 38.396 496.8 50.48 496.8 63.333C496.8 76.186 491.794 88.27 482.705 97.359L351.824 228.237L362.578 238.992L493.458 108.111C505.419 96.15 512.008 80.246 512.008 63.33C512.008 46.414 505.422 30.511 493.46 18.551Z" fill="black"/>
<path d="M373.748 113.229L362.994 102.474L250.894 214.57C242.404 223.06 239.215 235.514 242.571 247.073L257.177 242.833C255.368 236.601 257.082 229.891 261.649 225.325L373.748 113.229Z" fill="black"/>
</svg>
