<svg width="429" height="512" viewBox="0 0 429 512" fill="none" xmlns="http://www.w3.org/2000/svg">
<path d="M201.707 435.96V144.834H178.729V108.651H127.845L119.737 0.001L81.97 0L73.863 108.651H22.978V144.834H0V382.732H15.208V160.042H30.582H38.186H62.979V144.834H38.186V123.859H72.727H128.979H163.52V144.834H83.258V160.042H163.52H171.124H186.498V175.25H113.673V190.458H186.498V435.96H15.208V403.01H0V435.961V481.585H201.707V435.96ZM89.112 108.651L96.085 15.207L105.62 15.208L112.593 108.651H89.112ZM186.499 466.376H15.208V451.168H186.499V466.376Z" fill="black"/>
<path d="M405.786 144.834V108.651H354.902L346.793 0.001L309.027 0L300.92 108.651H250.036V144.834H227.058V382.732H242.266V160.042H257.64H265.244H290.037V144.834H265.244V123.859H299.785H356.037H390.578V144.834H310.316V160.042H390.578H398.182H413.556V175.25H340.732V190.458H413.557V435.96H242.265V403.01H227.057V435.961V481.585H428.764V435.96V144.834H405.786ZM316.17 108.651L323.142 15.207L332.677 15.208L339.65 108.651H316.17ZM413.556 466.376H242.265V451.168H413.556V466.376Z" fill="black"/>
<path d="M201.709 496.792H0.000999451V512H201.709V496.792Z" fill="black"/>
<path d="M428.763 496.792H227.055V512H428.763V496.792Z" fill="black"/>
<path d="M160.26 298.002C160.26 265.244 133.611 238.595 100.854 238.595C68.097 238.595 41.448 265.244 41.448 298.002C41.448 330.759 68.097 357.408 100.854 357.408C133.611 357.407 160.26 330.758 160.26 298.002ZM56.656 298.002C56.656 273.631 76.483 253.803 100.854 253.803C125.225 253.803 145.052 273.631 145.052 298.002C145.052 322.373 125.225 342.2 100.854 342.2C76.483 342.2 56.656 322.373 56.656 298.002Z" fill="black"/>
<path d="M387.316 298.002C387.316 265.244 360.667 238.595 327.91 238.595C295.153 238.595 268.504 265.244 268.504 298.002C268.504 330.759 295.153 357.408 327.91 357.408C360.667 357.407 387.316 330.758 387.316 298.002ZM283.712 298.002C283.712 273.631 303.539 253.803 327.91 253.803C352.281 253.803 372.108 273.631 372.108 298.002C372.108 322.373 352.281 342.2 327.91 342.2C303.539 342.2 283.712 322.373 283.712 298.002Z" fill="black"/>
<path d="M114.636 298.002H129.844C129.844 282.015 116.839 269.011 100.854 269.011V284.219C108.454 284.219 114.636 290.402 114.636 298.002Z" fill="black"/>
<path d="M341.693 298.002H356.901C356.901 282.015 343.896 269.011 327.911 269.011V284.219C335.51 284.219 341.693 290.402 341.693 298.002Z" fill="black"/>
</svg>
