<svg width="512" height="320" viewBox="0 0 512 320" fill="none" xmlns="http://www.w3.org/2000/svg">
<path d="M512 0H0V7.604C0 23.175 4.492 38.018 12.869 50.697H0V58.301C0 73.873 4.492 88.717 12.87 101.396H0V109C0 124.571 4.492 139.414 12.869 152.093H0V159.697C0 175.269 4.492 190.113 12.87 202.792H0V210.396C0 253.666 35.203 288.867 78.474 288.867H140.42V273.659H78.474C46.161 273.659 19.429 249.312 15.662 218H28.977H47.649H140.42V202.792H32.182C22.955 192.907 17.237 180.588 15.657 167.301H28.978H47.65H140.421V152.093H32.182C22.955 142.208 17.237 129.89 15.657 116.604H28.978H47.65H140.421V101.396H32.182C22.955 91.511 17.237 79.192 15.657 65.905H28.978H47.65H140.421V50.697H32.182C22.955 40.812 17.237 28.494 15.657 15.208H496.344C494.764 28.495 489.046 40.813 479.82 50.697H160.698V65.905H464.352H483.024H496.344C494.764 79.193 489.046 91.512 479.82 101.396H160.698V116.604H464.352H483.024H496.344C494.764 129.891 489.046 142.209 479.82 152.093H160.698V167.301H464.352H483.024H496.344C494.764 180.589 489.046 192.908 479.82 202.792H160.698V218H464.352H483.024H496.338C492.572 249.313 465.84 273.659 433.528 273.659H160.699V288.867H433.528C476.798 288.867 512 253.665 512 210.396V202.792H499.131C507.508 190.113 512 175.269 512 159.697V152.093H499.132C507.509 139.414 512 124.571 512 109V101.396H499.131C507.508 88.717 512 73.873 512 58.301V50.697H499.132C507.509 38.019 512 23.175 512 7.604V0Z" fill="black"/>
<path d="M512 304.076H0V319.284H512V304.076Z" fill="black"/>
<path d="M467.137 233.207H191.113V248.415H467.137V233.207Z" fill="black"/>
</svg>
