<svg width="459" height="512" viewBox="0 0 459 512" fill="none" xmlns="http://www.w3.org/2000/svg">
<path d="M326.995 139.292C399.608 139.292 458.683 80.216 458.683 7.604V0H0.0810547V7.604C0.0810547 80.217 59.157 139.292 131.769 139.292H173.078V179.746H0.0810547V481.581H72.2321V466.373H15.2891V194.954H173.078H285.686H443.475V466.373H92.5121V481.581H458.683V179.746H285.686V139.292H326.995ZM270.478 179.746H188.286V139.292H270.478V179.746ZM173.078 124.084H131.769C70.098 124.084 19.4661 75.902 15.5341 15.207H443.229C439.297 75.902 388.666 124.084 326.994 124.084H285.685H173.078Z" fill="black"/>
<path d="M424.62 34.576L409.963 30.522C399.678 67.702 365.561 93.669 326.995 93.669V108.877C372.375 108.877 412.521 78.323 424.62 34.576Z" fill="black"/>
<path d="M458.681 496.792H0.0810547V512H458.681V496.792Z" fill="black"/>
<path d="M345.197 330.664C345.197 266.803 293.243 214.848 229.382 214.848C165.521 214.848 113.567 266.803 113.567 330.664C113.567 394.525 165.521 446.48 229.382 446.48C293.243 446.48 345.197 394.525 345.197 330.664ZM128.775 330.664C128.775 275.189 173.908 230.055 229.382 230.055C284.856 230.055 329.989 275.188 329.989 330.664C329.989 386.14 284.856 431.272 229.382 431.272C173.908 431.272 128.775 386.139 128.775 330.664Z" fill="black"/>
<path d="M251.494 330.664C251.494 321.142 245.443 313.007 236.986 309.9V243.834H221.778V309.9C213.32 313.007 207.27 321.143 207.27 330.664C207.27 342.856 217.19 352.775 229.382 352.775C241.575 352.775 251.494 342.855 251.494 330.664ZM222.478 330.664C222.478 326.857 225.575 323.76 229.382 323.76C233.189 323.76 236.286 326.857 236.286 330.664C236.286 334.47 233.189 337.567 229.382 337.567C225.575 337.567 222.478 334.47 222.478 330.664Z" fill="black"/>
<path d="M236.986 397.576H221.778V417.491H236.986V397.576Z" fill="black"/>
<path d="M316.212 323.057H296.297V338.265H316.212V323.057Z" fill="black"/>
<path d="M162.47 323.057H142.555V338.265H162.47V323.057Z" fill="black"/>
<path d="M296.136 274.636L285.382 263.883L271.3 277.965L282.054 288.718L296.136 274.636Z" fill="black"/>
<path d="M162.626 386.688L173.379 397.442L187.461 383.36L176.708 372.606L162.626 386.688Z" fill="black"/>
<path d="M271.321 383.354L285.403 397.436L296.157 386.682L282.075 372.6L271.321 383.354Z" fill="black"/>
<path d="M187.444 277.974L173.362 263.892L162.608 274.645L176.69 288.727L187.444 277.974Z" fill="black"/>
<path d="M210.797 265.948L203.175 247.547L189.126 253.367L196.748 271.767L210.797 265.948Z" fill="black"/>
<path d="M247.96 395.371L255.582 413.771L269.632 407.951L262.01 389.551L247.96 395.371Z" fill="black"/>
<path d="M294.085 312.073L312.486 304.452L306.665 290.401L288.265 298.023L294.085 312.073Z" fill="black"/>
<path d="M164.664 349.262L146.265 356.884L152.085 370.934L170.484 363.313L164.664 349.262Z" fill="black"/>
<path d="M269.655 253.368L255.605 247.548L247.983 265.95L262.032 271.769L269.655 253.368Z" fill="black"/>
<path d="M189.112 407.95L203.162 413.769L210.784 395.368L196.734 389.548L189.112 407.95Z" fill="black"/>
<path d="M288.281 363.273L306.683 370.895L312.503 356.844L294.101 349.222L288.281 363.273Z" fill="black"/>
<path d="M170.479 298.055L152.078 290.433L146.257 304.484L164.659 312.106L170.479 298.055Z" fill="black"/>
<path d="M428.271 232.924H413.063V428.407H428.271V232.924Z" fill="black"/>
</svg>
