<svg width="219" height="512" viewBox="0 0 219 512" fill="none" xmlns="http://www.w3.org/2000/svg">
<path d="M159.819 97.096V58.464H145.954V24.527C145.956 11.003 134.952 0 121.427 0H97.359C83.835 0 72.833 11.003 72.833 24.527V29.232H0V54.58H15.208V44.44H72.833V58.464H58.967V97.097C25.829 100.885 0 129.086 0 163.222V186.549V422.102V479.124C0 497.252 14.748 512 32.876 512H185.912C204.04 512 218.787 497.251 218.787 479.124V163.222C218.788 129.086 192.958 100.883 159.819 97.096ZM88.039 44.441H88.04H109.394V29.233H88.04V24.528C88.04 19.39 92.22 15.209 97.358 15.209H121.426C126.565 15.209 130.745 19.39 130.745 24.528V58.465H88.038V44.441H88.039ZM74.175 73.672H144.612V96.649H74.175V73.672ZM203.581 479.124H203.58C203.58 488.866 195.655 496.793 185.912 496.793H32.876C23.134 496.793 15.207 488.868 15.207 479.124V422.102H162.621V366.513H147.414V406.894H15.208V372.76H109.383V357.552H15.208V332.205H109.383V316.997H15.208V291.65H109.383V276.442H15.208V251.096H109.383V235.888H15.208V201.755H147.414V346.231H162.622V186.548H15.208V163.221C15.208 134.898 38.25 111.857 66.572 111.857H152.217C180.539 111.857 203.58 134.899 203.58 163.221V479.124H203.581Z" fill="black"/>
<path d="M152.216 127.065H66.571V142.273H152.216C163.767 142.273 173.163 151.671 173.163 163.221H188.371C188.372 143.285 172.153 127.065 152.216 127.065Z" fill="black"/>
</svg>
