<svg width="398" height="512" viewBox="0 0 398 512" fill="none" xmlns="http://www.w3.org/2000/svg">
<path d="M365.603 0H324.36H73.9298H32.6868L1.07182 162.477L0.866821 163.533L32.0008 512H111.953V496.792H45.9088L16.8498 171.534H381.441L380.082 186.745H237.682V201.953H378.723L352.381 496.792H132.23V512H366.289L397.327 164.606L397.422 163.533L365.603 0ZM89.1378 15.208H309.152V68.655C309.152 95.769 287.093 117.827 259.98 117.827H138.31C111.196 117.827 89.1378 95.768 89.1378 68.655V15.208ZM17.7618 156.326L45.2218 15.208H73.9298V68.655C73.9298 104.154 102.811 133.035 138.31 133.035H259.979C295.478 133.035 324.359 104.154 324.359 68.655V15.208H353.067L380.527 156.326H17.7618Z" fill="black"/>
<path d="M293.944 68.655V38.02H278.736V68.655C278.736 78.997 270.322 87.411 259.98 87.411H138.31V102.619H259.979C278.708 102.619 293.944 87.383 293.944 68.655Z" fill="black"/>
<path d="M217.405 186.743H148.797V201.951H217.405V186.743Z" fill="black"/>
</svg>
