<svg width="419" height="512" viewBox="0 0 419 512" fill="none" xmlns="http://www.w3.org/2000/svg">
<path d="M418.311 463.254C418.304 463.1 418.29 462.948 418.28 462.795C418.26 462.486 418.239 462.178 418.209 461.871C418.192 461.691 418.168 461.512 418.147 461.334C418.115 461.057 418.081 460.78 418.042 460.506C418.015 460.318 417.983 460.133 417.952 459.946C417.908 459.682 417.862 459.419 417.811 459.157C417.775 458.969 417.735 458.783 417.694 458.596C417.638 458.338 417.579 458.083 417.517 457.828C417.471 457.642 417.425 457.458 417.376 457.274C417.307 457.019 417.234 456.765 417.159 456.512C417.106 456.336 417.055 456.159 416.999 455.984C416.916 455.723 416.827 455.465 416.735 455.207C416.678 455.044 416.623 454.881 416.563 454.719C416.458 454.436 416.345 454.157 416.231 453.88C416.177 453.748 416.128 453.615 416.072 453.485C415.899 453.078 415.718 452.677 415.527 452.281C415.51 452.244 415.491 452.21 415.472 452.174C415.297 451.815 415.115 451.459 414.925 451.108C414.852 450.973 414.774 450.842 414.699 450.709C414.559 450.46 414.418 450.21 414.271 449.966C414.181 449.816 414.086 449.669 413.993 449.521C413.853 449.298 413.712 449.075 413.566 448.856C413.464 448.703 413.359 448.552 413.254 448.401C413.109 448.192 412.962 447.984 412.812 447.78C412.701 447.629 412.589 447.48 412.475 447.332C412.321 447.131 412.165 446.933 412.006 446.736C411.889 446.591 411.773 446.448 411.653 446.306C411.489 446.11 411.32 445.918 411.151 445.726C411.03 445.589 410.91 445.452 410.787 445.318C410.608 445.123 410.423 444.933 410.239 444.742C410.119 444.619 410.002 444.495 409.88 444.374C409.669 444.164 409.452 443.961 409.234 443.759C409.133 443.665 409.034 443.567 408.932 443.474C408.611 443.182 408.282 442.898 407.948 442.621C407.89 442.573 407.829 442.529 407.772 442.481C407.492 442.254 407.209 442.029 406.921 441.812C406.795 441.717 406.664 441.626 406.537 441.534C406.312 441.37 406.086 441.207 405.856 441.048C405.709 440.948 405.559 440.851 405.41 440.753C405.193 440.61 404.975 440.469 404.754 440.332C404.596 440.235 404.436 440.14 404.276 440.045C404.057 439.915 403.837 439.789 403.615 439.665C403.45 439.573 403.283 439.484 403.115 439.394C402.892 439.275 402.667 439.161 402.44 439.047C402.271 438.963 402.101 438.88 401.93 438.799C401.697 438.688 401.462 438.584 401.225 438.48C401.056 438.406 400.887 438.33 400.716 438.259C400.466 438.155 400.212 438.057 399.959 437.96C399.799 437.898 399.64 437.834 399.477 437.775C399.182 437.668 398.883 437.569 398.583 437.472C398.459 437.431 398.338 437.388 398.213 437.348C397.787 437.216 397.358 437.094 396.924 436.981C396.836 436.959 396.747 436.94 396.658 436.918C396.31 436.832 395.96 436.749 395.608 436.675C395.45 436.642 395.29 436.615 395.13 436.585C394.902 436.541 394.675 436.494 394.446 436.456V157.579C394.445 70.689 323.754 0 236.865 0C149.976 0 79.286 70.689 79.286 157.579V201.945C70.586 194.463 59.619 190.381 48.025 190.381C35.197 190.381 23.137 195.376 14.066 204.448C4.995 213.518 0 225.579 0 238.407C0 251.235 4.995 263.294 14.066 272.364L79.287 337.585V436.457C79.058 436.494 78.832 436.542 78.605 436.586C78.445 436.616 78.284 436.644 78.124 436.676C77.773 436.749 77.426 436.831 77.081 436.917C76.991 436.939 76.899 436.959 76.808 436.981C76.375 437.093 75.945 437.215 75.52 437.348C75.393 437.388 75.269 437.432 75.143 437.474C74.846 437.57 74.549 437.669 74.256 437.775C74.093 437.834 73.933 437.899 73.77 437.961C73.518 438.057 73.266 438.155 73.017 438.258C72.845 438.33 72.675 438.405 72.505 438.48C72.27 438.583 72.036 438.688 71.803 438.797C71.631 438.878 71.46 438.962 71.29 439.047C71.065 439.159 70.841 439.273 70.619 439.392C70.45 439.481 70.282 439.572 70.115 439.665C69.894 439.788 69.676 439.914 69.458 440.043C69.297 440.138 69.136 440.234 68.976 440.332C68.755 440.469 68.538 440.61 68.322 440.752C68.172 440.85 68.022 440.947 67.874 441.048C67.644 441.205 67.419 441.368 67.195 441.532C67.066 441.625 66.935 441.717 66.809 441.812C66.524 442.027 66.244 442.248 65.968 442.473C65.906 442.523 65.842 442.57 65.781 442.621C65.446 442.898 65.119 443.182 64.798 443.474C64.695 443.567 64.596 443.665 64.495 443.76C64.278 443.962 64.062 444.164 63.851 444.373C63.728 444.495 63.61 444.619 63.49 444.743C63.306 444.933 63.123 445.121 62.943 445.316C62.818 445.451 62.698 445.589 62.576 445.727C62.408 445.918 62.24 446.108 62.077 446.303C61.957 446.446 61.839 446.591 61.722 446.736C61.564 446.932 61.408 447.13 61.255 447.331C61.141 447.479 61.029 447.629 60.918 447.78C60.768 447.985 60.621 448.193 60.476 448.401C60.372 448.552 60.266 448.703 60.164 448.856C60.018 449.075 59.878 449.297 59.738 449.52C59.645 449.668 59.549 449.816 59.459 449.966C59.311 450.212 59.169 450.463 59.029 450.713C58.955 450.845 58.878 450.975 58.806 451.107C58.615 451.459 58.434 451.815 58.259 452.175C58.242 452.21 58.223 452.245 58.205 452.28C58.013 452.676 57.833 453.079 57.66 453.485C57.605 453.613 57.557 453.743 57.504 453.871C57.388 454.153 57.275 454.435 57.168 454.72C57.108 454.88 57.054 455.042 56.998 455.204C56.907 455.463 56.818 455.722 56.733 455.985C56.677 456.16 56.626 456.337 56.573 456.513C56.498 456.766 56.424 457.02 56.356 457.275C56.307 457.458 56.261 457.643 56.215 457.829C56.152 458.084 56.093 458.339 56.038 458.596C55.997 458.783 55.958 458.969 55.921 459.157C55.869 459.419 55.824 459.682 55.78 459.946C55.749 460.133 55.717 460.318 55.69 460.506C55.649 460.781 55.617 461.058 55.585 461.334C55.564 461.513 55.541 461.692 55.523 461.871C55.494 462.177 55.472 462.485 55.452 462.795C55.442 462.948 55.428 463.1 55.421 463.254C55.399 463.718 55.386 464.184 55.386 464.653V483.422C55.386 499.18 68.207 512.001 83.966 512.001H389.77C405.528 512.001 418.349 499.18 418.349 483.422V464.652C418.346 464.183 418.333 463.717 418.311 463.254ZM389.768 496.792H83.964C76.591 496.792 70.592 490.793 70.592 483.421V464.652C70.592 457.279 76.591 451.281 83.964 451.281H94.494H156.375V436.073H94.494V331.285L24.818 261.61C18.62 255.413 15.207 247.173 15.207 238.407C15.207 229.641 18.621 221.4 24.819 215.202C31.017 209.003 39.258 205.59 48.024 205.59C56.79 205.59 65.031 209.004 71.229 215.202L94.493 238.466V157.58C94.493 79.076 158.36 15.209 236.864 15.209C315.368 15.209 379.236 79.076 379.236 157.58V405.659H207.07V420.867H379.237V436.075H176.654V451.283H379.237H389.767C397.14 451.283 403.138 457.282 403.138 464.654V483.423H403.139C403.138 490.794 397.139 496.792 389.768 496.792Z" fill="black"/>
<path d="M361.323 177.862H346.115V233.429H361.323V177.862Z" fill="black"/>
<path d="M346.118 157.579H361.326C361.326 88.952 305.494 33.119 236.865 33.119V48.327C297.107 48.328 346.118 97.338 346.118 157.579Z" fill="black"/>
</svg>
