<svg width="512" height="465" viewBox="0 0 512 465" fill="none" xmlns="http://www.w3.org/2000/svg">
<path d="M428.266 385.904V358.407H413.057V385.904C413.057 403.932 398.391 418.598 380.364 418.598H308.217V433.807H380.364C406.777 433.807 428.266 412.318 428.266 385.904Z" fill="black"/>
<path d="M53.316 122.439H0V137.648H53.316V300.107V385.904C53.316 429.09 88.45 464.224 131.638 464.224H172.52H192.798H380.363C423.549 464.224 458.683 429.09 458.683 385.904V300.107V137.648H511.999V122.439H458.684H53.316ZM443.475 269.686H223.216V284.895H443.474V300.107H182.997V315.316H443.475V385.904C443.475 420.704 415.163 449.016 380.364 449.016H192.799H172.52H131.638C96.838 449.016 68.525 420.704 68.525 385.904V315.316H162.718V300.107H68.525V168.066H443.475V269.686ZM443.475 152.857H68.525V137.648H443.475V152.857Z" fill="black"/>
<path d="M355.626 107.23H451.08V92.021H355.338C351.44 40.626 308.376 0 256 0C203.624 0 160.559 40.627 156.662 92.022H60.921V107.231H156.375H355.626V107.23ZM285.996 20.733C286.678 20.996 287.359 21.261 288.032 21.539C288.596 21.771 289.156 22.01 289.714 22.255C290.379 22.546 291.041 22.845 291.697 23.153C292.248 23.412 292.795 23.674 293.339 23.943C293.989 24.265 294.634 24.597 295.274 24.936C295.807 25.218 296.34 25.502 296.866 25.794C297.502 26.148 298.13 26.513 298.756 26.882C299.271 27.186 299.785 27.489 300.293 27.804C300.916 28.189 301.529 28.588 302.14 28.989C302.633 29.312 303.128 29.633 303.613 29.966C304.225 30.386 304.825 30.821 305.425 31.256C305.892 31.595 306.364 31.929 306.823 32.277C307.428 32.735 308.019 33.21 308.613 33.684C309.049 34.033 309.49 34.374 309.919 34.731C310.528 35.238 311.122 35.764 311.716 36.287C312.108 36.633 312.509 36.97 312.895 37.323C313.535 37.908 314.154 38.513 314.776 39.117C315.098 39.43 315.43 39.733 315.747 40.051C316.572 40.879 317.376 41.728 318.167 42.589C318.265 42.696 318.371 42.799 318.469 42.906C319.354 43.88 320.216 44.876 321.055 45.891C321.31 46.198 321.548 46.519 321.798 46.829C322.373 47.544 322.948 48.26 323.5 48.994C323.805 49.4 324.093 49.818 324.391 50.23C324.867 50.886 325.343 51.54 325.8 52.21C326.111 52.667 326.406 53.136 326.709 53.599C327.128 54.241 327.55 54.881 327.951 55.535C328.253 56.027 328.54 56.529 328.833 57.027C329.21 57.67 329.588 58.313 329.949 58.967C330.234 59.484 330.506 60.01 330.781 60.534C331.123 61.185 331.463 61.837 331.788 62.498C332.054 63.037 332.307 63.585 332.562 64.131C332.869 64.791 333.173 65.453 333.463 66.122C333.706 66.681 333.939 67.245 334.169 67.81C334.444 68.483 334.713 69.159 334.971 69.841C335.188 70.415 335.397 70.993 335.603 71.573C335.846 72.259 336.08 72.95 336.306 73.644C336.497 74.232 336.681 74.822 336.86 75.415C337.071 76.116 337.27 76.821 337.462 77.53C337.624 78.129 337.784 78.729 337.933 79.334C338.11 80.051 338.274 80.772 338.433 81.496C338.567 82.103 338.7 82.712 338.82 83.324C338.964 84.057 339.092 84.797 339.216 85.536C339.319 86.149 339.425 86.762 339.515 87.379C339.626 88.132 339.715 88.893 339.805 89.653C339.878 90.266 339.955 90.879 340.015 91.496C340.031 91.669 340.039 91.846 340.056 92.019H309.181C307.715 77.434 302.525 57.763 295.545 41.139C292.642 34.226 289.008 26.827 284.657 20.235C285.107 20.399 285.552 20.564 285.996 20.733ZM263.605 18.654C269.48 23.58 275.864 33.552 281.524 47.03C288.225 62.99 292.452 80.301 293.872 92.022H263.605V18.654ZM248.395 18.654V92.021H218.128C219.547 80.3 223.775 62.989 230.476 47.029C236.136 33.551 242.52 23.579 248.395 18.654ZM171.982 91.5C172.042 90.881 172.12 90.269 172.192 89.655C172.282 88.895 172.372 88.134 172.482 87.381C172.572 86.764 172.678 86.151 172.781 85.538C172.906 84.798 173.033 84.059 173.177 83.326C173.298 82.714 173.43 82.105 173.564 81.498C173.723 80.775 173.886 80.053 174.064 79.336C174.214 78.732 174.373 78.131 174.535 77.532C174.728 76.823 174.926 76.118 175.137 75.417C175.315 74.824 175.5 74.234 175.691 73.646C175.916 72.951 176.15 72.262 176.394 71.575C176.599 70.995 176.808 70.417 177.025 69.843C177.284 69.161 177.553 68.484 177.828 67.81C178.058 67.246 178.29 66.682 178.533 66.125C178.824 65.455 179.128 64.793 179.435 64.132C179.688 63.585 179.942 63.039 180.208 62.5C180.533 61.839 180.873 61.187 181.215 60.536C181.49 60.013 181.762 59.487 182.047 58.969C182.408 58.315 182.786 57.673 183.163 57.029C183.456 56.531 183.743 56.029 184.045 55.538C184.447 54.884 184.868 54.244 185.287 53.602C185.59 53.139 185.884 52.669 186.196 52.213C186.652 51.543 187.13 50.889 187.605 50.233C187.903 49.821 188.191 49.403 188.496 48.997C189.048 48.263 189.623 47.547 190.198 46.832C190.448 46.521 190.687 46.201 190.941 45.894C191.781 44.879 192.642 43.883 193.527 42.909C193.625 42.8 193.73 42.699 193.829 42.592C194.62 41.731 195.424 40.881 196.249 40.054C196.566 39.736 196.898 39.433 197.22 39.12C197.842 38.517 198.461 37.911 199.101 37.326C199.487 36.973 199.888 36.636 200.28 36.29C200.874 35.766 201.467 35.241 202.077 34.734C202.506 34.377 202.947 34.035 203.383 33.687C203.975 33.213 204.567 32.738 205.173 32.28C205.633 31.932 206.104 31.598 206.571 31.259C207.171 30.824 207.772 30.389 208.383 29.969C208.869 29.635 209.363 29.315 209.856 28.992C210.467 28.59 211.081 28.192 211.703 27.807C212.211 27.493 212.725 27.19 213.24 26.885C213.866 26.516 214.494 26.151 215.13 25.797C215.657 25.504 216.189 25.22 216.722 24.939C217.363 24.601 218.007 24.269 218.657 23.946C219.2 23.676 219.748 23.414 220.299 23.156C220.956 22.848 221.618 22.549 222.283 22.258C222.841 22.015 223.4 21.775 223.963 21.543C224.637 21.265 225.318 20.999 226.001 20.738C226.445 20.569 226.89 20.403 227.338 20.241C222.988 26.834 219.353 34.232 216.45 41.145C209.47 57.768 204.279 77.439 202.814 92.025H171.939C171.956 91.85 171.964 91.673 171.982 91.5Z" fill="black"/>
</svg>
