<svg width="512" height="512" viewBox="0 0 512 512" fill="none" xmlns="http://www.w3.org/2000/svg">
<path d="M122.482 389.537C134.92 401.975 138.552 420.518 131.735 436.776L145.764 442.659C154.98 420.679 150.063 395.605 133.239 378.779L122.482 389.537Z" fill="black"/>
<path d="M489.737 22.283C475.37 7.914 456.267 0 435.947 0C415.627 0 396.524 7.914 382.156 22.282L265.354 139.084C250.986 153.451 243.074 172.555 243.074 192.874C243.074 213.194 250.987 232.297 265.354 246.665C279.722 261.034 298.825 268.947 319.144 268.947C339.463 268.947 358.567 261.034 372.934 246.666L489.736 129.864C519.397 100.204 519.397 51.942 489.737 22.283ZM478.979 119.106L362.178 235.909C350.684 247.403 335.401 253.734 319.144 253.734C302.887 253.734 287.605 247.403 276.11 235.909C264.616 224.414 258.285 209.131 258.285 192.873C258.285 176.617 264.615 161.334 276.11 149.84L392.913 33.039C404.408 21.544 419.691 15.213 435.947 15.213C452.203 15.213 467.485 21.544 478.98 33.04C502.709 56.769 502.709 95.378 478.979 119.106Z" fill="black"/>
<path d="M403.67 43.796L414.427 54.554C420.176 48.804 427.819 45.639 435.947 45.639C444.074 45.639 451.716 48.804 457.463 54.553L468.22 43.795C459.599 35.174 448.137 30.426 435.946 30.426C423.755 30.426 412.291 35.175 403.67 43.796Z" fill="black"/>
<path d="M398.671 91.3191C392.787 91.3191 387.255 93.6111 383.095 97.7701C374.507 106.358 374.507 120.333 383.095 128.923C387.255 133.083 392.787 135.374 398.671 135.374C404.555 135.374 410.087 133.082 414.246 128.923C418.407 124.762 420.698 119.23 420.698 113.347C420.698 107.463 418.406 101.931 414.246 97.7711C410.087 93.6111 404.555 91.3191 398.671 91.3191ZM403.489 118.166C402.202 119.454 400.49 120.163 398.671 120.163C396.851 120.163 395.14 119.454 393.853 118.167C391.196 115.51 391.196 111.185 393.853 108.529C395.14 107.241 396.852 106.532 398.671 106.532C400.49 106.532 402.202 107.241 403.489 108.529C404.776 109.816 405.485 111.527 405.485 113.347C405.485 115.167 404.777 116.879 403.489 118.166Z" fill="black"/>
<path d="M356.421 133.568C350.537 133.568 345.005 135.86 340.845 140.019C332.257 148.607 332.257 162.582 340.845 171.174C345.005 175.334 350.537 177.625 356.421 177.625C362.305 177.625 367.837 175.333 371.998 171.173C380.585 162.582 380.585 148.607 371.998 140.02C367.838 135.861 362.306 133.568 356.421 133.568ZM361.239 160.417C359.952 161.705 358.24 162.414 356.42 162.414C354.601 162.414 352.889 161.705 351.603 160.418C348.945 157.76 348.945 153.434 351.602 150.778C352.889 149.49 354.601 148.781 356.422 148.781C358.243 148.781 359.953 149.49 361.24 150.778C363.897 153.435 363.897 157.76 361.239 160.417Z" fill="black"/>
<path d="M260.98 263.806L225.135 227.961L214.378 238.719L227.533 251.874L179.308 300.098L190.065 310.856L238.29 262.631L249.384 273.725L160.052 363.06C159.717 362.659 159.364 362.277 159.023 361.883C158.561 361.351 158.107 360.813 157.631 360.29C156.748 359.318 155.845 358.369 154.924 357.442C154.866 357.382 154.812 357.321 154.754 357.262C154.67 357.178 154.582 357.101 154.497 357.018C153.617 356.146 152.719 355.287 151.798 354.448C151.113 353.823 150.411 353.225 149.71 352.622C149.456 352.406 149.213 352.178 148.957 351.965L175.722 325.2L164.965 314.442L136.305 343.102C122.971 335.391 107.798 331.262 91.982 331.262C68.271 331.262 45.978 340.495 29.209 357.263L0.0180054 386.466L35.798 390.133L38.467 416.159L64.492 418.829L67.162 444.853L93.186 447.523L95.856 473.547L121.881 476.217L125.554 511.997L154.751 482.805C183.722 453.831 188.426 409.656 168.895 375.727L260.14 284.479L273.3 297.64L284.057 286.882L270.9 273.725L260.98 263.806ZM143.996 472.051L137.423 478.622L135.753 462.349L109.729 459.679L107.059 433.655L81.035 430.985L78.365 404.961L52.34 402.291L49.671 376.265L33.398 374.596L39.969 368.024C53.864 354.13 72.336 346.479 91.984 346.479C106.456 346.479 120.281 350.642 132.118 358.381L133.136 359.071C136.07 361.056 138.858 363.246 141.459 365.605C142.32 366.389 143.169 367.193 143.998 368.023C144.005 368.031 144.012 368.039 144.02 368.046C144.861 368.888 145.674 369.748 146.465 370.619C147.041 371.255 147.598 371.912 148.153 372.57C148.355 372.808 148.565 373.042 148.764 373.281C149.399 374.054 150.015 374.845 150.62 375.644C150.726 375.785 150.839 375.922 150.946 376.064C151.522 376.837 152.077 377.627 152.624 378.422C152.815 378.699 153.015 378.972 153.201 379.251L153.478 379.661C172.215 408.189 169.057 446.987 143.996 472.051Z" fill="black"/>
</svg>
