<svg width="16" height="22" viewBox="0 0 16 22" fill="none" xmlns="http://www.w3.org/2000/svg">
<path d="M3.06962 20.5596L3.1575 20.6348H5.58212V20.0086H3.3905C1.96532 18.7459 1.15024 16.9393 1.15024 15.0338C1.15024 11.8674 3.40166 9.12576 6.50362 8.51485L6.75626 8.4651V6.79556H8.83373V8.46514L9.08637 8.51489C12.1883 9.1258 14.4398 11.8674 14.4398 15.0338C14.4398 16.9394 13.6247 18.7459 12.1995 20.0086H6.41718V20.6349H12.4324L12.5202 20.5596C14.1381 19.1749 15.0659 17.1609 15.0659 15.0338C15.0659 11.6554 12.7236 8.71906 9.45996 7.95483V5.5307C9.84813 5.46321 10.1442 5.12384 10.1442 4.71665V3.6114C10.1442 3.15578 9.77355 2.78512 9.31797 2.78512H9.10705L9.3713 0.802979H6.21857L6.4829 2.78512H6.27198C5.8164 2.78512 5.44577 3.15578 5.44577 3.6114V4.71669C5.44577 5.12388 5.74182 5.46325 6.12999 5.53074V7.95487C2.86619 8.71906 0.523964 11.6555 0.523964 15.0338C0.523964 17.1608 1.4518 19.1749 3.06962 20.5596ZM8.656 1.42925L8.47517 2.78512H7.11473L6.93391 1.42925H8.656V1.42925ZM6.072 4.71665V3.6114C6.072 3.50108 6.16169 3.41139 6.27193 3.41139H6.56642H9.02349H9.31797C9.42825 3.41139 9.5179 3.50112 9.5179 3.6114V4.71669C9.5179 4.82701 9.42821 4.9167 9.31797 4.9167H9.14683H8.83369H7.79495V5.54298H8.83369V6.16925H6.75622V4.91674H6.27193C6.16174 4.9167 6.072 4.82697 6.072 4.71665Z" fill="#FF370A" fill-opacity="0.5"/>
<path d="M11.6051 18.8477L12.0478 19.2908C13.0014 18.3379 13.6133 17.0769 13.7709 15.74L13.149 15.6667C13.0078 16.8643 12.4595 17.994 11.6051 18.8477Z" fill="#FF370A" fill-opacity="0.5"/>
<path d="M12.3893 11.1502C11.5104 10.109 10.294 9.39126 8.96426 9.12939L8.84327 9.74385C10.034 9.97833 11.1233 10.6213 11.9108 11.5542C12.6969 12.4856 13.149 13.666 13.1839 14.878L13.8099 14.8599C13.7709 13.5069 13.2664 12.1894 12.3893 11.1502Z" fill="#FF370A" fill-opacity="0.5"/>
<path d="M15.2223 21.2612H0.36512V21.8875H15.2223V21.2612Z" fill="#FF370A" fill-opacity="0.5"/>
</svg>
