<svg width="19" height="22" viewBox="0 0 19 22" fill="none" xmlns="http://www.w3.org/2000/svg">
<path d="M7.41883 12.7308V16.2194C7.41883 16.4842 7.63425 16.6996 7.89895 16.6996H9.42255V16.0733H8.0451V12.7307H7.41883V12.7308Z" fill="#FF370A" fill-opacity="0.5"/>
<path d="M18.3678 6.45189V2.08762C18.3678 1.31639 17.7403 0.688965 16.9691 0.688965H2.02249C1.25126 0.688965 0.623837 1.31639 0.623837 2.08762V6.45189H2.16848V13.8668H2.79475V6.45189H5.33122V7.10974H3.39759V7.73602H5.33122V8.20605C5.33122 8.65496 5.69645 9.02019 6.14536 9.02019H12.8462C13.2952 9.02019 13.6604 8.65496 13.6604 8.20605V6.45189H16.1969V17.3255H12.4249C12.6747 17.0251 12.8253 16.6394 12.8253 16.2191V16.0644H13.2545C14.3242 16.0644 15.1945 15.1941 15.1945 14.1245C15.1945 13.0548 14.3242 12.1845 13.2545 12.1845H12.8253V11.1648H11.0615V11.7911H12.1991V16.2192C12.1991 16.8292 11.7027 17.3256 11.0927 17.3256H7.89903C7.28894 17.3256 6.79263 16.8292 6.79263 16.2192V11.7911H10.2265V11.1648H6.16636V16.2192C6.16636 16.6395 6.31691 17.0252 6.56676 17.3256H2.79471V14.7019H2.16843V17.3256H0.623837V19.7485C0.623837 20.5197 1.25126 21.1471 2.02249 21.1471H2.54445V21.7734H3.17073V21.1471H3.79712V21.7734H4.42339V21.1471H14.5682V21.7734H15.1945V21.1471H15.8209V21.7734H16.4471V21.1471H16.9691C17.7403 21.1471 18.3678 20.5197 18.3678 19.7485V17.3256H16.8231V6.45189H18.3678ZM12.8253 12.8108H13.2545C13.979 12.8108 14.5682 13.4001 14.5682 14.1244C14.5682 14.8488 13.9789 15.4381 13.2545 15.4381H12.8253V12.8108ZM12.8462 8.39396H6.14536C6.04179 8.39396 5.95749 8.30966 5.95749 8.20609V7.73606H9.4958V7.10978H5.95745V6.45193H6.61432H12.3772H13.0341V8.20609H13.0341C13.0342 8.30966 12.9499 8.39396 12.8462 8.39396ZM9.18266 4.40554V5.82561H7.26225C7.41516 4.72976 8.35852 3.88354 9.4958 3.88354C10.633 3.88354 11.5764 4.7298 11.7293 5.82561H9.80894V4.40554H9.18266ZM17.7415 17.9518V19.7485C17.7415 20.1744 17.395 20.5209 16.9692 20.5209H16.4472H15.8209H15.1945H14.5682H4.42344H3.79716H3.17077H2.54445H2.02249C1.5966 20.5209 1.25011 20.1744 1.25011 19.7485V17.9518H2.16848H7.89903H11.0927H16.8232H17.7415V17.9518ZM13.6604 5.82561H13.618C13.4574 3.69185 11.67 2.00476 9.4958 2.00476V2.63104C11.3244 2.63104 12.8298 4.03772 12.9888 5.82565H12.3599C12.2033 4.3836 10.9788 3.25731 9.4958 3.25731C8.01281 3.25731 6.78827 4.3836 6.63166 5.82565H5.33118H2.16843H1.25007V2.08762C1.25007 1.66173 1.59656 1.31524 2.02245 1.31524H16.9691C17.395 1.31524 17.7415 1.66173 17.7415 2.08762V5.82561H16.8231H13.6604Z" fill="#FF370A" fill-opacity="0.5"/>
<path d="M8.05915 18.5784H5.02843V19.2046H8.05915V18.5784Z" fill="#FF370A" fill-opacity="0.5"/>
<path d="M16.8019 18.5784H8.89417V19.2046H16.8019V18.5784Z" fill="#FF370A" fill-opacity="0.5"/>
</svg>
