<svg width="18" height="22" viewBox="0 0 18 22" fill="none" xmlns="http://www.w3.org/2000/svg">
<path d="M15.1242 7.94886L17.4279 5.91405V4.47179H15.3789L10.9116 2.27345L11.2373 0H8.44348L8.76901 2.27349L4.30175 4.47179H2.21839C0.995168 4.47179 0 5.46692 0 6.69014V11.3773H1.87882V6.69014C1.87882 6.50293 2.03114 6.35061 2.21839 6.35061H4.30443L5.27666 12.5163H5.98406V14.3953H5.28576L3.99525 21.0844H5.77812V20.4581H4.75388L5.80274 15.0216H5.98402H8.07438L7.72472 20.4581H6.61317V21.0844H15.6853L14.3948 14.3953H13.6965V12.5162H14.4039L15.1242 7.94886ZM15.3942 6.23637L15.5737 5.09806H16.8016V5.63164L15.2773 6.97807L15.3942 6.23637ZM2.21839 5.72429C1.68581 5.72429 1.25255 6.15755 1.25255 6.6901V10.751H0.626314V6.6901C0.626314 5.81225 1.34051 5.09802 2.21843 5.09802H4.1066L4.20432 5.72429H2.21839ZM10.5149 0.626273L10.2979 2.14085H9.38269L9.16579 0.626273H10.5149V0.626273ZM9.18428 2.76712H10.4965L13.9605 4.47179H5.72013L9.18428 2.76712ZM11.3322 5.09806L10.9752 11.89H8.70535L8.34831 5.09806H11.3322V5.09806ZM5.81188 11.89L4.7409 5.09802H7.72122L8.07825 11.89H5.98402H5.81188ZM6.61033 14.3953V13.7689H8.01137V13.1426H6.61033V12.5162H13.0703V13.1426H8.84647V13.7689H13.0703V14.3953H6.61033ZM8.35231 20.4581L8.70197 15.0216H10.9788L11.3283 20.4581H8.35231V20.4581ZM13.8778 15.0216L14.9267 20.4581H11.9558L11.6063 15.0216H13.6965H13.8778ZM13.8688 11.89H13.6965H11.6024L11.9593 5.09802H14.9397L14.6476 6.95065L13.8688 11.89Z" fill="#FF370A" fill-opacity="0.5"/>
</svg>
