<svg width="18" height="22" viewBox="0 0 18 22" fill="none" xmlns="http://www.w3.org/2000/svg">
<path d="M17.5324 19.6322C17.5321 19.6259 17.5315 19.6196 17.5311 19.6133C17.5303 19.6006 17.5294 19.5879 17.5282 19.5752C17.5275 19.5678 17.5265 19.5605 17.5256 19.5531C17.5243 19.5417 17.5229 19.5303 17.5213 19.519C17.5202 19.5113 17.5188 19.5037 17.5176 19.496C17.5158 19.4851 17.5139 19.4743 17.5118 19.4635C17.5103 19.4557 17.5086 19.4481 17.5069 19.4404C17.5046 19.4298 17.5022 19.4193 17.4997 19.4088C17.4978 19.4011 17.4959 19.3935 17.4938 19.3859C17.491 19.3754 17.488 19.365 17.4849 19.3546C17.4827 19.3473 17.4806 19.34 17.4783 19.3328C17.4749 19.3221 17.4712 19.3114 17.4675 19.3008C17.4651 19.2941 17.4628 19.2874 17.4604 19.2807C17.456 19.2691 17.4514 19.2576 17.4467 19.2462C17.4445 19.2407 17.4425 19.2353 17.4401 19.2299C17.433 19.2131 17.4256 19.1966 17.4177 19.1803C17.417 19.1788 17.4162 19.1774 17.4154 19.1759C17.4082 19.1611 17.4007 19.1465 17.3929 19.132C17.3899 19.1265 17.3867 19.1211 17.3836 19.1156C17.3778 19.1053 17.372 19.095 17.366 19.085C17.3623 19.0788 17.3584 19.0728 17.3545 19.0667C17.3488 19.0575 17.343 19.0483 17.337 19.0393C17.3328 19.033 17.3284 19.0268 17.3241 19.0205C17.3181 19.0119 17.3121 19.0034 17.3059 18.995C17.3013 18.9888 17.2967 18.9826 17.292 18.9765C17.2857 18.9682 17.2793 18.9601 17.2727 18.952C17.2679 18.946 17.2631 18.9401 17.2582 18.9343C17.2514 18.9262 17.2445 18.9183 17.2375 18.9104C17.2325 18.9047 17.2276 18.8991 17.2225 18.8936C17.2151 18.8856 17.2075 18.8777 17.1999 18.8699C17.195 18.8648 17.1902 18.8597 17.1852 18.8547C17.1765 18.8461 17.1675 18.8377 17.1586 18.8294C17.1544 18.8255 17.1503 18.8215 17.1461 18.8176C17.1329 18.8056 17.1194 18.7939 17.1056 18.7825C17.1032 18.7805 17.1007 18.7787 17.0984 18.7768C17.0868 18.7674 17.0752 18.7581 17.0633 18.7492C17.0581 18.7453 17.0527 18.7415 17.0475 18.7378C17.0382 18.731 17.0289 18.7243 17.0194 18.7177C17.0134 18.7136 17.0072 18.7096 17.0011 18.7056C16.9921 18.6997 16.9832 18.6939 16.9741 18.6883C16.9676 18.6843 16.961 18.6804 16.9544 18.6764C16.9454 18.6711 16.9363 18.6659 16.9272 18.6608C16.9204 18.657 16.9135 18.6533 16.9066 18.6496C16.8974 18.6447 16.8881 18.64 16.8788 18.6353C16.8718 18.6319 16.8648 18.6285 16.8578 18.6251C16.8482 18.6206 16.8385 18.6163 16.8287 18.612C16.8218 18.6089 16.8148 18.6058 16.8078 18.6029C16.7975 18.5986 16.787 18.5946 16.7766 18.5906C16.77 18.588 16.7635 18.5854 16.7568 18.583C16.7446 18.5786 16.7323 18.5745 16.7199 18.5705C16.7148 18.5688 16.7099 18.567 16.7047 18.5654C16.6872 18.5599 16.6695 18.5549 16.6516 18.5503C16.648 18.5494 16.6443 18.5486 16.6407 18.5477C16.6263 18.5441 16.6119 18.5407 16.5974 18.5377C16.5909 18.5363 16.5843 18.5352 16.5777 18.534C16.5684 18.5321 16.559 18.5302 16.5496 18.5286V7.04435C16.5495 3.46618 13.6385 0.555176 10.0603 0.555176C6.48219 0.555176 3.57114 3.46618 3.57114 7.04435V8.87137C3.21287 8.56326 2.76125 8.39516 2.2838 8.39516C1.75554 8.39516 1.2589 8.60085 0.885351 8.97444C0.511803 9.34795 0.306107 9.84463 0.306107 10.3729C0.306107 10.9012 0.511803 11.3977 0.885351 11.7713L3.57118 14.4571V18.5287C3.56175 18.5302 3.55245 18.5322 3.5431 18.534C3.53651 18.5352 3.52988 18.5364 3.52329 18.5377C3.50884 18.5407 3.49455 18.5441 3.48034 18.5476C3.47663 18.5485 3.47284 18.5494 3.4691 18.5503C3.45127 18.5549 3.43356 18.5599 3.41606 18.5654C3.41083 18.567 3.40572 18.5688 3.40053 18.5706C3.3883 18.5745 3.37607 18.5786 3.364 18.583C3.35729 18.5854 3.3507 18.5881 3.34399 18.5906C3.33361 18.5946 3.32324 18.5986 3.31298 18.6029C3.3059 18.6058 3.2989 18.6089 3.2919 18.612C3.28222 18.6162 3.27258 18.6206 3.26299 18.625C3.25591 18.6284 3.24886 18.6318 3.24186 18.6353C3.2326 18.64 3.22337 18.6446 3.21423 18.6495C3.20727 18.6532 3.20035 18.657 3.19348 18.6608C3.18438 18.6659 3.1754 18.671 3.16642 18.6764C3.15979 18.6803 3.15316 18.6842 3.14657 18.6883C3.13747 18.6939 3.12853 18.6997 3.11964 18.7056C3.11346 18.7096 3.10729 18.7136 3.10119 18.7177C3.09172 18.7242 3.08245 18.7309 3.07323 18.7377C3.06792 18.7415 3.06252 18.7453 3.05733 18.7492C3.0456 18.7581 3.03407 18.7672 3.0227 18.7764C3.02015 18.7785 3.01751 18.7804 3.015 18.7825C3.0012 18.7939 2.98774 18.8056 2.97452 18.8176C2.97028 18.8215 2.9662 18.8255 2.96204 18.8294C2.95311 18.8377 2.94421 18.8461 2.93552 18.8547C2.93046 18.8597 2.9256 18.8648 2.92066 18.8699C2.91308 18.8777 2.90554 18.8855 2.89813 18.8935C2.89298 18.8991 2.88804 18.9047 2.88302 18.9104C2.8761 18.9183 2.86918 18.9261 2.86247 18.9341C2.85753 18.94 2.85267 18.946 2.84785 18.952C2.84134 18.96 2.83492 18.9682 2.82862 18.9765C2.82392 18.9826 2.81931 18.9888 2.81474 18.995C2.80856 19.0034 2.80251 19.012 2.79654 19.0205C2.79225 19.0268 2.78789 19.033 2.78369 19.0393C2.77768 19.0483 2.77191 19.0574 2.76615 19.0666C2.76232 19.0727 2.75836 19.0788 2.75466 19.085C2.74856 19.0951 2.74271 19.1055 2.73695 19.1158C2.7339 19.1212 2.73073 19.1265 2.72777 19.132C2.7199 19.1465 2.71245 19.1611 2.70524 19.176C2.70454 19.1774 2.70376 19.1788 2.70302 19.1803C2.69511 19.1966 2.6877 19.2132 2.68057 19.2299C2.67831 19.2352 2.67633 19.2405 2.67415 19.2458C2.66937 19.2574 2.66472 19.269 2.66031 19.2808C2.65784 19.2874 2.65562 19.294 2.65331 19.3007C2.64956 19.3114 2.6459 19.322 2.6424 19.3329C2.64009 19.3401 2.63799 19.3474 2.63581 19.3546C2.63272 19.365 2.62967 19.3755 2.62687 19.386C2.62486 19.3935 2.62296 19.4011 2.62107 19.4088C2.61847 19.4193 2.61604 19.4298 2.61378 19.4404C2.61209 19.4481 2.61048 19.4557 2.60896 19.4635C2.60682 19.4743 2.60497 19.4851 2.60315 19.496C2.60188 19.5037 2.60056 19.5113 2.59945 19.519C2.59776 19.5304 2.59644 19.5418 2.59512 19.5531C2.59426 19.5605 2.59331 19.5679 2.59257 19.5752C2.59138 19.5878 2.59047 19.6005 2.58965 19.6133C2.58923 19.6196 2.58866 19.6259 2.58837 19.6322C2.58746 19.6513 2.58693 19.6705 2.58693 19.6898V20.4627C2.58693 21.1116 3.1149 21.6396 3.76387 21.6396H16.357C17.0059 21.6396 17.5339 21.1116 17.5339 20.4627V19.6898C17.5338 19.6705 17.5333 19.6513 17.5324 19.6322ZM16.3569 21.0133H3.76378C3.46016 21.0133 3.21312 20.7663 3.21312 20.4627V19.6898C3.21312 19.3861 3.46016 19.1391 3.76378 19.1391H4.19741H6.7457V18.5129H4.19741V14.1977L1.32812 11.3284C1.07289 11.0732 0.932338 10.7339 0.932338 10.3729C0.932338 10.0119 1.07293 9.67253 1.32816 9.4173C1.5834 9.16202 1.92277 9.02147 2.28376 9.02147C2.64475 9.02147 2.98411 9.16206 3.23935 9.4173L4.19737 10.3753V7.0444C4.19737 3.81156 6.82745 1.18149 10.0603 1.18149C13.2931 1.18149 15.9232 3.81156 15.9232 7.0444V17.2604H8.83335V17.8867H15.9233V18.513H7.5808V19.1392H15.9233H16.3569C16.6605 19.1392 16.9075 19.3863 16.9075 19.6899V20.4628H16.9076C16.9075 20.7663 16.6605 21.0133 16.3569 21.0133Z" fill="#FF370A" fill-opacity="0.5"/>
<path d="M15.1856 7.87964H14.5593V10.1679H15.1856V7.87964Z" fill="#FF370A" fill-opacity="0.5"/>
<path d="M14.5594 7.04427H15.1857C15.1857 4.21817 12.8865 1.91895 10.0603 1.91895V2.54522C12.5411 2.54526 14.5594 4.56351 14.5594 7.04427Z" fill="#FF370A" fill-opacity="0.5"/>
</svg>
