<svg width="23" height="27" viewBox="0 0 18 22" fill="none" xmlns="http://www.w3.org/2000/svg">
<path d="M8.43121 18.6596V6.67088H7.48496V5.18084H5.38953L5.05564 0.706584L3.50038 0.706543L3.16653 5.18084H1.07106V6.67088H0.124815V16.4676H0.751088V7.29715H1.3842H1.69733H2.71832V6.67088H1.69733V5.80712H3.11975H5.43623H6.85865V6.67088H3.55342V7.29715H6.85865H7.17178H7.80489V7.92342H4.80592V8.54969H7.80489V18.6596H0.751088V17.3027H0.124815V18.6596V20.5384H8.43121V18.6596ZM3.79449 5.18084L4.08164 1.33277L4.4743 1.33282L4.76145 5.18084H3.79449ZM7.80493 19.9121H0.751088V19.2859H7.80493V19.9121Z" fill="#FF370A" fill-opacity="0.5"/>
<path d="M16.8353 6.67063V5.1806H14.7399L14.4059 0.70634L12.8507 0.706299L12.5169 5.1806H10.4214V6.67063H9.4752V16.4674H10.1015V7.29691H10.7346H11.0477H12.0687V6.67063H11.0477V5.80687H12.4701H14.7866H16.209V6.67063H12.9038V7.29691H16.209H16.5222H17.1553V7.92318H14.1563V8.54945H17.1553V18.6593H10.1014V17.3024H9.47515V18.6594V20.5382H17.7815V18.6593V6.67063H16.8353ZM13.1449 5.1806L13.432 1.33253L13.8246 1.33257L14.1118 5.1806H13.1449ZM17.1553 19.9119H10.1014V19.2856H17.1553V19.9119Z" fill="#FF370A" fill-opacity="0.5"/>
<path d="M8.4313 21.1646H0.12487V21.7908H8.4313V21.1646Z" fill="#FF370A" fill-opacity="0.5"/>
<path d="M17.7815 21.1646H9.47507V21.7908H17.7815V21.1646Z" fill="#FF370A" fill-opacity="0.5"/>
<path d="M6.72442 12.9781C6.72442 11.6292 5.627 10.5317 4.27806 10.5317C2.92911 10.5317 1.83169 11.6292 1.83169 12.9781C1.83169 14.3271 2.92911 15.4245 4.27806 15.4245C5.627 15.4245 6.72442 14.3271 6.72442 12.9781ZM2.45796 12.9781C2.45796 11.9745 3.27445 11.158 4.27806 11.158C5.28167 11.158 6.09815 11.9745 6.09815 12.9781C6.09815 13.9818 5.28167 14.7982 4.27806 14.7982C3.27445 14.7982 2.45796 13.9818 2.45796 12.9781Z" fill="#FF370A" fill-opacity="0.5"/>
<path d="M16.0747 12.9781C16.0747 11.6292 14.9773 10.5317 13.6283 10.5317C12.2794 10.5317 11.182 11.6292 11.182 12.9781C11.182 14.3271 12.2794 15.4245 13.6283 15.4245C14.9773 15.4245 16.0747 14.3271 16.0747 12.9781ZM11.8082 12.9781C11.8082 11.9745 12.6247 11.158 13.6283 11.158C14.6319 11.158 15.4484 11.9745 15.4484 12.9781C15.4484 13.9818 14.6319 14.7982 13.6283 14.7982C12.6247 14.7982 11.8082 13.9818 11.8082 12.9781Z" fill="#FF370A" fill-opacity="0.5"/>
<path d="M4.8456 12.978H5.47187C5.47187 12.3197 4.93632 11.7842 4.27805 11.7842V12.4105C4.59102 12.4105 4.8456 12.6651 4.8456 12.978Z" fill="#FF370A" fill-opacity="0.5"/>
<path d="M14.1959 12.978H14.8222C14.8222 12.3197 14.2866 11.7842 13.6284 11.7842V12.4105C13.9413 12.4105 14.1959 12.6651 14.1959 12.978Z" fill="#FF370A" fill-opacity="0.5"/>
</svg>
