<svg width="22" height="13" viewBox="0 0 22 13" fill="none" xmlns="http://www.w3.org/2000/svg">
<path d="M16.5859 11.4758H5.11122V12.1213H16.5859V11.4758Z" fill="#FF370A" fill-opacity="0.5"/>
<path d="M10.4898 3.86353H9.72222V4.50895H10.4898V3.86353Z" fill="#FF370A" fill-opacity="0.5"/>
<path d="M11.9744 3.86353H11.2067V4.50895H11.9744V3.86353Z" fill="#FF370A" fill-opacity="0.5"/>
<path d="M9.00531 5.29102H8.23771V5.93644H9.00531V5.29102Z" fill="#FF370A" fill-opacity="0.5"/>
<path d="M10.4898 5.29102H9.72222V5.93644H10.4898V5.29102Z" fill="#FF370A" fill-opacity="0.5"/>
<path d="M11.9744 5.29102H11.2067V5.93644H11.9744V5.29102Z" fill="#FF370A" fill-opacity="0.5"/>
<path d="M13.4593 5.29102H12.6917V5.93644H13.4593V5.29102Z" fill="#FF370A" fill-opacity="0.5"/>
<path d="M9.00531 6.71777H8.23771V7.3632H9.00531V6.71777Z" fill="#FF370A" fill-opacity="0.5"/>
<path d="M10.4898 6.71777H9.72222V7.3632H10.4898V6.71777Z" fill="#FF370A" fill-opacity="0.5"/>
<path d="M11.9744 6.71777H11.2067V7.3632H11.9744V6.71777Z" fill="#FF370A" fill-opacity="0.5"/>
<path d="M13.4593 6.71777H12.6917V7.3632H13.4593V6.71777Z" fill="#FF370A" fill-opacity="0.5"/>
<path d="M10.4898 8.14502H9.72222V8.79044H10.4898V8.14502Z" fill="#FF370A" fill-opacity="0.5"/>
<path d="M11.9744 8.14502H11.2067V8.79044H11.9744V8.14502Z" fill="#FF370A" fill-opacity="0.5"/>
<path d="M19.4785 3.37792C19.5193 3.03731 19.5408 2.6909 19.5408 2.33947V0.42334H2.15581V2.33947C2.15581 2.6909 2.17731 3.03727 2.21808 3.37792H0.306107V4.02334H2.32008C3.1065 8.01315 6.63126 11.0318 10.8483 11.0318C15.0654 11.0318 18.5901 8.01315 19.3765 4.02334H21.3905V3.37792H19.4785ZM10.8483 10.3865C6.41115 10.3865 2.80127 6.77658 2.80127 2.33955V1.06884H18.8953V2.33955H18.8954C18.8953 6.77662 15.2855 10.3865 10.8483 10.3865Z" fill="#FF370A" fill-opacity="0.5"/>
<path d="M15.3836 2.01685H3.76956V2.66227H15.3836V2.01685Z" fill="#FF370A" fill-opacity="0.5"/>
<path d="M17.9275 2.01685H16.2442V2.66227H17.9275V2.01685Z" fill="#FF370A" fill-opacity="0.5"/>
</svg>
