<svg width="27" height="21" viewBox="0 0 22 16" fill="none" xmlns="http://www.w3.org/2000/svg">
<path d="M5.94192 12.9019H20.9251C20.7758 13.7779 20.0113 14.4468 19.0935 14.4468H2.97762C2.05983 14.4468 1.29532 13.7779 1.14604 12.9019H5.10694V12.2756H0.49337V12.5888C0.49337 13.9587 1.6078 15.0731 2.97762 15.0731H19.0936C20.4634 15.0731 21.5778 13.9587 21.5778 12.5888V12.2756H5.94192V12.9019Z" fill="#FF370A" fill-opacity="0.5"/>
<path d="M5.88637 2.51685H5.26009V4.45785H5.88637V2.51685Z" fill="#FF370A" fill-opacity="0.5"/>
<path d="M6.16454 8.39752C6.68654 9.21455 7.4107 9.89258 8.25853 10.3583L8.56001 9.80931C7.80385 9.39405 7.15802 8.78923 6.69231 8.06038C6.16504 7.23516 5.88637 6.27821 5.88637 5.29297H5.26009C5.26009 6.39792 5.57286 7.4715 6.16454 8.39752Z" fill="#FF370A" fill-opacity="0.5"/>
<path d="M14.0376 11.6494H19.9285V11.0232H15.1047C15.84 10.5006 16.4716 9.83961 16.9621 9.07192C17.1997 8.69998 17.3996 8.30823 17.5619 7.9024H18.9683C20.4072 7.9024 21.5778 6.7318 21.5778 5.29295C21.5778 3.85411 20.4072 2.68359 18.9683 2.68359H18.0636V0.951172H10.2006V1.57744H17.4373V2.20372H11.0356V2.82999H17.4373V4.77116V5.29295C17.4373 5.56516 17.4192 5.83542 17.3854 6.10281C17.3785 6.15696 17.3711 6.21103 17.363 6.26498C17.3624 6.26877 17.3617 6.2726 17.3611 6.27638C17.3357 6.44111 17.3036 6.60472 17.2655 6.76676C17.2622 6.78076 17.2591 6.79472 17.2557 6.80868C17.2446 6.85431 17.2329 6.89977 17.2208 6.94511C17.2158 6.96393 17.2107 6.98275 17.2055 7.00157C17.1933 7.0458 17.1809 7.0899 17.1677 7.13389C17.163 7.14953 17.158 7.16506 17.1531 7.18071C17.1223 7.28082 17.0894 7.38027 17.0537 7.47861C17.0532 7.48001 17.0527 7.48145 17.0522 7.48285L17.0331 7.53523C16.8769 7.95305 16.677 8.35513 16.4343 8.73478C15.808 9.71495 14.9303 10.505 13.8927 11.0233H8.17844C7.14081 10.505 6.26309 9.715 5.63678 8.73478C4.98061 7.70782 4.63383 6.5177 4.63383 5.29299V1.57744H9.3655V0.951172H4.00755V5.29295C4.00755 6.63737 4.38843 7.94411 5.10909 9.07192C5.59963 9.83965 6.23117 10.5006 6.96641 11.0232H2.14257V11.6494H8.03352H14.0376V11.6494ZM18.0636 5.29299V4.7712H18.9683C19.2562 4.7712 19.4902 5.00527 19.4902 5.29299C19.4902 5.58076 19.2561 5.81487 18.9683 5.81487H18.044C18.0568 5.64175 18.0636 5.46772 18.0636 5.29299ZM17.833 7.08043C17.834 7.07636 17.8352 7.07228 17.8363 7.0682C17.8514 7.0101 17.8654 6.9517 17.879 6.89327C17.8825 6.87836 17.8861 6.86349 17.8895 6.84859C17.9023 6.79196 17.9142 6.73509 17.9256 6.67814C17.9288 6.6622 17.932 6.64627 17.935 6.63033C17.9462 6.57227 17.9567 6.51404 17.9665 6.45564C17.9673 6.45078 17.9684 6.44597 17.9691 6.44107H18.9684C19.6015 6.44107 20.1165 5.92602 20.1165 5.29291C20.1165 4.65989 19.6015 4.14484 18.9684 4.14484H18.0636V3.30983H18.9683V3.30987C20.0618 3.30987 20.9515 4.19949 20.9515 5.29295C20.9515 6.38646 20.0618 7.27612 18.9683 7.27612H17.7792C17.7982 7.21122 17.8158 7.14591 17.833 7.08043Z" fill="#FF370A" fill-opacity="0.5"/>
</svg>
