<svg width="22" height="23" viewBox="0 0 22 23" fill="none" xmlns="http://www.w3.org/2000/svg">
<path d="M21.1997 1.24075C20.9913 1.03229 20.7142 0.91748 20.4195 0.91748C20.1248 0.917522 19.8477 1.03229 19.6393 1.24071L8.66337 12.2166C7.79949 11.6529 6.80181 11.3564 5.7613 11.3564C4.33955 11.3564 3.00283 11.9101 1.99749 12.9154C0.992191 13.9207 0.438519 15.2574 0.438519 16.6791C0.438519 18.1009 0.992191 19.4376 1.99749 20.4429C3.00283 21.4482 4.33951 22.0019 5.76126 22.0019C5.76134 22.0019 5.76134 22.0019 5.76143 22.0019C7.18306 22.0019 8.51974 21.4482 9.52503 20.4429C10.5304 19.4376 11.084 18.1009 11.084 16.6791C11.084 15.6387 10.7875 14.6411 10.2238 13.7772L12.2926 11.7085L11.8498 11.2656L9.40775 13.7076L9.56477 13.924C10.149 14.729 10.4579 15.6818 10.4579 16.6792C10.4579 17.9337 9.96933 19.1131 9.08226 20.0001C8.19519 20.8872 7.01583 21.3757 5.76134 21.3757C4.50682 21.3757 3.32741 20.8872 2.44039 20.0001C1.55323 19.1131 1.06475 17.9337 1.06475 16.6792C1.06475 15.4247 1.55323 14.2453 2.4403 13.3583C3.32737 12.4712 4.50678 11.9827 5.76126 11.9827C6.75878 11.9827 7.71153 12.2915 8.51661 12.8758L8.73297 13.0328L20.0821 1.68356C20.1723 1.59342 20.2921 1.54375 20.4195 1.54375C20.5469 1.54375 20.6667 1.59338 20.7569 1.6836C20.847 1.77371 20.8967 1.89354 20.8967 2.02099C20.8967 2.14845 20.847 2.26828 20.7568 2.35839L12.4402 10.6751L12.883 11.1179L21.1997 2.80124C21.408 2.59283 21.5228 2.31572 21.5228 2.02099C21.5228 1.72627 21.4081 1.44912 21.1997 1.24075Z" fill="#FF370A" fill-opacity="0.5"/>
<path d="M5.29723 13.6252H4.31294V14.2515H5.29723V13.6252Z" fill="#FF370A" fill-opacity="0.5"/>
<path d="M7.20105 13.6252H6.21675V14.2515H7.20105V13.6252Z" fill="#FF370A" fill-opacity="0.5"/>
<path d="M3.39342 15.4553H2.40912V16.0816H3.39342V15.4553Z" fill="#FF370A" fill-opacity="0.5"/>
<path d="M5.29723 15.4553H4.31294V16.0816H5.29723V15.4553Z" fill="#FF370A" fill-opacity="0.5"/>
<path d="M7.20105 15.4553H6.21675V16.0816H7.20105V15.4553Z" fill="#FF370A" fill-opacity="0.5"/>
<path d="M9.10486 15.4553H8.1206V16.0816H9.10486V15.4553Z" fill="#FF370A" fill-opacity="0.5"/>
<path d="M3.39342 17.2854H2.40912V17.9117H3.39342V17.2854Z" fill="#FF370A" fill-opacity="0.5"/>
<path d="M5.29723 17.2854H4.31294V17.9117H5.29723V17.2854Z" fill="#FF370A" fill-opacity="0.5"/>
<path d="M7.20105 17.2854H6.21675V17.9117H7.20105V17.2854Z" fill="#FF370A" fill-opacity="0.5"/>
<path d="M9.10486 17.2854H8.1206V17.9117H9.10486V17.2854Z" fill="#FF370A" fill-opacity="0.5"/>
<path d="M5.29723 19.1155H4.31294V19.7418H5.29723V19.1155Z" fill="#FF370A" fill-opacity="0.5"/>
<path d="M7.20105 19.1155H6.21675V19.7418H7.20105V19.1155Z" fill="#FF370A" fill-opacity="0.5"/>
</svg>
