<svg width="27" height="25" viewBox="0 0 22 20" fill="none" xmlns="http://www.w3.org/2000/svg">
<path d="M18.4755 16.4097V15.2773H17.8492V16.4097C17.8492 17.1521 17.2453 17.756 16.5029 17.756H13.5319V18.3824H16.5029C17.5906 18.3824 18.4755 17.4974 18.4755 16.4097Z" fill="#FF370A" fill-opacity="0.5"/>
<path d="M3.03491 5.5603H0.83933V6.18662H3.03491V12.8768V16.4099C3.03491 18.1883 4.48174 19.6352 6.26025 19.6352H7.94379H8.77884H16.5029C18.2813 19.6352 19.7281 18.1883 19.7281 16.4099V12.8768V6.18662H21.9237V5.5603H19.7282H3.03491ZM19.1018 11.624H10.0315V12.2503H19.1018V12.8768H8.37523V13.5031H19.1018V16.4099C19.1018 17.843 17.9359 19.0089 16.5029 19.0089H8.77889H7.94379H6.26025C4.82717 19.0089 3.66122 17.843 3.66122 16.4099V13.5031H7.54014V12.8768H3.66122V7.43924H19.1018V11.624ZM19.1018 6.81293H3.66122V6.18662H19.1018V6.81293Z" fill="#FF370A" fill-opacity="0.5"/>
<path d="M15.4842 4.93409H19.415V4.30778H15.4723C15.3118 2.19131 13.5384 0.518311 11.3815 0.518311C9.22466 0.518311 7.45123 2.19135 7.29075 4.30782H3.34809V4.93414H7.27893H15.4842V4.93409ZM12.6168 1.37211C12.6449 1.38294 12.6729 1.39385 12.7006 1.4053C12.7239 1.41485 12.7469 1.42469 12.7699 1.43478C12.7973 1.44677 12.8245 1.45908 12.8516 1.47176C12.8742 1.48243 12.8968 1.49322 12.9192 1.50429C12.9459 1.51756 12.9725 1.53123 12.9989 1.54519C13.0208 1.5568 13.0428 1.5685 13.0644 1.58052C13.0906 1.5951 13.1165 1.61013 13.1422 1.62532C13.1635 1.63784 13.1846 1.65032 13.2055 1.66329C13.2312 1.67915 13.2564 1.69558 13.2816 1.71209C13.3019 1.72539 13.3223 1.73861 13.3423 1.75232C13.3675 1.76962 13.3922 1.78753 13.4169 1.80545C13.4361 1.81941 13.4555 1.83316 13.4744 1.84749C13.4994 1.86635 13.5237 1.88591 13.5482 1.90543C13.5661 1.91981 13.5843 1.93385 13.6019 1.94855C13.627 1.96943 13.6515 1.99109 13.6759 2.01263C13.6921 2.02688 13.7086 2.04075 13.7245 2.05529C13.7509 2.07938 13.7763 2.10429 13.802 2.12917C13.8152 2.14206 13.8289 2.15453 13.8419 2.16763C13.8759 2.20173 13.909 2.23669 13.9416 2.27215C13.9456 2.27655 13.95 2.28079 13.954 2.2852C13.9905 2.32531 14.026 2.36633 14.0605 2.40812C14.071 2.42077 14.0808 2.43399 14.0911 2.44675C14.1148 2.4762 14.1385 2.50568 14.1612 2.53591C14.1738 2.55263 14.1856 2.56984 14.1979 2.58681C14.2175 2.61382 14.2371 2.64075 14.2559 2.66834C14.2687 2.68716 14.2809 2.70648 14.2934 2.72554C14.3106 2.75198 14.328 2.77834 14.3445 2.80527C14.3569 2.82553 14.3688 2.8462 14.3808 2.86671C14.3964 2.89319 14.4119 2.91967 14.4268 2.9466C14.4385 2.96789 14.4497 2.98955 14.4611 3.01113C14.4751 3.03794 14.4891 3.06479 14.5025 3.09201C14.5135 3.1142 14.5239 3.13677 14.5344 3.15926C14.547 3.18644 14.5596 3.2137 14.5715 3.24125C14.5815 3.26427 14.5911 3.28749 14.6006 3.31076C14.6119 3.33847 14.623 3.36631 14.6336 3.3944C14.6425 3.41803 14.6511 3.44184 14.6596 3.46572C14.6696 3.49397 14.6793 3.52243 14.6886 3.55101C14.6964 3.57522 14.704 3.59952 14.7114 3.62394C14.7201 3.6528 14.7283 3.68184 14.7362 3.71103C14.7428 3.7357 14.7494 3.76041 14.7556 3.78532C14.7629 3.81485 14.7696 3.84454 14.7762 3.87436C14.7817 3.89935 14.7872 3.92443 14.7921 3.94963C14.798 3.97982 14.8033 4.01029 14.8084 4.04072C14.8126 4.06597 14.817 4.09121 14.8207 4.11662C14.8253 4.14763 14.829 4.17897 14.8327 4.21026C14.8357 4.23551 14.8388 4.26075 14.8413 4.28616C14.842 4.29328 14.8423 4.30057 14.843 4.3077H13.5716C13.5112 3.70708 13.2975 2.89702 13.01 2.21243C12.8905 1.92775 12.7408 1.62306 12.5616 1.3516C12.5802 1.35835 12.5985 1.36515 12.6168 1.37211ZM11.6947 1.28649C11.9366 1.48935 12.1995 1.9 12.4326 2.45503C12.7086 3.11227 12.8826 3.82514 12.9411 4.30782H11.6947V1.28649ZM11.0684 1.28649V4.30778H9.82194C9.88038 3.8251 10.0545 3.11223 10.3304 2.45499C10.5635 1.89996 10.8264 1.48931 11.0684 1.28649ZM7.92163 4.28632C7.9241 4.26083 7.92731 4.23563 7.93028 4.21035C7.93398 4.17905 7.93769 4.14771 7.94222 4.1167C7.94593 4.09129 7.95029 4.06605 7.95453 4.04081C7.95968 4.01033 7.96491 3.9799 7.97084 3.94972C7.97582 3.92451 7.98126 3.89943 7.98678 3.87444C7.99333 3.84466 8.00004 3.81493 8.00737 3.78541C8.01354 3.76053 8.02009 3.73578 8.02676 3.71112C8.03471 3.68192 8.04287 3.65289 8.05155 3.62402C8.05888 3.5996 8.0665 3.5753 8.07437 3.55109C8.08363 3.52247 8.09327 3.49409 8.10332 3.4658C8.11176 3.44192 8.12037 3.41812 8.1293 3.39448C8.13997 3.36639 8.15105 3.33851 8.16237 3.31076C8.17184 3.28753 8.1814 3.26431 8.1914 3.24137C8.20339 3.21378 8.21591 3.18652 8.22855 3.1593C8.23897 3.13677 8.24943 3.11429 8.26038 3.09209C8.27376 3.06487 8.28777 3.03802 8.30185 3.01121C8.31317 2.98968 8.32438 2.96801 8.33611 2.94668C8.35098 2.91975 8.36654 2.89331 8.38207 2.86679C8.39413 2.84628 8.40595 2.82561 8.41839 2.80539C8.43494 2.77846 8.45228 2.7521 8.46954 2.72567C8.48201 2.7066 8.49412 2.68725 8.50697 2.66847C8.52575 2.64088 8.54543 2.61394 8.56499 2.58693C8.57726 2.56996 8.58912 2.55275 8.60168 2.53603C8.62442 2.5058 8.6481 2.47632 8.67177 2.44688C8.68207 2.43407 8.69191 2.42089 8.70237 2.40825C8.73696 2.36645 8.77242 2.32543 8.80886 2.28532C8.8129 2.28084 8.81722 2.27668 8.8213 2.27227C8.85387 2.23681 8.88698 2.20181 8.92096 2.16775C8.93401 2.15466 8.94768 2.14218 8.96094 2.12929C8.98656 2.10446 9.01205 2.0795 9.0384 2.05541C9.0543 2.04088 9.07081 2.027 9.08696 2.01275C9.11142 1.99117 9.13584 1.96955 9.16096 1.94867C9.17862 1.93397 9.19678 1.91989 9.21474 1.90556C9.23912 1.88604 9.2635 1.86648 9.28845 1.84762C9.30739 1.83329 9.32679 1.81953 9.34602 1.80557C9.37073 1.78766 9.39548 1.76974 9.42064 1.75245C9.44065 1.73869 9.461 1.72552 9.4813 1.71222C9.50646 1.69566 9.53175 1.67927 9.55736 1.66342C9.57828 1.65049 9.59945 1.63801 9.62065 1.62545C9.64643 1.61025 9.6723 1.59522 9.69849 1.58064C9.72019 1.56858 9.7421 1.55688 9.76404 1.54531C9.79044 1.53139 9.81696 1.51772 9.84373 1.50442C9.86609 1.4933 9.88866 1.48251 9.91135 1.47189C9.9384 1.4592 9.96566 1.44689 9.99305 1.43491C10.016 1.4249 10.039 1.41502 10.0622 1.40546C10.09 1.39401 10.118 1.38306 10.1462 1.37231C10.1644 1.36535 10.1828 1.35852 10.2012 1.35184C10.0221 1.62335 9.87239 1.928 9.75284 2.21268C9.4654 2.89722 9.25164 3.70729 9.19131 4.30794H7.91986C7.92056 4.30074 7.92089 4.29345 7.92163 4.28632Z" fill="#FF370A" fill-opacity="0.5"/>
</svg>
