<svg width="22" height="18" viewBox="0 0 22 18" fill="none" xmlns="http://www.w3.org/2000/svg">
<path d="M15.4821 0.783203V1.41256H20.9134L19.8024 3.41859V7.36479V15.1979C19.8024 16.2892 18.9146 17.1771 17.8233 17.1771H7.32144C6.23011 17.1771 5.34226 16.2892 5.34226 15.1979V7.36483V2.67129V1.41256H14.6327V0.783203H5.34226H4.7129H3.12634C1.89706 0.783203 0.897034 1.78327 0.897034 3.01247V10.66H2.78512V3.01247C2.78512 2.82431 2.93819 2.67129 3.12634 2.67129H4.7129V7.36483V15.1979C4.7129 16.6363 5.88308 17.8064 7.3214 17.8064H17.8232C19.2615 17.8064 20.4317 16.6362 20.4317 15.1979V7.36483V3.58125L21.9814 0.783203H15.4821V0.783203ZM4.7129 2.04193H3.12634C2.59112 2.04193 2.15576 2.47733 2.15576 3.01247V10.0307H1.5264V3.01247C1.5264 2.13026 2.24413 1.41256 3.12634 1.41256H4.7129V2.04193Z" fill="#FF370A" fill-opacity="0.5"/>
<path d="M19.1731 4.75854H18.5438V7.90992H19.1731V4.75854Z" fill="#FF370A" fill-opacity="0.5"/>
<path d="M19.1731 15.1977V8.74927H18.5437V15.1977C18.5437 15.595 18.2206 15.9182 17.8233 15.9182H15.0576V16.5476H17.8233C18.5675 16.5476 19.1731 15.9421 19.1731 15.1977Z" fill="#FF370A" fill-opacity="0.5"/>
<path d="M10.9877 3.3313H6.4748V3.96066H10.9877V3.3313Z" fill="#FF370A" fill-opacity="0.5"/>
<path d="M9.76841 4.81787H6.4748V5.44723H9.76841V4.81787Z" fill="#FF370A" fill-opacity="0.5"/>
<path d="M10.9877 6.3042H6.4748V6.93356H10.9877V6.3042Z" fill="#FF370A" fill-opacity="0.5"/>
<path d="M9.76841 7.79077H6.4748V8.42013H9.76841V7.79077Z" fill="#FF370A" fill-opacity="0.5"/>
<path d="M9.76841 10.7639H6.4748V11.3933H9.76841V10.7639Z" fill="#FF370A" fill-opacity="0.5"/>
<path d="M10.9877 9.27759H6.4748V9.90695H10.9877V9.27759Z" fill="#FF370A" fill-opacity="0.5"/>
<path d="M10.9877 12.2505H6.4748V12.8798H10.9877V12.2505Z" fill="#FF370A" fill-opacity="0.5"/>
</svg>
