<svg width="25" height="27" viewBox="0 0 20 22" fill="none" xmlns="http://www.w3.org/2000/svg">
<path d="M14.0577 6.44241C17.048 6.44241 19.4807 4.00963 19.4807 1.01944V0.706299H0.595245V1.01944C0.595245 4.00967 3.02802 6.44241 6.01822 6.44241H7.71934V8.10833H0.595245V20.538H3.56646V19.9118H1.22152V8.7346H7.71934H12.3566H18.8544V19.9118H4.4016V20.538H19.4807V8.10833H12.3566V6.44241H14.0577ZM11.7303 8.10833H8.34562V6.44241H11.7303V8.10833ZM7.71934 5.81614H6.01822C3.47858 5.81614 1.39353 3.83198 1.23161 1.33253H18.8443C18.6824 3.83198 16.5974 5.81614 14.0577 5.81614H12.3566H7.71934Z" fill="#FF370A" fill-opacity="0.5"/>
<path d="M18.0776 2.13008L17.474 1.96313C17.0505 3.49423 15.6455 4.56356 14.0574 4.56356V5.18983C15.9261 5.18983 17.5794 3.9316 18.0776 2.13008Z" fill="#FF370A" fill-opacity="0.5"/>
<path d="M19.4802 21.1646H0.594872V21.7908H19.4802V21.1646Z" fill="#FF370A" fill-opacity="0.5"/>
<path d="M14.8069 14.3231C14.8069 11.6932 12.6674 9.55371 10.0376 9.55371C7.40778 9.55371 5.26829 11.6932 5.26829 14.3231C5.26829 16.9529 7.40778 19.0924 10.0376 19.0924C12.6674 19.0924 14.8069 16.9529 14.8069 14.3231ZM5.89456 14.3231C5.89456 12.0386 7.75316 10.1799 10.0376 10.1799C12.3221 10.1799 14.1807 12.0385 14.1807 14.3231C14.1807 16.6076 12.3221 18.4662 10.0376 18.4662C7.75316 18.4662 5.89456 16.6076 5.89456 14.3231Z" fill="#FF370A" fill-opacity="0.5"/>
<path d="M10.9482 14.3233C10.9482 13.9311 10.699 13.5961 10.3507 13.4682V10.7476H9.72446V13.4682C9.37615 13.5961 9.12701 13.9312 9.12701 14.3233C9.12701 14.8253 9.53552 15.2338 10.0376 15.2338C10.5397 15.2338 10.9482 14.8253 10.9482 14.3233ZM9.75328 14.3233C9.75328 14.1665 9.88082 14.039 10.0376 14.039C10.1944 14.039 10.3219 14.1665 10.3219 14.3233C10.3219 14.48 10.1944 14.6075 10.0376 14.6075C9.88082 14.6075 9.75328 14.48 9.75328 14.3233Z" fill="#FF370A" fill-opacity="0.5"/>
<path d="M10.3507 17.0786H9.72447V17.8987H10.3507V17.0786Z" fill="#FF370A" fill-opacity="0.5"/>
<path d="M13.6133 14.01H12.7932V14.6363H13.6133V14.01Z" fill="#FF370A" fill-opacity="0.5"/>
<path d="M7.28213 14.01H6.46202V14.6363H7.28213V14.01Z" fill="#FF370A" fill-opacity="0.5"/>
<path d="M12.7866 12.0158L12.3437 11.573L11.7638 12.1529L12.2067 12.5957L12.7866 12.0158Z" fill="#FF370A" fill-opacity="0.5"/>
<path d="M7.28854 16.6304L7.73138 17.0732L8.31128 16.4933L7.86844 16.0505L7.28854 16.6304Z" fill="#FF370A" fill-opacity="0.5"/>
<path d="M11.7647 16.4931L12.3446 17.073L12.7874 16.6302L12.2075 16.0503L11.7647 16.4931Z" fill="#FF370A" fill-opacity="0.5"/>
<path d="M8.31055 12.1534L7.73065 11.5735L7.28781 12.0163L7.86771 12.5962L8.31055 12.1534Z" fill="#FF370A" fill-opacity="0.5"/>
<path d="M9.27228 11.6581L8.9584 10.9004L8.37983 11.14L8.6937 11.8978L9.27228 11.6581Z" fill="#FF370A" fill-opacity="0.5"/>
<path d="M10.8027 16.9879L11.1165 17.7456L11.6951 17.5059L11.3812 16.7482L10.8027 16.9879Z" fill="#FF370A" fill-opacity="0.5"/>
<path d="M12.7021 13.5578L13.4598 13.2439L13.2202 12.6653L12.4624 12.9792L12.7021 13.5578Z" fill="#FF370A" fill-opacity="0.5"/>
<path d="M7.37249 15.089L6.61479 15.4028L6.85447 15.9814L7.61217 15.6676L7.37249 15.089Z" fill="#FF370A" fill-opacity="0.5"/>
<path d="M11.696 11.14L11.1175 10.9004L10.8036 11.6582L11.3822 11.8978L11.696 11.14Z" fill="#FF370A" fill-opacity="0.5"/>
<path d="M8.37925 17.5059L8.95782 17.7456L9.27171 16.9878L8.69314 16.7482L8.37925 17.5059Z" fill="#FF370A" fill-opacity="0.5"/>
<path d="M12.4631 15.6658L13.2209 15.9797L13.4606 15.4011L12.7028 15.0872L12.4631 15.6658Z" fill="#FF370A" fill-opacity="0.5"/>
<path d="M7.61194 12.9804L6.85416 12.6665L6.61449 13.2451L7.37226 13.559L7.61194 12.9804Z" fill="#FF370A" fill-opacity="0.5"/>
<path d="M18.2279 10.2983H17.6017V18.3484H18.2279V10.2983Z" fill="#FF370A" fill-opacity="0.5"/>
</svg>
