<svg width="22" height="15" viewBox="0 0 22 15" fill="none" xmlns="http://www.w3.org/2000/svg">
<path d="M5.88362 12.7134H20.8668C20.7175 13.5894 19.953 14.2584 19.0352 14.2584H2.91932C2.00153 14.2584 1.23702 13.5894 1.08774 12.7134H5.04864V12.0872H0.43507V12.4003C0.43507 13.7702 1.5495 14.8846 2.91932 14.8846H19.0353C20.4051 14.8846 21.5195 13.7702 21.5195 12.4003V12.0872H5.88362V12.7134Z" fill="#FF370A" fill-opacity="0.5"/>
<path d="M5.82806 2.32837H5.20179V4.26937H5.82806V2.32837Z" fill="#FF370A" fill-opacity="0.5"/>
<path d="M6.10624 8.20905C6.62824 9.02607 7.3524 9.70411 8.20022 10.1698L8.50171 9.62084C7.74555 9.20557 7.09972 8.60076 6.63401 7.8719C6.10673 7.04669 5.82806 6.08974 5.82806 5.10449H5.20179C5.20179 6.20945 5.51456 7.28302 6.10624 8.20905Z" fill="#FF370A" fill-opacity="0.5"/>
<path d="M13.9793 11.461H19.8702V10.8347H15.0464C15.7817 10.3121 16.4133 9.65113 16.9038 8.88345C17.1414 8.5115 17.3413 8.11975 17.5036 7.71392H18.91C20.3489 7.71392 21.5195 6.54332 21.5195 5.10448C21.5195 3.66563 20.3489 2.49512 18.91 2.49512H18.0053V0.762695H10.1423V1.38897H17.379V2.01524H10.9773V2.64151H17.379V4.58268V5.10448C17.379 5.37668 17.3609 5.64695 17.3271 5.91433C17.3202 5.96848 17.3128 6.02255 17.3047 6.0765C17.3041 6.08029 17.3034 6.08412 17.3028 6.08791C17.2774 6.25263 17.2453 6.41624 17.2072 6.57829C17.2039 6.59229 17.2008 6.60625 17.1974 6.62021C17.1863 6.66583 17.1746 6.7113 17.1625 6.75664C17.1575 6.77546 17.1524 6.79428 17.1472 6.8131C17.135 6.85732 17.1226 6.90143 17.1094 6.94541C17.1047 6.96106 17.0997 6.97658 17.0948 6.99223C17.064 7.09234 17.0311 7.19179 16.9954 7.29013C16.9949 7.29153 16.9944 7.29297 16.9939 7.29437L16.9748 7.34675C16.8186 7.76457 16.6187 8.16666 16.376 8.5463C15.7497 9.52648 14.872 10.3165 13.8344 10.8348H8.12013C7.08251 10.3165 6.20479 9.52652 5.57847 8.5463C4.9223 7.51934 4.57552 6.32923 4.57552 5.10452V1.38897H9.3072V0.762695H3.94925V5.10448C3.94925 6.4489 4.33013 7.75564 5.05079 8.88345C5.54133 9.65117 6.17287 10.3121 6.90811 10.8347H2.08427V11.461H7.97522H13.9793V11.461ZM18.0053 5.10452V4.58272H18.91C19.1978 4.58272 19.4319 4.81679 19.4319 5.10452C19.4319 5.39229 19.1978 5.6264 18.91 5.6264H17.9857C17.9985 5.45328 18.0053 5.27925 18.0053 5.10452ZM17.7746 6.89196C17.7757 6.88788 17.7769 6.8838 17.778 6.87973C17.7931 6.82162 17.8071 6.76323 17.8207 6.70479C17.8241 6.68988 17.8278 6.67502 17.8312 6.66011C17.844 6.60349 17.8559 6.54662 17.8673 6.48966C17.8705 6.47373 17.8736 6.45779 17.8767 6.44185C17.8879 6.38379 17.8984 6.32556 17.9082 6.26717C17.909 6.26231 17.9101 6.25749 17.9108 6.25259H18.9101C19.5431 6.25259 20.0582 5.73754 20.0582 5.10444C20.0582 4.47141 19.5431 3.95636 18.9101 3.95636H18.0053V3.12135H18.91V3.12139C20.0035 3.12139 20.8932 4.01101 20.8932 5.10448C20.8932 6.19798 20.0035 7.08765 18.91 7.08765H17.7209C17.7399 7.02275 17.7575 6.95743 17.7746 6.89196Z" fill="#FF370A" fill-opacity="0.5"/>
</svg>
