<svg width="22" height="14" viewBox="0 0 22 14" fill="none" xmlns="http://www.w3.org/2000/svg">
<path d="M21.1324 0.165283H0.048027V0.478419C0.048027 1.11964 0.23301 1.73088 0.577979 2.25301H0.048027V2.56615C0.048027 3.20741 0.23301 3.81869 0.57802 4.34082H0.048027V4.65396C0.048027 5.29518 0.23301 5.90642 0.577979 6.42855H0.048027V6.74168C0.048027 7.38295 0.23301 7.99423 0.57802 8.51636H0.048027V8.82949C0.048027 10.6114 1.4977 12.061 3.27962 12.061H5.83059V11.4347H3.27962C1.94896 11.4347 0.848123 10.4321 0.692996 9.14263H1.24131H2.01024H5.83059V8.51636H1.3733C0.993325 8.10929 0.757855 7.60198 0.69279 7.05482H1.24136H2.01028H5.83063V6.42855H1.3733C0.993325 6.02148 0.757855 5.51422 0.69279 4.96709H1.24136H2.01028H5.83063V4.34082H1.3733C0.993325 3.93375 0.757855 3.42645 0.69279 2.87928H1.24136H2.01028H5.83063V2.25301H1.3733C0.993325 1.84594 0.757855 1.33868 0.69279 0.791556H20.4877C20.4226 1.33872 20.1872 1.84598 19.8072 2.25301H6.66565V2.87928H19.1703H19.9392H20.4877C20.4226 3.42649 20.1872 3.93379 19.8072 4.34082H6.66565V4.96709H19.1703H19.9392H20.4877C20.4226 5.51426 20.1872 6.02152 19.8072 6.42855H6.66565V7.05482H19.1703H19.9392H20.4877C20.4226 7.60203 20.1872 8.10933 19.8072 8.51636H6.66565V9.14263H19.1703H19.9392H20.4875C20.3324 10.4321 19.2315 11.4347 17.9009 11.4347H6.66569V12.061H17.9009C19.6828 12.061 21.1324 10.6113 21.1324 8.82949V8.51636H20.6025C20.9475 7.99423 21.1324 7.38295 21.1324 6.74168V6.42855H20.6025C20.9475 5.90642 21.1324 5.29518 21.1324 4.65396V4.34082H20.6025C20.9475 3.81869 21.1324 3.20741 21.1324 2.56615V2.25301H20.6025C20.9475 1.73092 21.1324 1.11964 21.1324 0.478419V0.165283Z" fill="#FF370A" fill-opacity="0.5"/>
<path d="M21.1317 12.6873H0.0473289V13.3135H21.1317V12.6873Z" fill="#FF370A" fill-opacity="0.5"/>
<path d="M19.2842 9.76904H7.91745V10.3953H19.2842V9.76904Z" fill="#FF370A" fill-opacity="0.5"/>
</svg>
