<svg width="16" height="22" viewBox="0 0 16 22" fill="none" xmlns="http://www.w3.org/2000/svg">
<path d="M13.1472 1.98901H9.2007C8.55528 1.98901 8.03019 2.51411 8.03019 3.15957C8.03019 3.80495 8.55524 4.33004 9.2007 4.33004H13.1472C13.7927 4.33004 14.3178 3.80499 14.3178 3.15957C14.3178 2.51415 13.7927 1.98901 13.1472 1.98901ZM13.1472 3.70377H9.2007C8.90058 3.70377 8.65646 3.45965 8.65646 3.15957C8.65646 2.85945 8.90062 2.61529 9.2007 2.61529H13.1472C13.4474 2.61529 13.6915 2.85945 13.6915 3.15957C13.6915 3.45965 13.4474 3.70377 13.1472 3.70377Z" fill="#FF370A" fill-opacity="0.5"/>
<path d="M14.2035 0.450195H2.06845C1.15684 0.450195 0.415181 1.19186 0.415181 2.10347V5.27338V5.89965V7.88261C0.415181 9.34287 1.52302 10.5488 2.94226 10.7052V12.1586H4.90373V13.1423C4.65047 13.3604 4.24406 13.9422 3.57928 15.4943C3.08771 16.6421 2.56241 18.1344 2.56241 18.8803C2.56241 20.3439 3.75319 21.5346 5.21683 21.5346C6.68034 21.5346 7.87095 20.3439 7.87095 18.8803C7.87095 18.1343 7.34577 16.6422 6.8542 15.4943C6.18951 13.9422 5.78314 13.3605 5.52988 13.1423V12.1586H7.4911V10.7228H9.26792V10.0966H7.4911H3.2554C2.03464 10.0966 1.04145 9.10337 1.04145 7.88261V5.89965H15.2305V7.88261C15.2305 9.10337 14.2373 10.0966 13.0165 10.0966H10.1032V10.7228H13.0165C14.5827 10.7228 15.8568 9.44871 15.8568 7.88261V5.89965V5.27338V2.10347C15.8568 1.19186 15.1151 0.450195 14.2035 0.450195ZM6.35563 15.9229C6.89575 17.2156 7.24476 18.3764 7.24476 18.8802C7.24476 19.5619 6.90634 20.1658 6.38903 20.5336C6.78094 19.6681 6.7905 18.284 6.41666 16.4174C6.36716 16.1701 6.3128 15.9257 6.25598 15.6881C6.28888 15.7644 6.32207 15.8426 6.35563 15.9229ZM5.53004 15.3748C5.95622 17.006 6.34093 19.1993 5.79978 20.3163C5.7252 20.4702 5.63563 20.5956 5.53004 20.6941V15.3748ZM4.04458 20.5336C3.52723 20.1658 3.18877 19.5619 3.18877 18.8802C3.18877 18.3764 3.53782 17.2156 4.07806 15.9229C4.11154 15.8427 4.14469 15.7647 4.17755 15.6885C4.12077 15.9259 4.06649 16.1701 4.01699 16.4172C3.64307 18.2839 3.65263 19.668 4.04458 20.5336ZM4.90377 20.6943C4.79806 20.5956 4.70841 20.4702 4.63375 20.3161C4.09227 19.1982 4.47731 17.0046 4.90377 15.3736V20.6943ZM3.56858 10.7229H6.86499V11.5324H3.56858V10.7229ZM15.2305 5.27338H1.04145V2.10347C1.04145 1.5372 1.50214 1.07647 2.06845 1.07647H14.2035C14.7698 1.07647 15.2305 1.5372 15.2305 2.10347V5.27338Z" fill="#FF370A" fill-opacity="0.5"/>
<path d="M4.27733 6.8689H3.65106V9.12682H4.27733V6.8689Z" fill="#FF370A" fill-opacity="0.5"/>
<path d="M5.52984 6.8689H4.90357V9.12682H5.52984V6.8689Z" fill="#FF370A" fill-opacity="0.5"/>
<path d="M6.78238 6.8689H6.15611V9.12682H6.78238V6.8689Z" fill="#FF370A" fill-opacity="0.5"/>
</svg>
