<svg width="24" height="27" viewBox="0 0 19 22" fill="none" xmlns="http://www.w3.org/2000/svg">
<path d="M18.4013 10.6457L11.3184 3.56284C11.2148 3.45919 11.1024 3.36954 10.984 3.29311C11.2938 2.77012 11.4731 2.11185 11.4731 1.6867C11.4731 0.811861 10.7614 0.100098 9.88649 0.100098C9.01161 0.100098 8.29989 0.811861 8.29989 1.6867C8.29989 2.11185 8.47931 2.77012 8.78907 3.29311C8.67064 3.36954 8.5583 3.45919 8.45469 3.56284L1.37185 10.6457C0.582298 11.4352 0.582298 12.72 1.37185 13.5096L2.71726 14.855L3.16007 14.4122L2.72636 13.9784L4.18427 12.5205L5.64223 13.9784L4.18431 15.4363L3.75064 15.0027L3.30783 15.4455L8.45469 20.5924C8.84949 20.9871 9.36803 21.1845 9.88662 21.1845C10.4052 21.1845 10.9237 20.9871 11.3185 20.5924L18.4013 13.5096C19.1908 12.72 19.1908 11.4352 18.4013 10.6457ZM17.0467 10.1768L15.5888 11.6348L14.1309 10.1768L15.5888 8.71893L17.0467 10.1768ZM10.3294 10.1768L11.7873 8.71893L13.2453 10.1768L11.7873 11.6348L10.3294 10.1768ZM11.3444 12.0776L9.88653 13.5355L8.42862 12.0776L9.88653 10.6197L11.3444 12.0776ZM9.88653 9.73398L8.42862 8.27603L9.88653 6.81812L11.3444 8.27607L9.88653 9.73398ZM9.44372 10.1768L7.98581 11.6348L6.52785 10.1768L7.98577 8.71888L9.44372 10.1768ZM9.44372 13.9784L7.98577 15.4363L6.52785 13.9784L7.98581 12.5205L9.44372 13.9784ZM9.88653 14.4212L11.3445 15.8791L9.88653 17.3371L8.42858 15.8791L9.88653 14.4212ZM10.3294 13.9783L11.7873 12.5204L13.2453 13.9783L11.7873 15.4362L10.3294 13.9783ZM12.2302 12.0776L13.6881 10.6197L15.146 12.0776L13.6881 13.5355L12.2302 12.0776ZM15.146 8.27607L13.688 9.73398L12.2301 8.27615L13.6881 6.8182L15.146 8.27607ZM13.2453 6.37534L11.7873 7.83326L10.3293 6.3753L11.7873 4.91739L13.2453 6.37534ZM9.88649 0.726412C10.416 0.726412 10.8468 1.1572 10.8468 1.68674C10.8468 2.03484 10.6746 2.61754 10.4069 3.03742C10.3953 3.03433 10.3834 3.03219 10.3717 3.02931C10.3678 3.02836 10.3638 3.02749 10.3599 3.02659C10.2727 3.00571 10.1841 2.99076 10.0947 2.98166C10.0857 2.98075 10.0767 2.97985 10.0677 2.97903C10.0408 2.97664 10.014 2.97458 9.98701 2.97326C9.98063 2.97293 9.97425 2.97289 9.96787 2.97264C9.91347 2.97046 9.85907 2.97046 9.80467 2.97264C9.79849 2.97289 9.79235 2.97293 9.78622 2.97322C9.75912 2.9745 9.73207 2.97664 9.70505 2.97903C9.69628 2.97981 9.68755 2.98067 9.67878 2.98158C9.58892 2.99072 9.49989 3.00575 9.4123 3.02675C9.40876 3.02758 9.40517 3.02836 9.40159 3.02922C9.38977 3.03215 9.37779 3.03433 9.36601 3.03746C9.09838 2.61758 8.92612 2.03488 8.92612 1.68674C8.9262 1.1572 9.35699 0.726412 9.88649 0.726412ZM8.8975 4.00574C9.4429 3.46038 10.3302 3.46038 10.8756 4.00574L11.3444 4.47458L9.88653 5.93249L8.42862 4.47458L8.8975 4.00574ZM7.98577 4.91739L9.44368 6.3753L7.98577 7.83322L6.52785 6.3753L7.98577 4.91739ZM6.08504 6.81816L7.54295 8.27607L6.085 9.73402L4.62709 8.27611L6.08504 6.81816ZM2.28346 13.5355L1.81466 13.0667C1.26927 12.5213 1.26927 11.6339 1.81466 11.0885L2.28346 10.6197L3.74138 12.0776L2.28346 13.5355ZM2.72636 10.1769L4.18427 8.71897L5.64223 10.1768L4.18423 11.6348L2.72636 10.1769ZM4.62709 12.0776L6.08504 10.6197L7.54299 12.0776L6.08504 13.5356L4.62709 12.0776ZM4.62713 15.8791L6.08504 14.4212L7.54295 15.8791L6.08504 17.3371L4.62713 15.8791ZM6.52785 17.7799L7.98577 16.322L9.44372 17.7799L7.98581 19.2378L6.52785 17.7799ZM10.8756 20.1495C10.3303 20.6949 9.44285 20.6949 8.89746 20.1495L8.42866 19.6807L9.88653 18.2228L11.3444 19.6807L10.8756 20.1495ZM11.7873 19.2378L10.3293 17.7799L11.7873 16.322L13.2452 17.7799L11.7873 19.2378ZM13.6881 17.3371L12.2302 15.8791L13.6881 14.4212L15.146 15.8791L13.6881 17.3371ZM15.5889 15.4363L14.1309 13.9784L15.5888 12.5205L17.0468 13.9784L15.5889 15.4363ZM17.9584 13.0667L17.4896 13.5355L16.0317 12.0776L17.4896 10.6196L17.9584 11.0885C18.5038 11.6339 18.5038 12.5213 17.9584 13.0667Z" fill="#FF370A" fill-opacity="0.5"/>
</svg>
