<svg width="16" height="22" viewBox="0 0 16 22" fill="none" xmlns="http://www.w3.org/2000/svg">
<path d="M4.39559 7.92798C3.86992 7.92798 3.4423 8.35564 3.4423 8.88135V15.485H4.06858V8.88135C4.06858 8.70102 4.2153 8.55425 4.39563 8.55425C4.57596 8.55425 4.72269 8.70102 4.72269 8.88135V18.5397C4.72269 18.7201 4.57596 18.8668 4.39563 18.8668C4.2153 18.8668 4.06858 18.7201 4.06858 18.5397V16.3201H3.4423V18.5397C3.4423 19.0654 3.86996 19.4931 4.39559 19.4931C4.92122 19.4931 5.34892 19.0654 5.34892 18.5397V8.88135C5.34892 8.35564 4.92126 7.92798 4.39559 7.92798Z" fill="#FF370A" fill-opacity="0.5"/>
<path d="M8.01209 19.4931C8.53776 19.4931 8.96541 19.0654 8.96541 18.5397V8.88135C8.96541 8.35564 8.53776 7.92798 8.01209 7.92798C7.48642 7.92798 7.0588 8.35564 7.0588 8.88135V18.5397C7.0588 19.0654 7.48642 19.4931 8.01209 19.4931ZM7.68503 8.88135C7.68503 8.70102 7.83176 8.55425 8.01209 8.55425C8.19242 8.55425 8.33914 8.70102 8.33914 8.88135V18.5397C8.33914 18.7201 8.19242 18.8668 8.01209 18.8668C7.83176 18.8668 7.68503 18.7201 7.68503 18.5397V8.88135Z" fill="#FF370A" fill-opacity="0.5"/>
<path d="M11.6286 19.4931C12.1543 19.4931 12.5819 19.0654 12.5819 18.5397V8.88135C12.5819 8.35564 12.1543 7.92798 11.6286 7.92798C11.1029 7.92798 10.6753 8.35564 10.6753 8.88135V18.5397C10.6753 19.0654 11.1029 19.4931 11.6286 19.4931ZM11.3016 8.88135C11.3016 8.70102 11.4483 8.55425 11.6286 8.55425C11.8089 8.55425 11.9557 8.70102 11.9557 8.88135V18.5397C11.9557 18.7201 11.8089 18.8668 11.6286 18.8668C11.4483 18.8668 11.3016 18.7201 11.3016 18.5397V8.88135Z" fill="#FF370A" fill-opacity="0.5"/>
<path d="M12.9179 2.92483H10.7241V2.10258C10.7241 1.02114 9.84426 0.141357 8.76286 0.141357H7.2613C6.1799 0.141357 5.30008 1.02114 5.30008 2.10258V2.92483H3.10631C1.81329 2.92483 0.76125 3.97678 0.76125 5.26989V6.82161H1.22745V20.2446C1.22745 20.7856 1.66759 21.2258 2.20862 21.2258H13.8156C14.3566 21.2258 14.7968 20.7856 14.7968 20.2446V6.82161H15.263V5.26985C15.2629 3.97678 14.2109 2.92483 12.9179 2.92483ZM5.92639 2.10258C5.92639 1.36652 6.52524 0.76763 7.26134 0.76763H8.76291C9.49897 0.76763 10.0979 1.36652 10.0979 2.10258V2.92483H9.47158V2.10258C9.47158 1.71182 9.15367 1.3939 8.76291 1.3939H7.26134C6.87058 1.3939 6.55267 1.71182 6.55267 2.10258V2.92483H5.92639V2.10258V2.10258ZM8.84535 2.10258V2.92483H8.84531H7.17898V2.10258C7.17898 2.05716 7.21592 2.02018 7.26138 2.02018H8.76295C8.80833 2.02018 8.84535 2.05716 8.84535 2.10258ZM14.6366 6.19534H14.1704H6.35595V6.82161H14.1704V20.2446C14.1704 20.4403 14.0112 20.5995 13.8155 20.5995H2.20862C2.01293 20.5995 1.85373 20.4403 1.85373 20.2446V6.82161H5.52093V6.19534H1.85377H1.38756V5.26985C1.38756 4.32212 2.15859 3.5511 3.10635 3.5511H5.30012H7.17894H8.84527H10.7241H12.9179C13.8656 3.5511 14.6367 4.32216 14.6367 5.26989V6.19534H14.6366Z" fill="#FF370A" fill-opacity="0.5"/>
<path d="M11.6286 4.94263H4.48412V5.5689H11.6286V4.94263Z" fill="#FF370A" fill-opacity="0.5"/>
</svg>
