<svg width="22" height="22" viewBox="0 0 22 22" fill="none" xmlns="http://www.w3.org/2000/svg">
<path d="M14.8102 16.4556H14.1839V18.1521H14.8102V16.4556Z" fill="#FF370A" fill-opacity="0.5"/>
<path d="M10.8497 8.9585V9.58481C12.6881 9.58481 14.1838 11.0804 14.1838 12.9188V15.6203H14.8101V12.9188C14.81 10.7351 13.0335 8.9585 10.8497 8.9585Z" fill="#FF370A" fill-opacity="0.5"/>
<path d="M20.2331 8.59133V8.59137C18.2083 8.59137 16.561 10.2387 16.561 12.2634L16.5605 12.8517C16.5605 13.0935 16.3639 13.2901 16.1222 13.2901H16.0626V12.9187C16.0626 11.1804 15.2071 9.6383 13.8952 8.69065C14.2523 8.25402 14.4516 7.70405 14.4516 7.13255V3.9376C14.4516 2.58062 13.3476 1.47666 11.9906 1.47666H11.7967V0.850342H4.915V1.4767H4.36915C3.01217 1.4767 1.90816 2.58066 1.90816 3.93764V7.13263C1.90816 7.70413 2.10748 8.2541 2.46455 8.69073C1.15267 9.63834 0.297142 11.1804 0.297142 12.9188V21.1812H16.0626V18.0316C17.5971 17.8743 18.7981 16.5742 18.7981 14.999V12.2636C18.7981 11.4723 19.4418 10.8286 20.2331 10.8286H21.3815V8.59141H20.2331V8.59133ZM5.54127 1.47661H11.1706V2.10305H5.54127V1.47661ZM2.53444 3.9376C2.53444 2.92596 3.35747 2.10297 4.36911 2.10297H4.91492V2.72937H11.7968V2.10297H11.9906C13.0023 2.10297 13.8253 2.926 13.8253 3.9376V7.13259C13.8253 7.58426 13.6579 8.01772 13.3607 8.35182C12.6528 7.96106 11.845 7.72987 10.986 7.70767V7.0819H12.731V6.35107C12.731 5.71796 12.2159 5.20283 11.5827 5.20283H9.14971C9.21041 5.06904 9.24451 4.92074 9.24451 4.76455C9.24451 4.17748 8.76694 3.69995 8.17991 3.69995C7.59288 3.69995 7.11531 4.17752 7.11531 4.76455C7.11531 4.92074 7.14941 5.06904 7.21011 5.20283H4.777C4.14385 5.20283 3.62877 5.71796 3.62877 6.35107V7.0819H5.37375V7.70767C4.51476 7.72979 3.70697 7.96098 2.99903 8.35182C2.70188 8.01776 2.53444 7.5843 2.53444 7.13259V3.9376V3.9376ZM5.37375 6.45562H4.25508V6.35111C4.25508 6.0633 4.48919 5.82919 4.777 5.82919H11.5828C11.8706 5.82919 12.1047 6.0633 12.1047 6.35111V6.45562H10.986H5.37375ZM10.3597 7.08194V7.70595H6.00006V7.08194H10.3597ZM7.74158 4.76463C7.74158 4.52298 7.93822 4.32635 8.17987 4.32635C8.42152 4.32635 8.61815 4.52298 8.61815 4.76463C8.61815 5.00632 8.42152 5.20291 8.17987 5.20291C7.93822 5.20291 7.74158 5.00628 7.74158 4.76463ZM15.4363 13.2901V18.0476V20.5549H0.923456V12.9188C0.923456 10.4354 2.90753 8.4068 5.37379 8.33444V8.33465H10.986V8.33444C13.4523 8.40675 15.4364 10.4353 15.4364 12.9188V13.2901H15.4363ZM20.2331 10.2022C19.0965 10.2022 18.1718 11.1269 18.1718 12.2634V14.9989C18.1718 16.2285 17.2509 17.2471 16.0626 17.4011V13.9164H16.1222C16.6836 13.9164 17.1449 13.4795 17.1841 12.9279L17.1872 12.9214V12.2634C17.1872 10.5839 18.5536 9.21764 20.2331 9.21764H20.7552V10.2022H20.2331V10.2022Z" fill="#FF370A" fill-opacity="0.5"/>
</svg>
