<svg width="18" height="22" viewBox="0 0 18 22" fill="none" xmlns="http://www.w3.org/2000/svg">
<path d="M15.9513 0.141357H14.2529H3.9401H2.24169L0.93977 6.83224L0.931328 6.87573L2.21344 21.2258H5.5059V20.5995H2.78618L1.58952 7.20521H16.6035L16.5476 7.83161H10.6835V8.45788H16.4916L15.4068 20.5995H6.34092V21.2258H15.9796L17.2577 6.91991L17.2617 6.87573L15.9513 0.141357ZM4.56637 0.76763H13.6266V2.9686C13.6266 4.08517 12.7182 4.99353 11.6017 4.99353H6.5913C5.47473 4.99353 4.56637 4.08513 4.56637 2.9686V0.76763ZM1.62707 6.57894L2.75789 0.76763H3.9401V2.9686C3.9401 4.43047 5.12943 5.6198 6.5913 5.6198H11.6017C13.0635 5.6198 14.2529 4.43047 14.2529 2.9686V0.76763H15.4351L16.5659 6.57894H1.62707Z" fill="#FF370A" fill-opacity="0.5"/>
<path d="M13.0004 2.9686V1.70703H12.3741V2.9686C12.3741 3.39448 12.0276 3.74098 11.6017 3.74098H6.59129V4.36725H11.6017C12.3729 4.36725 13.0004 3.73982 13.0004 2.9686Z" fill="#FF370A" fill-opacity="0.5"/>
<path d="M9.84846 7.83154H7.02315V8.45782H9.84846V7.83154Z" fill="#FF370A" fill-opacity="0.5"/>
</svg>
