<svg width="22" height="17" viewBox="0 0 22 17" fill="none" xmlns="http://www.w3.org/2000/svg">
<path d="M17.6562 11.1455C17.6562 12.9623 16.1781 14.4404 14.3612 14.4404V15.0667C16.5234 15.0667 18.2825 13.3077 18.2825 11.1455H17.6562V11.1455Z" fill="#FF370A" fill-opacity="0.5"/>
<path d="M18.42 3.79991H16.2941C16.149 3.08617 15.5166 2.54737 14.7607 2.54737H12.3949C12.4904 2.37453 12.5449 2.176 12.5449 1.96499C12.5449 1.29857 12.0027 0.756348 11.3363 0.756348C10.6698 0.756348 10.1276 1.29857 10.1276 1.96499C10.1276 2.17604 10.1821 2.37453 10.2776 2.54737H7.91185C7.1559 2.54737 6.52349 3.08617 6.37837 3.79991H4.25238V4.42619H18.42V3.79991ZM11.3362 1.38258C11.6573 1.38258 11.9186 1.64387 11.9186 1.96495C11.9186 2.28604 11.6573 2.54733 11.3362 2.54733C11.0151 2.54733 10.7538 2.28608 10.7538 1.96495C10.7538 1.64387 11.0151 1.38258 11.3362 1.38258ZM7.02688 3.79905C7.1561 3.43501 7.50395 3.1736 7.91176 3.1736H14.7607C15.1685 3.1736 15.5164 3.43501 15.6455 3.79905H7.02688Z" fill="#FF370A" fill-opacity="0.5"/>
<path d="M19.4827 7.21813C19.0064 7.21813 18.544 7.36008 18.152 7.62236C17.8144 7.25976 17.4222 6.94267 16.9826 6.68439L17.4359 5.05261H14.1056V5.67889H16.6119L16.2454 6.9981L16.4694 7.11555C16.9751 7.38071 17.4161 7.73145 17.7792 8.14444L17.8665 8.24991C18.1258 8.56321 18.342 8.90995 18.509 9.28037L18.5097 9.28004C18.6769 9.65239 18.7944 10.0488 18.8566 10.46C18.8624 10.4982 18.8677 10.5365 18.8724 10.5748C18.8748 10.5937 18.8772 10.6125 18.8793 10.6314C18.8837 10.6706 18.8875 10.7099 18.8909 10.7493C18.8924 10.7669 18.8941 10.7846 18.8955 10.8022C18.8987 10.8449 18.901 10.8876 18.903 10.9304C18.9037 10.945 18.9048 10.9595 18.9053 10.974C18.9075 11.0314 18.9087 11.0886 18.9087 11.1459C18.9087 11.1488 18.9086 11.1518 18.9086 11.1547C18.9085 11.1922 18.908 11.2298 18.907 11.2675C18.9069 11.2736 18.9065 11.2797 18.9063 11.2858C18.9053 11.3208 18.9039 11.3558 18.9021 11.3909C18.9018 11.3963 18.9014 11.4016 18.9011 11.4069C18.899 11.4421 18.8967 11.4773 18.8939 11.5126C18.8932 11.5211 18.8923 11.5295 18.8916 11.5379C18.889 11.5685 18.8862 11.5991 18.8829 11.6296C18.6404 13.9102 16.7052 15.6928 14.3612 15.6928H8.31101C5.96784 15.6928 4.03314 13.9114 3.78964 11.6317C3.78614 11.5986 3.78305 11.5656 3.78025 11.5324C3.77972 11.5262 3.7791 11.52 3.77857 11.5138C3.77552 11.4762 3.77301 11.4386 3.77091 11.401C3.77074 11.398 3.77049 11.3949 3.77033 11.3919C3.76827 11.3541 3.76679 11.3162 3.76568 11.2786C3.76559 11.2751 3.76539 11.2717 3.76526 11.2683C3.76415 11.2274 3.76358 11.1867 3.76358 11.1461C3.76358 11.0885 3.76477 11.0309 3.76695 10.9733C3.76745 10.9599 3.76839 10.9465 3.76905 10.9331C3.77111 10.8891 3.77354 10.8452 3.77684 10.8013C3.77807 10.7845 3.77972 10.7677 3.78116 10.7509C3.78462 10.7106 3.78849 10.6704 3.79302 10.6303C3.79508 10.6121 3.7973 10.5941 3.79957 10.576C3.80451 10.5367 3.80986 10.4976 3.81579 10.4585C3.87806 10.0478 3.99546 9.65186 4.16249 9.27996L4.16323 9.28028V9.28024C4.33026 8.90978 4.54646 8.56309 4.80573 8.24978L4.89349 8.14374C5.2406 7.74907 5.65928 7.41172 6.1373 7.15121H11.6004V6.52494H6.29552L6.0605 5.67876H13.2705V5.05249H5.2366L5.68979 6.68423C5.25023 6.94255 4.85795 7.2596 4.52039 7.62219C4.12839 7.36 3.66602 7.21801 3.18973 7.21801C1.86874 7.21813 0.79401 8.29282 0.79401 9.61381C0.79401 10.9348 1.86874 12.0095 3.18973 12.0095C3.1964 12.0095 3.20315 12.0092 3.20986 12.0091C3.6222 14.4522 5.75251 16.3192 8.31105 16.3192H14.3612C16.9198 16.3192 19.0503 14.4522 19.4626 12.0091C19.4693 12.0092 19.4761 12.0095 19.4827 12.0095C20.8038 12.0095 21.8785 10.9348 21.8785 9.61381C21.8784 8.29282 20.8037 7.21813 19.4827 7.21813ZM3.15122 10.7715C3.14776 10.8199 3.14517 10.8685 3.14303 10.9173C3.14241 10.9311 3.14146 10.9448 3.14097 10.9587C3.13874 11.0208 3.13743 11.083 3.13743 11.1455C3.13743 11.1492 3.13755 11.1529 3.13755 11.1566C3.13763 11.1941 3.13804 11.2317 3.13895 11.2693C3.13949 11.2916 3.14043 11.3138 3.14126 11.3361C3.14179 11.3516 3.14212 11.3671 3.14286 11.3826C2.18871 11.3577 1.42028 10.5738 1.42028 9.61376C1.42028 8.63812 2.21408 7.84436 3.18973 7.84436C3.52053 7.84436 3.84219 7.93706 4.12016 8.10919C3.99765 8.27816 3.88563 8.45437 3.78462 8.63676C3.60833 8.52961 3.40395 8.47063 3.19158 8.47063C2.56123 8.47063 2.04837 8.98346 2.04837 9.61381C2.04837 10.2309 2.53986 10.7354 3.152 10.7563C3.15167 10.7614 3.15155 10.7664 3.15122 10.7715ZM3.23737 10.1285C3.22218 10.1298 3.2069 10.1307 3.19154 10.1307C2.90649 10.1307 2.6746 9.89886 2.6746 9.61381C2.6746 9.3288 2.90649 9.09691 3.19154 9.09691C3.3094 9.09691 3.42141 9.13805 3.51167 9.20966C3.39279 9.50505 3.30034 9.81229 3.23737 10.1285ZM19.4809 10.1307C19.4655 10.1307 19.4502 10.1298 19.435 10.1285C19.372 9.81229 19.2796 9.50505 19.1607 9.2097C19.251 9.13805 19.363 9.09695 19.4809 9.09695C19.7659 9.09695 19.9978 9.32884 19.9978 9.61385C19.9978 9.89886 19.7659 10.1307 19.4809 10.1307ZM19.5296 11.3827C19.5303 11.3652 19.5307 11.3478 19.5314 11.3305C19.5321 11.3104 19.533 11.2904 19.5335 11.2703C19.5345 11.2288 19.5351 11.1874 19.5351 11.1463C19.5351 11.1462 19.5351 11.146 19.5351 11.146C19.5351 11.1458 19.5351 11.1457 19.5351 11.1455C19.5351 11.0832 19.5338 11.0213 19.5316 10.9594C19.531 10.9443 19.5301 10.9293 19.5294 10.9142C19.5273 10.8668 19.5247 10.8195 19.5214 10.7723C19.521 10.767 19.5209 10.7617 19.5205 10.7564C20.1326 10.7355 20.6241 10.231 20.6241 9.61389C20.6241 8.98358 20.1113 8.47072 19.4809 8.47072C19.2685 8.47072 19.0641 8.52973 18.8878 8.63688C18.7868 8.45445 18.6748 8.27828 18.5523 8.10932C18.8302 7.93714 19.1519 7.84444 19.4827 7.84444C20.4584 7.84444 21.2522 8.6382 21.2522 9.61385C21.2521 10.5738 20.4837 11.3578 19.5296 11.3827Z" fill="#FF370A" fill-opacity="0.5"/>
</svg>
