<svg width="10" height="22" viewBox="0 0 10 22" fill="none" xmlns="http://www.w3.org/2000/svg">
<path d="M7.05491 4.41985V2.82896H6.48394V1.43142C6.48403 0.874496 6.03088 0.421387 5.47391 0.421387H4.48278C3.92585 0.421387 3.47279 0.874496 3.47279 1.43142V1.62517H0.473488V2.66902H1.09976V2.25145H3.47279V2.82896H2.90178V4.41989C1.53714 4.57588 0.473488 5.73721 0.473488 7.14295V8.10356V17.8038V20.1519C0.473488 20.8985 1.08082 21.5058 1.82734 21.5058H8.12943C8.87595 21.5058 9.48324 20.8984 9.48324 20.1519V7.14295C9.48328 5.73721 8.41959 4.5758 7.05491 4.41985ZM4.09898 2.25149H4.09902H4.97839V1.62522H4.09902V1.43146C4.09902 1.21988 4.27115 1.0477 4.48274 1.0477H5.47387C5.6855 1.0477 5.85763 1.21988 5.85763 1.43146V2.829H4.09893V2.25149H4.09898ZM3.52805 3.45524H6.42868V4.40144H3.52805V3.45524ZM8.85705 20.1519H8.85701C8.85701 20.5531 8.53065 20.8796 8.12943 20.8796H1.82734C1.42616 20.8796 1.09972 20.5532 1.09972 20.1519V17.8038H7.1703V15.5146H6.54407V17.1775H1.09976V15.7718H4.97793V15.1456H1.09976V14.1017H4.97793V13.4755H1.09976V12.4317H4.97793V11.8054H1.09976V10.7616H4.97793V10.1354H1.09976V8.72976H6.54407V14.6793H7.17034V8.10352H1.09976V7.14291C1.09976 5.97655 2.04864 5.02771 3.21495 5.02771H6.74186C7.90817 5.02771 8.85701 5.97659 8.85701 7.14291V20.1519H8.85705Z" fill="#FF370A" fill-opacity="0.5"/>
<path d="M6.74181 5.65405H3.21491V6.28033H6.74181C7.21749 6.28033 7.60442 6.66734 7.60442 7.14297H8.23069C8.23073 6.322 7.56283 5.65405 6.74181 5.65405Z" fill="#FF370A" fill-opacity="0.5"/>
</svg>
