<svg width="28" height="28" viewBox="0 0 22 22" fill="none" xmlns="http://www.w3.org/2000/svg">
<path d="M4.58856 13.3451C4.40123 13.1579 4.09616 13.1577 3.90855 13.3449L2.43527 14.8184C2.16982 15.0837 2.02367 15.4369 2.02367 15.8131C2.02367 16.1892 2.16982 16.5426 2.43523 16.808L5.13593 19.5087C5.40126 19.7741 5.75458 19.9202 6.13073 19.9202C6.50687 19.9202 6.86016 19.7741 7.12561 19.5087L8.5988 18.0355C8.68952 17.9448 8.73951 17.824 8.73951 17.6955C8.73951 17.567 8.68948 17.4462 8.59876 17.3555L7.15287 15.9094L6.18661 16.8758L5.06806 15.7573L6.03424 14.7909L4.58856 13.3451ZM6.18669 17.7617L7.15291 16.7952L8.05307 17.6956L6.68275 19.0659C6.53565 19.213 6.33964 19.294 6.13077 19.294C5.92194 19.294 5.72592 19.213 5.57887 19.0659L2.87809 16.3652C2.73099 16.218 2.64995 16.022 2.64995 15.8131C2.64995 15.6043 2.73095 15.4084 2.87809 15.2613L4.24841 13.8908L5.14857 14.7909L4.1824 15.7573L6.18669 17.7617Z" fill="#FF370A" fill-opacity="0.5"/>
<path d="M19.7328 3.73661C19.9366 3.53285 20.0488 3.262 20.0489 2.97382C20.0489 2.68576 19.9367 2.41488 19.7329 2.21116C19.7329 2.21116 19.7329 2.21116 19.7329 2.21112C19.5292 2.00744 19.2584 1.8953 18.9703 1.89526C18.9702 1.89526 18.9702 1.89526 18.9702 1.89526C18.6821 1.89526 18.4112 2.00748 18.2075 2.21116C17.787 2.63169 17.787 3.31599 18.2076 3.73665C18.4113 3.94037 18.6822 4.0525 18.9703 4.05246C19.2584 4.0525 19.5292 3.94029 19.7328 3.73661ZM18.6504 2.65406C18.7358 2.56865 18.8494 2.52158 18.9702 2.52158H18.9702C19.0911 2.52158 19.2046 2.56865 19.2901 2.6541H19.2902C19.3756 2.7395 19.4226 2.85308 19.4226 2.97386C19.4226 3.09469 19.3756 3.20822 19.29 3.29379C19.2047 3.37916 19.0911 3.42623 18.9703 3.42623C18.8494 3.42623 18.7358 3.3792 18.6504 3.29384C18.474 3.11742 18.474 2.83039 18.6504 2.65406Z" fill="#FF370A" fill-opacity="0.5"/>
<path d="M20.8143 1.12991C20.3217 0.637223 19.6668 0.365967 18.9702 0.365967C18.2736 0.366008 17.6186 0.637305 17.1261 1.12995L9.9396 8.31635C9.31172 8.94423 9.04956 9.84526 9.23343 10.7064L6.6732 13.2667L5.67017 12.2638C5.2904 11.884 4.78549 11.6749 4.24841 11.6749C3.71134 11.6749 3.20642 11.8841 2.82666 12.2638L1.35347 13.7369C0.798847 14.2916 0.49337 15.029 0.49337 15.8133C0.49337 16.5977 0.798847 17.3351 1.35351 17.8898L4.05421 20.5906C4.60886 21.1453 5.34632 21.4508 6.13073 21.4508C6.91514 21.4507 7.65255 21.1453 8.20717 20.5906L9.68036 19.1175C10.4643 18.3335 10.4643 17.0578 9.68036 16.2739L8.67746 15.2709L11.2377 12.7106C12.0986 12.8946 12.9997 12.6326 13.6277 12.0046L14.834 10.7983L14.3912 10.3554L13.1849 11.5617C12.6736 12.0729 11.9242 12.2649 11.2291 12.063L11.0513 12.0114L7.79179 15.271L9.23755 16.7168C9.77734 17.2566 9.77734 18.1349 9.23755 18.6747L7.76436 20.1478C7.32797 20.5841 6.74782 20.8246 6.13073 20.8246C5.5136 20.8246 4.93345 20.5842 4.49706 20.1478L1.79636 17.447C0.895621 16.5462 0.895621 15.0806 1.79636 14.1798L3.26955 12.7067C3.53105 12.4452 3.87869 12.3012 4.24845 12.3012C4.61821 12.3012 4.96586 12.4452 5.22731 12.7067L6.6732 14.1525L9.93264 10.893L9.88104 10.7152C9.67925 10.0199 9.87136 9.27038 10.3824 8.75929L17.569 1.57288C17.9433 1.19855 18.4409 0.992404 18.9702 0.992363C19.4995 0.992363 19.9971 1.19851 20.3714 1.57284C20.7457 1.94713 20.9518 2.44476 20.9518 2.97405C20.9518 3.50334 20.7457 4.00097 20.3714 4.37526L14.9817 9.76488L15.4245 10.2078L20.8142 4.81803C21.3068 4.32547 21.5781 3.67054 21.5781 2.97393C21.5781 2.27732 21.3069 1.62242 20.8143 1.12991Z" fill="#FF370A" fill-opacity="0.5"/>
<path d="M15.8845 5.02859L15.4416 4.58569L10.8253 9.20186C10.4757 9.55148 10.3444 10.0643 10.4826 10.5404L11.084 10.3657C11.0095 10.1091 11.0801 9.83279 11.2682 9.64476L15.8845 5.02859Z" fill="#FF370A" fill-opacity="0.5"/>
</svg>
