<svg width="25" height="27" viewBox="0 0 19 22" fill="none" xmlns="http://www.w3.org/2000/svg">
<path d="M17.2603 9.93373H16.835H16.5218H7.16666L8.01152 11.6854H8.76986V12.1846H7.62356V17.5009H8.76986V18H6.70651V6.25599H9.05384V7.8925C9.05384 8.47261 9.52581 8.94454 10.1059 8.94454H14.0812C14.6613 8.94454 15.1332 8.47257 15.1332 7.8925V6.25599H18.1068V0.688965H0.0241146V6.25599H0.859214V18H0.0241146V20.5208H18.1069V18H15.4173V17.5008H16.5636V12.1845H15.4173V11.6854H16.835V10.56H17.2604C17.7635 10.56 18.1728 10.9693 18.1728 11.4719L18.1662 15.531L18.7924 15.532L18.7991 11.4724C18.7991 10.624 18.1088 9.93373 17.2603 9.93373ZM14.507 7.89254C14.507 8.12731 14.316 8.31831 14.0813 8.31831H10.106C9.87119 8.31831 9.6802 8.12731 9.6802 7.89254V6.25603H14.5071V7.89254H14.507ZM0.650387 5.62972V1.31524H17.4806V5.62972H15.1333H9.05388H6.70655H0.859214H0.650387ZM6.08032 6.25599V18H1.48549V6.25599H6.08032ZM15.4173 18.6262H17.4806V19.8946H0.650387V18.6262H0.859214H6.70655H8.7699H15.4173ZM15.9373 12.8108V16.8745H15.1041V16.8739H13.5746V17.5002H14.791V17.9999H9.39618V17.5002H12.7396V16.8739H9.08304V16.8745H8.24987V12.8108H9.08304H9.39618H12.7396V12.1845H9.39618V11.6854H14.791V12.1845H13.5746V12.8108H14.791H15.1041H15.9373V12.8108ZM16.2087 11.0591H15.4173H8.7699H8.4048L8.16405 10.56H16.2087V11.0591Z" fill="#FF370A" fill-opacity="0.5"/>
<path d="M16.5409 4.03955H4.43093V4.66582H16.5409V4.03955Z" fill="#FF370A" fill-opacity="0.5"/>
<path d="M3.5959 4.03955H1.58976V4.66582H3.5959V4.03955Z" fill="#FF370A" fill-opacity="0.5"/>
<path d="M10.5275 2.3418H9.90118V3.51791H10.5275V2.3418Z" fill="#FF370A" fill-opacity="0.5"/>
<path d="M11.7804 2.3418H11.1541V3.51791H11.7804V2.3418Z" fill="#FF370A" fill-opacity="0.5"/>
<path d="M13.0329 2.3418H12.4067V3.51791H13.0329V2.3418Z" fill="#FF370A" fill-opacity="0.5"/>
<path d="M14.2855 2.3418H13.6592V3.51791H14.2855V2.3418Z" fill="#FF370A" fill-opacity="0.5"/>
<path d="M15.3109 13.2632H14.6846V16.4225H15.3109V13.2632Z" fill="#FF370A" fill-opacity="0.5"/>
<path d="M18.1069 21.1472H0.0239582V21.7735H18.1069V21.1472Z" fill="#FF370A" fill-opacity="0.5"/>
</svg>
