<svg width="17" height="22" viewBox="0 0 17 22" fill="none" xmlns="http://www.w3.org/2000/svg">
<path d="M10.5477 4.67019C10.5477 5.51583 10.0823 6.07745 9.31268 6.19502V0.461914H8.68641V6.19502C7.91678 6.07745 7.45136 5.51583 7.45136 4.67019V1.29701H6.82509V4.67019C6.82509 5.86331 7.56078 6.69676 8.68641 6.82644V10.3813H7.76878V20.3156C7.76878 20.9942 8.32089 21.5463 8.99954 21.5463C9.6782 21.5463 10.2303 20.9942 10.2303 20.3156V10.3813H9.31268V6.82644C10.4383 6.69676 11.174 5.86331 11.174 4.67019V1.29701H10.5477V4.67019V4.67019ZM9.60399 20.3156C9.60399 20.6489 9.33286 20.92 8.99954 20.92C8.66623 20.92 8.39505 20.6489 8.39505 20.3156V12.2602H9.60395V20.3156H9.60399ZM9.60399 11.0076V11.634H8.39509V11.0076H8.68645H9.31272H9.60399Z" fill="#FF370A" fill-opacity="0.5"/>
<path d="M15.4231 10.3813C15.8143 9.99203 16.0569 9.45347 16.0569 8.85923V2.61022C16.0569 1.42566 15.0932 0.461914 13.9085 0.461914H13.5954V10.3813V11.0076V20.3156C13.5954 20.9942 14.1475 21.5463 14.8262 21.5463C15.5048 21.5463 16.057 20.9942 16.057 20.3156V10.3813H15.4231ZM14.2217 1.1206C14.9112 1.26539 15.4306 1.87832 15.4306 2.61026V8.85932C15.4306 9.5913 14.9112 10.2042 14.2217 10.3491V1.1206V1.1206ZM15.4306 20.3156C15.4306 20.6489 15.1595 20.92 14.8262 20.92C14.4928 20.92 14.2217 20.6489 14.2217 20.3156V12.2602H15.4306V20.3156H15.4306ZM15.4306 11.634H14.2217V11.0076H15.4306V11.634Z" fill="#FF370A" fill-opacity="0.5"/>
<path d="M3.17297 0.462158C1.85334 0.462158 0.779686 1.53573 0.779686 2.85544V5.12844C0.779686 6.34191 1.68767 7.34659 2.85984 7.50056V10.3817H1.94221V16.8769H2.56848V12.2605H3.77742V20.3158C3.77742 20.6491 3.50625 20.9203 3.17293 20.9203C2.83962 20.9203 2.5684 20.6491 2.5684 20.3158V17.712H1.94217V20.3158C1.94217 20.9944 2.49428 21.5466 3.17297 21.5466C3.85159 21.5466 4.40373 20.9945 4.40373 20.3158V10.3815H3.48611V7.50044C4.65823 7.34651 5.56622 6.34178 5.56622 5.12832V2.85544C5.56622 1.53573 4.4926 0.462158 3.17297 0.462158ZM3.77746 11.0078V11.6342H2.56852V11.0078H3.77746ZM4.93994 5.1284C4.93994 6.10269 4.1473 6.89537 3.17297 6.89537C2.19864 6.89537 1.40596 6.10273 1.40596 5.1284V2.85544C1.40596 1.88107 2.19864 1.08843 3.17297 1.08843C4.1473 1.08843 4.93994 1.88107 4.93994 2.85544V5.1284V5.1284Z" fill="#FF370A" fill-opacity="0.5"/>
<path d="M3.68737 5.12818C3.68737 5.41183 3.45659 5.64261 3.17294 5.64261V6.26888C3.80193 6.26888 4.31364 5.75717 4.31364 5.12818V2.85522H3.68737V5.12818Z" fill="#FF370A" fill-opacity="0.5"/>
</svg>
