<svg width="22" height="20" viewBox="0 0 22 20" fill="none" xmlns="http://www.w3.org/2000/svg">
<path d="M17.6835 15.9299V14.7976H17.0572V15.9299C17.0572 16.6723 16.4533 17.2763 15.7109 17.2763H12.7398V17.9026H15.7109C16.7986 17.9026 17.6835 17.0177 17.6835 15.9299Z" fill="#FF370A" fill-opacity="0.5"/>
<path d="M2.24291 5.08057H0.0473289V5.70688H2.24291V12.397V15.9302C2.24291 17.7086 3.68974 19.1554 5.46825 19.1554H7.15179H7.98684H15.7109C17.4893 19.1554 18.9361 17.7086 18.9361 15.9302V12.397V5.70688H21.1317V5.08057H18.9362H2.24291ZM18.3098 11.1443H9.23947V11.7706H18.3098V12.397H7.58323V13.0233H18.3098V15.9302C18.3098 17.3633 17.1439 18.5292 15.7109 18.5292H7.98688H7.15179H5.46825C4.03516 18.5292 2.86922 17.3633 2.86922 15.9302V13.0233H6.74813V12.397H2.86922V6.95951H18.3098V11.1443ZM18.3098 6.33319H2.86922V5.70688H18.3098V6.33319Z" fill="#FF370A" fill-opacity="0.5"/>
<path d="M14.6922 4.45411H18.623V3.8278H14.6803C14.5198 1.71133 12.7464 0.0383301 10.5895 0.0383301C8.43266 0.0383301 6.65922 1.71137 6.49874 3.82784H2.55608V4.45415H6.48693H14.6922V4.45411ZM11.8248 0.892125C11.8529 0.902955 11.8809 0.913868 11.9086 0.925316C11.9318 0.93487 11.9549 0.944713 11.9779 0.954802C12.0053 0.966785 12.0325 0.979098 12.0595 0.991782C12.0822 1.00245 12.1048 1.01324 12.1272 1.02431C12.1539 1.03757 12.1805 1.05125 12.2069 1.06521C12.2288 1.07682 12.2508 1.08851 12.2724 1.10054C12.2986 1.11512 12.3245 1.13015 12.3502 1.14534C12.3715 1.15786 12.3926 1.17034 12.4135 1.18331C12.4392 1.19917 12.4644 1.2156 12.4896 1.23211C12.5099 1.24541 12.5303 1.25863 12.5503 1.27234C12.5755 1.28964 12.6002 1.30755 12.6249 1.32547C12.6441 1.33943 12.6635 1.35318 12.6824 1.36751C12.7074 1.38637 12.7317 1.40593 12.7562 1.42545C12.7741 1.43983 12.7923 1.45387 12.8099 1.46857C12.835 1.48945 12.8595 1.51111 12.8839 1.53265C12.9001 1.54689 12.9166 1.56077 12.9325 1.57531C12.9588 1.5994 12.9843 1.62431 13.01 1.64919C13.0232 1.66208 13.0369 1.67455 13.0499 1.68765C13.0839 1.72175 13.117 1.75671 13.1496 1.79217C13.1536 1.79657 13.158 1.80081 13.162 1.80522C13.1985 1.84533 13.234 1.88635 13.2685 1.92814C13.279 1.94079 13.2888 1.95401 13.2991 1.96677C13.3228 1.99622 13.3465 2.0257 13.3692 2.05593C13.3818 2.07265 13.3936 2.08986 13.4059 2.10683C13.4255 2.13384 13.4451 2.16077 13.4639 2.18836C13.4767 2.20718 13.4889 2.2265 13.5014 2.24556C13.5186 2.272 13.536 2.29836 13.5525 2.32529C13.5649 2.34555 13.5768 2.36622 13.5888 2.38673C13.6044 2.41321 13.6199 2.43969 13.6348 2.46662C13.6465 2.48791 13.6577 2.50957 13.669 2.53115C13.6831 2.55796 13.6971 2.58481 13.7105 2.61203C13.7215 2.63422 13.7319 2.65679 13.7424 2.67928C13.755 2.70645 13.7676 2.73372 13.7795 2.76127C13.7895 2.78429 13.7991 2.80751 13.8086 2.83078C13.8199 2.85849 13.831 2.88633 13.8416 2.91442C13.8505 2.93805 13.8591 2.96186 13.8676 2.98574C13.8776 3.01399 13.8873 3.04245 13.8966 3.07103C13.9044 3.09524 13.912 3.11954 13.9194 3.14396C13.9281 3.17282 13.9363 3.20186 13.9442 3.23105C13.9508 3.25572 13.9574 3.28043 13.9636 3.30534C13.9709 3.33487 13.9776 3.36456 13.9842 3.39437C13.9897 3.41937 13.9952 3.44445 14.0001 3.46965C14.006 3.49984 14.0113 3.53031 14.0164 3.56074C14.0206 3.58599 14.025 3.61123 14.0287 3.63664C14.0333 3.66765 14.037 3.69899 14.0407 3.73028C14.0437 3.75553 14.0468 3.78077 14.0493 3.80618C14.05 3.8133 14.0503 3.82059 14.051 3.82772H12.7795C12.7192 3.2271 12.5055 2.41704 12.218 1.73245C12.0985 1.44777 11.9488 1.14308 11.7696 0.871617C11.7882 0.878371 11.8065 0.885165 11.8248 0.892125ZM10.9027 0.806511C11.1446 1.00937 11.4075 1.42002 11.6406 1.97505C11.9166 2.63229 12.0906 3.34516 12.1491 3.82784H10.9027V0.806511ZM10.2764 0.806511V3.8278H9.02994C9.08838 3.34512 9.26249 2.63225 9.53844 1.97501C9.77152 1.41998 10.0344 1.00932 10.2764 0.806511ZM7.12963 3.80634C7.1321 3.78085 7.13531 3.75565 7.13828 3.73037C7.14198 3.69907 7.14569 3.66773 7.15022 3.63672C7.15393 3.61131 7.15829 3.58607 7.16253 3.56083C7.16768 3.53035 7.17291 3.49992 7.17884 3.46973C7.18382 3.44453 7.18926 3.41945 7.19478 3.39446C7.20132 3.36468 7.20804 3.33495 7.21537 3.30542C7.22154 3.28055 7.22809 3.2558 7.23476 3.23114C7.24271 3.20194 7.25086 3.17291 7.25955 3.14404C7.26688 3.11962 7.2745 3.09532 7.28237 3.07111C7.29163 3.04249 7.30127 3.01411 7.31132 2.98582C7.31976 2.96194 7.32837 2.93814 7.3373 2.9145C7.34797 2.88641 7.35905 2.85853 7.37037 2.83078C7.37984 2.80755 7.3894 2.78433 7.3994 2.76139C7.41139 2.7338 7.4239 2.70654 7.43655 2.67932C7.44697 2.65679 7.45743 2.63431 7.46838 2.61211C7.48176 2.58489 7.49576 2.55804 7.50985 2.53123C7.52117 2.50969 7.53237 2.48803 7.54411 2.4667C7.55898 2.43977 7.57454 2.41333 7.59007 2.38681C7.60213 2.3663 7.61395 2.34563 7.62639 2.32541C7.64294 2.29848 7.66028 2.27212 7.67754 2.24569C7.69001 2.22662 7.70212 2.20726 7.71497 2.18849C7.73375 2.1609 7.75343 2.13396 7.77299 2.10695C7.78526 2.08998 7.79712 2.07277 7.80968 2.05605C7.83241 2.02582 7.85609 1.99634 7.87977 1.96689C7.89007 1.95409 7.89991 1.94091 7.91037 1.92827C7.94496 1.88647 7.98042 1.84545 8.01686 1.80534C8.0209 1.80085 8.02522 1.7967 8.0293 1.79229C8.06187 1.75683 8.09498 1.72183 8.12896 1.68777C8.14201 1.67468 8.15568 1.6622 8.16894 1.64931C8.19456 1.62448 8.22005 1.59952 8.2464 1.57543C8.2623 1.5609 8.27881 1.54702 8.29495 1.53277C8.31942 1.51119 8.34384 1.48957 8.36896 1.46869C8.38662 1.45399 8.40478 1.43991 8.42274 1.42558C8.44712 1.40606 8.47149 1.3865 8.49645 1.36764C8.51539 1.35331 8.53479 1.33955 8.55402 1.32559C8.57873 1.30768 8.60348 1.28976 8.62864 1.27247C8.64865 1.25871 8.669 1.24554 8.6893 1.23223C8.71446 1.21568 8.73974 1.19929 8.76536 1.18344C8.78628 1.17051 8.80745 1.15803 8.82865 1.14547C8.85443 1.13027 8.88029 1.11524 8.90648 1.10066C8.92819 1.0886 8.95009 1.0769 8.97204 1.06533C8.99844 1.05141 9.02496 1.03774 9.05173 1.02444C9.07409 1.01332 9.09666 1.00253 9.11935 0.991905C9.1464 0.979222 9.17366 0.966909 9.20105 0.954925C9.22403 0.944918 9.24705 0.935035 9.27023 0.925481C9.29799 0.914033 9.32603 0.903079 9.35416 0.892331C9.37244 0.885371 9.39077 0.878536 9.40922 0.871864C9.23008 1.14337 9.08039 1.44802 8.96084 1.7327C8.6734 2.41724 8.45963 3.22731 8.39931 3.82796H7.12786C7.12856 3.82076 7.12889 3.81347 7.12963 3.80634Z" fill="#FF370A" fill-opacity="0.5"/>
</svg>
