<svg width="22" height="22" viewBox="0 0 22 22" fill="none" xmlns="http://www.w3.org/2000/svg">
<g clip-path="url(#clip0)">
<path d="M5.64367 16.9569C6.15587 17.4691 6.30544 18.2327 6.02471 18.9023L6.60243 19.1445C6.98195 18.2394 6.77947 17.2068 6.08665 16.5139L5.64367 16.9569Z" fill="#FF370A" fill-opacity="0.5"/>
<path d="M20.7674 1.83315C20.1758 1.24143 19.3891 0.915527 18.5523 0.915527C17.7155 0.915527 16.9289 1.24143 16.3372 1.83311L11.5272 6.64307C10.9355 7.23471 10.6097 8.02142 10.6097 8.85817C10.6097 9.69496 10.9356 10.4816 11.5272 11.0733C12.1189 11.665 12.9056 11.9909 13.7423 11.9909C14.5791 11.9909 15.3658 11.665 15.9574 11.0734L20.7674 6.26339C21.9888 5.04198 21.9888 3.05452 20.7674 1.83315ZM20.3244 5.82037L15.5145 10.6304C15.0411 11.1037 14.4118 11.3644 13.7423 11.3644C13.0728 11.3644 12.4435 11.1037 11.9702 10.6304C11.4968 10.157 11.2361 9.52764 11.2361 8.85813C11.2361 8.1887 11.4968 7.55934 11.9702 7.08601L16.7802 2.27609C17.2535 1.80272 17.8829 1.54201 18.5523 1.54201C19.2217 1.54201 19.8511 1.80272 20.3244 2.27613C21.3016 3.2533 21.3016 4.84324 20.3244 5.82037Z" fill="#FF370A" fill-opacity="0.5"/>
<path d="M17.2231 2.71928L17.6661 3.1623C17.9028 2.92552 18.2176 2.79518 18.5523 2.79518C18.887 2.79518 19.2017 2.92552 19.4383 3.16226L19.8813 2.71924C19.5263 2.36423 19.0543 2.1687 18.5523 2.1687C18.0502 2.1687 17.5781 2.36427 17.2231 2.71928Z" fill="#FF370A" fill-opacity="0.5"/>
<path d="M17.0173 4.67603C16.775 4.67603 16.5472 4.77041 16.3758 4.94168C16.0222 5.29534 16.0222 5.87084 16.3758 6.22458C16.5472 6.39589 16.775 6.49023 17.0173 6.49023C17.2596 6.49023 17.4874 6.39585 17.6587 6.22458C17.83 6.05322 17.9244 5.82541 17.9244 5.58315C17.9244 5.34084 17.83 5.11303 17.6587 4.94172C17.4874 4.77041 17.2596 4.67603 17.0173 4.67603ZM17.2157 5.7816C17.1627 5.83464 17.0922 5.86384 17.0173 5.86384C16.9423 5.86384 16.8719 5.83464 16.8189 5.78164C16.7095 5.67222 16.7095 5.49412 16.8189 5.38474C16.8719 5.3317 16.9424 5.3025 17.0173 5.3025C17.0922 5.3025 17.1627 5.3317 17.2157 5.38474C17.2687 5.43774 17.2979 5.5082 17.2979 5.58315C17.2979 5.6581 17.2687 5.7286 17.2157 5.7816Z" fill="#FF370A" fill-opacity="0.5"/>
<path d="M15.2774 6.41602C15.0351 6.41602 14.8073 6.5104 14.636 6.68167C14.2823 7.03533 14.2823 7.61083 14.636 7.96465C14.8073 8.13596 15.0351 8.2303 15.2774 8.2303C15.5197 8.2303 15.7475 8.13592 15.9189 7.96461C16.2725 7.61083 16.2725 7.03533 15.9189 6.68171C15.7476 6.51044 15.5198 6.41602 15.2774 6.41602ZM15.4758 7.52167C15.4228 7.57471 15.3523 7.60391 15.2774 7.60391C15.2025 7.60391 15.132 7.57471 15.079 7.52171C14.9695 7.41225 14.9695 7.23411 15.079 7.12473C15.132 7.07169 15.2025 7.04249 15.2774 7.04249C15.3524 7.04249 15.4229 7.07169 15.4759 7.12473C15.5853 7.23415 15.5853 7.41225 15.4758 7.52167Z" fill="#FF370A" fill-opacity="0.5"/>
<path d="M11.3471 11.7791L9.87097 10.303L9.42799 10.746L9.96972 11.2877L7.98379 13.2736L8.42677 13.7166L10.4127 11.7307L10.8696 12.1876L7.19082 15.8664C7.17703 15.8499 7.16249 15.8342 7.14845 15.818C7.12942 15.796 7.11072 15.7739 7.09112 15.7524C7.05476 15.7123 7.01757 15.6732 6.97965 15.6351C6.97726 15.6326 6.97503 15.6301 6.97265 15.6277C6.96919 15.6242 6.96556 15.621 6.96206 15.6176C6.92582 15.5817 6.88884 15.5463 6.85092 15.5118C6.82271 15.486 6.7938 15.4614 6.76493 15.4366C6.75447 15.4277 6.74447 15.4183 6.73392 15.4095L7.83612 14.3073L7.39314 13.8643L6.21291 15.0445C5.66381 14.727 5.03898 14.557 4.38767 14.557C3.41124 14.557 2.4932 14.9372 1.80264 15.6277L0.600544 16.8303L2.07398 16.9813L2.18389 18.0531L3.25561 18.163L3.36557 19.2347L4.43725 19.3446L4.5472 20.4163L5.61892 20.5263L5.77018 21.9997L6.97252 20.7976C8.16556 19.6044 8.35928 17.7853 7.55498 16.3881L11.3125 12.6304L11.8544 13.1724L12.2974 12.7294L11.7556 12.1876L11.3471 11.7791ZM6.52963 20.3547L6.25895 20.6253L6.19018 19.9552L5.1185 19.8452L5.00854 18.7736L3.93686 18.6636L3.82691 17.5919L2.75519 17.482L2.64528 16.4102L1.97515 16.3415L2.24575 16.0708C2.81795 15.4987 3.57863 15.1836 4.38775 15.1836C4.98371 15.1836 5.55303 15.355 6.04049 15.6737L6.08241 15.7022C6.20323 15.7839 6.31804 15.8741 6.42515 15.9712C6.46061 16.0035 6.49557 16.0366 6.52971 16.0708C6.53 16.0711 6.53029 16.0715 6.53062 16.0717C6.56525 16.1064 6.59873 16.1418 6.6313 16.1777C6.65502 16.2039 6.67796 16.231 6.70081 16.258C6.70913 16.2678 6.71778 16.2775 6.72598 16.2873C6.75213 16.3192 6.77749 16.3517 6.80241 16.3846C6.80677 16.3904 6.81142 16.3961 6.81583 16.4019C6.83955 16.4338 6.86241 16.4663 6.88493 16.499C6.8928 16.5104 6.90103 16.5217 6.90869 16.5332L6.9201 16.5501C7.6917 17.7249 7.56165 19.3226 6.52963 20.3547Z" fill="#FF370A" fill-opacity="0.5"/>
</g>
<defs>
<clipPath id="clip0">
<rect width="21.0844" height="21.0844" fill="white" transform="translate(0.599802 0.915527)"/>
</clipPath>
</defs>
</svg>
