<svg width="99" height="99" viewBox="0 0 99 99" fill="none" xmlns="http://www.w3.org/2000/svg">
<mask id="mask0" mask-type="alpha" maskUnits="userSpaceOnUse" x="27" y="26" width="45" height="45">
<path fill-rule="evenodd" clip-rule="evenodd" d="M45.9324 67.7387L46.1429 51.7808L30.1851 51.5702C28.4224 51.547 27.0124 50.0992 27.0356 48.3366C27.0589 46.5739 28.5067 45.1638 30.2693 45.1871L46.2272 45.3977L46.4378 29.4398C46.461 27.6772 47.9088 26.2671 49.6715 26.2904C51.4341 26.3136 52.8442 27.7614 52.8209 29.5241L52.6103 45.4819L68.5682 45.6925C70.3308 45.7158 71.7409 47.1635 71.7176 48.9262C71.6944 50.6889 70.2466 52.0989 68.4839 52.0757L52.5261 51.8651L52.3155 67.8229C52.2922 69.5856 50.8445 70.9956 49.0818 70.9724C47.3192 70.9491 45.9091 69.5013 45.9324 67.7387Z" fill="black"/>
</mask>
<g mask="url(#mask0)">
<rect x="50.0186" width="69.8217" height="69.8217" transform="rotate(45.7561 50.0186 0)" fill="#828282"/>
</g>
</svg>
