<svg width="512" height="512" viewBox="0 0 512 512" fill="none" xmlns="http://www.w3.org/2000/svg">
<path d="M361.226 153.547C386.545 204.03 400.488 271.994 400.488 344.92V443.481H415.693V344.92C415.693 269.673 401.176 199.287 374.817 146.73L361.226 153.547Z" fill="black"/>
<path d="M512 125.33H397.943C397.371 124.271 396.802 123.205 396.223 122.164H396.635L390.922 113.061C368.99 77.078 342.56 54.025 314.05 45.879C317.525 41.109 319.583 35.243 319.583 28.902C319.583 12.965 306.618 0 290.681 0C274.744 0 261.779 12.965 261.779 28.902C261.779 35.243 263.837 41.109 267.312 45.879C238.805 54.024 212.377 77.074 190.447 113.05L184.727 122.164H185.139C184.56 123.204 183.992 124.269 183.42 125.329L121.702 125.33C54.594 125.33 0 179.923 0 247.028C0 314.134 54.594 368.73 121.7 368.73H135.257V511.904H446.104V344.92C446.104 307.237 442.615 270.593 435.948 236.438L512 125.33ZM290.68 15.207C298.232 15.207 304.377 21.352 304.377 28.904C304.377 36.348 298.403 42.412 291 42.583C290.894 42.583 290.788 42.577 290.683 42.577C290.577 42.577 290.47 42.583 290.364 42.584C282.96 42.413 276.986 36.349 276.986 28.905C276.983 21.351 283.128 15.207 290.68 15.207ZM231.52 84.945C231.578 84.888 231.636 84.828 231.694 84.773C232.143 84.339 232.59 83.931 233.037 83.51C233.602 82.981 234.166 82.449 234.734 81.935C235.031 81.665 235.327 81.408 235.624 81.144C236.355 80.495 237.088 79.855 237.824 79.231C238.033 79.055 238.241 78.881 238.449 78.707C239.303 77.995 240.159 77.298 241.019 76.621C241.134 76.531 241.248 76.44 241.363 76.349C244.447 73.943 247.569 71.76 250.728 69.811C250.742 69.802 250.757 69.794 250.772 69.785C251.761 69.176 252.755 68.593 253.75 68.028C253.888 67.95 254.027 67.872 254.165 67.795C255.112 67.266 256.061 66.756 257.012 66.267C257.1 66.222 257.189 66.174 257.278 66.128C258.291 65.613 259.307 65.123 260.326 64.655C260.544 64.555 260.76 64.464 260.978 64.366C261.722 64.033 262.467 63.711 263.214 63.402C263.584 63.249 263.954 63.099 264.322 62.954C264.962 62.701 265.602 62.46 266.244 62.226C266.688 62.064 267.132 61.9 267.573 61.748C268.334 61.484 269.098 61.235 269.862 60.998C270.335 60.851 270.804 60.716 271.272 60.58C271.767 60.437 272.262 60.301 272.759 60.169C273.225 60.044 273.694 59.917 274.155 59.804C274.963 59.605 275.773 59.424 276.584 59.255C277.028 59.163 277.467 59.08 277.906 58.997C278.496 58.885 279.087 58.782 279.678 58.686C280.064 58.623 280.454 58.557 280.835 58.5C281.682 58.377 282.531 58.273 283.38 58.182C283.689 58.148 283.997 58.117 284.303 58.088C285.228 58.002 286.155 57.929 287.082 57.879C287.26 57.869 287.436 57.864 287.613 57.857C288.484 57.818 289.355 57.797 290.228 57.792C290.379 57.794 290.528 57.803 290.679 57.803C290.831 57.803 290.98 57.794 291.131 57.792C292.004 57.797 292.876 57.818 293.747 57.857C293.924 57.865 294.1 57.87 294.278 57.879C295.205 57.928 296.131 58.001 297.056 58.088C297.363 58.116 297.672 58.149 297.983 58.182C298.829 58.273 299.675 58.377 300.518 58.499C300.905 58.556 301.299 58.623 301.69 58.687C302.277 58.782 302.864 58.885 303.45 58.995C303.892 59.079 304.334 59.162 304.781 59.255C305.589 59.423 306.396 59.605 307.201 59.801C307.668 59.916 308.143 60.045 308.615 60.171C309.103 60.301 309.589 60.435 310.076 60.575C310.551 60.712 311.027 60.85 311.506 60.999C312.242 61.228 312.977 61.468 313.711 61.721C314.186 61.884 314.665 62.06 315.144 62.235C315.77 62.465 316.397 62.699 317.021 62.947C317.399 63.096 317.778 63.25 318.159 63.408C318.889 63.71 319.617 64.023 320.343 64.349C320.576 64.454 320.808 64.552 321.042 64.659C322.053 65.123 323.06 65.61 324.066 66.12C324.172 66.174 324.28 66.233 324.386 66.287C325.318 66.765 326.246 67.263 327.172 67.781C327.325 67.866 327.479 67.953 327.633 68.04C328.606 68.591 329.577 69.161 330.544 69.757C330.579 69.778 330.615 69.8 330.651 69.822C333.793 71.762 336.899 73.933 339.967 76.326C340.106 76.433 340.245 76.545 340.384 76.654C341.215 77.309 342.043 77.984 342.87 78.671C343.103 78.866 343.336 79.059 343.57 79.258C344.274 79.854 344.975 80.467 345.674 81.088C346 81.379 346.327 81.662 346.654 81.959C347.178 82.433 347.698 82.925 348.22 83.413C354.944 89.718 361.785 97.455 368.629 106.959H212.73C219.026 98.218 225.32 90.959 231.52 84.945ZM135.257 344.921V353.525H121.7V353.524C62.978 353.524 15.205 305.75 15.205 247.028C15.205 188.307 62.978 140.535 121.7 140.535L175.767 140.534C175.746 140.579 175.726 140.625 175.705 140.671C173.408 145.573 171.197 150.593 169.085 155.739L121.7 155.74C71.362 155.74 30.41 196.691 30.41 247.028C30.41 297.366 71.362 338.32 121.7 338.32H135.295C135.27 340.549 135.257 342.755 135.257 344.921ZM121.7 323.114C79.746 323.114 45.615 288.982 45.615 247.028C45.615 205.075 79.746 170.945 121.7 170.945L163.244 170.944C147.17 215.605 137.64 267.904 135.651 323.114H121.7V323.114ZM430.9 466.285H235.677V481.49H430.898V496.698H150.462V481.49H215.403V466.285H150.462V368.729V344.92C150.462 342.706 150.478 340.497 150.503 338.292C150.51 337.648 150.521 337.001 150.53 336.353C150.548 335.061 150.574 333.77 150.601 332.48C150.612 331.953 150.621 331.428 150.634 330.9L150.672 329.347C152.212 270.64 162.45 215.245 180.138 169.12L181.315 166.124C183.863 159.637 186.575 153.32 189.418 147.242C189.44 147.195 189.462 147.148 189.484 147.101C190.047 145.901 190.613 144.71 191.186 143.529C191.194 143.513 191.201 143.497 191.209 143.481C192.367 141.092 193.545 138.742 194.742 136.437L195.727 134.539C197.997 130.243 200.323 126.121 202.7 122.165H378.664C381.045 126.129 383.377 130.258 385.65 134.562L386.622 136.436C387.527 138.181 388.421 139.949 389.304 141.744C389.312 141.76 389.32 141.776 389.328 141.793C402.611 168.795 413.308 201.335 420.383 236.339L421.72 242.957C427.744 275.104 430.899 309.513 430.899 344.921V466.285H430.9ZM415.466 163.811C415.251 163.249 415.038 162.685 414.821 162.126C414.431 161.122 414.035 160.125 413.639 159.13C413.34 158.379 413.039 157.63 412.736 156.884C412.354 155.944 411.971 155.007 411.583 154.075C411.258 153.293 410.927 152.52 410.598 151.745C409.837 149.953 409.063 148.176 408.279 146.414C408.03 145.854 407.783 145.289 407.532 144.731C407.064 143.695 406.587 142.671 406.111 141.646C405.94 141.277 405.771 140.903 405.599 140.535H483.165L431.505 216.008C427.102 197.668 421.736 180.191 415.466 163.811Z" fill="black"/>
</svg>
