<svg width="80" height="80" viewBox="0 0 512 348" fill="none" xmlns="http://www.w3.org/2000/svg">
<path d="M478.036 0.629883H33.964C15.236 0.629883 0 15.8659 0 34.5939V313.406C0 332.134 15.236 347.37 33.964 347.37H149.542V332.162H33.964C23.622 332.162 15.208 323.748 15.208 313.406V34.5939C15.208 24.2519 23.622 15.8379 33.964 15.8379H478.035C488.377 15.8379 496.791 24.2519 496.791 34.5939V313.406C496.791 323.748 488.377 332.162 478.035 332.162H169.822V347.37H478.036C496.764 347.37 512 332.134 512 313.406V34.5939C512 15.8659 496.764 0.629883 478.036 0.629883Z" fill="rgba(0,0,0,.4)"/>
<path d="M40.5591 124.828V223.173C40.5591 235.751 50.7921 245.985 63.3711 245.985C75.9501 245.985 86.1831 235.751 86.1831 223.173V124.828C86.1831 112.25 75.9501 102.016 63.3711 102.016C50.7911 102.016 40.5591 112.25 40.5591 124.828ZM70.9741 124.828V223.173C70.9741 227.365 67.5631 230.777 63.3701 230.777C59.1781 230.777 55.7661 227.365 55.7661 223.173V124.828C55.7661 120.636 59.1781 117.224 63.3701 117.224C67.5641 117.224 70.9741 120.635 70.9741 124.828Z" fill="rgba(0,0,0,.4)"/>
<path d="M116.598 223.172V124.827C116.598 95.4781 92.7201 71.5991 63.3701 71.5991V86.8071C84.3351 86.8071 101.39 103.863 101.39 124.827V223.172H116.598Z" fill="rgba(0,0,0,.4)"/>
<path d="M396.917 301.747H200.238V316.955H396.917V301.747Z" fill="rgba(0,0,0,.4)"/>
</svg>
