<svg width="80" height="80" viewBox="0 0 512 388" fill="none" xmlns="http://www.w3.org/2000/svg">
<path d="M50.486 171.786C38.237 171.786 28.272 181.752 28.272 194C28.272 206.249 38.237 216.216 50.486 216.216C62.733 216.216 72.699 206.25 72.702 193.998C72.699 181.75 62.733 171.786 50.486 171.786ZM50.486 201.012C46.621 201.012 43.476 197.866 43.476 194C43.476 190.135 46.621 186.99 50.486 186.99C54.351 186.99 57.497 190.136 57.498 193.998C57.497 197.865 54.351 201.012 50.486 201.012Z" fill="rgba(0,0,0,.4)"/>
<path d="M475.289 0.568848H132.409C112.168 0.568848 95.7 17.0368 95.7 37.2778L95.698 143.514H50.486C22.648 143.514 0 166.162 0 193.999C0 221.836 22.648 244.485 50.486 244.485H95.7L95.697 350.72C95.699 370.965 112.169 387.432 132.408 387.43H475.288C495.53 387.43 511.999 370.962 511.999 350.721V37.2788C512 17.0378 495.531 0.568848 475.289 0.568848ZM496.795 350.72C496.796 362.579 487.148 372.225 475.289 372.225H374.651L203.407 200.982L192.656 211.732L353.15 372.226H260.453L188.461 300.234L177.71 310.984L238.95 372.224H217.442L181.29 336.072L170.539 346.822L195.94 372.223H132.409C120.552 372.224 110.904 362.576 110.903 350.716L110.905 229.278H50.486C31.031 229.281 15.204 213.454 15.204 193.999C15.204 174.544 31.031 158.717 50.486 158.717H110.901L110.902 58.3028L282.032 229.431L292.783 218.681L110.927 36.8248C111.171 25.1778 120.704 15.7738 132.409 15.7738H187.488L303.02 131.305L313.771 120.555L208.99 15.7729H230.497L496.795 282.073V350.72ZM496.796 260.57L252.001 15.7729H360.552L414.372 69.5928L425.123 58.8428L382.053 15.7729H475.289C487.148 15.7729 496.796 25.4208 496.796 37.2778V260.57Z" fill="rgba(0,0,0,.4)"/>
<path d="M367.36 174.129L328.12 134.89L317.37 145.64L356.61 184.88L367.36 174.129Z" fill="rgba(0,0,0,.4)"/>
</svg>
