<svg width="30" height="42" viewBox="0 0 30 42" fill="none" xmlns="http://www.w3.org/2000/svg">
<path d="M23.302 5.00095V1.8713C23.302 0.839426 22.4625 0 21.4307 0H8.44126C7.40947 0 6.56997 0.839426 6.56997 1.8713V5.00104L0 14.6344V42H29.8721V14.6344L23.302 5.00095ZM7.8175 1.8713C7.8175 1.52734 8.09731 1.24753 8.44126 1.24753H9.48339V3.11005H10.7309V1.24753H11.8979V3.11005H13.1454V1.24753H14.3123V3.11005H15.5599V1.24753H16.7267V3.11005H17.9742V1.24753H19.1411V3.11005H20.3886V1.24753H21.4307C21.7747 1.24753 22.0545 1.52734 22.0545 1.8713V4.56963H7.8175V1.8713ZM13.1398 40.7525H1.24753V15.0193L7.19373 6.30041L13.1398 15.0193V40.7525ZM28.6245 40.7525H14.3873V15.4506H22.726V14.2031H14.0932L8.37408 5.81716H22.3487L28.0678 14.2031H24.3894V15.4507H28.6245V40.7525Z" fill="black" fill-opacity="0.3"/>
<path d="M15.8285 31.2836H27.1832V19.929H15.8285V31.2836ZM17.076 21.1764H25.9357V30.0361H17.076V21.1764Z" fill="black" fill-opacity="0.3"/>
<path d="M27.1834 32.5312H15.8284V33.7788H27.1834V32.5312Z" fill="black" fill-opacity="0.3"/>
<path d="M27.1834 35.0264H15.8284V36.2739H27.1834V35.0264Z" fill="black" fill-opacity="0.3"/>
</svg>
