<svg width="37" height="37" viewBox="0 0 37 37" fill="none" xmlns="http://www.w3.org/2000/svg">
<path d="M33.8841 13.2484H32.2625V11.9115V10.8867C32.2625 7.11141 29.191 4.03981 25.4156 4.03981H21.4482V3.29704C21.4481 1.47902 19.9691 0 18.1511 0C16.3331 0 14.854 1.47902 14.854 3.29704V4.03981H10.8866C7.11114 4.03981 4.03963 7.11141 4.03963 10.8867V11.9115V13.2484H2.41813C1.08483 13.2484 0 14.3332 0 15.6665C0 16.9999 1.08483 18.0847 2.41813 18.0847H4.03972V31.9038C4.03972 34.4833 6.13828 36.582 8.71796 36.582H27.5844C30.164 36.582 32.2626 34.4834 32.2626 31.9038V18.0846H33.8842C35.2175 18.0846 36.3023 16.9998 36.3023 15.6664C36.3023 14.3332 35.2174 13.2484 33.8841 13.2484ZM16.1908 3.29704C16.1908 2.21607 17.0702 1.33664 18.1512 1.33664C19.2321 1.33664 20.1116 2.21607 20.1116 3.29704V4.03981H16.1908V3.29704ZM4.03972 16.7479H2.41813V16.748C1.8218 16.748 1.33664 16.2628 1.33664 15.6664C1.33664 15.07 1.8218 14.5849 2.41813 14.5849H4.03972V16.7479ZM30.9259 13.2484V18.0846V31.9037C30.9259 33.7463 29.4269 35.2453 27.5843 35.2453H8.71796C6.87533 35.2453 5.37636 33.7463 5.37636 31.9037V18.0846V13.2484V11.9115H9.62631V10.5748H5.38567C5.38857 10.5222 5.39323 10.4701 5.39763 10.4179C5.40044 10.3838 5.40237 10.3494 5.40589 10.3155C5.41266 10.25 5.42171 10.185 5.43076 10.1202C5.43428 10.0952 5.43674 10.0699 5.44061 10.0449C5.4682 9.86528 5.50459 9.68854 5.54924 9.51495C5.55513 9.4921 5.56225 9.46978 5.5684 9.44701C5.58562 9.38356 5.60285 9.32019 5.62228 9.25778C5.63142 9.22825 5.64196 9.19942 5.65163 9.17007C5.66974 9.11514 5.68758 9.06012 5.70735 9.0058C5.71904 8.97381 5.73205 8.94234 5.74436 8.91062C5.76387 8.86008 5.78312 8.80928 5.80403 8.75953C5.81783 8.72657 5.83304 8.69432 5.84754 8.66162C5.86863 8.61399 5.88964 8.56608 5.91205 8.51906C5.92787 8.48593 5.94492 8.4535 5.96145 8.42071C5.98439 8.37519 6.00706 8.32975 6.03114 8.28492C6.0489 8.25205 6.06771 8.2198 6.08607 8.18719C6.11068 8.14368 6.13512 8.1 6.16087 8.05737C6.18047 8.02477 6.20095 7.99286 6.22116 7.96078C6.24735 7.91912 6.27354 7.87746 6.30079 7.83659C6.32206 7.80478 6.34421 7.7734 6.36609 7.74193C6.39396 7.70203 6.4219 7.66213 6.45073 7.62293C6.47376 7.59182 6.49731 7.56132 6.52096 7.53073C6.5504 7.4925 6.57993 7.45453 6.61034 7.41709C6.63486 7.38686 6.66009 7.35732 6.68522 7.32762C6.71625 7.29106 6.74754 7.25467 6.77944 7.2189C6.80546 7.18972 6.832 7.16124 6.85855 7.13268C6.89106 7.09778 6.92394 7.06307 6.95734 7.02905C6.98476 7.0011 7.01279 6.97351 7.04074 6.94608C7.07476 6.91286 7.10912 6.88008 7.14393 6.84774C7.17275 6.82084 7.20211 6.79447 7.23164 6.76828C7.26706 6.73682 7.30274 6.70579 7.33896 6.67529C7.36928 6.6498 7.39969 6.62458 7.43054 6.59962C7.46728 6.56991 7.50437 6.54082 7.54189 6.51199C7.57345 6.48782 7.60509 6.46392 7.63717 6.44045C7.67531 6.41259 7.7139 6.38525 7.75274 6.35827C7.78544 6.3356 7.81831 6.31301 7.85153 6.29104C7.89091 6.26493 7.93072 6.23962 7.9708 6.21448C8.00464 6.19339 8.03865 6.17212 8.07302 6.15164C8.11362 6.12738 8.15484 6.104 8.19615 6.0808C8.23096 6.06111 8.26594 6.0416 8.30118 6.02271C8.34311 6.00038 8.38547 5.97902 8.42801 5.95775C8.46395 5.93974 8.49973 5.92172 8.53611 5.90449C8.57918 5.8841 8.62269 5.86485 8.66637 5.84552C8.70319 5.82917 8.73976 5.81282 8.77702 5.79727C8.82141 5.77881 8.86632 5.76158 8.91123 5.74427C8.94867 5.72985 8.98603 5.71509 9.02373 5.70147C9.06935 5.68494 9.11558 5.66991 9.16189 5.65471C9.19995 5.64205 9.23774 5.62913 9.27615 5.61735C9.32309 5.60303 9.37072 5.59011 9.41818 5.57692C9.45668 5.56629 9.49482 5.55513 9.53367 5.54528C9.58219 5.53298 9.63132 5.52234 9.68036 5.51136C9.71895 5.50274 9.75718 5.49343 9.79603 5.48561C9.84674 5.47532 9.89807 5.46697 9.94922 5.4581C9.9871 5.45159 10.0247 5.4443 10.0629 5.4385C10.117 5.43032 10.1719 5.42417 10.2266 5.41767C10.2624 5.41336 10.2978 5.40817 10.3338 5.40448C10.3947 5.39842 10.4562 5.39455 10.5177 5.39051C10.5482 5.38857 10.5783 5.38532 10.6088 5.38383C10.701 5.37917 10.7938 5.3768 10.8872 5.3768H14.8542H21.4483H25.4157C25.5091 5.3768 25.6018 5.37917 25.694 5.38383C25.7246 5.38541 25.7547 5.38857 25.7852 5.39051C25.8466 5.39464 25.9081 5.39842 25.969 5.40448C26.0051 5.40817 26.0404 5.41345 26.0763 5.41767C26.131 5.42417 26.1859 5.43041 26.2401 5.4385C26.2782 5.44421 26.3159 5.4515 26.3537 5.4581C26.4049 5.46697 26.4562 5.47532 26.5069 5.48561C26.5458 5.49343 26.584 5.50274 26.6226 5.51136C26.6716 5.52243 26.7208 5.53298 26.7693 5.54528C26.808 5.55513 26.8463 5.56629 26.8848 5.57692C26.9322 5.59011 26.9799 5.60303 27.0268 5.61735C27.0652 5.62913 27.103 5.64205 27.1411 5.65471C27.1872 5.66991 27.2335 5.68512 27.2791 5.70147C27.3169 5.71509 27.3543 5.72977 27.3917 5.74427C27.4366 5.76158 27.4816 5.77881 27.5259 5.79727C27.5631 5.81273 27.5999 5.82917 27.6366 5.84552C27.6803 5.86485 27.7239 5.88419 27.7668 5.90449C27.8032 5.92172 27.839 5.93974 27.875 5.95775C27.9175 5.97902 27.9599 6.00047 28.0018 6.02271C28.0372 6.0416 28.072 6.0612 28.1068 6.0808C28.1481 6.104 28.1893 6.1273 28.2299 6.15164C28.2643 6.17212 28.2982 6.1933 28.3322 6.21448C28.3721 6.23962 28.412 6.26493 28.4514 6.29104C28.4846 6.31301 28.5174 6.3356 28.5502 6.35827C28.5891 6.38525 28.6276 6.41241 28.6658 6.44045C28.6979 6.464 28.7295 6.48782 28.7611 6.51199C28.7986 6.54073 28.8358 6.56991 28.8724 6.59962C28.9033 6.62449 28.9339 6.6498 28.964 6.67529C29.0002 6.70588 29.0359 6.73691 29.0713 6.76828C29.1008 6.79447 29.13 6.82084 29.159 6.84774C29.1938 6.87999 29.2282 6.91277 29.2622 6.94608C29.2903 6.97351 29.3182 7.00102 29.3456 7.02905C29.379 7.06307 29.4119 7.09778 29.4444 7.13268C29.471 7.16115 29.4975 7.18981 29.5235 7.2189C29.5555 7.25458 29.5867 7.29106 29.6177 7.32762C29.6429 7.35732 29.6681 7.38686 29.6926 7.41709C29.723 7.45453 29.7526 7.49259 29.782 7.53073C29.8056 7.56141 29.8292 7.59199 29.8522 7.62293C29.8811 7.66204 29.909 7.70194 29.9369 7.74193C29.9587 7.7734 29.9809 7.80469 30.0022 7.83659C30.0294 7.87746 30.0556 7.91912 30.0818 7.96078C30.102 7.99286 30.1225 8.02477 30.1421 8.05737C30.1678 8.10009 30.1923 8.14368 30.2169 8.18719C30.2353 8.21971 30.2541 8.25205 30.2718 8.28492C30.2959 8.32975 30.3186 8.37527 30.3415 8.42071C30.358 8.4535 30.375 8.48593 30.3909 8.51906C30.4133 8.566 30.4343 8.6139 30.4554 8.66162C30.4698 8.69423 30.485 8.72657 30.4989 8.75953C30.5198 8.80945 30.5391 8.86017 30.5586 8.91062C30.5709 8.94234 30.5839 8.97381 30.5956 9.0058C30.6153 9.05994 30.6332 9.11514 30.6513 9.17007C30.6609 9.19942 30.6715 9.22825 30.6807 9.25778C30.7 9.32027 30.7174 9.38364 30.7346 9.44701C30.7407 9.46969 30.7478 9.4921 30.7537 9.51495C30.7984 9.68854 30.8348 9.86546 30.8624 10.0449C30.8662 10.0698 30.8686 10.0951 30.8722 10.1202C30.8812 10.1851 30.8903 10.25 30.8971 10.3155C30.9006 10.3495 30.9024 10.3839 30.9053 10.4179C30.9098 10.4701 30.9143 10.5222 30.9173 10.5748H11.4091V11.9115H30.9262V13.2484H30.9259ZM33.8841 16.748H32.2625V14.585H33.8841C34.4805 14.585 34.9656 15.0701 34.9656 15.6665C34.9656 16.2629 34.4805 16.748 33.8841 16.748Z" fill="black" fill-opacity="0.3"/>
</svg>
